<?xml version="1.0" standalone="no"?>
<!DOCTYPE svg PUBLIC "-//W3C//DTD SVG 1.1//EN" "http://www.w3.org/Graphics/SVG/1.1/DTD/svg11.dtd" >
<svg xmlns="http://www.w3.org/2000/svg">
<metadata>Generated by IcoMoon</metadata>
<defs>
<font id="icomoon" horiz-adv-x="1024">
<font-face units-per-em="1024" ascent="960" descent="-64" />
<missing-glyph horiz-adv-x="1024" />
<glyph unicode="&#x20;" horiz-adv-x="512" d="" />
<glyph unicode="&#xe900;" glyph-name="arm-1" d="M981.117-31.946c-124.822 49.639-235.638 156.475-253.995 294.656-1.018 7.682 5.060 18.202 12.957 23.354 4.751 3.116 9.533 6.201 14.407 9.379 25.020 15.549 48.374 36.712 72.253 56.426 22.429 22.398 45.443 43.962 64.848 69.538 81.045 106.96 139.785 247.115 131.671 384.247-1.882 31.653-7.281 63.152-16.845 94.033-1.789 6.448-3.363 12.063-4.689 16.752-2.591 9.255-7.497 9.564-10.983 0.74-1.758-4.473-3.856-9.841-6.324-16.012-3.548-9.996-9.039-21.781-16.351-34.707-44.271-77.867-167.674-231.566-275.467-203.029-26.1 6.911-42.667 47.263-58.617 67.286-46.986 59.018-105.078 110.261-170.142 148.577-115.32 67.903-273.678 103.659-404.701 63.213-6.448-1.789-12.063-3.363-16.752-4.689-10.582-2.962-16.721-4.658-16.721-4.658s11.631-4.597 31.992-12.649c9.996-3.61 21.781-9.070 34.707-16.382 56.488-32.085 105.787-71.080 143.672-124.699 32.085-45.443 97.087-139.631 32.177-179.953-154.007-95.668-275.652-292.62-267.847-478.064 0.463-11.075 0.926-21.75 1.357-32.023 0.37-20.084 3.455-38.348 6.108-54.143 2.129-15.734 5.090-29.092 8.484-40.013 1.789-6.448 3.363-12.063 4.689-16.752 2.591-9.286 7.497-9.595 10.983-0.74 1.758 4.504 3.887 9.841 6.324 16.012 3.61 9.996 9.070 21.812 16.413 34.707 6.818 12.957 14.222 27.18 24.804 41.463 34.491 46.585 76.325 88.665 126.272 118.591 26.377 15.857 119.701 67.81 144.228 30.203 95.514-146.541 241.377-247.825 414.666-276.269 13.019-2.129 25.668-3.795 38.286-4.103 11.847-0.648 23.354-1.265 34.46-1.882 11.075 0.494 21.75 0.895 32.054 1.357 20.053 0.401 38.317 3.455 54.112 6.108 15.734 2.098 29.092 5.090 40.013 8.484 6.448 1.789 12.094 3.332 16.752 4.658 9.163 2.591 9.502 7.466 0.74 10.983zM511.26 347.149c-53.65 0-97.087 42.296-99.772 95.267-0.093 1.697-0.494 3.332-0.494 5.060 0 55.408 44.919 100.296 100.265 100.296 53.68 0 97.118-42.266 99.833-95.267 0.062-1.697 0.494-3.332 0.494-5.060 0-55.408-44.888-100.296-100.327-100.296z" />
<glyph unicode="&#xe901;" glyph-name="arm-2" d="M1019.048-8.316l-125.28 249.193c-13.101 24.512-41.597 36.481-68.271 28.674-13.789-3.324-28.004-4.532-42.157-3.584-81.63 5.47-145.867 71.848-148.662 153.612-0.854 58.031 59.227 117.257 59.739 117.769 19.165 19.89 24.178 49.496 12.631 74.588l-164.197 325.657c-5.734 16.967-24.138 26.074-41.105 20.34-9.581-3.238-17.103-10.759-20.34-20.34l-163.683-325.487c-11.549-25.092-6.535-54.696 12.631-74.588 0 0 60.591-59.739 59.739-117.769-2.794-81.764-67.033-148.142-148.662-153.612-14.153-1.072-28.388 0.138-42.157 3.584-26.676 7.807-55.17-4.162-68.271-28.674l-125.794-249.363c-6.883-11.799-6.947-26.372-0.17-38.233 7.683-11.185 20.578-17.631 34.137-17.067h262.847c27.354 1.074 51.98 16.881 64.347 41.305 0 1.194 60.763 132.276 145.249 132.276s144.565-131.082 145.249-132.276c12.453-24.58 37.319-40.415 64.859-41.305h262.847c13.557-0.564 26.452 5.884 34.137 17.067 6.933 11.769 7.063 26.344 0.338 38.233zM527.317 206.913c-4.958-0.878-9.983-1.334-15.019-1.366-20.874-0.020-40.895 8.271-55.642 23.042-30.34 30.18-30.47 79.244-0.29 109.585 11.041 11.099 25.186 18.593 40.569 21.498 42.183 8.389 83.18-19.005 91.569-61.189 8.393-42.183-19.003-83.18-61.187-91.569z" />
<glyph unicode="&#xe902;" glyph-name="heart-1" d="M1022.306 640.139c-14.947 164.519-131.395 283.881-277.126 283.881-97.089 0-185.985-52.247-236.006-135.983-49.568 84.82-134.821 136.003-230.354 136.003-145.712 0-262.179-119.362-277.106-283.881-1.182-7.267-6.026-45.512 8.705-107.881 21.23-89.96 70.266-171.786 141.773-236.577l356.747-323.741 362.871 323.721c71.507 64.811 120.544 146.618 141.773 236.597 14.731 62.349 9.886 100.594 8.724 107.861z" />
<glyph unicode="&#xe903;" glyph-name="menu2" d="M1024 832c0 25.6-17.067 42.667-42.667 42.667h-938.667c-25.6 0-42.667-17.067-42.667-42.667v-85.333c0-25.6 17.067-42.667 42.667-42.667h938.667c25.6 0 42.667 17.067 42.667 42.667v85.333zM1024 490.667c0 25.6-17.067 42.667-42.667 42.667h-938.667c-25.6 0-42.667-17.067-42.667-42.667v-85.333c0-25.6 17.067-42.667 42.667-42.667h938.667c25.6 0 42.667 17.067 42.667 42.667v85.333zM1024 149.333c0 25.6-17.067 42.667-42.667 42.667h-938.667c-25.6 0-42.667-17.067-42.667-42.667v-85.333c0-25.6 17.067-42.667 42.667-42.667h938.667c25.6 0 42.667 17.067 42.667 42.667v85.333z" />
<glyph unicode="&#xe904;" glyph-name="ninja-1" d="M852.615 371.643c-3.173 4.052-20.819 24.593-56.16 38.070-14.415 4.461-49.342 8.922-86.291 16.29l27.678 42.033 13.21-8.667c8.751-5.742 20.5-3.303 26.242 5.444l-27.855 18.283 16.679 25.418-42.101-8.736-47.39 31.1c-5.742-8.751-3.301-20.5 5.448-26.246l10.46-6.863-38.058-57.795c-21.909 7.118-40.801 16.025-51.755 27.53-4.409 4.625-10.67 18.573-6.616 42.518 70.768 42.862 120.005 136.224 120.005 232.384 0.002 131.006-52.092 217.593-204.106 217.593s-204.11-86.587-204.11-217.591c0-96.159 49.235-189.521 120.005-232.384 4.054-23.945-2.209-37.893-6.616-42.518-10.956-11.505-29.843-20.412-51.755-27.53l-38.058 57.795 10.46 6.863c8.751 5.744 11.192 17.494 5.448 26.246l-47.39-31.1-42.101 8.736 16.681-25.418-27.855-18.283c5.742-8.747 17.491-11.186 26.244-5.444l13.208 8.667 27.678-42.033c-36.947-7.369-71.876-11.83-86.291-16.29-35.339-13.477-52.982-34.018-56.158-38.070-64.987-96.476-72.352-312.936-72.409-315.087 0.58-28.805 9.14-38.646 12.093-39.857 144.656-64.36 314.937-80.699 398.468-80.699 0.794 0 1.645 0.012 2.451 0.014 0.808-0.002 1.66-0.014 2.449-0.014 83.531 0 253.812 16.34 398.468 80.699 2.955 1.211 11.515 11.052 12.095 39.857-0.047 2.149-7.412 218.609-72.397 315.085zM408.418 682.136c-55.781 0-78.46 35.129-78.46 78.46 0 43.333 35.129 78.46 78.46 78.46h207.183c43.333 0 78.458-35.129 78.458-78.46s-22.678-78.46-78.458-78.46c-47.639 0-48.423 51.882-103.591 51.882s-55.952-51.882-103.591-51.882zM899.882 712.339l2.916-1.915c6.445-4.23 15.098-2.433 19.324 4.010 4.228 6.443 2.433 15.096-4.010 19.324l-50.79 33.331c-6.443 4.228-15.098 2.435-19.324-4.012-4.233-6.443-2.435-15.093 4.012-19.324l2.914-1.913-9.026-13.75 22.779 4.726 29.117-19.11-71.004-14.74-25.93-39.516 74.46 15.453 24.562 37.434zM785.232 537.634l25.932 39.516-74.457-15.453-25.932-39.518zM856.21 645.787l-74.46-15.453-25.934-39.518 74.457 15.453zM121.221 710.424l2.916 1.915 24.564-37.434 74.46-15.453-25.934 39.516-71.004 14.74 29.117 19.11 22.779-4.726-9.024 13.75 2.916 1.913c6.443 4.233 8.241 12.883 4.012 19.324-4.228 6.447-12.883 8.241-19.326 4.012l-50.79-33.331c-6.441-4.228-8.239-12.883-4.010-19.324 4.23-6.445 12.883-8.241 19.324-4.010zM238.787 537.634l74.46-15.455-25.932 39.518-74.457 15.453zM193.747 606.269l74.457-15.453-25.934 39.518-74.457 15.453z" />
<glyph unicode="&#xe905;" glyph-name="ninja-2" d="M653.009 417.083c96.849 0 179.848 60.185 213.73 145.091h-427.46c33.882-84.909 116.884-145.091 213.73-145.091zM653.009 877.211c-70.201 0-133.12-31.641-175.356-81.372h350.708c-42.232 49.731-105.148 81.372-175.352 81.372zM379.825 706.869c7.644 34.981 21.794 67.56 41.208 96.328-3.093 4.703-6.509 9.44-10.306 14.115-33.313 41.001-81.548 61.685-143.636 61.685-0.979 0-1.962-0.003-2.948-0.017 0.993-30.265 8.020-80.941 40.277-121.025 18.715-23.242 43.973-40.308 75.404-51.086zM879.078 604.693c2.582 13.771 3.993 27.948 3.993 42.456 0 38.284-9.45 74.383-26.065 106.172h-407.997c-16.612-31.789-26.065-67.887-26.065-106.172 0-14.508 1.414-28.686 3.993-42.456h452.143zM755.822 701.231h34.754c11.74 0 21.259-9.519 21.259-21.259s-9.519-21.259-21.259-21.259h-34.754c-11.74 0-21.259 9.519-21.259 21.259s9.519 21.259 21.259 21.259zM515.441 701.231h34.754c11.74 0 21.259-9.519 21.259-21.259s-9.519-21.259-21.259-21.259h-34.754c-11.74 0-21.259 9.519-21.259 21.259s9.516 21.259 21.259 21.259zM177.121 698.132v-207.417l145.611 61.805zM457.114 412.794h5.341l-43.946 43.946-161.692-68.629 41.346-41.346c40.701 40.77 96.932 66.029 158.951 66.029zM347.053 528.2l-161.689-68.629 47.135-47.135 161.692 68.625zM5.189 639.743l63.988-63.988v153.028l-63.988-63.988c-6.92-6.916-6.92-18.135 0-25.052zM100.693 758.551c0.234-1.086 0.372-2.21 0.372-3.369v-211.316l44.166-44.166v230.321l-24.883 24.883c-5.317 5.32-13.164 6.509-19.656 3.648zM848.903 363.191h-391.789c-96.549 0-175.097-78.548-175.097-175.094v-171.094h741.983v171.094c0 96.546-78.548 175.094-175.097 175.094z" />
<glyph unicode="&#xe906;" glyph-name="pen" d="M982.64 914.252c-59.48 59.478-148.356 48.604-210.034 35.254-80.348-17.394-178.902-55.32-293.018-99.234-11.728-4.514-23.638-9.098-35.732-13.738-0.474-0.182-0.946-0.374-1.412-0.572-4.296-1.84-105.872-45.448-164.762-81.766-174.134-107.388-211.216-250.716-211.662-352.040-0.22-50.27 8.406-101.616 25.624-152.982-58.852-100.208-91.62-195.794-91.62-273.176 0-22.090 17.906-39.998 39.998-39.998s39.998 17.908 39.998 39.998c0 48.014 18.844 119.684 65.542 206.174 18.15-9.902 43.988-21.572 76.72-30.222 25.544-6.748 57.582-12.11 94.918-12.11 50.328 0 110.276 9.75 176.828 38.98 29.344 12.888 58.050 28.15 85.32 45.368 18.68 11.792 24.262 36.494 12.47 55.176-11.794 18.682-36.492 24.258-55.176 12.47-23.912-15.098-49.074-28.476-74.786-39.77-74.676-32.798-147.168-40.782-215.466-23.714-25.484 6.368-45.672 15.232-59.61 22.578 26.478 40.264 58.54 82.854 96.932 127.078 111.954 128.954 315.214 313.468 651.754 468.166 11.742-18.476 14.924-47.558-14.37-104.736-15.078-29.43-36.288-61.536-61.712-96.278-0.796-0.314-1.596-0.606-2.38-0.974-45.966-21.548-136.612-27.678-167.682-28.222-22.088-0.368-39.696-18.572-39.326-40.658 0.364-21.864 18.2-39.332 39.978-39.332 0.226 0 0.454 0.002 0.68 0.006 7.168 0.12 45.264 1.026 89.736 7.106-6.354-7.968-12.808-16.040-19.348-24.216-17.094-21.38-34.698-43.422-52.478-66.018-58.816-13.238-117.518-18.626-183.518-16.888-0.36 0.010-0.716 0.014-1.072 0.014-21.602 0-39.392-17.222-39.964-38.946-0.58-22.084 16.85-40.456 38.932-41.038 8.772-0.23 17.426-0.348 25.982-0.348 67.814 0 129.422 7.294 191.936 22.61 0.39 0.096 0.758 0.236 1.142 0.342 0.766 0.212 1.53 0.426 2.284 0.684 0.54 0.184 1.060 0.394 1.586 0.6 0.69 0.268 1.376 0.54 2.054 0.848 0.552 0.25 1.086 0.526 1.624 0.8 0.62 0.316 1.236 0.636 1.84 0.988 0.55 0.318 1.082 0.66 1.614 1.002 0.558 0.36 1.112 0.72 1.654 1.11s1.064 0.802 1.584 1.218c0.494 0.394 0.986 0.786 1.462 1.206 0.538 0.472 1.046 0.966 1.556 1.464 0.422 0.414 0.848 0.822 1.256 1.258 0.526 0.562 1.016 1.15 1.508 1.74 0.268 0.322 0.558 0.612 0.818 0.944 20.488 26.182 40.92 51.74 60.682 76.454 71.456 89.374 133.17 166.562 168.768 236.050 20.77 40.538 31.124 75.83 31.658 107.89 0.662 39.218-13.24 73.332-41.31 101.4zM223.31 430.45c-26.086-30.050-50.212-60.408-72.2-90.714-3.476 20.916-5.182 41.64-5.092 62.068 0.478 109.27 50.73 199.41 149.388 268.34-0.178-0.444-0.354-0.874-0.532-1.322-8.206-20.51 1.772-43.788 22.282-51.992 4.874-1.95 9.896-2.872 14.844-2.872 15.874 0 30.892 9.516 37.148 25.152 17.994 44.98 30.256 66.214 48.698 98.018 28.398 13.3 51.252 23.208 55.412 25 11.864 4.552 23.55 9.050 35.062 13.48 121.176 46.634 227.038 87.366 304.574 100.13-296.956-151.036-482.76-322.236-589.584-445.288z" />
<glyph unicode="&#xe907;" glyph-name="thunder-1" d="M800.536 608.802c-2.798 6.008-8.824 9.864-15.462 9.864h-202.24l199.594 315.136c3.328 5.256 3.532 11.912 0.53 17.356-3.004 5.462-8.74 8.842-14.952 8.842h-273.066c-6.468 0-12.374-3.652-15.274-9.438l-256-512c-2.646-5.274-2.356-11.554 0.75-16.588 3.124-5.034 8.602-8.106 14.524-8.106h175.496l-191.232-454.178c-3.26-7.766-0.358-16.776 6.826-21.18 2.764-1.69 5.836-2.508 8.892-2.508 4.898 0 9.728 2.1 13.074 6.058l546.134 648.534c4.282 5.084 5.204 12.184 2.406 18.208z" />
<glyph unicode="&#xe908;" glyph-name="thunder-2" d="M730.248 512.928c-5.338 9.362-15.288 15.14-26.062 15.14h-142.186v228.352c0 13.518-9.042 25.366-22.078 28.936-13.040 3.566-26.852-2.022-33.738-13.656l-212.186-358.488c-5.488-9.274-5.582-20.778-0.246-30.14 5.338-9.362 15.288-15.14 26.062-15.14h142.186v-228.352c0-13.518 9.042-25.366 22.078-28.936 13.066-3.574 26.866 2.044 33.738 13.656l212.186 358.49c5.488 9.272 5.582 20.776 0.246 30.138zM522 249.162v148.768c0 16.568-13.432 30-30 30h-119.568l129.568 218.908v-148.768c0-16.568 13.432-30 30-30h119.568l-129.568-218.908zM137.948 478h-107.948c-16.568 0-30-13.432-30-30s13.432-30 30-30h107.948c16.568 0 30 13.432 30 30s-13.432 30-30 30zM994 478h-107.948c-16.568 0-30-13.432-30-30s13.432-30 30-30h107.948c16.568 0 30 13.432 30 30s-13.432 30-30 30zM339.958 149.608c-14.35 8.276-32.696 3.35-40.974-11.004l-53.974-93.614c-8.276-14.354-3.348-32.698 11.006-40.974 14.35-8.276 32.698-3.35 40.974 11.004l53.974 93.614c8.276 14.354 3.348 32.698-11.006 40.974zM767.984 891.984c-14.35 8.276-32.696 3.352-40.974-11.004l-53.974-93.614c-8.276-14.354-3.348-32.698 11.006-40.974 14.35-8.276 32.698-3.35 40.974 11.004l53.974 93.614c8.276 14.354 3.348 32.698-11.006 40.974zM778.99 44.99l-53.974 93.614c-8.278 14.356-26.624 19.28-40.974 11.004-14.354-8.276-19.282-26.62-11.006-40.974l53.974-93.614c8.274-14.35 26.618-19.282 40.974-11.004 14.354 8.276 19.282 26.62 11.006 40.974zM350.964 787.366l-53.974 93.614c-8.278 14.356-26.624 19.282-40.974 11.004-14.354-8.276-19.282-26.62-11.006-40.974l53.974-93.614c8.274-14.35 26.618-19.282 40.974-11.004 14.354 8.276 19.282 26.62 11.006 40.974z" />
<glyph unicode="&#xe909;" glyph-name="thunder-3" d="M730.248 512.928c-5.338 9.36-15.286 15.14-26.062 15.14h-142.186v228.352c0 13.518-9.042 25.366-22.078 28.936-13.038 3.564-26.852-2.024-33.738-13.656l-212.186-358.488c-5.488-9.274-5.582-20.778-0.246-30.14 5.338-9.36 15.286-15.14 26.062-15.14h142.186v-228.352c0-13.518 9.040-25.366 22.078-28.936 13.068-3.576 26.866 2.044 33.738 13.654l212.186 358.49c5.488 9.274 5.582 20.778 0.246 30.14zM137.948 478h-107.948c-16.568 0-30-13.432-30-30s13.432-30 30-30h107.948c16.568 0 30 13.432 30 30s-13.432 30-30 30zM994 478h-107.948c-16.568 0-30-13.432-30-30s13.432-30 30-30h107.948c16.568 0 30 13.432 30 30s-13.432 30-30 30zM339.958 149.608c-14.348 8.278-32.694 3.35-40.974-11.004l-53.974-93.614c-8.276-14.354-3.348-32.698 11.006-40.974 14.35-8.276 32.696-3.35 40.974 11.004l53.974 93.614c8.276 14.354 3.348 32.698-11.006 40.974zM767.984 891.984c-14.348 8.278-32.694 3.352-40.974-11.004l-53.974-93.614c-8.276-14.354-3.348-32.698 11.006-40.974 14.35-8.276 32.696-3.35 40.974 11.004l53.974 93.614c8.276 14.354 3.348 32.698-11.006 40.974zM778.99 44.99l-53.974 93.614c-8.276 14.356-26.622 19.28-40.974 11.004-14.354-8.276-19.282-26.62-11.006-40.974l53.974-93.614c8.274-14.35 26.616-19.282 40.974-11.004 14.354 8.276 19.282 26.62 11.006 40.974zM350.964 787.366l-53.974 93.614c-8.276 14.354-26.622 19.282-40.974 11.004-14.354-8.276-19.282-26.62-11.006-40.974l53.974-93.614c8.274-14.35 26.616-19.282 40.974-11.004 14.354 8.276 19.282 26.62 11.006 40.974z" />
<glyph unicode="&#xe90a;" glyph-name="remove" d="M850.596 857.284h-182.91v69.324c0 18.44-14.95 33.392-33.392 33.392h-244.586c-18.44 0-33.392-14.95-33.392-33.392v-69.324h-182.91c-18.44 0-33.392-14.95-33.392-33.392v-102.714c0-18.44 14.95-33.392 33.392-33.392h677.186c18.44 0 33.392 14.95 33.392 33.392v102.714c0.002 18.444-14.948 33.392-33.388 33.392zM600.9 857.284h-177.8v35.934h177.8v-35.934zM186.384 621.006l27.688-653.032c0.756-17.874 15.47-31.976 33.36-31.976h529.136c17.89 0 32.604 14.102 33.36 31.978l27.686 653.030h-651.23zM411.060 71.79c0-18.44-14.95-33.392-33.392-33.392-18.44 0-33.392 14.95-33.392 33.392v413.428c0 18.44 14.95 33.392 33.392 33.392 18.44 0 33.392-14.95 33.392-33.392v-413.428zM545.386 71.79c0-18.44-14.95-33.392-33.392-33.392s-33.392 14.95-33.392 33.392v413.428c0 18.44 14.95 33.392 33.392 33.392s33.392-14.95 33.392-33.392v-413.428zM679.712 71.79c0-18.44-14.95-33.392-33.392-33.392s-33.392 14.95-33.392 33.392v413.428c0 18.44 14.95 33.392 33.392 33.392s33.392-14.95 33.392-33.392v-413.428z" />
<glyph unicode="&#xe90b;" glyph-name="arm-3" d="M948.572 590.809c-6.25 0-12.127-2.435-16.528-6.836-4.432-4.421-6.874-10.304-6.874-16.565s2.442-12.142 6.854-16.548c4.421-4.418 10.297-6.854 16.548-6.854s12.127 2.435 16.528 6.836c4.432 4.421 6.874 10.304 6.874 16.563 0 6.262-2.442 12.145-6.854 16.55-4.421 4.421-10.297 6.854-16.548 6.854zM996.225 642.339c-6.242 0-12.111-2.428-16.55-6.854-9.124-9.126-9.124-23.971-0.020-33.075 4.423-4.432 10.306-6.874 16.568-6.874 6.27 0 12.16 2.449 16.528 6.836 4.432 4.421 6.874 10.304 6.874 16.563 0 6.262-2.442 12.145-6.854 16.55-4.418 4.418-10.295 6.854-16.545 6.854zM1000.597 663.824c6.25 0 12.127 2.435 16.528 6.836 4.432 4.421 6.874 10.304 6.874 16.563 0 6.262-2.442 12.145-6.816 16.51-4.425 4.445-10.315 6.894-16.585 6.894-6.262 0-12.147-2.442-16.55-6.854-9.124-9.126-9.124-23.971 0.020-33.113 4.418-4.407 10.29-6.836 16.53-6.836zM853.238 815.633c6.242 0 12.111 2.428 16.588 6.894 9.060 9.104 9.060 23.915-0.058 33.077-4.418 4.405-10.288 6.834-16.53 6.834-6.239 0-12.109-2.428-16.585-6.894-9.060-9.104-9.060-23.915 0.058-33.075 4.418-4.407 10.288-6.836 16.528-6.836zM903.070 765.803c6.25 0 12.127 2.435 16.528 6.836 4.432 4.421 6.874 10.304 6.874 16.563 0 6.262-2.442 12.145-6.816 16.51-4.425 4.445-10.315 6.894-16.585 6.894-6.262 0-12.147-2.442-16.55-6.854-9.124-9.126-9.124-23.971 0.020-33.113 4.421-4.41 10.29-6.836 16.53-6.836zM952.908 715.964c6.25 0 12.127 2.435 16.528 6.836 4.432 4.421 6.874 10.304 6.874 16.563 0 6.262-2.442 12.145-6.816 16.51-4.425 4.445-10.315 6.894-16.585 6.894-6.262 0-12.147-2.442-16.55-6.854-9.124-9.126-9.124-23.971 0.020-33.113 4.418-4.407 10.288-6.836 16.53-6.836zM631.444 861.135c6.25 0 12.127 2.435 16.568 6.874 9.091 9.115 9.091 23.944-0.020 33.077-4.421 4.418-10.297 6.854-16.548 6.854-6.242 0-12.111-2.428-16.588-6.894-9.060-9.104-9.060-23.915 0.058-33.075 4.418-4.407 10.288-6.836 16.53-6.836zM682.972 908.788c6.262 0 12.145 2.442 16.548 6.854 9.124 9.126 9.124 23.971-0.020 33.113-4.418 4.407-10.288 6.836-16.528 6.836-6.242 0-12.111-2.428-16.53-6.836-4.432-4.421-6.874-10.304-6.874-16.565s2.442-12.142 6.836-16.528c4.423-4.432 10.306-6.874 16.568-6.874zM751.261 913.162c6.262 0 12.145 2.442 16.548 6.854 9.124 9.126 9.124 23.971-0.020 33.113-4.418 4.407-10.288 6.836-16.528 6.836-6.242 0-12.111-2.428-16.53-6.836-4.432-4.421-6.874-10.304-6.874-16.565s2.442-12.142 6.836-16.528c4.423-4.432 10.306-6.874 16.568-6.874zM803.401 865.471c6.239 0 12.109 2.428 16.585 6.894 9.060 9.104 9.060 23.915-0.058 33.075-4.418 4.407-10.288 6.836-16.528 6.836-6.242 0-12.111-2.428-16.568-6.874-9.091-9.115-9.091-23.944 0.040-33.097 4.416-4.405 10.286-6.834 16.528-6.834zM583.352 737.462l-1.229 1.231 47.838 47.835c4.174 4.176 6.52 9.836 6.52 15.74s-2.346 11.564-6.52 15.74l-64.639 64.637c-8.69 8.692-22.785 8.69-31.479 0l-47.838-47.838-1.229 1.229c-8.692 8.69-22.787 8.69-31.479 0l-96.944-96.944c-0.004-0.004-0.007-0.007-0.011-0.011s-0.007-0.007-0.011-0.011l-335.292-335.292c-21.761-21.763-26.927-51.911-14.168-82.716 16.125-38.936 56.574-68.303 94.090-68.307 0.002 0 0.004 0 0.009 0 19.067 0 36.401 7.252 50.121 20.971l432.258 432.258c8.692 8.694 8.694 22.787 0.002 31.479zM119.613 305.206c-5.338-5.338-11.435-7.931-18.642-7.931 0 0-0.002 0-0.004 0-19.548 0.002-43.802 18.696-52.964 40.821-5.77 13.93-4.249 25.436 4.516 34.201l319.564 319.564 67.092-67.092-319.561-319.564zM470.658 656.252l-67.092 67.092 65.476 65.476 1.218-1.218c0.004-0.002 0.007-0.007 0.011-0.011l16.16-16.16c4.347-4.345 10.043-6.52 15.74-6.52s11.395 2.175 15.74 6.52c8.692 8.692 8.692 22.787 0 31.481l-0.421 0.418 32.098 32.098 33.157-33.157-47.838-47.835c-8.692-8.692-8.694-22.787 0-31.481l1.229-1.229-65.478-65.474zM882.043 565.928c-4.174 4.174-9.836 6.52-15.74 6.52s-11.566-2.346-15.74-6.52l-47.838-47.838-1.226 1.229c-4.174 4.174-9.836 6.52-15.74 6.52s-11.566-2.346-15.74-6.52l-432.258-432.26c-21.763-21.763-26.927-51.913-14.168-82.72 16.125-38.934 56.574-68.301 94.088-68.303 0.004 0 0.004 0 0.009 0 19.070 0 36.403 7.252 50.124 20.971l335.292 335.292c0.004 0.004 0.007 0.007 0.011 0.011s0.007 0.007 0.011 0.011l96.946 96.946c4.174 4.176 6.52 9.836 6.52 15.74s-2.346 11.566-6.52 15.74l-1.226 1.226 47.838 47.838c8.692 8.692 8.692 22.787 0 31.481l-64.643 64.637zM436.332-11.513c-5.338-5.338-11.437-7.931-18.642-7.931h-0.002c-19.546 0.002-43.8 18.693-52.962 40.817-5.77 13.932-4.249 25.44 4.519 34.206l319.561 319.561 67.092-67.092-319.566-319.561zM867.363 453.451l-0.418 0.418c-8.692 8.69-22.787 8.69-31.479 0-8.692-8.694-8.692-22.787 0-31.481l16.138-16.136c0.007-0.009 0.013-0.018 0.020-0.024l1.226-1.226-65.476-65.476-67.092 67.092 65.476 65.476 1.226-1.229c4.174-4.174 9.836-6.52 15.74-6.52s11.566 2.346 15.74 6.52l47.838 47.838 33.157-33.157-32.096-32.093z" />
<glyph unicode="&#xe90c;" glyph-name="ninja-3" d="M420.864 589.808c0-36.417-29.522-65.939-65.939-65.939s-65.939 29.522-65.939 65.939c0 36.417 29.522 65.939 65.939 65.939s65.939-29.522 65.939-65.939zM735.046 589.808c0-36.417-29.522-65.939-65.939-65.939s-65.939 29.522-65.939 65.939c0 36.417 29.522 65.939 65.939 65.939s65.939-29.522 65.939-65.939zM512 944.485c-274.184 0-496.485-222.301-496.485-496.485 0-274.246 222.301-496.485 496.485-496.485s496.485 222.239 496.485 496.485c0 274.153-222.301 496.485-496.485 496.485zM736.97 421.593h-449.939c-85.675 0-155.152 69.477-155.152 155.152s69.477 155.152 155.152 155.152h449.939c85.675 0 155.152-69.477 155.152-155.152 0-85.706-69.477-155.152-155.152-155.152zM512-64c-282.314 0-512 229.686-512 512s229.686 512 512 512 512-229.686 512-512-229.686-512-512-512zM512 928.97c-265.216 0-480.97-215.754-480.97-480.97s215.754-480.97 480.97-480.97 480.97 215.754 480.97 480.97-215.754 480.97-480.97 480.97zM736.97 406.047h-449.939c-94.115 0-170.667 76.583-170.667 170.667s76.552 170.667 170.667 170.667h449.939c94.115 0 170.667-76.583 170.667-170.667s-76.552-170.667-170.667-170.667zM287.030 716.35c-76.986 0-139.636-62.65-139.636-139.636s62.65-139.636 139.636-139.636h449.939c76.986 0 139.636 62.65 139.636 139.636s-62.65 139.636-139.636 139.636h-449.939z" />
<glyph unicode="&#xe90d;" glyph-name="arm-4" d="M1022.115 715.914l-67.415 153.233c-3.341 7.593-10.63 12.7-18.908 13.247-8.283 0.539-16.177-3.557-20.487-10.645-144.5-237.61-345.251-440.235-581.26-587.006l-16.146 16.146c-8.691 8.691-22.788 8.691-31.481 0-8.693-8.693-8.693-22.788 0-31.484l8.381-8.383c-89.253-52.32-183.394-96.959-280.264-132.808-7.115-2.633-12.397-8.706-14.020-16.117-1.623-7.408 0.641-15.135 6.004-20.5l71.515-71.517c4.25-4.25 9.942-6.52 15.745-6.52 2.591 0 5.205 0.452 7.722 1.385 27.659 10.238 55.1 21.181 82.281 32.788 0.234 0.091 0.463 0.198 0.695 0.301 26.546 11.351 52.841 23.341 78.839 35.954 0.523 0.236 1.042 0.483 1.549 0.761 25.262 12.288 50.247 25.15 74.903 38.589 0.309 0.156 0.61 0.329 0.913 0.503 19.596 10.696 38.981 21.756 58.148 33.158l16.317-16.317c4.348-4.345 10.044-6.52 15.741-6.52s11.395 2.175 15.741 6.52c8.693 8.693 8.693 22.788 0 31.484l-7.653 7.653c109.183 61.148 212.297 133.725 306.848 216.071 101.944 88.783 194.088 189.013 273.875 297.908 4.697 6.409 5.619 14.839 2.418 22.118zM366.334 189.489c-10.841-6.355-21.758-12.595-32.741-18.721l-2.458 2.458c-8.691 8.688-22.786 8.691-31.481 0-6.373-6.373-8.054-15.643-5.084-23.565-11.907-6.258-23.886-12.379-35.936-18.363l-3.014 3.014c-8.693 8.691-22.788 8.691-31.481 0-6.035-6.037-7.869-14.67-5.527-22.296-12.595-5.868-25.262-11.569-37.986-17.136l-37.77 37.774c63.25 28.398 124.952 60.434 184.471 95.844l39.008-39.008zM99.384 61.694l-37.080 37.082c12.257 4.806 24.465 9.761 36.624 14.839l37.409-37.409c-12.27-4.975-24.585-9.821-36.953-14.512zM406.221 212.565l-39.851 39.854c226.159 142.463 420.252 335.113 564.536 560.259l45.263-102.885c-151.412-203.491-347.995-374.951-569.947-497.228z" />
<glyph unicode="&#xe90e;" glyph-name="arm-5" d="M457.177 552.13c-12.026 0-21.778-9.752-21.778-21.778v-115.236c0-36.025-29.309-65.334-65.334-65.334h-35.879l-11.412 523.58c-0.076 3.452-0.969 6.836-2.611 9.874l-35.28 65.334c-3.805 7.039-11.159 11.429-19.162 11.429s-15.36-4.39-19.162-11.429l-35.28-65.334c-1.642-3.040-2.535-6.422-2.611-9.874l-11.412-523.58h-35.879c-36.025 0-65.334 29.309-65.334 65.334v115.236c0 12.026-9.752 21.778-21.778 21.778s-21.778-9.752-21.778-21.778v-115.236c0-60.042 48.848-108.89 108.89-108.89h34.727l-10.196-330.009c-0.007-0.224-0.011-0.449-0.011-0.673 0-25.5 28.348-39.542 79.823-39.542s79.823 14.042 79.823 39.542c0 0.224-0.004 0.449-0.011 0.673l-10.196 330.009h34.727c60.042 0 108.89 48.848 108.89 108.89v115.236c0.004 12.026-9.748 21.778-21.774 21.778zM293.149 261.3c-11.708-0.366-21.094-9.948-21.094-21.743 0-12.026 9.752-21.778 21.778-21.778h0.66l1.387-44.928c-11.71-0.364-21.099-9.946-21.099-21.743 0-12.026 9.752-21.778 21.778-21.778h0.664l1.387-44.893h-65.787l6.851 221.792h52.082l1.392-44.928zM252.098 867.163l13.622 25.225 13.622-25.225 11.277-517.38h-49.798l11.277 517.38zM265.72-20.442c-17.39 0-29.627 2.25-36.003 4.199l1.764 57.122h68.479l1.764-57.122c-6.377-1.949-18.614-4.199-36.003-4.199zM862.627 589.774h-34.727l10.196 330.009c0.007 0.224 0.011 0.449 0.011 0.673 0 25.5-28.348 39.542-79.823 39.542s-79.823-14.042-79.823-39.542c0-0.224 0.004-0.449 0.011-0.673l10.192-330.009h-34.727c-60.042 0-108.89-48.848-108.89-108.89v-115.236c0-12.026 9.752-21.778 21.778-21.778s21.778 9.752 21.778 21.778v115.236c0 36.025 29.309 65.334 65.334 65.334h35.879l11.412-523.58c0.076-3.452 0.969-6.836 2.611-9.874l35.28-65.334c3.802-7.039 11.159-11.429 19.162-11.429s15.36 4.39 19.162 11.429l35.28 65.334c1.642 3.040 2.535 6.422 2.611 9.874l11.412 523.58h35.879c36.025 0 65.334-29.309 65.334-65.334v-115.236c0-12.026 9.752-21.778 21.778-21.778s21.778 9.752 21.778 21.778v115.236c0 60.042-48.848 108.89-108.89 108.89zM732.24 589.774l-1.387 44.926c11.708 0.366 21.094 9.948 21.094 21.743 0 12.026-9.752 21.778-21.778 21.778h-0.66l-1.387 44.928c11.71 0.364 21.099 9.946 21.099 21.743 0 12.026-9.752 21.778-21.778 21.778h-0.664l-1.387 44.893h65.787l-6.856-221.789h-52.082zM758.282 916.442c17.39 0 29.627-2.25 36.003-4.199l-1.764-57.122h-68.479l-1.764 57.122c6.374 1.949 18.611 4.199 36.003 4.199zM771.902 28.837l-13.622-25.225-13.622 25.225-11.274 517.38h49.795l-11.277-517.38z" />
<glyph unicode="&#xe90f;" glyph-name="fast" d="M231.947 268.376c35.462-2.864 69.543-0.844 117.636 6.034 49.78 7.159 98.716 17.514 144.584 27.485 24.698 5.369 49.396 10.917 74.018 16.491 68.367 15.366 139.036 31.269 209.474 43.056 44.769 7.466 104.008 16.082 165.344 16.363h5.037c27.945 0 52.873-1.023 75.961-3.145-45.587 21.016-87.441 37.456-127.965 50.266-28.968 9.102-67.268 19.661-106.974 19.712-10.074 0.026-14.778 6.903-16.542 9.46l-41.624 60.262c-0.358 0.537-2.122 3.145-2.403 3.707-1.892 3.835-1.994 8.361-0.23 12.375 1.508 3.477 5.829 7.415 9.434 8.463 0.946 0.281 1.892 0.511 2.838 0.69 48.962 9.051 107.179 18.741 167.927 21.911 38.198 1.969 76.728 1.253 115.36-2.173-47.172 21.758-90.432 38.658-132.72 51.953-54.689 17.207-104.034 21.656-152.561 13.73-56.785-9.23-117.329-20.71-190.554-36.101-36.306-7.619-72.56-15.545-108.815-23.471-68.009-14.855-138.371-30.221-208.068-43.286-25.925-4.883-56.12-10.304-86.622-12.809-21.068-1.687-41.956-0.537-62.921 0.639l-8.437 0.486c-22.934 1.227-47.095 3.452-73.046 6.648 11.454-5.113 23.19-10.048 35.078-14.752 80.307-31.78 148.393-47.607 214.28-49.805 10.508-0.332 15.494-7.645 17.156-10.074l45.305-65.657c0.767-0.869 1.585-1.918 2.224-3.094 1.943-3.452 2.275-9.076 0.767-12.733-1.841-4.423-5.753-7.849-10.431-9.076-0.358-0.102-2.991-0.69-3.349-0.767l-14.573-2.915c-14.164-2.864-28.303-5.753-42.493-8.386-50.368-9.434-102.679-19.278-156.191-15.264-29.684 2.173-58.856 4.5-87.85 7.9 30.042-13.5 60.723-25.312 91.813-35.309 49.115-15.801 94.957-25.235 140.135-28.814zM380.29 457.319c1.662 4.040 6.724 8.105 11.020 8.872l8.156 1.227c57.45 10.61 115.488 23.752 171.608 36.459l34.797 7.875c11.147 2.531 18.46-0.793 24.161-9.409 7.977-11.991 16.184-23.829 24.417-35.641l11.224-16.261c2.352-3.579 3.273-9.102 1.585-13.065-2.045-4.96-4.040-9.69-40.908-17.079-11.275-2.25-22.423-4.525-33.544-6.878-51.697-10.917-103.42-21.937-155.066-33.212-2.454-0.537-4.653-0.793-6.75-0.793-11.991 0-17.667 8.591-19.533 11.429-5.881 8.949-11.94 17.718-18.076 26.59-12.272 17.795-16.696 31.218-13.091 39.885zM896.444 272.39c40.985-13.167 82.301-29.377 127.428-50.24-8.667 0.741-17.923 1.432-28.022 1.943-38.351 2.122-77.162 1.713-114.261-1.508-39.808-3.452-81.56-9.255-131.391-18.383-61.669-11.224-123.797-25.184-183.881-38.709-24.11-5.42-48.246-10.841-72.432-16.107-43.848-9.537-94.829-20.326-145.172-27.536-46.763-6.724-80.691-8.693-115.897-5.983-42.953 3.324-86.622 11.991-133.462 26.488-33.11 10.278-66.041 22.755-98.818 37.533 25.363-3.145 49.115-5.318 71.793-6.596l7.875-0.46c19.891-1.176 39.808-2.301 59.7-0.997 30.783 2.020 60.876 7.389 91.582 13.167 70.975 13.397 142.666 29.070 211.954 44.206 38.632 8.437 77.265 16.874 115.974 24.979 61.515 12.886 121.957 24.212 179.483 33.749 48.936 8.054 99.508 3.145 157.546-15.545zM81.33 637.8c-27.485 9.255-54.586 19.891-81.304 31.908 29.914-3.528 59.265-5.881 87.134-7.9 51.927-3.784 103.267 4.986 151.001 14.088 68.137 13.014 136.939 28.022 203.491 42.544 40.831 8.897 81.662 17.82 122.57 26.334 62.052 12.912 119.246 23.65 174.855 32.777 49.038 8.079 99.559 3.145 156.984-15.366 40.857-13.116 83.043-29.735 127.658-50.317-23.496 2.122-49.32 3.145-78.901 3.145-42.263-0.077-88.233-4.142-144.635-12.784-76.191-11.684-152.382-28.789-226.041-45.331l-44.129-9.843c-59.112-13.116-120.243-26.692-180.992-35.488-46.993-6.801-81.279-8.821-116.996-5.957-48.348 3.835-97.667 14.394-150.694 32.189z" />
<glyph unicode="&#xe910;" glyph-name="arm-6" d="M664.848 281.501l-119.537 134.811c-4.64 5.234-11.562 7.86-18.516 7.016l-36.437-4.39v58.125l36.437-4.39c6.954-0.844 13.876 1.782 18.516 7.014l120.157 135.485c6.094 6.876 7.094 16.876 2.5 24.829s-13.75 12.078-22.748 10.234l-177.408-36.313c-6.86-1.39-12.594-6.078-15.344-12.514l-14.686-34.377-50.469 29.141 22.436 29.907c4.188 5.594 5.376 12.906 3.156 19.546l-57.247 171.78c-2.906 8.718-11.062 14.594-20.25 14.594-9.172 0-17.328-5.876-20.234-14.594l-57.265-171.78c-2.204-6.64-1.032-13.954 3.172-19.546l23.264-31.015-50.749-29.315-15.234 35.657c-2.75 6.436-8.484 11.124-15.344 12.514l-177.406 36.313c-9 1.844-18.156-2.282-22.75-10.234-4.594-7.954-3.578-17.954 2.516-24.829l120.141-135.485c4.64-5.234 11.562-7.858 18.516-7.014l39.171 4.718v-58.781l-39.171 4.718c-6.954 0.844-13.876-1.782-18.516-7.016l-120.141-135.497c-6.094-6.876-7.11-16.876-2.516-24.813s13.75-12.062 22.75-10.25l177.406 36.313c6.86 1.406 12.594 6.094 15.344 12.532l15.234 35.653 50.751-29.309-23.264-31.001c-4.204-5.624-5.376-12.938-3.172-19.562l57.265-171.782c2.906-8.718 11.062-14.594 20.234-14.594 9.188 0 17.344 5.876 20.25 14.594l57.251 171.782c2.218 6.624 1.032 13.938-3.156 19.562l-22.436 29.877 50.469 29.153 14.686-34.373c2.75-6.438 8.484-11.124 15.344-12.532l177.408-36.313c1.718-0.344 3.466-0.468 5.154-0.406 11.406 0.468 20.468 9.844 20.468 21.344 0 5.75-2.282 10.968-6 14.812zM487.312 321.622l-14.358 33.625c-1.812 4.25-4.954 7.75-8.938 10.062l-13.64 7.876c-6.594 3.812-14.734 3.812-21.328 0l-75.672-43.689c-6.594-3.812-10.672-10.844-10.672-18.464v-15.718c0-4.624 1.5-9.124 4.282-12.812l21.92-29.251-33.501-100.44-33.485 100.44 21.92 29.251c2.782 3.688 4.266 8.188 4.266 12.812v17.308c0 7.624-4.062 14.656-10.656 18.468l-74.296 42.907c-6.61 3.812-14.734 3.812-21.342 0l-15-8.688c-4-2.312-7.14-5.812-8.954-10.062l-14.342-33.625-103.764-21.246 70.266 79.248 36.283-4.376c4.592-0.562 9.218 0.406 13.218 2.718l15.688 9.062c6.61 3.812 10.672 10.844 10.672 18.468v85.004c0 7.624-4.062 14.656-10.672 18.468l-15.688 9.062c-4 2.312-8.624 3.25-13.218 2.704l-36.283-4.376-70.266 79.25 103.766-21.234 14.342-33.609c1.812-4.25 4.954-7.782 8.954-10.094l15-8.656c6.61-3.812 14.734-3.812 21.342 0l74.296 42.891c6.594 3.812 10.656 10.86 10.656 18.468v17.328c0 4.608-1.484 9.108-4.266 12.796l-21.92 29.235 33.485 100.468 33.501-100.468-21.92-29.235c-2.782-3.688-4.282-8.188-4.282-12.796v-15.734c0-7.624 4.078-14.672 10.672-18.484l75.672-43.687c6.594-3.812 14.734-3.812 21.328 0l13.624 7.876c4 2.312 7.14 5.844 8.954 10.094l14.358 33.609 103.75 21.234-70.266-79.25-36.267 4.376c-4.592 0.562-9.234-0.39-13.218-2.704l-12.954-7.468c-6.594-3.812-10.672-10.86-10.672-18.484v-88.14c0-7.624 4.078-14.688 10.672-18.5l12.954-7.468c3.984-2.312 8.624-3.25 13.218-2.718l36.267 4.376 70.266-79.248-103.752 21.24zM336.939 512c-35.281 0-64.001-28.705-64.001-64.001 0-35.311 28.719-63.999 64.001-63.999 35.297 0 63.999 28.689 63.999 63.999 0 35.297-28.703 64.001-63.999 64.001zM336.939 426.673c-11.75 0-21.328 9.562-21.328 21.326 0 11.766 9.578 21.328 21.328 21.328 11.766 0 21.342-9.562 21.342-21.328 0-11.764-9.576-21.326-21.342-21.326zM1017.75 527.079l-36.749 36.765-8.376 215.407c18.592 19.204 30.061 45.329 30.061 74.080 0 58.827-47.875 106.67-106.688 106.67-58.811 0-106.654-47.843-106.654-106.67 0-28.767 11.468-54.875 30.031-74.094l-8.374-215.391-36.751-36.765c-4-4-6.25-9.42-6.25-15.078 0-200.904 29.469-343.281 54.217-427.373 27.157-92.378 54.561-136.751 55.687-138.595 0.094-0.156 0.188-0.282 0.282-0.406s0.156-0.25 0.25-0.376c0.344-0.5 0.688-0.968 1.062-1.438 0.062-0.062 0.124-0.124 0.188-0.188 0.344-0.438 0.718-0.844 1.124-1.25 0.062-0.062 0.094-0.124 0.156-0.188 0.438-0.406 0.876-0.812 1.344-1.188 0.094-0.094 0.188-0.188 0.282-0.25 0.468-0.376 0.938-0.75 1.438-1.062 0.062-0.062 0.156-0.124 0.25-0.156 0.406-0.282 0.844-0.532 1.282-0.782 0.156-0.094 0.282-0.188 0.438-0.25 0.468-0.25 0.968-0.5 1.468-0.718 0.188-0.094 0.376-0.156 0.532-0.218 0.5-0.188 1-0.376 1.5-0.562 0.156-0.032 0.312-0.062 0.468-0.124 0.468-0.124 0.938-0.25 1.438-0.376 0.156 0 0.312-0.062 0.468-0.094 0.562-0.094 1.156-0.218 1.75-0.282 0.156 0 0.282 0 0.438-0.032s0.344-0.032 0.5-0.032c0.468-0.062 0.968-0.062 1.438-0.062 0.032 0 0.032 0 0.032 0 0.782 0 1.532 0.062 2.25 0.124 0.188 0 0.344 0.062 0.532 0.062 0.562 0.094 1.156 0.188 1.718 0.312 0.188 0.032 0.376 0.094 0.562 0.124 0.562 0.124 1.094 0.312 1.624 0.468 0.188 0.062 0.406 0.156 0.594 0.218 0.5 0.188 1 0.376 1.468 0.594 0.218 0.094 0.438 0.218 0.656 0.312 0.438 0.218 0.876 0.438 1.282 0.688 0.25 0.156 0.468 0.282 0.688 0.406 0.406 0.25 0.782 0.532 1.156 0.812 0.25 0.156 0.468 0.312 0.688 0.5 0.376 0.312 0.718 0.624 1.062 0.938 0.218 0.188 0.406 0.344 0.594 0.532 0.438 0.406 0.844 0.844 1.218 1.282 0.094 0.124 0.188 0.188 0.282 0.312 0 0.004 0.032 0.066 0.062 0.066 5.5 6.688 111.532 140.813 111.532 568.25 0 5.656-2.25 11.078-6.25 15.078zM895.999 917.327c35.313 0 64.001-28.703 64.001-63.999 0-35.283-28.689-64.001-64.001-64.001-35.283 0-63.999 28.719-63.999 64.001 0 35.297 28.717 63.999 63.999 63.999zM933.688 682.67l1.656-42.671h-78.656l1.654 42.671h75.346zM859.996 725.327l1.032 27.251c10.97-3.814 22.72-5.906 34.971-5.906s24.001 2.094 34.969 5.906l1.062-27.251h-72.034zM937 597.328l0.844-21.328h-83.656l0.812 21.328h82zM874.687 60.501c-27.811 81.626-60.591 219.375-63.747 419.889l63.747-25.501v-394.388zM896.001 492.312l-68.687 27.485 13.53 13.53h110.344l13.532-13.53-68.719-27.485zM930.344 85.437c-4.376-14.312-8.75-27.063-13-38.437v407.889l63.783 25.515c-1.532-115.842-12.25-268.906-50.783-394.966zM895.999 874.67c-11.782 0-21.312-9.562-21.312-21.342 0-11.782 9.53-21.328 21.312-21.328s21.344 9.546 21.344 21.328c0 11.78-9.562 21.342-21.344 21.342z" />
<glyph unicode="&#xe911;" glyph-name="ninja-4" d="M170.814 519.95c-39.020 38.998-102.502 39.010-141.5-0.012-18.902-18.902-29.314-44.024-29.314-70.754 0-26.732 10.412-51.852 29.314-70.744l83.58-83.58c25.882 62.666 72.56 115.922 133.656 149.35l-75.736 75.74zM294.466 393.646c-81.008-36.632-137.638-117.926-137.638-212.468v-200.116c0-18.424 14.928-33.352 33.352-33.352h88.474l230.874 230.874-215.062 215.062zM819.146 393.872l-446.164-446.162h550.96c18.424 0 33.352 14.928 33.352 33.352v200.116c0 94.74-56.868 176.172-138.148 212.694zM990.648 948.29h-66.706c-65.698 0-122.472-38.278-149.636-93.616-54.722 57.524-131.772 93.616-217.244 93.616-165.514 0-300.174-134.66-300.174-300.174 0-24.52 3.28-48.234 8.852-71.064 0.402-3.062 1.086-6.030 2.262-8.772 35.090-126.828 151.224-220.34 289.062-220.34 137.824 0 253.95 93.494 289.050 220.302 1.194 2.774 1.888 5.776 2.29 8.88 5.562 22.806 8.834 46.498 8.834 70.994 0 35.122-6.38 68.706-17.514 100.058h17.514c91.958 0 166.764 74.806 166.764 166.764-0.002 18.424-14.93 33.352-33.354 33.352zM787.868 614.764h-461.612c-1.574 10.924-2.664 22-2.664 33.352s1.090 22.428 2.664 33.352h86.276v-33.352c0-18.424 14.928-33.352 33.352-33.352s33.352 14.928 33.352 33.352v33.352h155.646v-33.352c0-18.424 14.928-33.352 33.352-33.352s33.352 14.928 33.352 33.352v33.352h86.276c1.574-10.924 2.664-22 2.664-33.352s-1.084-22.428-2.658-33.352z" />
<glyph unicode="&#xe912;" glyph-name="play" d="M981.188 799.892c-143.632 20.65-302.332 32.108-469.186 32.108-166.86 0-325.556-11.458-469.194-32.108-27.53-107.726-42.808-226.75-42.808-351.892 0-125.14 15.278-244.166 42.808-351.89 143.638-20.652 302.336-32.11 469.194-32.11 166.854 0 325.552 11.458 469.186 32.11 27.532 107.724 42.812 226.75 42.812 351.89 0 125.142-15.28 244.166-42.812 351.892zM384.002 256v384l320-192-320-192z" />
<glyph unicode="&#xe913;" glyph-name="arm-7" d="M512 474.489c-22.182 0-40.174-18.011-40.174-40.158 0-22.107 18.009-40.129 40.174-40.129 22.123 0 40.14 18.019 40.14 40.129 0 22.147-18.017 40.158-40.14 40.158zM1003.91 481.813l-176.823 96.722 56.636 193.404c3.962 13.517 0.24 28.108-9.739 38.066-9.934 9.955-24.517 13.75-38.058 9.744l-193.394-56.668-96.744 176.863c-6.736 12.355-19.702 20.039-33.789 20.039-14.081 0-27.042-7.671-33.829-20.039l-96.706-176.831-193.42 56.668c-13.517 4.005-28.124 0.224-38.080-9.747-9.939-9.955-13.685-24.563-9.723-38.064l56.628-193.436-176.847-96.722c-12.339-6.771-20.023-19.735-20.023-33.813 0-14.073 7.684-27.034 20.023-33.805l176.847-96.714-56.628-193.412c-3.962-13.525-0.232-28.111 9.723-38.072 7.324-7.316 17.167-11.281 27.243-11.281 3.626 0 7.276 0.5 10.837 1.542l193.42 56.668 96.722-176.855c6.771-12.352 19.735-20.055 33.829-20.055 14.070 0 27.034 7.668 33.789 20.055l96.762 176.855 193.412-56.668c3.578-1.045 7.203-1.542 10.813-1.542 10.060 0 19.927 3.962 27.227 11.281 9.947 9.963 13.701 24.579 9.739 38.072l-56.652 193.412 176.841 96.714c12.352 6.771 20.055 19.735 20.055 33.805-0.035 14.078-7.738 27.042-20.093 33.813zM512 317.142c-64.649 0-117.242 52.577-117.242 117.186 0 64.649 52.593 117.226 117.242 117.226 64.609 0 117.184-52.577 117.184-117.226 0-64.609-52.575-117.186-117.184-117.186z" />
<glyph unicode="&#xe914;" glyph-name="folder" d="M923.648 731.034h-443.597v76.39c0 25.6-20.685 46.285-46.285 46.285h-336.486c-25.6-0.205-46.285-20.89-46.285-46.285v-719.258c0-25.6 20.685-46.285 46.285-46.285h826.368c25.6 0 46.285 20.685 46.285 46.285v596.787c0 25.395-20.685 46.080-46.285 46.080zM939.213 88.166c0-8.602-6.963-15.565-15.565-15.565h-826.368c-8.602 0-15.565 6.963-15.565 15.565v474.522h857.702v-474.522zM81.715 593.203v214.221c0 8.602 6.963 15.565 15.565 15.565h336.691c8.602 0 15.565-6.963 15.565-15.565v-106.906h474.112c8.602 0 15.565-6.963 15.565-15.565v-91.546h-857.498zM342.016 394.138h214.426c8.397 0 15.36 6.758 15.36 15.36 0 8.397-6.963 15.36-15.36 15.36h-214.426c-8.397 0-15.36-6.758-15.36-15.36s6.963-15.36 15.36-15.36zM342.016 302.182h336.896c8.397 0 15.36 6.758 15.36 15.36s-6.963 15.36-15.36 15.36h-336.896c-8.397 0-15.36-6.758-15.36-15.36s6.963-15.36 15.36-15.36zM342.016 210.432h336.896c8.397 0 15.36 6.758 15.36 15.36s-6.963 15.36-15.36 15.36h-336.896c-8.397 0-15.36-6.758-15.36-15.36s6.963-15.36 15.36-15.36z" />
<glyph unicode="&#xe915;" glyph-name="thunder-4" d="M772.688 960l-585.669-582.243h217.231l-166.976-441.757 599.67 582.28h-217.268z" />
<glyph unicode="&#xe916;" glyph-name="pacman" d="M964.73 781.196c-93.902 109.45-233.21 178.804-388.73 178.804-282.77 0-512-229.23-512-512s229.23-512 512-512c155.52 0 294.828 69.356 388.728 178.804l-324.728 333.196 324.73 333.196zM704 839.398c39.432 0 71.398-31.964 71.398-71.398 0-39.432-31.966-71.398-71.398-71.398s-71.398 31.966-71.398 71.398c0 39.432 31.966 71.398 71.398 71.398z" />
<glyph unicode="&#xe917;" glyph-name="time" d="M502.989 904.294c-254.976 0-462.438-207.462-462.438-462.438s207.462-462.438 462.438-462.438 462.643 207.462 462.643 462.438-207.667 462.438-462.643 462.438zM502.989 77.722c-200.704 0-364.134 163.226-364.134 364.134s163.43 364.134 364.134 364.134 364.134-163.43 364.134-364.134-163.43-364.134-364.134-364.134zM744.038 456.192h-207.872v249.856c0 21.094-16.998 38.093-38.093 38.093s-38.093-16.998-38.093-38.093v-287.949c0-21.094 16.998-38.093 38.093-38.093h245.965c21.094 0 38.093 16.998 38.093 38.093s-16.998 38.093-38.093 38.093z" />
<glyph unicode="&#xe918;" glyph-name="drop" d="M717.72 725.276c-92.483 124.749-186.291 225.676-187.234 226.68-4.783 5.13-11.478 8.044-18.488 8.044-7.013 0-13.71-2.912-18.491-8.044-0.938-1.004-94.748-101.931-187.231-226.68-126.332-170.402-190.386-302.68-190.386-393.153 0-218.418 177.693-396.123 396.108-396.123 218.418 0 396.111 177.7 396.111 396.123 0 90.473-64.057 222.749-190.389 393.153zM551.558 64.187c-20.763-4.907-42.169-7.397-63.612-7.397-152.429 0-276.44 124.016-276.44 276.448 0 21.014 6.469 59.089 37.289 121.131 3.097 6.237 10.229 9.331 16.905 7.352 6.672-1.985 10.947-8.487 10.13-15.399-0.708-5.969-1.064-11.589-1.064-16.703 0-163.389 116.207-305.319 276.316-337.461 6.591-1.327 11.376-7.066 11.49-13.791 0.119-6.732-4.467-12.63-11.015-14.18z" />
<glyph unicode="&#xe919;" glyph-name="pass" d="M168.283 180.839c-3.997 6.942-13.042 9.256-19.984 5.259l-36.601-21.246v42.281c0 7.993-6.521 14.514-14.514 14.514s-14.514-6.521-14.514-14.514v-42.281l-36.601 21.246c-6.942 3.997-15.987 1.683-19.984-5.259s-1.683-15.987 5.259-19.984l36.812-21.456-36.812-21.456c-6.942-3.997-9.256-13.042-5.259-19.984s13.042-9.256 19.984-5.259l36.601 21.246v-42.281c0-7.993 6.521-14.514 14.514-14.514s14.514 6.521 14.514 14.514v42.281l36.601-21.246c6.942-3.997 15.987-1.683 19.984 5.259s1.683 15.987-5.259 19.984l-36.812 21.456 36.812 21.456c6.942 4.207 9.466 13.042 5.259 19.984zM302.698 98.17c3.997-6.942 13.042-9.256 19.984-5.259l36.601 21.246v-42.281c0-7.993 6.521-14.514 14.514-14.514s14.514 6.521 14.514 14.514v42.281l36.601-21.246c6.942-3.997 15.987-1.683 19.984 5.259s1.683 15.987-5.259 19.984l-36.812 21.456 36.812 21.456c6.942 3.997 9.256 13.042 5.259 19.984s-13.042 9.256-19.984 5.259l-36.601-21.246v42.281c0 7.993-6.521 14.514-14.514 14.514s-14.514-6.521-14.514-14.514v-42.281l-36.601 21.035c-6.942 3.997-15.987 1.683-19.984-5.259s-1.683-15.987 5.259-19.984l36.812-21.456-36.812-21.246c-6.942-3.997-9.256-13.042-5.259-19.984zM276.615-12.055v-25.663c0-6.1 5.048-11.149 11.149-11.149h172.279c6.1 0 11.149 5.048 11.149 11.149v25.663c0 6.1-5.048 11.149-11.149 11.149h-172.279c-6.311 0-11.149-5.048-11.149-11.149zM696.48 705.249h-1.262v57.216c0 99.497-81.407 184.059-180.694 182.376-96.552-1.683-174.804-80.776-174.804-177.749v-5.469c0-8.204 6.731-14.935 14.935-14.935h47.75c8.204 0 14.935 6.731 14.935 14.935v1.683c0 53.43 40.177 100.339 93.607 103.704 58.058 3.576 106.439-42.491 106.439-99.707v-61.844h-147.247v-0.21h-136.099c-25.242-0.841-45.647-21.246-45.647-46.698v-258.735c0-25.873 21.035-46.909 46.909-46.909h360.966c25.873 0 46.909 21.035 46.909 46.909v258.524c0.21 25.873-20.825 46.909-46.698 46.909zM543.763 517.404c-3.576-2.524-4.628-5.259-4.628-9.466 0.21-18.932 0.21-37.864 0-57.006v0c0.421-7.993-3.576-15.566-10.728-19.142-16.618-8.414-33.236 3.366-33.236 19.142 0 0 0 0 0 0.21 0 18.932 0 38.074 0 57.006 0 3.786-0.841 6.521-4.207 9.045-17.249 12.621-22.929 34.288-14.304 53.43 8.414 18.511 28.818 29.449 47.961 25.453 21.456-4.207 36.391-21.666 36.601-42.912 0.631-14.935-5.469-27.136-17.459-35.76zM553.019-12.055v-25.663c0-6.1 5.048-11.149 11.149-11.149h172.279c6.1 0 11.149 5.048 11.149 11.149v25.663c0 6.1-5.048 11.149-11.149 11.149h-172.279c-6.1 0-11.149-5.048-11.149-11.149zM579.103 98.17c3.997-6.942 13.042-9.256 19.984-5.259l36.601 21.246v-42.281c0-7.993 6.521-14.514 14.514-14.514s14.514 6.521 14.514 14.514v42.281l36.601-21.246c6.942-3.997 15.987-1.683 19.984 5.259s1.683 15.987-5.259 19.984l-36.812 21.456 36.812 21.456c6.942 3.997 9.256 13.042 5.259 19.984s-13.042 9.256-19.984 5.259l-36.601-21.246v42.281c0 7.993-6.521 14.514-14.514 14.514s-14.514-6.521-14.514-14.514v-42.281l-36.601 21.246c-6.942 3.997-15.987 1.683-19.984-5.259s-1.683-15.987 5.259-19.984l36.812-21.456-36.812-21.456c-6.942-3.997-9.256-13.042-5.259-19.984zM1012.851-0.907h-172.279c-6.1 0-11.149-5.048-11.149-11.149v-25.663c0-6.1 5.048-11.149 11.149-11.149h172.279c6.1 0 11.149 5.048 11.149 11.149v25.663c0 6.1-5.048 11.149-11.149 11.149zM11.149-48.867h172.279c6.1 0 11.149 5.048 11.149 11.149v25.663c0 6.1-5.048 11.149-11.149 11.149h-172.279c-6.1 0-11.149-5.048-11.149-11.149v-25.663c0-6.1 5.048-11.149 11.149-11.149zM855.717 98.17c3.997-6.942 13.042-9.256 19.984-5.259l36.601 21.246v-42.281c0-7.993 6.521-14.514 14.514-14.514s14.514 6.521 14.514 14.514v42.281l36.601-21.246c6.942-3.997 15.987-1.683 19.984 5.259s1.683 15.987-5.259 19.984l-36.812 21.456 36.812 21.456c6.942 3.997 9.256 13.042 5.259 19.984s-13.042 9.256-19.984 5.259l-36.601-21.246v42.281c0 7.993-6.521 14.514-14.514 14.514s-14.514-6.521-14.514-14.514v-42.281l-36.601 21.246c-6.942 3.997-15.987 1.683-19.984-5.259s-1.683-15.987 5.259-19.984l36.812-21.456-36.812-21.456c-6.942-3.997-9.466-13.042-5.259-19.984z" />
<glyph unicode="&#xe91a;" glyph-name="warn" d="M1003.529 213.901l-358.75 621.384c-58.597 102.651-206.777 102.651-265.163 0l-358.961-621.384c-58.597-102.651 14.333-230.173 132.582-230.173h716.447c118.248 0 192.444 128.788 133.846 230.173zM511.986 121.578c-31.196 0-57.122 25.926-57.122 57.122s25.926 57.122 57.122 57.122c31.196 0 57.122-25.926 55.857-58.597 1.475-29.72-25.926-55.646-55.857-55.646zM564.049 490.868c-2.529-44.264-5.27-88.317-7.799-132.582-1.265-14.333-1.265-27.402-1.265-41.524-1.265-23.397-19.603-41.524-42.999-41.524s-41.524 16.863-42.999 40.259c-3.794 68.926-7.799 136.586-11.593 205.512-1.265 18.127-2.529 36.465-4.005 54.592 0 29.931 16.863 54.592 44.264 62.391 27.402 6.534 54.592-6.534 66.396-32.46 4.005-9.064 5.27-18.127 5.27-28.666-1.265-28.877-4.005-57.543-5.27-85.999z" />
<glyph unicode="&#xe91b;" glyph-name="email" d="M1021.152 430.928l-116.862 315.88c-4.244 11.478-12.706 20.614-23.826 25.726-11.118 5.112-23.56 5.592-35.038 1.344l-569.834-210.812c-11.478-4.246-20.614-12.708-25.728-23.824-5.112-11.118-5.59-23.562-1.344-35.038l116.862-315.88c4.244-11.478 12.706-20.614 23.826-25.728 6.1-2.806 12.598-4.214 19.118-4.214 5.364 0 10.74 0.952 15.922 2.87l569.838 210.812c23.686 8.766 35.83 35.172 27.066 58.864zM814.104 713.442l-176.754-252.688-298.654 76.81 475.408 175.878zM400.088 226.538l-101.366 274 234.764-60.384-133.398-213.616zM449.726 219.526l130.304 208.66 61.284-15.764c1.902-0.482 3.826-0.734 5.704-0.734 7.376 0 14.432 3.574 18.784 9.782l36.266 51.888 234.738-73.636-487.080-180.196zM729.628 512.724l138.926 198.648 101.406-274.038-240.332 75.39zM266.88 182.048c-4.388 11.866-17.572 17.922-29.43 13.536l-86.324-31.936c-11.866-4.392-17.924-17.568-13.536-29.432 3.42-9.246 12.172-14.964 21.486-14.964 2.638 0 5.326 0.46 7.946 1.43l86.32 31.936c11.87 4.386 17.928 17.564 13.538 29.43zM150.046 394.708c-4.392 11.866-17.57 17.92-29.432 13.536l-53.286-19.714c-11.866-4.392-17.924-17.566-13.536-29.432 3.42-9.244 12.174-14.964 21.486-14.964 2.638 0 5.326 0.46 7.946 1.43l53.286 19.714c11.866 4.386 17.926 17.564 13.536 29.43zM83.99 221.184c-4.392 11.866-17.57 17.924-29.432 13.536l-39.594-14.648c-11.866-4.392-17.924-17.568-13.536-29.432 3.42-9.244 12.172-14.964 21.486-14.964 2.638 0 5.326 0.46 7.946 1.43l39.594 14.648c11.868 4.388 17.926 17.564 13.536 29.43z" />
<glyph unicode="&#xe91c;" glyph-name="notification-1" d="M788.76 254.092v214.724c0 153.516-124.505 277.968-278.009 277.968-153.516 0-278.017-124.452-278.017-277.968v-214.724l-71.648-150.931c-10.786-22.327 1.33-42.006 26.126-42.006h200.86c-0.011 0-0.049-0.778-0.049-1.409 0-68.474 55.505-123.746 123.979-123.746s123.979 55.155 123.979 123.626c0 0.631-0.038 1.525-0.049 1.525h200.853c24.796 0 35.661 19.675 24.875 42.006l-72.899 150.935zM510.747 805.966c16.598 0 30.055 13.457 30.055 30.055v93.923c0 16.598-13.457 30.055-30.055 30.055s-30.055-13.457-30.055-30.055v-93.923c0-16.598 13.457-30.055 30.055-30.055zM229.293 691.271c7.694 0 15.385 2.934 21.253 8.802 11.737 11.74 11.737 30.765 0 42.506l-66.411 66.415c-11.74 11.733-30.765 11.733-42.506 0-11.737-11.74-11.737-30.765 0-42.506l66.415-66.415c5.868-5.868 13.555-8.802 21.249-8.802zM882.371 808.994c-11.74 11.733-30.765 11.733-42.506 0l-66.415-66.415c-11.737-11.74-11.737-30.765 0-42.506 5.872-5.868 13.559-8.802 21.253-8.802s15.385 2.934 21.253 8.802l66.415 66.415c11.737 11.737 11.737 30.765 0 42.506z" />
<glyph unicode="&#xe91d;" glyph-name="clip" d="M1004.992 717.007c-12.658 12.669-27.663 18.998-45 18.998h-895.987c-17.344 0-32.339-6.329-45.007-18.998-12.669-12.683-18.998-27.677-18.998-45.011 0-17.33 6.329-32.325 18.998-44.997l447.995-447.995c12.683-12.669 27.677-19.012 45.007-19.012s32.339 6.343 44.997 19.012l447.995 447.999c12.655 12.669 19.008 27.663 19.008 44.997 0 17.33-6.354 32.325-19.008 45.007z" />
<glyph unicode="&#xe91e;" glyph-name="play-1" horiz-adv-x="951" d="M142.080-40.96c-24.869-3.474-49.554 3.109-65.097 28.709-12.434 20.48-12.8 45.714-12.617 69.669 0.183 267.154 0.183 534.126 0.183 801.28 0 6.949 0.183 13.897 1.463 21.029 6.949 40.96 46.080 67.657 86.674 57.6 16.823-4.206 32.183-12.8 47.177-21.577 231.863-132.937 466.103-263.863 695.771-399.726 28.16-16.64 53.943-46.629 47.909-78.811-5.486-28.709-33.28-46.811-58.514-61.44-100.206-58.149-200.777-115.749-300.617-174.263-42.971-24.137-85.577-49.189-128.366-73.691-90.514-51.931-180.114-106.057-272.274-154.514-12.8-6.949-27.246-12.251-41.691-14.263z" />
<glyph unicode="&#xe91f;" glyph-name="ticket" d="M815.158 960l-101.053-67.368-101.053 67.368-101.053-67.368-101.053 67.368-101.053-67.368-101.053 67.368-134.737-89.768v-844.463l134.737-89.768 101.053 67.368 101.053-67.368 101.053 67.368 101.053-67.368 101.053 67.368 101.053-67.368 134.737 89.768v844.497l-134.737 89.735zM882.526 61.811l-67.368-44.968-101.221 67.368-101.053-67.368-101.053 67.368-101.053-67.368-101.053 67.368-101.053-67.368-67.2 44.968v772.379l67.368 44.968 101.053-67.368 101.053 67.368 101.053-67.368 101.053 67.368 101.053-67.368 101.053 67.368 67.368-44.968v-772.379zM276.211 683.789h471.579v-67.368h-471.579v67.368zM276.211 549.053h471.579v-67.368h-471.579v67.368zM276.211 414.316h471.579v-67.368h-471.579v67.368zM276.211 279.579h202.105v-67.368h-202.105v67.368zM680.421 279.579h67.368v-67.368h-67.368v67.368zM545.684 279.579h67.368v-67.368h-67.368v67.368z" />
<glyph unicode="&#xe920;" glyph-name="help" d="M126.478 349.16v148.962h-76.823c-27.169 0-49.654-22.485-49.654-49.654v-286.683c0-27.169 22.485-49.654 49.654-49.654h44.033v-63.707c0-8.432 7.495-15.927 15.927-15.927 4.684 0 8.432 1.874 11.242 4.684l72.139 72.139h318.536c27.169 0 49.654 22.485 49.654 49.654v71.202h-315.726c-65.581 0-118.983 53.402-118.983 118.983zM947.177 863.502h-702.653c-42.159 0-75.887-34.664-75.887-75.887v-436.582c0-42.159 34.664-75.887 75.887-75.887h484.362l110.551-110.551c4.684-4.684 10.306-7.495 16.864-7.495 13.116 0 24.359 10.306 24.359 24.359v93.687h67.455c42.159 0 75.887 34.664 75.887 75.887v436.582c0 41.222-34.664 75.887-76.823 75.887zM406.602 490.628c0-4.684-0.937-8.432-1.874-12.179s-2.811-7.495-5.621-10.306-5.621-4.684-8.432-5.621c-2.811-0.937-6.558-1.874-10.306-1.874s-7.495 0.937-10.306 1.874c-3.747 1.874-6.558 3.747-8.432 6.558-2.811 2.811-3.747 5.621-5.621 10.306-0.937 3.747-1.874 7.495-1.874 11.242v47.78h-56.212v-47.78c0-9.369-2.811-16.864-7.495-21.548-2.811-2.811-5.621-4.684-8.432-5.621s-6.558-1.874-10.306-1.874c-3.747 0-7.495 0.937-10.306 1.874-3.747 1.874-6.558 3.747-8.432 6.558-2.811 2.811-3.747 5.621-5.621 10.306-0.937 3.747-1.874 7.495-1.874 11.242v133.036c0 4.684 0.937 8.432 1.874 11.242 0.937 3.747 2.811 7.495 5.621 10.306s5.621 4.684 8.432 6.558c2.811 0.937 6.558 1.874 10.306 1.874s7.495-0.937 10.306-1.874c3.747-0.937 6.558-3.747 8.432-5.621 2.811-2.811 4.684-5.621 5.621-10.306 0.937-3.747 1.874-7.495 1.874-12.179v-39.349h56.212v39.349c0 4.684 0.937 8.432 1.874 11.242 0.937 3.747 2.811 7.495 5.621 10.306 4.684 5.621 11.242 8.432 18.737 8.432 3.747 0 7.495-0.937 10.306-1.874 3.747-0.937 6.558-3.747 8.432-5.621 2.811-2.811 4.684-5.621 5.621-10.306 0.937-3.747 1.874-7.495 1.874-12.179v-133.973zM596.787 477.511c-0.937-2.811-2.811-5.621-5.621-7.495-1.874-1.874-5.621-3.747-8.432-4.684s-6.558-0.937-9.369-0.937h-93.687c-4.684 0-8.432 0.937-12.179 1.874s-7.495 3.747-10.306 5.621c-2.811 2.811-4.684 6.558-5.621 10.306s-1.874 7.495-1.874 12.179v127.414c0 2.811 0 5.621 0.937 8.432s0.937 5.621 2.811 7.495c0.937 2.811 2.811 4.684 4.684 6.558s3.747 3.747 6.558 4.684c1.874 0.937 4.684 1.874 7.495 1.874s5.621 0.937 8.432 0.937h90.876c3.747 0 6.558 0 9.369-0.937 3.747-0.937 6.558-2.811 8.432-4.684s3.747-4.684 5.621-7.495c0.937-2.811 1.874-5.621 1.874-8.432s-0.937-6.558-1.874-8.432c-0.937-2.811-2.811-5.621-5.621-7.495-1.874-1.874-5.621-3.747-8.432-4.684-3.747-1.874-6.558-1.874-10.306-1.874h-68.392v-27.169h62.77c3.747 0 6.558 0 9.369-0.937s5.621-2.811 8.432-4.684c1.874-1.874 3.747-4.684 5.621-7.495 0.937-2.811 1.874-5.621 1.874-8.432s-0.937-5.621-1.874-8.432c-0.937-2.811-2.811-5.621-4.684-7.495s-4.684-3.747-8.432-4.684c-2.811-0.937-5.621-0.937-9.369-0.937h-63.707v-27.169h71.202c3.747 0 6.558 0 9.369-0.937 3.747-0.937 6.558-2.811 8.432-4.684 2.811-1.874 3.747-4.684 5.621-7.495 0.937-2.811 1.874-5.621 1.874-9.369 0-4.684-0.937-7.495-1.874-10.306zM763.55 470.016c-2.811-1.874-5.621-3.747-8.432-4.684s-6.558-0.937-10.306-0.937h-83.382c-4.684 0-8.432 0.937-12.179 1.874s-7.495 3.747-10.306 5.621c-2.811 2.811-4.684 6.558-5.621 10.306s-1.874 7.495-1.874 12.179v131.162c0 4.684 0.937 8.432 1.874 11.242 0.937 3.747 2.811 7.495 5.621 10.306 4.684 5.621 11.242 8.432 18.737 8.432 3.747 0 7.495-0.937 10.306-1.874 3.747-0.937 6.558-3.747 8.432-5.621 2.811-2.811 4.684-5.621 5.621-10.306 0.937-3.747 1.874-7.495 1.874-12.179v-114.298h60.897c3.747 0 7.495-0.937 10.306-1.874 3.747-0.937 6.558-2.811 8.432-4.684 2.811-1.874 4.684-4.684 5.621-7.495s1.874-5.621 1.874-9.369c0-7.495-2.811-13.116-7.495-17.801zM942.492 565.577c-2.811-7.495-8.432-14.99-14.99-19.674-6.558-5.621-14.053-9.369-23.422-12.179-8.432-2.811-18.737-3.747-29.98-3.747h-22.485v-39.349c0-4.684-0.937-8.432-1.874-12.179s-2.811-7.495-5.621-10.306c-2.811-2.811-5.621-4.684-8.432-6.558s-6.558-1.874-10.306-1.874c-3.747 0-7.495 0.937-10.306 1.874-3.747 0.937-6.558 3.747-8.432 6.558-2.811 2.811-4.684 5.621-5.621 10.306-0.937 3.747-1.874 7.495-1.874 11.242v131.162c0 4.684 0.937 8.432 1.874 12.179s3.747 7.495 6.558 10.306c2.811 2.811 6.558 4.684 10.306 5.621s7.495 1.874 12.179 1.874h44.033c6.558 0 13.116 0 17.801-0.937 5.621-0.937 10.306-1.874 14.053-2.811s7.495-2.811 11.242-4.684c3.747-1.874 6.558-4.684 10.306-6.558 2.811-2.811 5.621-5.621 8.432-9.369 1.874-3.747 4.684-6.558 5.621-10.306 1.874-3.747 2.811-7.495 3.747-12.179s0.937-8.432 0.937-13.116c0.937-8.432 0-17.801-3.747-25.296zM890.964 603.052c-0.937 0.937-3.747 1.874-6.558 2.811-4.684 0.937-10.306 1.874-16.864 1.874h-14.053v-33.727h14.053c3.747 0 7.495 0 10.306 0.937 2.811 0 5.621 0.937 7.495 1.874s3.747 0.937 4.684 1.874c0.937 0.937 1.874 1.874 2.811 2.811s0.937 1.874 1.874 3.747c0.937 1.874 0.937 3.747 0.937 6.558s0 5.621-0.937 7.495c-1.874 0.937-2.811 2.811-3.747 3.747z" />
<glyph unicode="&#xe921;" glyph-name="subscription" d="M631.467 345.6v204.8c0 28.277-22.923 51.2-51.2 51.2h-341.333c-28.277 0-51.2-22.923-51.2-51.2v-204.8c0-28.277 22.923-51.2 51.2-51.2h341.333c28.277 0 51.2 22.923 51.2 51.2zM221.867 550.4c0 9.425 7.642 17.067 17.067 17.067h341.333c9.425 0 17.067-7.642 17.067-17.067v-51.2h-375.467v51.2zM221.867 345.6v119.467h375.467v-119.467c0-9.425-7.642-17.067-17.067-17.067h-341.333c-9.425 0-17.067 7.642-17.067 17.067zM937.916 837.581c7.315 27.334-8.915 55.422-36.25 62.737s-55.422-8.915-62.737-36.25l-19.729-73.626v118.357c0 28.277-22.923 51.2-51.2 51.2s-51.2-22.923-51.2-51.2v-76.425l-17.459 65.075c-6.586 27.499-34.219 44.452-61.717 37.867s-44.452-34.219-37.867-61.717c0.215-0.896 0.454-1.788 0.717-2.671l41.796-156.245c-70.571 29.715-149.956 30.688-221.235 2.714-13.877-5.662-24.625-17.052-29.474-31.232-8.798-27.023 5.973-56.060 32.996-64.86 11.571-3.767 24.105-3.313 35.373 1.286 96.463 38.014 205.476-9.367 243.49-105.828s-9.367-205.476-105.828-243.49c-44.823-17.664-94.72-17.419-139.369 0.683-23.339 9.094-49.813-0.363-62.106-22.187-7.484-12.86-8.962-28.352-4.045-42.394 4.973-14.234 15.932-25.572 29.986-31.027 34.042-13.57 70.362-20.523 107.008-20.48v-204.8c0-9.425 7.642-17.067 17.067-17.067h256c9.425 0 17.067 7.642 17.067 17.067v441.495l118.716 443.017zM633.429 879.787c-1.201 4.388-0.587 9.075 1.707 13.005 2.259 3.927 6.005 6.775 10.394 7.902 4.348 1.22 9.005 0.604 12.885-1.707 3.906-2.217 6.763-5.905 7.936-10.24l61.559-229.342c-1.246 1.161-2.611 2.15-3.874 3.294-4.83 4.386-9.762 8.636-14.848 12.663-2.202 1.707-4.437 3.413-6.69 5.12-4.939 3.676-9.99 7.168-15.155 10.479-1.399 0.922-2.714 1.997-4.13 2.867l-49.783 185.958zM785.067-29.867h-221.867v204.8c0 9.425-7.642 17.067-17.067 17.067h-17.067c-32.356-0.036-64.42 6.116-94.464 18.125-4.787 1.828-8.531 5.666-10.24 10.496-1.649 4.681-1.131 9.854 1.417 14.114 3.767 7.209 12.35 10.434 19.934 7.492 113.619-45.882 242.921 9.030 288.802 122.647 45.882 113.619-9.028 242.921-122.647 288.802-52.74 21.297-111.646 21.527-164.55 0.64-8.239-3.573-17.845-0.301-22.187 7.561-2.377 4.026-2.863 8.894-1.331 13.312 1.647 4.791 5.269 8.644 9.95 10.581 74.086 29.101 157.436 22.532 226.048-17.818 22.609-13.269 42.995-30.005 60.416-49.596l0.154-0.188 0.785-0.956c5.651-6.357 10.967-13.005 15.923-19.917 1.98-2.731 3.601-5.666 5.444-8.533 2.833-4.301 5.786-8.533 8.311-12.988 0.45-0.949 0.951-1.871 1.502-2.765 2.867-5.12 5.461-10.001 7.817-14.882s4.471-9.66 6.383-14.473c12.188-30.417 18.421-62.891 18.364-95.659 0.004-0.804 0.062-1.609 0.171-2.406v-475.458zM785.067 584.209c-1.041 1.911-2.099 3.806-3.209 5.751l-30.925 115.268v203.571c0 9.425 7.642 17.067 17.067 17.067s17.067-7.642 17.067-17.067v-324.591zM904.926 846.268l-85.726-319.898v132.028l52.634 196.745c2.451 9.139 11.844 14.56 20.983 12.109s14.56-11.846 12.109-20.983zM102.4 465.067h-34.133v34.133h-34.133v-34.133h-34.133v-34.133h34.133v-34.133h34.133v34.133h34.133zM989.867 465.067v34.133h-34.133v-34.133h-34.133v-34.133h34.133v-34.133h34.133v34.133h34.133v34.133zM136.533 686.933h34.133v34.133h34.133v34.133h-34.133v34.133h-34.133v-34.133h-34.133v-34.133h34.133zM170.667 209.067h-34.133v-34.133h-34.133v-34.133h34.133v-34.133h34.133v34.133h34.133v34.133h-34.133zM921.6 209.067h-34.133v-34.133h-34.133v-34.133h34.133v-34.133h34.133v34.133h34.133v34.133h-34.133zM443.733 857.6h34.133v34.133h34.133v34.133h-34.133v34.133h-34.133v-34.133h-34.133v-34.133h34.133zM443.733 38.4h-34.133v-34.133h-34.133v-34.133h34.133v-34.133h34.133v34.133h34.133v34.133h-34.133z" />
<glyph unicode="&#xe922;" glyph-name="star-2" d="M882.581 412.313v0l-242.589 35.719-108.645 218.777c-6.15 10.685-19.798 14.36-30.484 8.21-3.413-1.966-6.247-4.797-8.21-8.21l-108.645-218.777-242.589-35.719c-12.215-1.681-20.753-12.944-19.072-25.159 0.718-5.216 3.256-10.010 7.167-13.537l175.617-169.663-41.673-241.102c-2.051-8.583 1.527-17.525 8.931-22.325 6.521-4.789 15.226-5.37 22.325-1.487l217.29 113.109 217.29-113.109 8.931-2.977c4.888-0.416 9.734 1.199 13.394 4.464 7.404 4.8 10.979 13.742 8.931 22.325l-41.673 241.102 175.617 169.663c9.156 8.255 9.888 22.373 1.629 31.529-3.532 3.911-8.327 6.449-13.543 7.167zM504.558 766.525c12.329 0 22.325 9.996 22.325 22.325v148.825c0 12.329-9.996 22.325-22.325 22.325s-22.325-9.996-22.325-22.325v-148.828c0.003-12.329 9.996-22.322 22.325-22.322zM956.997 803.731c-10.050 6.623-23.462 4.709-31.253-4.464l-89.297-119.063c-7.398-9.862-5.398-23.858 4.464-31.253 3.911-2.809 8.58-4.364 13.394-4.464 7.085-0.256 13.813 3.108 17.858 8.931l89.297 119.063c7.398 9.859 5.398 23.852-4.464 31.25zM169.695 644.485c4.814 0.1 9.483 1.658 13.394 4.464 9.865 7.398 11.862 21.391 4.464 31.253l-89.294 119.063c-7.791 9.173-21.205 11.090-31.253 4.464-9.862-7.398-11.862-21.391-4.464-31.253l89.297-119.063c4.042-5.82 10.771-9.184 17.855-8.928z" />
<glyph unicode="&#xe923;" glyph-name="stars" d="M506.781 761.556l90.837 72.169-107.935-42.615c-161.471-63.733-183.261-57.918-291.231 78.053l-72.169 90.837 42.632-107.918c63.733-161.488 57.901-183.261-78.070-291.248l-90.837-72.169 107.935 42.615c161.471 63.767 183.244 57.936 291.231-78.053l72.169-90.837-42.632 107.918c-63.733 161.488-57.901 183.261 78.070 291.248zM365.841 545.1c-40.372 41.424-73.757 59.868-117.062 59.868-22.409-0.574-44.636-4.208-66.062-10.8 60.058 58.522 71.824 102.414 49.068 183.123 58.539-60.058 102.414-71.824 183.123-49.068-60.058-58.522-71.824-102.414-49.068-183.123zM501.829 218.518l90.837 72.169-107.918-42.615c-98.791-38.992-108.573-36.352-174.583 46.79l-72.152 90.854 42.598-107.935c38.992-98.756 36.369-108.539-46.79-174.583l-90.837-72.169 107.918 42.615c98.791 38.992 108.573 36.352 174.583-46.79l72.152-90.854-42.598 107.935c-38.992 98.756-36.369 108.539 46.79 174.583zM398.639 107.478c-16.725 15.737-38.785 24.564-61.748 24.706-7.507-0.058-14.997-0.779-22.377-2.157 21.172 22.509 29.651 54.129 22.584 84.212 22.517-21.156 54.136-29.623 84.212-22.55-21.202-22.491-29.716-54.116-22.67-84.212zM933.154 598.084l90.837 72.169-107.918-42.615c-98.791-39.009-108.573-36.352-174.583 46.79l-72.152 90.854 42.598-107.935c38.992-98.756 36.369-108.539-46.79-174.583l-90.837-72.169 107.918 42.615c98.773 39.009 108.573 36.335 174.583-46.79l72.152-90.854-42.598 107.935c-38.992 98.756-36.369 108.539 46.79 174.583zM829.964 487.044c-16.725 15.737-38.785 24.564-61.748 24.706-7.507-0.058-14.997-0.779-22.377-2.157 21.172 22.509 29.651 54.129 22.584 84.212 22.517-21.156 54.136-29.623 84.212-22.55-21.202-22.491-29.716-54.116-22.67-84.212z" />
<glyph unicode="&#xe924;" glyph-name="stars-2" d="M835.379 542.993c-2.039 6.078-7.313 10.502-13.653 11.452l-203.264 31.078-91.017 193.997c-4.011 8.531-14.176 12.194-22.705 8.186-3.599-1.692-6.494-4.587-8.186-8.186l-91.068-193.997-203.264-31.078c-9.316-1.427-15.712-10.14-14.283-19.456 0.54-3.514 2.161-6.771 4.64-9.318l147.593-151.262-34.884-213.794c-1.51-9.303 4.806-18.071 14.11-19.582 3.77-0.612 7.635 0.058 10.978 1.901l181.623 100.386 181.623-100.386c2.519-1.404 5.359-2.14 8.243-2.133 9.425 0 17.067 7.639 17.067 17.067 0 0.922-0.075 1.839-0.222 2.748l-34.884 213.794 147.593 151.262c4.459 4.578 5.986 11.262 3.959 17.323zM653.38 392.090c-3.785-3.881-5.502-9.327-4.625-14.677l30.618-187.614-159.13 87.945c-5.131 2.831-11.356 2.831-16.486 0l-159.13-87.945 30.618 187.614c0.877 5.35-0.841 10.797-4.625 14.677l-130.406 133.649 179.439 27.409c5.626 0.862 10.453 4.471 12.868 9.626l79.479 169.318 79.479-169.318c2.415-5.154 7.243-8.764 12.868-9.626l179.439-27.409-130.406-133.649zM153.6 806.4c-28.277 0-51.2 22.923-51.2 51.2 0 9.425-7.642 17.067-17.067 17.067s-17.067-7.642-17.067-17.067c0-28.277-22.923-51.2-51.2-51.2-9.425 0-17.067-7.642-17.067-17.067s7.642-17.067 17.067-17.067c28.277 0 51.2-22.923 51.2-51.2 0-9.425 7.642-17.067 17.067-17.067s17.067 7.642 17.067 17.067c0 28.277 22.923 51.2 51.2 51.2 9.425 0 17.067 7.642 17.067 17.067s-7.642 17.067-17.067 17.067zM85.333 772.267c-4.855 6.466-10.601 12.211-17.067 17.067 6.466 4.855 12.211 10.601 17.067 17.067 4.855-6.466 10.601-12.211 17.067-17.067-6.466-4.855-12.211-10.601-17.067-17.067zM238.933 960h34.133v-34.133h-34.133v34.133zM238.933 891.733h34.133v-34.133h-34.133v34.133zM204.8 925.867h34.133v-34.133h-34.133v34.133zM273.067 925.867h34.133v-34.133h-34.133v34.133zM1006.933 123.733c-28.277 0-51.2 22.923-51.2 51.2 0 9.425-7.642 17.067-17.067 17.067s-17.067-7.642-17.067-17.067c0-28.277-22.923-51.2-51.2-51.2-9.425 0-17.067-7.642-17.067-17.067s7.642-17.067 17.067-17.067c28.277 0 51.2-22.923 51.2-51.2 0-9.425 7.642-17.067 17.067-17.067s17.067 7.642 17.067 17.067c0 28.277 22.923 51.2 51.2 51.2 9.425 0 17.067 7.642 17.067 17.067s-7.642 17.067-17.067 17.067zM938.667 89.6c-4.855 6.466-10.601 12.211-17.067 17.067 6.466 4.855 12.211 10.601 17.067 17.067 4.855-6.466 10.601-12.211 17.067-17.067-6.466-4.855-12.211-10.601-17.067-17.067zM307.2 72.533c-28.277 0-51.2 22.923-51.2 51.2 0 9.425-7.642 17.067-17.067 17.067s-17.067-7.642-17.067-17.067c0-28.277-22.923-51.2-51.2-51.2-9.425 0-17.067-7.642-17.067-17.067s7.642-17.067 17.067-17.067c28.277 0 51.2-22.923 51.2-51.2 0-9.425 7.642-17.067 17.067-17.067s17.067 7.642 17.067 17.067c0 28.277 22.923 51.2 51.2 51.2 9.425 0 17.067 7.642 17.067 17.067s-7.642 17.067-17.067 17.067zM238.933 38.4c-4.855 6.466-10.601 12.211-17.067 17.067 6.466 4.855 12.211 10.601 17.067 17.067 4.855-6.466 10.601-12.211 17.067-17.067-6.466-4.855-12.211-10.601-17.067-17.067zM870.4 823.467c-28.277 0-51.2 22.923-51.2 51.2 0 9.425-7.642 17.067-17.067 17.067s-17.067-7.642-17.067-17.067c0-28.277-22.923-51.2-51.2-51.2-9.425 0-17.067-7.642-17.067-17.067s7.642-17.067 17.067-17.067c28.277 0 51.2-22.923 51.2-51.2 0-9.425 7.642-17.067 17.067-17.067s17.067 7.642 17.067 17.067c0 28.277 22.923 51.2 51.2 51.2 9.425 0 17.067 7.642 17.067 17.067s-7.642 17.067-17.067 17.067zM802.133 789.333c-4.855 6.466-10.601 12.211-17.067 17.067 6.466 4.855 12.211 10.601 17.067 17.067 4.855-6.466 10.601-12.211 17.067-17.067-6.466-4.855-12.211-10.601-17.067-17.067zM750.933-29.867h34.133v-34.133h-34.133v34.133zM750.933 38.4h34.133v-34.133h-34.133v34.133zM785.067 4.267h34.133v-34.133h-34.133v34.133zM716.8 4.267h34.133v-34.133h-34.133v34.133zM68.267 328.533h34.133v-34.133h-34.133v34.133zM136.533 294.4h34.133v-34.133h-34.133v34.133zM887.467 669.867h34.133v-34.133h-34.133v34.133zM955.733 635.733h34.133v-34.133h-34.133v34.133z" />
<glyph unicode="&#xe925;" glyph-name="stars-3" d="M197.88 646.297c3.949-4.031 9.332-6.336 14.974-6.418 5.642 0.080 11.025 2.387 14.974 6.418l65.246 63.107c7.78 8.877 7.78 22.142 0 31.019-7.587 8.271-20.445 8.824-28.714 1.235-0.43-0.393-0.841-0.807-1.235-1.235l-65.246-64.177c-8.271-7.587-8.824-20.445-1.235-28.714 0.393-0.43 0.805-0.841 1.235-1.235zM318.748 766.094c3.949-4.031 9.332-6.336 14.974-6.418 5.642 0.080 11.025 2.387 14.974 6.418l49.203 49.203c9.452 7.088 11.367 20.498 4.279 29.95s-20.498 11.367-29.95 4.279c-1.621-1.216-3.063-2.657-4.279-4.279l-49.201-49.205c-8.271-7.587-8.824-20.445-1.235-28.714 0.393-0.43 0.805-0.841 1.235-1.235zM416.084 863.43c3.949-4.031 9.332-6.336 14.974-6.418 5.968 0.027 11.705 2.322 16.045 6.418l35.298 36.367c7.479 9.143 7.022 22.414-1.069 31.019-8.607 7.864-21.925 7.389-29.95-1.069l-35.298-36.367c-8.271-7.587-8.824-20.445-1.235-28.714 0.393-0.432 0.805-0.843 1.235-1.237zM449.242 712.612l-116.589-117.658c-8.286-8.681-8.286-22.338 0-31.019 3.949-4.031 9.332-6.336 14.974-6.418 6.013-0.213 11.836 2.117 16.045 6.418l116.589 117.658c7.479 9.143 7.022 22.414-1.069 31.019-8.529 7.626-21.425 7.626-29.95 0zM513.42 744.701c3.949-4.031 9.332-6.336 14.974-6.418 5.642 0.080 11.025 2.387 14.974 6.418l86.639 87.709c8.286 8.681 8.286 22.338 0 31.019-8.607 7.864-21.925 7.389-29.95-1.069l-86.639-87.709c-8.271-7.587-8.824-20.445-1.235-28.714 0.395-0.432 0.807-0.843 1.237-1.237zM327.304 249.466c5.432 0.154 10.675 2.025 14.974 5.348l202.159 203.228c7.088 9.452 5.174 22.86-4.279 29.95-7.606 5.704-18.066 5.704-25.671 0l-202.159-202.159c-8.286-8.681-8.286-22.338 0-31.019 4.301-3.323 9.545-5.194 14.976-5.348zM552.829 498.852c0.393-0.43 0.807-0.841 1.235-1.235 3.949-4.031 9.332-6.336 14.974-6.418 5.696-0.182 11.178 2.168 14.974 6.418l170.069 169c7.090 9.452 5.174 22.86-4.279 29.95-7.606 5.704-18.066 5.704-25.671 0l-170.069-169c-8.267-7.589-8.82-20.445-1.232-28.716zM715.577 385.308c-8.681 8.286-22.338 8.286-31.019 0l-117.658-117.658c-8.271-7.587-8.824-20.445-1.235-28.714 0.393-0.43 0.807-0.841 1.235-1.235 3.949-4.031 9.332-6.336 14.974-6.418 6.013-0.213 11.836 2.117 16.045 6.418l117.658 117.658c7.626 8.525 7.626 21.421 0 29.948zM740.014 411.145c0.393-0.43 0.807-0.841 1.235-1.235 7.587-8.271 20.445-8.824 28.714-1.235 0.43 0.393 0.841 0.807 1.235 1.235l49.203 50.272c9.452 7.090 11.367 20.498 4.279 29.95-7.090 9.452-20.498 11.367-29.95 4.279-1.621-1.216-3.063-2.657-4.279-4.279l-49.203-50.272c-8.267-7.591-8.822-20.447-1.232-28.716zM872.811 326.478c-8.681 8.286-22.338 8.286-31.019 0l-116.589-117.658c-8.286-8.681-8.286-22.338 0-31.019 7.587-8.271 20.445-8.824 28.714-1.235 0.43 0.393 0.841 0.807 1.235 1.235l117.658 118.728c8.271 7.587 8.824 20.445 1.235 28.714-0.391 0.43-0.803 0.841-1.232 1.235zM1018.28 470.878c-8.681 8.286-22.338 8.286-31.019 0l-96.265-95.196c-8.286-8.681-8.286-22.338 0-31.019 7.587-8.271 20.445-8.824 28.714-1.235 0.43 0.393 0.841 0.807 1.235 1.235l97.336 96.265c7.626 8.527 7.626 21.423 0 29.95zM99.475 355.358h6.418c5.642 0.080 11.025 2.387 14.974 6.418l48.133 49.203 67.386-11.766c8.134-1.073 16.241 2.17 21.392 8.558 4.58 6.68 4.995 15.375 1.069 22.461l-31.019 62.038 31.019 59.899c3.925 7.086 3.511 15.781-1.069 22.461-5.151 6.388-13.258 9.629-21.392 8.558l-67.386-11.766-48.133 50.272c-5.706 5.401-13.817 7.43-21.392 5.348-8.353-2.256-14.364-9.553-14.974-18.184l-10.695-68.456-60.969-29.95c-7.356-3.726-12.227-11.029-12.835-19.253 0.139-8.378 5.155-15.904 12.835-19.253l60.969-31.019 10.695-68.456c1.72-7.894 7.374-14.356 14.974-17.112zM69.525 491.2l33.158 16.045c6.205 3.225 10.556 9.156 11.766 16.045l5.348 36.367 25.671-26.74c5.030-5.081 12.18-7.465 19.253-6.418l36.367 6.418-17.114-32.088c-3.239-6.388-3.239-13.936 0-20.324l17.114-33.158-36.367 6.418c-6.773 1.269-13.707-1.179-18.184-6.418l-25.671-25.671-6.418 36.367c-0.858 7.033-5.315 13.113-11.766 16.045l-33.156 17.114zM349.767 216.307c-5.151 6.388-13.258 9.629-21.392 8.558l-71.665-11.766-50.272 52.412c-6.038 5.587-14.554 7.614-22.461 5.348-7.766-2.223-13.32-9.057-13.905-17.114l-11.766-71.665-65.246-33.158c-7.452-3.452-12.094-11.047-11.766-19.253 0.18-8.064 4.672-15.414 11.766-19.253l65.246-32.088 11.766-71.665c0.586-8.056 6.138-14.89 13.905-17.114h6.418c6.013-0.213 11.836 2.117 16.045 6.418l50.272 51.343 71.665-11.766c8.41-1.335 16.813 2.447 21.392 9.627 4.58 6.68 4.995 15.375 1.069 22.461l-33.158 62.038 33.158 64.177c3.923 7.084 3.509 15.779-1.071 22.459zM273.823 120.042l19.253-36.367-40.646 6.418c-6.773 1.269-13.707-1.179-18.184-6.418l-28.88-28.88-6.418 40.646c-0.858 7.033-5.315 13.113-11.766 16.045l-36.367 18.184 36.367 19.253c6.162 2.731 10.57 8.341 11.766 14.974l6.418 40.646 27.811-29.95c5.030-5.081 12.18-7.465 19.253-6.418l40.646 7.487-19.253-35.298c-3.239-6.386-3.239-13.936 0-20.322zM637.496 94.371l32.088 59.899c3.497 6.809 3.087 14.966-1.069 21.392-4.449 7.274-13.154 10.757-21.392 8.558l-67.386-11.766-47.064 49.203c-6.134 5.403-14.55 7.407-22.461 5.348-7.288-3.192-12.777-9.465-14.974-17.114l-8.558-67.386-60.969-29.95c-7.094-3.839-11.586-11.189-11.766-19.253-0.328-8.206 4.314-15.801 11.766-19.253l60.969-29.95 8.558-67.386c1.521-7.997 7.252-14.544 14.974-17.114h6.418c6.013-0.213 11.836 2.117 16.045 6.418l47.064 48.133 67.386-11.766c8.136-1.073 16.241 2.17 21.392 8.558 4.58 6.68 4.995 15.375 1.069 22.461l-32.090 60.967zM594.711 82.605l17.114-31.019-36.367 5.348c-6.58 1.531-13.48-0.5-18.184-5.348l-25.671-25.671-4.279 35.298c-0.858 7.033-5.315 13.113-11.766 16.045l-32.088 16.045 32.088 17.114c6.596 2.75 11.125 8.926 11.766 16.045l4.279 34.227 25.671-25.671c4.475-5.239 11.41-7.686 18.184-6.418l36.367 6.418-17.114-32.088c-3.163-6.326-2.934-13.885 0-20.324z" />
<glyph unicode="&#xe926;" glyph-name="stars-4" d="M980.017 616.393c-2.392 2.249-5.337 3.831-8.534 4.581l-297.726 68.774-157.103 261.142c-5.284 8.858-16.748 11.755-25.606 6.474-2.661-1.588-4.886-3.812-6.474-6.474l-157.213-261.142-297.177-68.774c-10.039-2.376-16.251-12.436-13.876-22.475 0.684-2.898 2.052-5.586 3.988-7.847l199.949-230.491-26.916-303.879c-0.956-10.209 6.548-19.259 16.757-20.215 3.093-0.288 6.207 0.203 9.061 1.428l257.627 108.983-88.988 102.611c-19.506 22.516-17.067 56.584 5.449 76.090 6.66 5.771 14.636 9.822 23.225 11.799l161.387 37.353 85.253 141.722c15.381 25.422 48.37 33.706 73.937 18.567 7.707-4.589 14.131-11.052 18.677-18.786l65.917-109.203 159.19 183.36c7.070 7.512 6.707 19.33-0.805 26.4zM1002.319 298.012c-2.392 2.252-5.337 3.831-8.534 4.581l-175.779 40.649-92.833 154.356c-5.284 8.858-16.748 11.755-25.606 6.474-2.661-1.588-4.886-3.812-6.474-6.474l-93.273-154.356-175.779-40.649c-10.039-2.376-16.251-12.436-13.876-22.475 0.684-2.898 2.052-5.586 3.988-7.847l118.541-136.229-15.6-179.734c-0.956-10.209 6.548-19.259 16.757-20.215 3.093-0.288 6.207 0.2 9.061 1.428l166.112 70.422 164.793-69.762c9.113-4.834 20.418-1.362 25.249 7.751 1.689 3.183 2.42 6.787 2.107 10.376l-15.71 179.734 117.662 135.57c7.070 7.512 6.707 19.33-0.805 26.4z" />
<glyph unicode="&#xe927;" glyph-name="star-1" d="M1007.413 511.288l-207.81-202.592 49.048-286.078c3.515-20.597-4.998-41.441-21.888-53.744-9.557-6.948-20.927-10.491-32.296-10.491-8.733 0-17.521 2.087-25.568 6.316l-256.913 135.061-256.913-135.061c-18.51-9.749-40.919-8.101-57.864 4.119-16.89 12.303-25.375 33.12-21.833 53.744l49.076 286.078-207.865 202.619c-15.022 14.583-20.35 36.415-13.951 56.298 6.481 19.883 23.645 34.356 44.352 37.377l287.232 41.771 128.525 260.291c9.2 18.784 28.314 30.648 49.213 30.648 20.954 0 39.986-11.864 49.241-30.621l128.525-260.291 287.287-41.771c20.652-2.993 37.871-17.494 44.242-37.377 6.536-19.883 1.071-41.716-13.841-56.298z" />
<glyph unicode="&#xe928;" glyph-name="on" d="M53.057 352.775c-15.050 161.996 54.138 308.733 168.894 401.96 44.732 36.371 111.621 5.226 111.621-52.257v0c0-21.112-10.033-40.551-26.337-53.72-81.312-66.262-130.224-170.775-118.309-286.158 15.468-150.291 135.868-271.945 285.949-288.667 195.859-21.948 362.244 131.478 362.244 322.947 0 101.587-47.031 192.514-120.4 252.087-16.304 13.169-26.128 32.608-26.128 53.511v0c0 56.855 65.844 89.046 110.157 53.511 104.932-84.656 172.239-214.044 172.239-359.109 0-265.256-225.332-479.091-494.768-459.651-222.823 15.677-404.468 193.141-425.162 415.546zM511.872 960c-37.625 0-67.934-30.518-67.934-67.934v-312.914c0-37.625 30.518-67.934 67.934-67.934s67.934 30.518 67.934 67.934v312.914c0 37.416-30.309 67.934-67.934 67.934z" />
<glyph unicode="&#xe929;" glyph-name="video-1" d="M512 960c-288 0-512-224-512-512s224-512 512-512 512 224 512 512-224 512-512 512zM512 64c-224 0-384 160-384 384s160 384 384 384 384-160 384-384-160-384-384-384zM384 192l320 256-320 256z" />
<glyph unicode="&#xe92a;" d="M153.6 806.4c-28.373 0-51.2 22.827-51.2 51.2 0 9.387-7.68 17.067-17.067 17.067s-17.067-7.68-17.067-17.067c0-28.373-22.827-51.2-51.2-51.2-9.387 0-17.067-7.68-17.067-17.067s7.68-17.067 17.067-17.067c28.373 0 51.2-22.827 51.2-51.2 0-9.387 7.68-17.067 17.067-17.067s17.067 7.68 17.067 17.067c0 28.373 22.827 51.2 51.2 51.2 9.387 0 17.067 7.68 17.067 17.067s-7.68 17.067-17.067 17.067zM85.333 772.267c-4.907 6.4-10.667 12.16-17.067 17.067 6.4 4.907 12.16 10.667 17.067 17.067 4.907-6.4 10.667-12.16 17.067-17.067-6.4-4.907-12.16-10.667-17.067-17.067z" />
<glyph unicode="&#xe92b;" d="M238.933 960h34.133v-34.133h-34.133v34.133z" />
<glyph unicode="&#xe92c;" d="M238.933 891.733h34.133v-34.133h-34.133v34.133z" />
<glyph unicode="&#xe92d;" d="M204.8 925.867h34.133v-34.133h-34.133v34.133z" />
<glyph unicode="&#xe92e;" d="M273.067 925.867h34.133v-34.133h-34.133v34.133z" />
<glyph unicode="&#xe92f;" d="M1006.933 123.733c-28.373 0-51.2 22.827-51.2 51.2 0 9.387-7.68 17.067-17.067 17.067s-17.067-7.68-17.067-17.067c0-28.373-22.827-51.2-51.2-51.2-9.387 0-17.067-7.68-17.067-17.067s7.68-17.067 17.067-17.067c28.373 0 51.2-22.827 51.2-51.2 0-9.387 7.68-17.067 17.067-17.067s17.067 7.68 17.067 17.067c0 28.373 22.827 51.2 51.2 51.2 9.387 0 17.067 7.68 17.067 17.067s-7.68 17.067-17.067 17.067zM938.667 89.6c-4.907 6.4-10.667 12.16-17.067 17.067 6.4 4.907 12.16 10.667 17.067 17.067 4.907-6.4 10.667-12.16 17.067-17.067-6.4-4.907-12.16-10.667-17.067-17.067z" />
<glyph unicode="&#xe930;" d="M307.2 72.533c-28.373 0-51.2 22.827-51.2 51.2 0 9.387-7.68 17.067-17.067 17.067s-17.067-7.68-17.067-17.067c0-28.373-22.827-51.2-51.2-51.2-9.387 0-17.067-7.68-17.067-17.067s7.68-17.067 17.067-17.067c28.373 0 51.2-22.827 51.2-51.2 0-9.387 7.68-17.067 17.067-17.067s17.067 7.68 17.067 17.067c0 28.373 22.827 51.2 51.2 51.2 9.387 0 17.067 7.68 17.067 17.067s-7.68 17.067-17.067 17.067zM238.933 38.4c-4.907 6.4-10.667 12.16-17.067 17.067 6.4 4.907 12.16 10.667 17.067 17.067 4.907-6.4 10.667-12.16 17.067-17.067-6.4-4.907-12.16-10.667-17.067-17.067z" />
<glyph unicode="&#xe931;" d="M870.4 823.467c-28.373 0-51.2 22.827-51.2 51.2 0 9.387-7.68 17.067-17.067 17.067s-17.067-7.68-17.067-17.067c0-28.373-22.827-51.2-51.2-51.2-9.387 0-17.067-7.68-17.067-17.067s7.68-17.067 17.067-17.067c28.373 0 51.2-22.827 51.2-51.2 0-9.387 7.68-17.067 17.067-17.067s17.067 7.68 17.067 17.067c0 28.373 22.827 51.2 51.2 51.2 9.387 0 17.067 7.68 17.067 17.067s-7.68 17.067-17.067 17.067zM802.133 789.333c-4.907 6.4-10.667 12.16-17.067 17.067 6.4 4.907 12.16 10.667 17.067 17.067 4.907-6.4 10.667-12.16 17.067-17.067-6.4-4.907-12.16-10.667-17.067-17.067z" />
<glyph unicode="&#xe932;" d="M750.933-29.867h34.133v-34.133h-34.133v34.133z" />
<glyph unicode="&#xe933;" d="M750.933 38.4h34.133v-34.133h-34.133v34.133z" />
<glyph unicode="&#xe934;" d="M785.067 4.267h34.133v-34.133h-34.133v34.133z" />
<glyph unicode="&#xe935;" d="M716.8 4.267h34.133v-34.133h-34.133v34.133z" />
<glyph unicode="&#xe936;" d="M68.267 328.533h34.133v-34.133h-34.133v34.133z" />
<glyph unicode="&#xe937;" d="M136.533 294.4h34.133v-34.133h-34.133v34.133z" />
<glyph unicode="&#xe938;" d="M887.467 669.867h34.133v-34.133h-34.133v34.133z" />
<glyph unicode="&#xe939;" d="M955.733 635.733h34.133v-34.133h-34.133v34.133z" />
<glyph unicode="&#xe93a;" d="M514.133 738.56c-165.547 0-294.4-128.853-294.4-294.4s128.853-294.4 294.4-294.4 294.4 128.853 294.4 294.4-128.853 294.4-294.4 294.4zM514.133 183.893c-151.893 0-260.267 108.373-260.267 260.267s108.373 260.267 260.267 260.267 260.267-108.373 260.267-260.267-108.373-260.267-260.267-260.267z" />
<glyph unicode="&#xe93b;" d="M440.533 296.96l184.107 147.2-184.107 147.2z" />
<glyph unicode="&#xe93c;" glyph-name="arrow-left" d="M703.305-2.878c6.35-6.35 14.288-9.526 23.020-9.526s16.67 3.175 23.020 9.526c12.701 12.701 12.701 33.34 0 46.040l-404.837 404.837 404.837 404.837c12.701 12.701 12.701 33.34 0 46.040s-33.34 12.701-46.040 0l-428.651-427.857c-12.701-12.701-12.701-33.34 0-46.040l428.651-427.857z" />
<glyph unicode="&#xe93d;" glyph-name="arrow-right" d="M320.695-2.878c-6.35-6.35-14.288-9.526-23.020-9.526s-16.67 3.175-23.020 9.526c-12.701 12.701-12.701 33.34 0 46.040l404.837 404.837-404.837 404.837c-12.701 12.701-12.701 33.34 0 46.040s33.34 12.701 46.040 0l427.857-427.857c12.701-12.701 12.701-33.34 0-46.040l-427.857-427.857z" />
<glyph unicode="&#xe93e;" glyph-name="bookmark" d="M246-24.8c-5.8 0-11.6 1.2-16.6 3.4-15.8 6.6-26.2 22.4-26.2 39.6v754.6c0 86.2 70 156.2 156.2 156.2h415.2c23.6 0 42.8-19.2 42.8-43 0-23.6-19.2-42.8-42.8-42.8-18 0-32.6-14.6-32.6-32.6v-791.2c0.6-6.2-0.6-12.6-3.6-18.4-3.4-7.8-8.8-14.2-15.8-18.8-19-12.4-44.6-7.6-58 10.4-14.6 16.4-130.6 131.2-191.6 191.4l-196.6-196.4c-8.2-8-19-12.4-30.4-12.4zM359.4 881c-59.6 0-108.2-48.6-108.2-108.2v-742.2l221.6 221.2 17-16.8c120.2-118.8 182.4-180.8 204.2-203.6v779.2c0 30.2 16.6 56.6 41.4 70.4h-376zM850.2 730.2h-156.2v99.2c0 55 44.6 99.6 99.6 99.6 54.8 0 99.4-44.6 99.4-99.4v-56.6c0-23.6-19.2-42.8-42.8-42.8zM742 778.2h103v51.4c0 28.4-23 51.4-51.4 51.4s-51.6-23.2-51.6-51.6v-51.2z" />
<glyph unicode="&#xe93f;" glyph-name="config" d="M978.352 546.887c-19.258 2.884-39.028 5.65-58.758 8.222-2.39 0.31-4.33 1.932-4.934 4.128-9.106 33.046-22.32 64.934-39.272 94.778-1.14 2.004-0.926 4.532 0.546 6.446 12.134 15.77 24.162 31.712 35.752 47.38 15.648 21.156 13.376 51.176-5.28 69.834l-64.732 64.732c-18.658 18.656-48.676 20.928-69.836 5.276-15.634-11.564-31.574-23.592-47.378-35.75-1.908-1.472-4.442-1.686-6.446-0.548-29.842 16.952-61.73 30.166-94.778 39.274-2.198 0.602-3.82 2.542-4.132 4.938-2.578 19.76-5.342 39.528-8.218 58.752-3.894 26.026-26.726 45.65-53.112 45.65h-91.546c-26.388 0-49.22-19.624-53.108-45.648-2.878-19.228-5.642-38.994-8.22-58.758-0.314-2.394-1.934-4.33-4.134-4.934-33.048-9.112-64.938-22.324-94.774-39.274-2.006-1.138-4.538-0.918-6.45 0.548-15.802 12.158-31.744 24.186-47.38 35.752-21.162 15.65-51.18 13.374-69.834-5.28l-64.732-64.732c-18.658-18.66-20.928-48.682-5.276-69.836 11.608-15.692 23.636-31.63 35.75-47.376 1.47-1.91 1.686-4.44 0.548-6.446-16.956-29.85-30.168-61.738-39.274-94.778-0.602-2.194-2.542-3.816-4.934-4.13-19.72-2.574-39.488-5.338-58.756-8.222-26.028-3.89-45.652-26.726-45.652-53.11v-91.548c0-26.386 19.624-49.22 45.648-53.112 19.268-2.884 39.038-5.648 58.758-8.22 2.394-0.314 4.33-1.934 4.934-4.132 9.106-33.042 22.32-64.93 39.274-94.778 1.138-2.006 0.922-4.536-0.548-6.446-12.144-15.784-24.172-31.724-35.75-47.378-15.65-21.156-13.382-51.178 5.276-69.836l64.732-64.732c18.66-18.658 48.682-20.93 69.836-5.276 15.634 11.564 31.574 23.592 47.378 35.75 1.91 1.472 4.442 1.684 6.446 0.548 29.84-16.952 61.726-30.162 94.778-39.274 2.198-0.604 3.82-2.542 4.132-4.934 2.578-19.76 5.344-39.53 8.22-58.752 3.892-26.026 26.724-45.65 53.112-45.65h91.546c26.386 0 49.22 19.624 53.11 45.654 2.878 19.246 5.642 39.014 8.218 58.752 0.314 2.394 1.934 4.332 4.132 4.938 33.048 9.112 64.938 22.324 94.776 39.274 2.006 1.134 4.536 0.918 6.448-0.548 15.802-12.158 31.744-24.186 47.378-35.75 21.156-15.65 51.176-13.382 69.836 5.276l64.732 64.732c18.656 18.658 20.928 48.678 5.278 69.836-11.59 15.662-23.62 31.604-35.752 47.378-1.47 1.91-1.686 4.44-0.546 6.446 16.954 29.848 30.166 61.736 39.272 94.776 0.608 2.2 2.544 3.82 4.938 4.134 19.726 2.572 39.496 5.338 58.756 8.22 26.026 3.89 45.65 26.724 45.65 53.11v91.548c0 26.38-19.624 49.216-45.648 53.106zM976.184 402.223c0-2.9-2.108-5.4-4.906-5.822-18.964-2.838-38.432-5.558-57.864-8.096-21.516-2.804-39.12-18.048-44.852-38.84-8.058-29.236-19.75-57.454-34.75-83.864-10.666-18.778-9.008-42.024 4.224-59.224 11.952-15.536 23.798-31.234 35.208-46.658 1.684-2.274 1.404-5.538-0.646-7.588l-64.734-64.732c-2.052-2.052-5.314-2.326-7.586-0.648-15.394 11.39-31.096 23.236-46.66 35.21-17.198 13.234-40.442 14.892-59.218 4.228-26.41-15-54.628-26.694-83.868-34.754-20.788-5.73-36.032-23.334-38.842-44.852-2.534-19.444-5.258-38.912-8.094-57.864-0.418-2.798-2.922-4.906-5.822-4.906h-91.546c-2.9 0-5.404 2.108-5.822 4.908-2.83 18.93-5.556 38.398-8.094 57.86-2.806 21.518-18.054 39.122-38.842 44.852-29.242 8.060-57.46 19.754-83.868 34.756-8.234 4.674-17.328 6.982-26.392 6.982-11.608 0-23.17-3.78-32.824-11.214-15.566-11.974-31.266-23.82-46.66-35.21-2.276-1.678-5.534-1.404-7.584 0.648l-64.734 64.732c-2.052 2.052-2.332 5.312-0.648 7.586 11.402 15.414 23.246 31.112 35.208 46.66 13.23 17.2 14.89 40.442 4.228 59.218-15.006 26.418-26.696 54.634-34.754 83.868-5.73 20.788-23.334 36.034-44.85 38.84-19.424 2.534-38.894 5.26-57.868 8.096-2.798 0.42-4.906 2.922-4.906 5.822v91.548c0 2.9 2.108 5.402 4.906 5.822 18.974 2.838 38.442 5.562 57.864 8.096 21.518 2.804 39.122 18.050 44.852 38.84 8.054 29.232 19.748 57.45 34.754 83.868 10.664 18.778 9.004 42.022-4.226 59.218-11.93 15.512-23.776 31.208-35.208 46.66-1.68 2.274-1.402 5.538 0.648 7.586l64.73 64.734c2.048 2.052 5.31 2.326 7.584 0.648 15.394-11.388 31.094-23.234 46.66-35.21 17.2-13.228 40.442-14.89 59.222-4.224 26.406 15 54.624 26.694 83.864 34.754 20.79 5.73 36.038 23.334 38.844 44.852 2.54 19.462 5.262 38.93 8.096 57.866 0.418 2.794 2.922 4.904 5.822 4.904h91.546c2.9 0 5.404-2.108 5.822-4.906 2.834-18.93 5.556-38.396 8.096-57.864 2.806-21.518 18.054-39.122 38.842-44.852 29.24-8.060 57.456-19.754 83.868-34.754 18.776-10.66 42.020-9.004 59.216 4.228 15.566 11.974 31.266 23.82 46.658 35.208 2.274 1.684 5.538 1.406 7.588-0.648l64.732-64.732c2.052-2.052 2.328-5.314 0.648-7.586-11.41-15.428-23.256-31.124-35.208-46.66-13.23-17.202-14.89-40.446-4.224-59.224 15.002-26.41 26.694-54.626 34.754-83.866 5.73-20.788 23.338-36.032 44.848-38.836 19.432-2.536 38.902-5.26 57.868-8.096 2.798-0.42 4.906-2.922 4.906-5.822v-91.546zM512.001 670.267c-122.56 0-222.268-99.708-222.268-222.268s99.708-222.268 222.268-222.268 222.268 99.708 222.268 222.268-99.708 222.268-222.268 222.268zM512.001 273.549c-96.194 0-174.45 78.258-174.45 174.45 0 96.194 78.26 174.45 174.45 174.45 96.192 0 174.45-78.258 174.45-174.45s-78.256-174.45-174.45-174.45z" />
<glyph unicode="&#xe940;" glyph-name="courses" d="M653.786 325.907l-250.749 147.035c-7.538 5.081-17.404 5.081-24.945 0-7.413-4.877-11.471-13.496-10.504-22.319v-294.073c-0.967-8.82 3.088-17.441 10.504-22.319l11.815-3.938c4.681-0.095 9.275 1.282 13.127 3.938l250.749 147.035c12.325 6.151 17.331 21.133 11.177 33.458-2.412 4.845-6.337 8.767-11.175 11.182zM420.104 202.502v202.174l171.98-101.088-171.98-101.086zM905.847 677.742h-787.694c-65.255 0-118.153-52.9-118.153-118.153v-498.873c0-65.255 52.9-118.153 118.153-118.153h787.694c65.255 0 118.153 52.9 118.153 118.153v498.873c0 65.255-52.9 118.153-118.153 118.153zM971.487 60.716c0-36.252-29.387-65.64-65.64-65.64h-787.694c-36.252 0-65.64 29.387-65.64 65.64v498.873c0 36.252 29.387 65.64 65.64 65.64h787.694c36.252 0 65.64-29.387 65.64-65.64v-498.873zM135.22 756.512h754.872c14.501 0 26.256 11.755 26.256 26.256s-11.755 26.256-26.256 26.256h-754.872c-14.501 0-26.256-11.755-26.256-26.256s11.755-26.256 26.256-26.256zM246.809 900.924h530.381c14.501 0 26.256 11.755 26.256 26.256s-11.755 26.256-26.256 26.256h-530.381c-14.501 0-26.256-11.755-26.256-26.256s11.757-26.256 26.256-26.256z" />
<glyph unicode="&#xe941;" glyph-name="history" d="M310.279 201.64l-48.446-42.891c15.426-17.356 32.184-33.478 50.125-48.22l40.953 50.061c-15.275 12.533-29.53 26.26-42.632 41.050zM246.621 301.568l-59.362-25.482c9.178-21.389 20.077-41.996 32.588-61.623l54.485 34.623c-10.626 16.726-19.893 34.275-27.711 52.483zM806.612 825.234c-66.411 38.504-141.811 58.793-218.577 58.813-218.339-0.351-402.802-162.045-431.749-378.458l-110.618 110.618-45.668-45.668 184.32-184.32 184.32 184.32-45.668 45.668-99.895-99.766c37.955 201.369 231.966 333.84 433.335 295.884s333.84-231.966 295.884-433.333-231.966-333.842-433.335-295.884c-41.278 7.78-80.935 22.513-117.281 43.573l-32.459-55.842c208.321-120.781 475.112-49.816 595.893 158.504 120.783 208.319 49.818 475.11-158.502 595.891zM539.589 738.71v-355.269l142.108-106.581 38.757 51.675-116.27 87.202v322.972z" />
<glyph unicode="&#xe942;" glyph-name="home" d="M851.6 462.4c-16.4 0-29-12.6-29-29v-396.4h-205.6v161.8c0 15.2-12.6 28.4-28 28.4h-148.8c-16.4 0-29.6-13.2-29.6-28.4v-161.8h-205.2v383.2c0 15.4-12.6 28-29 28-15.2 0-28-12.8-28-28v-412.4c0-15.4 12.6-28 28-28h263.8c15.2 0 28 12.8 28 28v161.8h91.8v-161.8c0-15.4 12.6-28 29-28h262.6c15.2 0 28 12.8 28 28v425.6c0 16.4-12.8 29-28 29zM1009.2 439.8l-228.8 229.8v156.8c0 16.4-13.2 29-29.6 29-15.4 0-28-12.6-28-29v-99.2l-188.8 190c-5.8 5.8-12.6 9-19.6 9-8 0-14.8-3.2-20.6-9l-474-474c-11.4-11.4-12.2-29.6 0-40 10.6-12.2 28.6-11.4 40 0l454.8 453.2 453.6-457.8c4.8-4.8 11.6-7.4 20.6-7.4 8 0 14.8 2.6 20.6 7.4 10.4 10.6 11.2 29.6-0.2 41.2z" />
<glyph unicode="&#xe943;" glyph-name="favorite" d="M511-18.6l-340.2 308.8c-68.8 62.4-116 141.2-136.4 228-13.2 56.2-10.4 93.2-8.4 107.6 15 163.4 132.4 282 279.4 282 80.6 0 155-36.2 206.6-98.8 20.8 24.6 45.8 45.6 73.6 61.8 41.8 24.2 89.2 37 137.2 37 146.6 0 263.8-118.4 279.2-281.6 1.6-10.2 5.8-47.8-8.2-107.8-20.4-86.8-67.6-165.6-136.6-228l-0.2-0.2-346-308.8zM305.2 844.6c-113.8 0-205-94.8-216.6-225.4l-0.2-2c-0.8-5.4-4.4-35.2 7.4-84.6 17.6-74.2 58.2-142 117.4-195.8l298.2-270.6 303.6 270.8c59.4 53.8 100 121.4 117.4 195.6 12.4 53.6 7.4 83.4 7.2 83.8l-0.4 2.8c-11.8 130.6-103 225.6-216.6 225.6-75.4 0-144.4-39.8-184.2-106.4l-27.4-45.8-27 46c-38.6 66.4-105.6 106-178.8 106z" />
<glyph unicode="&#xe944;" glyph-name="notes" d="M704.918 520c0 22.092-17.908 40-40 40h-412c-22.092 0-40-17.908-40-40s17.908-40 40-40h412c22.092 0 40 17.908 40 40zM252.918 400c-22.092 0-40-17.908-40-40s17.908-40 40-40h250.222c22.092 0 40 17.908 40 40s-17.908 40-40 40h-250.222zM346.918 16h-133.778c-44.112 0-80 35.888-80 80v704c0 44.112 35.888 80 80 80h491.778c44.112 0 80-35.888 80-80v-246c0-22.092 17.908-40 40-40s40 17.908 40 40v246c0 88.224-71.776 160-160 160h-491.778c-88.224 0-160-71.776-160-160v-704c0-88.224 71.776-160 160-160h133.778c22.092 0 40 17.908 40 40s-17.908 40-40 40zM935.768 380.856c-46.788 46.788-122.916 46.79-169.674 0.032l-219.606-219.12c-4.664-4.654-8.104-10.386-10.020-16.69l-47.826-157.45c-4.24-13.96-0.546-29.118 9.642-39.56 7.632-7.822 18-12.068 28.634-12.068 3.558 0 7.15 0.476 10.676 1.454l161.45 44.722c6.644 1.84 12.7 5.366 17.58 10.238l219.146 218.734c46.788 46.788 46.788 122.916-0.002 169.708zM667.552 56.464l-81.224-22.5 23.77 78.258 148.178 147.85 56.58-56.58-147.304-147.028zM879.23 267.74l-7.75-7.734-56.57 56.57 7.724 7.708c15.596 15.596 40.972 15.596 56.568 0s15.596-40.972 0.028-56.544zM664.918 720h-412c-22.092 0-40-17.908-40-40s17.908-40 40-40h412c22.092 0 40 17.908 40 40s-17.908 40-40 40z" />
<glyph unicode="&#xe945;" glyph-name="pen2" d="M982.64 914.252c-59.48 59.478-148.356 48.604-210.034 35.254-80.348-17.394-178.902-55.32-293.018-99.234-11.728-4.514-23.638-9.098-35.732-13.738-0.474-0.182-0.946-0.374-1.412-0.572-4.296-1.84-105.872-45.448-164.762-81.766-174.134-107.388-211.216-250.716-211.662-352.040-0.22-50.27 8.406-101.616 25.624-152.982-58.852-100.208-91.62-195.794-91.62-273.176 0-22.090 17.906-39.998 39.998-39.998s39.998 17.908 39.998 39.998c0 48.014 18.844 119.684 65.542 206.174 18.15-9.902 43.988-21.572 76.72-30.222 25.544-6.748 57.582-12.11 94.918-12.11 50.328 0 110.276 9.75 176.828 38.98 29.344 12.888 58.050 28.15 85.32 45.368 18.68 11.792 24.262 36.494 12.47 55.176-11.794 18.682-36.492 24.258-55.176 12.47-23.912-15.098-49.074-28.476-74.786-39.77-74.676-32.798-147.168-40.782-215.466-23.714-25.484 6.368-45.672 15.232-59.61 22.578 26.478 40.264 58.54 82.854 96.932 127.078 111.954 128.954 315.214 313.468 651.754 468.166 11.742-18.476 14.924-47.558-14.37-104.736-15.078-29.43-36.288-61.536-61.712-96.278-0.796-0.314-1.596-0.606-2.38-0.974-45.966-21.548-136.612-27.678-167.682-28.222-22.088-0.368-39.696-18.572-39.326-40.658 0.364-21.864 18.2-39.332 39.978-39.332 0.226 0 0.454 0.002 0.68 0.006 7.168 0.12 45.264 1.026 89.736 7.106-6.354-7.968-12.808-16.040-19.348-24.216-17.094-21.38-34.698-43.422-52.478-66.018-58.816-13.238-117.518-18.626-183.518-16.888-0.36 0.010-0.716 0.014-1.072 0.014-21.602 0-39.392-17.222-39.964-38.946-0.58-22.084 16.85-40.456 38.932-41.038 8.772-0.23 17.426-0.348 25.982-0.348 67.814 0 129.422 7.294 191.936 22.61 0.39 0.096 0.758 0.236 1.142 0.342 0.766 0.212 1.53 0.426 2.284 0.684 0.54 0.184 1.060 0.394 1.586 0.6 0.69 0.268 1.376 0.54 2.054 0.848 0.552 0.25 1.086 0.526 1.624 0.8 0.62 0.316 1.236 0.636 1.84 0.988 0.55 0.318 1.082 0.66 1.614 1.002 0.558 0.36 1.112 0.72 1.654 1.11s1.064 0.802 1.584 1.218c0.494 0.394 0.986 0.786 1.462 1.206 0.538 0.472 1.046 0.966 1.556 1.464 0.422 0.414 0.848 0.822 1.256 1.258 0.526 0.562 1.016 1.15 1.508 1.74 0.268 0.322 0.558 0.612 0.818 0.944 20.488 26.182 40.92 51.74 60.682 76.454 71.456 89.374 133.17 166.562 168.768 236.050 20.77 40.538 31.124 75.83 31.658 107.89 0.662 39.218-13.24 73.332-41.31 101.4zM223.31 430.45c-26.086-30.050-50.212-60.408-72.2-90.714-3.476 20.916-5.182 41.64-5.092 62.068 0.478 109.27 50.73 199.41 149.388 268.34-0.178-0.444-0.354-0.874-0.532-1.322-8.206-20.51 1.772-43.788 22.282-51.992 4.874-1.95 9.896-2.872 14.844-2.872 15.874 0 30.892 9.516 37.148 25.152 17.994 44.98 30.256 66.214 48.698 98.018 28.398 13.3 51.252 23.208 55.412 25 11.864 4.552 23.55 9.050 35.062 13.48 121.176 46.634 227.038 87.366 304.574 100.13-296.956-151.036-482.76-322.236-589.584-445.288z" />
<glyph unicode="&#xe946;" glyph-name="play-2" d="M224.4-59.2c-8.2 0-15.8 1.8-23 5.6-16.4 8.4-26.6 25.2-26.6 43.8v915.4c0 18.4 10 35.2 26.4 43.8 16.2 8.8 35.8 7.6 51.2-3l664.4-458c13-9.6 20.8-24.6 20.8-40.4 0-16.4-8-31.6-21.4-40.8l-664.4-458c-8.2-5.4-17.6-8.4-27.4-8.4zM228.4 898.2v-900.6l652.8 450.4-652.8 450.2z" />
<glyph unicode="&#xe947;" glyph-name="search" d="M998.935 82.081l-222.458 222.454c-1.182 1.182-2.569 2.009-3.805 3.109 43.772 66.399 69.32 145.881 69.32 231.356 0 232.513-188.487 421-420.996 421s-420.996-188.487-420.996-420.996c0-232.505 188.483-420.996 420.992-420.996 85.479 0 164.956 25.548 231.356 69.32 1.1-1.231 1.923-2.618 3.105-3.8l222.462-222.462c33.418-33.414 87.598-33.414 121.020 0 33.414 33.418 33.414 87.598 0 121.016zM420.996 263.953c-151.911 0-275.054 123.144-275.054 275.050 0 151.911 123.148 275.054 275.054 275.054 151.902 0 275.050-123.148 275.050-275.054s-123.148-275.050-275.050-275.050z" />
<glyph unicode="&#xe948;" glyph-name="snippet" d="M365.4-34.6c-58.6 16.6-102.6 43.8-132.2 81.6s-44.4 88-44.4 150.2v98.8c0 80.4-35 120.6-105.2 120.6v72c70.2 0 105.2 40 105.2 120.2v103.2c0.6 60.6 15.4 109.4 44.4 146.6 28.8 37.2 72.8 64.2 132.2 81.2l18.8-57c-69.2-22.2-103.8-80-103.8-173.2v-100.2c0-75.2-27.6-127.4-82.8-156.8 55.2-29.8 82.8-82.6 82.8-158.4v-102.2c1-91 35.6-147.4 103.8-169.2l-18.8-57.4zM656.8 22.4c67.2 21.6 102 76.2 104.2 164.2v109.4c0 76.4 30 128.6 89.8 156.4-59.8 27.2-89.8 79.2-89.8 156.4v100.8c0 93.4-34.6 151-103.8 173.2l18.8 57c58.6-16.6 102.6-43.4 132-80.6s44.4-86.4 44.6-147.6v-104.2c0-79 35-118.6 105.2-118.6v-72c-70.2 0-105.2-40.2-105.2-120.6v-100.2c0-62.2-15-112-45-149.4s-73.8-64.4-131.8-81l-19 56.8z" />
<glyph unicode="&#xe949;" glyph-name="success" d="M303.104 62.976c-22.528 0-45.056 9.216-62.464 25.6l-208.896 208.896c-34.816 34.816-34.816 91.136 0 125.952s91.136 34.816 125.952 0l147.456-147.456 562.176 525.312c35.84 33.792 92.16 31.744 125.952-4.096s31.744-92.16-4.096-125.952l-624.64-583.68c-18.432-16.384-39.936-24.576-61.44-24.576z" />
<glyph unicode="&#xe94a;" glyph-name="play-3" horiz-adv-x="996" d="M0 899.114v-899.459c0-41.514 41.514-66.422 77.492-49.816l888.389 448.346c38.746 19.373 38.746 77.492 0 96.865l-888.389 451.114c-8.303 5.535-16.605 5.535-24.908 5.535-27.676 0-52.584-22.141-52.584-52.584z" />
<glyph unicode="&#xe94b;" glyph-name="favorite-line" d="M508.062-42.338l-350.523 317.046c-70.892 64.985-120.123 145.723-141.785 236.308-13.785 59.077-9.846 100.431-7.877 114.215 15.754 171.323 139.815 295.385 295.385 295.385 78.769 0 151.631-31.508 204.8-88.615 55.138 57.108 129.969 88.615 208.738 88.615 155.569 0 279.631-124.062 295.385-295.385 1.969-13.785 5.908-53.169-7.877-112.246-21.662-90.585-68.923-171.323-141.785-236.308l-354.462-319.015zM305.231 822.154c-104.369 0-187.077-86.646-196.923-206.769v-3.938c0-1.969-3.938-27.569 7.877-76.8 15.754-70.892 55.138-133.908 110.277-185.108l283.569-257.969 289.477 257.969c55.138 51.2 94.523 114.215 110.277 185.108 11.815 47.262 7.877 74.831 7.877 76.8v3.938c-11.815 120.123-94.523 206.769-196.923 206.769-68.923 0-131.938-35.446-167.385-96.492l-43.323-70.892-41.354 72.862c-37.415 59.077-98.462 94.523-163.446 94.523z" />
<glyph unicode="&#xe94c;" glyph-name="copy" d="M938.021 960h-642.801c-23.877 0-43.566-19.688-43.566-43.566v-124.204h-165.675c-23.877 0-43.566-19.688-43.566-43.566v-769.1c0-23.877 19.688-43.566 43.566-43.566h644.896c21.783 0 41.471 19.688 43.566 43.566v126.298h165.675c23.877 0 41.471 17.384 41.471 41.471v769.1c0 23.877-19.688 43.566-43.566 43.566zM687.309 20.827h-557.765v684.272h557.765v-684.272zM896.55 192.995h-122.109v555.67c0 23.877-19.688 43.566-43.566 43.566h-392.090v82.733h557.765v-681.969zM277.835 469.678h248.407c21.783 0 41.471 19.688 43.566 43.566 0 23.877-19.688 43.566-43.566 43.566h-248.407c-23.877 0-43.566-19.688-43.566-43.566s19.479-43.566 43.566-43.566zM277.835 171.212h248.407c21.783 0 41.471 19.688 43.566 43.566 0 23.877-19.688 43.566-43.566 43.566h-248.407c-23.877 0-43.566-19.688-43.566-43.566s19.479-43.566 43.566-43.566z" />
<glyph unicode="&#xe94d;" glyph-name="download" d="M869.741 307.404v-233.917h-715.516v233.917h-137.522v-302.677c0-37.95 30.743-68.727 68.863-68.727h852.832c38.087 0 68.863 30.743 68.863 68.727v302.677h-137.522zM499.396 330.598l-196.889 237.913c0 0-29.957 28.283 2.528 28.283s110.946 0 110.946 0 0 19.026 0 48.368c0 83.654 0 235.898 0 297.964 0 0-4.406 16.874 21.007 16.874 25.619 0 137.829 0 156.172 0 18.309 0 17.899-14.21 17.899-14.21 0-60.187 0-217.691 0-298.613 0-26.234 0-43.245 0-43.245s62.92 0 102.407 0c39.419 0 9.735-29.615 9.735-29.615s-167.513-222.371-190.877-245.701c-16.806-16.908-32.929 1.981-32.929 1.981z" />
<glyph unicode="&#xe994;" glyph-name="cog" d="M933.79 349.75c-53.726 93.054-21.416 212.304 72.152 266.488l-100.626 174.292c-28.75-16.854-62.176-26.518-97.846-26.518-107.536 0-194.708 87.746-194.708 195.99h-201.258c0.266-33.41-8.074-67.282-25.958-98.252-53.724-93.056-173.156-124.702-266.862-70.758l-100.624-174.292c28.97-16.472 54.050-40.588 71.886-71.478 53.638-92.908 21.512-211.92-71.708-266.224l100.626-174.292c28.65 16.696 61.916 26.254 97.4 26.254 107.196 0 194.144-87.192 194.7-194.958h201.254c-0.086 33.074 8.272 66.57 25.966 97.218 53.636 92.906 172.776 124.594 266.414 71.012l100.626 174.29c-28.78 16.466-53.692 40.498-71.434 71.228zM512 240.668c-114.508 0-207.336 92.824-207.336 207.334 0 114.508 92.826 207.334 207.336 207.334 114.508 0 207.332-92.826 207.332-207.334-0.002-114.51-92.824-207.334-207.332-207.334z" />
<glyph unicode="&#xe999;" glyph-name="bug" d="M1024 384v64h-193.29c-5.862 72.686-31.786 139.026-71.67 192.25h161.944l70.060 280.24-62.090 15.522-57.94-231.76h-174.68c-0.892 0.694-1.796 1.374-2.698 2.056 6.71 19.502 10.362 40.422 10.362 62.194 0.002 105.76-85.958 191.498-191.998 191.498s-192-85.738-192-191.5c0-21.772 3.65-42.692 10.362-62.194-0.9-0.684-1.804-1.362-2.698-2.056h-174.68l-57.94 231.76-62.090-15.522 70.060-280.24h161.944c-39.884-53.222-65.806-119.562-71.668-192.248h-193.29v-64h193.37c3.802-45.664 15.508-88.812 33.638-127.75h-123.992l-70.060-280.238 62.090-15.524 57.94 231.762h112.354c58.692-78.032 147.396-127.75 246.66-127.75s187.966 49.718 246.662 127.75h112.354l57.94-231.762 62.090 15.524-70.060 280.238h-123.992c18.13 38.938 29.836 82.086 33.636 127.75h193.37z" />
<glyph unicode="&#xe9bd;" glyph-name="menu" d="M64 768h896v-192h-896zM64 512h896v-192h-896zM64 256h896v-192h-896z" />
<glyph unicode="&#xea0f;" glyph-name="cross" d="M1014.662 137.34c-0.004 0.004-0.008 0.008-0.012 0.010l-310.644 310.65 310.644 310.65c0.004 0.004 0.008 0.006 0.012 0.010 3.344 3.346 5.762 7.254 7.312 11.416 4.246 11.376 1.824 24.682-7.324 33.83l-146.746 146.746c-9.148 9.146-22.45 11.566-33.828 7.32-4.16-1.55-8.070-3.968-11.418-7.31 0-0.004-0.004-0.006-0.008-0.010l-310.648-310.652-310.648 310.65c-0.004 0.004-0.006 0.006-0.010 0.010-3.346 3.342-7.254 5.76-11.414 7.31-11.38 4.248-24.682 1.826-33.83-7.32l-146.748-146.748c-9.148-9.148-11.568-22.452-7.322-33.828 1.552-4.16 3.97-8.072 7.312-11.416 0.004-0.002 0.006-0.006 0.010-0.010l310.65-310.648-310.65-310.652c-0.002-0.004-0.006-0.006-0.008-0.010-3.342-3.346-5.76-7.254-7.314-11.414-4.248-11.376-1.826-24.682 7.322-33.83l146.748-146.746c9.15-9.148 22.452-11.568 33.83-7.322 4.16 1.552 8.070 3.97 11.416 7.312 0.002 0.004 0.006 0.006 0.010 0.010l310.648 310.65 310.648-310.65c0.004-0.002 0.008-0.006 0.012-0.008 3.348-3.344 7.254-5.762 11.414-7.314 11.378-4.246 24.684-1.826 33.828 7.322l146.746 146.748c9.148 9.148 11.57 22.454 7.324 33.83-1.552 4.16-3.97 8.068-7.314 11.414z" />
</font>
</defs>
</svg>
