<?xml version="1.0" encoding="utf-8"?>
<!-- Generator: Adobe Illustrator 19.0.0, SVG Export Plug-In . SVG Version: 6.00 Build 0)  -->
<svg version="1.1" id="Capa_1" xmlns="http://www.w3.org/2000/svg" xmlns:xlink="http://www.w3.org/1999/xlink" x="0px" y="0px"
	 viewBox="0 0 960 560" style="enable-background:new 0 0 960 560;" xml:space="preserve">
<style type="text/css">
	.st0{opacity:0.51;}
	.st1{fill:url(#XMLID_36_);}
	.st2{fill:url(#XMLID_37_);}
	.st3{fill:url(#XMLID_38_);}
	.st4{opacity:0.79;fill:url(#XMLID_39_);enable-background:new    ;}
	.st5{fill:url(#XMLID_42_);}
	.st6{opacity:0.77;fill:url(#XMLID_43_);enable-background:new    ;}
	.st7{display:none;}
	.st8{display:inline;}
	.st9{opacity:0.26;fill:#00F4FF;enable-background:new    ;}
	.st10{opacity:0.62;fill:#001463;enable-background:new    ;}
	.st11{opacity:0.62;fill:#2F00C6;enable-background:new    ;}
	.st12{opacity:0.21;fill:#3B8DDF;enable-background:new    ;}
	.st13{opacity:0.6;fill:#3B8DDF;enable-background:new    ;}
	.st14{opacity:0.23;fill:#2F00C6;enable-background:new    ;}
	.st15{opacity:0.3;fill:#2F00C6;enable-background:new    ;}
	.st16{fill:#28B5F5;}
	.st17{fill:#0287D0;}
	.st18{fill:#0277BC;}
	.st19{fill:#7900B8;}
	.st20{fill:#460055;}
	.st21{fill:#9F65FF;}
</style>
<g id="XMLID_44_" class="st0">
	<g>
		
			<linearGradient id="XMLID_36_" gradientUnits="userSpaceOnUse" x1="-112.0093" y1="477.0289" x2="-112.0093" y2="147.011" gradientTransform="matrix(-0.5217 0.5217 0.9767 0.9767 180.4529 -18.1296)">
			<stop  offset="0" style="stop-color:#2194FF;stop-opacity:0"/>
			<stop  offset="0.3902" style="stop-color:#218FFF;stop-opacity:0.6251"/>
			<stop  offset="0.6242" style="stop-color:#2189FF"/>
			<stop  offset="0.6654" style="stop-color:#2184FF;stop-opacity:0.8904"/>
			<stop  offset="0.8631" style="stop-color:#2171FF;stop-opacity:0.3642"/>
			<stop  offset="1" style="stop-color:#216AFF;stop-opacity:0"/>
		</linearGradient>
		<path id="XMLID_100_" class="st1" d="M796.6,277.4c-11.1,19.4-23.4,38.5-36.8,57c-212.8,36.4-390.9-51.8-476.1-168.6
			c15.1-3.7,29.6-8.4,43.4-13.8C414.9,257.8,592.4,331.6,796.6,277.4z"/>
		
			<linearGradient id="XMLID_37_" gradientUnits="userSpaceOnUse" x1="-20.0867" y1="530.1777" x2="-20.0867" y2="23.0571" gradientTransform="matrix(-0.5217 0.5217 0.9767 0.9767 180.4529 -18.1296)">
			<stop  offset="0" style="stop-color:#2194FF;stop-opacity:0"/>
			<stop  offset="0.33" style="stop-color:#218FFF;stop-opacity:0.6251"/>
			<stop  offset="0.5279" style="stop-color:#2189FF"/>
			<stop  offset="0.5796" style="stop-color:#2184FF;stop-opacity:0.8904"/>
			<stop  offset="0.828" style="stop-color:#2171FF;stop-opacity:0.3642"/>
			<stop  offset="1" style="stop-color:#216AFF;stop-opacity:0"/>
		</linearGradient>
		<path id="XMLID_99_" class="st2" d="M812.9,376.9c-9.3,12.8-19.1,25.3-29.3,37.5c-168.2,30.2-321.6-8.7-431.4-80.7
			C241.2,261.6,173.9,156.3,153.7,53.6c9.6,1.9,19.1,3.3,28.5,4.3c23,97.9,92.6,197.4,204,262.5
			C496.6,385.6,648.8,416.4,812.9,376.9z"/>
		
			<linearGradient id="XMLID_38_" gradientUnits="userSpaceOnUse" x1="-156.2646" y1="536.0861" x2="-156.2646" y2="70.9841" gradientTransform="matrix(-0.5217 0.5217 0.9767 0.9767 180.4529 -18.1296)">
			<stop  offset="0" style="stop-color:#21FFFF;stop-opacity:0"/>
			<stop  offset="0.1673" style="stop-color:#21FAFF;stop-opacity:0.317"/>
			<stop  offset="0.3592" style="stop-color:#21ECFF;stop-opacity:0.6805"/>
			<stop  offset="0.5279" style="stop-color:#21DAFF"/>
			<stop  offset="0.6268" style="stop-color:#21E5FF;stop-opacity:0.7904"/>
			<stop  offset="0.8473" style="stop-color:#21F8FF;stop-opacity:0.3234"/>
			<stop  offset="1" style="stop-color:#21FFFF;stop-opacity:0"/>
		</linearGradient>
		<path id="XMLID_98_" class="st3" d="M912.3,264.3c-10.2,22.9-21.8,45.5-34.5,67.5c-160.7,59.5-316,45.3-433-7.1
			C326.7,272.2,246.8,181.5,213.1,87.9c14.8-0.3,29.2-1.5,43.1-3.8c36.8,86.5,118.8,168.4,236,210.2
			C608.4,336.1,759.9,337.9,912.3,264.3z"/>
		
			<linearGradient id="XMLID_39_" gradientUnits="userSpaceOnUse" x1="45.8735" y1="553.1567" x2="45.8735" y2="17.9062" gradientTransform="matrix(-0.5217 0.5217 0.9767 0.9767 180.4529 -18.1296)">
			<stop  offset="0" style="stop-color:#21FFFF;stop-opacity:0"/>
			<stop  offset="0.1673" style="stop-color:#21FAFF;stop-opacity:0.317"/>
			<stop  offset="0.3592" style="stop-color:#21ECFF;stop-opacity:0.6805"/>
			<stop  offset="0.5279" style="stop-color:#21DAFF"/>
			<stop  offset="0.6268" style="stop-color:#21E5FF;stop-opacity:0.7904"/>
			<stop  offset="0.8473" style="stop-color:#21F8FF;stop-opacity:0.3234"/>
			<stop  offset="1" style="stop-color:#21FFFF;stop-opacity:0"/>
		</linearGradient>
		<path id="XMLID_97_" class="st4" d="M797.4,444.2c-3.3,3.8-6.6,7.6-10,11.3c-174.9,30-334.9-10.2-451.1-85.1
			c-117.2-75-190.4-184.8-215.3-294c3.1,0.8,6.2,1.6,9.3,2.3c25.9,107.7,100,215.5,217.4,288.2C464,439.6,623.7,477.2,797.4,444.2z"
			/>
		
			<linearGradient id="XMLID_42_" gradientUnits="userSpaceOnUse" x1="67.2515" y1="488.0402" x2="67.2515" y2="37.7935" gradientTransform="matrix(-0.5217 0.5217 0.9767 0.9767 180.4529 -18.1296)">
			<stop  offset="0" style="stop-color:#F7931E;stop-opacity:0"/>
			<stop  offset="0.5279" style="stop-color:#FF931E"/>
			<stop  offset="0.5725" style="stop-color:#FE931E;stop-opacity:0.9054"/>
			<stop  offset="1" style="stop-color:#F7931E;stop-opacity:0"/>
		</linearGradient>
		<path id="XMLID_96_" class="st5" d="M699.9,415.8c-10.8,10.8-22,21.3-33.6,31.5c-137.2-0.8-258.2-44.7-348.1-110.7
			c-90.4-66-149.8-154-175.6-243.1c10.3,1.9,20.5,3.4,30.6,4.3c28.3,84.7,89.6,167.6,180.7,227.6C444.5,385.5,565,422.6,699.9,415.8
			z"/>
		
			<linearGradient id="XMLID_43_" gradientUnits="userSpaceOnUse" x1="-189.7863" y1="476.521" x2="-189.7863" y2="85.0352" gradientTransform="matrix(-0.5217 0.5217 0.9767 0.9767 180.4529 -18.1296)">
			<stop  offset="0" style="stop-color:#FF00A1;stop-opacity:0"/>
			<stop  offset="0.1505" style="stop-color:#FF0DA4;stop-opacity:0.285"/>
			<stop  offset="0.4297" style="stop-color:#FF30AB;stop-opacity:0.8141"/>
			<stop  offset="0.5279" style="stop-color:#FF3EAE"/>
			<stop  offset="0.5512" style="stop-color:#FF3AAD;stop-opacity:0.9507"/>
			<stop  offset="0.7359" style="stop-color:#FF1AA6;stop-opacity:0.5593"/>
			<stop  offset="0.8921" style="stop-color:#FF07A2;stop-opacity:0.2286"/>
			<stop  offset="1" style="stop-color:#FF00A1;stop-opacity:0"/>
		</linearGradient>
		<path id="XMLID_95_" class="st6" d="M846.9,241.6c-1.4,2.9-2.7,5.9-4.1,8.8c-137.4,51.1-269.1,39.8-368.4-3.6
			c-100.1-43.4-167.8-119-196.1-196.7c1.8-0.4,3.6-0.9,5.3-1.3c28.6,76.9,96.5,151.4,196.5,193.6
			C579.2,284.6,710.5,294.4,846.9,241.6z"/>
	</g>
</g>
<g id="Capa_1_copia_2_" class="st7">
	<g id="Capa_1_3_" class="st8">
		<g id="XMLID_21_">
			<path id="XMLID_30_" class="st9" d="M1257.1,144c0-24.6-19.4-44.8-43.7-46V23.2c0-19.4-15.7-35.1-35.1-35.1H932.4
				c-19.4,0-35.1,15.7-35.1,35.1v180.1c-24.3,1.2-43.7,21.4-43.7,46s19.4,44.8,43.7,46v61.5c0,19.4,15.7,35.1,35.1,35.1h245.9
				c19.4,0,35.1-15.7,35.1-35.1V190C1237.7,188.8,1257.1,168.6,1257.1,144z M866.7,249.3c0-17.4,13.5-31.6,30.6-32.8v65.7
				C880.2,281,866.7,266.7,866.7,249.3z M1213.3,176.8v-65.7c17.1,1.2,30.6,15.5,30.6,32.8C1243.9,161.3,1230.4,175.6,1213.3,176.8z
				"/>
			<path id="XMLID_29_" class="st10" d="M925.8,97.9c0-3.6,2.9-6.6,6.6-6.6h79c3.6,0,6.6,2.9,6.6,6.6c0,3.6-2.9,6.6-6.6,6.6h-79
				C928.7,104.5,925.8,101.5,925.8,97.9z M1178.2,275.7h-79c-3.6,0-6.6,2.9-6.6,6.6s2.9,6.6,6.6,6.6h79c3.6,0,6.6-2.9,6.6-6.6
				S1181.9,275.7,1178.2,275.7z M1020.2,214.2h-87.8c-3.6,0-6.6,2.9-6.6,6.6c0,3.6,2.9,6.6,6.6,6.6h87.8c3.6,0,6.6-2.9,6.6-6.6
				C1026.8,217.2,1023.8,214.2,1020.2,214.2z M1178.2,214.2h-79c-3.6,0-6.6,2.9-6.6,6.6c0,3.6,2.9,6.6,6.6,6.6h79
				c3.6,0,6.6-2.9,6.6-6.6C1184.8,217.2,1181.9,214.2,1178.2,214.2z M1013.6,159.3c0,3.6,2.9,6.6,6.6,6.6h158c3.6,0,6.6-2.9,6.6-6.6
				c0-3.6-2.9-6.6-6.6-6.6h-158C1016.5,152.8,1013.6,155.7,1013.6,159.3z M932.4,165.9h35.1c3.6,0,6.6-2.9,6.6-6.6
				c0-3.6-2.9-6.6-6.6-6.6h-35.1c-3.6,0-6.6,2.9-6.6,6.6C925.8,163,928.7,165.9,932.4,165.9z M992.9,152.8c-3.6,0-6.6,2.9-6.6,6.6
				c0,3.6,2.9,6.6,6.6,6.6h0.9c3.6,0,6.6-2.9,6.6-6.6c0-3.6-2.9-6.6-6.6-6.6H992.9z M1047.4,214.2h-0.9c-3.6,0-6.6,2.9-6.6,6.6
				c0,3.6,2.9,6.6,6.6,6.6h0.9c3.6,0,6.6-2.9,6.6-6.6C1054,217.2,1051,214.2,1047.4,214.2z M1072.8,214.2h-0.8
				c-3.6,0-6.6,2.9-6.6,6.6c0,3.6,2.9,6.6,6.6,6.6h0.9c3.6,0,6.6-2.9,6.6-6.6C1079.4,217.2,1076.5,214.2,1072.8,214.2z"/>
			<path id="XMLID_28_" class="st11" d="M1061.5,287.2l-34.1,26.9c-1.7,1.4-4.5,1.4-6.2,0c-0.8-0.7-1.3-1.5-1.3-2.4v-16.2H904h-4.4
				c-25.4,0-46.1-20.7-46.1-46.1c0-24.7,19.5-44.9,43.9-46v13.2c-17.1,1.1-30.7,15.4-30.7,32.8c0,18.2,14.8,32.9,32.9,32.9h4.4
				h115.9v-29.4c0-0.9,0.5-1.8,1.3-2.4c1.7-1.4,4.5-1.4,6.2,0l34.1,26.9C1064.9,280.1,1064.9,284.5,1061.5,287.2z M1211,97.9h-4.4
				h-116.2V68.5c0-0.9-0.5-1.8-1.3-2.4c-1.7-1.4-4.5-1.4-6.2,0L1048.8,93c-3.4,2.7-3.4,7.1,0,9.8l34.1,26.9c1.7,1.4,4.5,1.4,6.2,0
				c0.8-0.7,1.3-1.5,1.3-2.4v-16.2h116.2h4.4c18.2,0,32.9,14.8,32.9,32.9c0,17.4-13.6,31.7-30.7,32.8V190
				c24.4-1.2,43.9-21.4,43.9-46C1257.1,118.6,1236.4,97.9,1211,97.9z"/>
			<path id="XMLID_27_" class="st12" d="M1062.5,302.5l-39.5,31.2c-2,1.6-5.2,1.6-7.2,0c-1-0.8-1.5-1.8-1.5-2.8v-18.8H880.1H875
				c-29.4,0-53.4-23.9-53.4-53.4c0-28.6,22.6-52,50.8-53.3v15.3c-19.8,1.3-35.6,17.9-35.6,38c0,21,17.1,38.1,38.1,38.1h5.1h134.2
				v-34c0-1.1,0.5-2.1,1.5-2.8c2-1.6,5.2-1.6,7.2,0l39.5,31.2C1066.5,294.3,1066.5,299.4,1062.5,302.5z M1235.6,83.3h-5.1H1096v-34
				c0-1.1-0.5-2.1-1.5-2.8c-2-1.6-5.2-1.6-7.2,0l-39.5,31.2c-4,3.1-4,8.2,0,11.3l39.5,31.2c2,1.6,5.2,1.6,7.2,0
				c1-0.8,1.5-1.8,1.5-2.8V98.6h134.6h5.1c21,0,38.1,17.1,38.1,38.1c0,20.2-15.7,36.7-35.6,38V190c28.3-1.3,50.8-24.7,50.8-53.3
				C1289,107.2,1265,83.3,1235.6,83.3z"/>
			<path id="XMLID_26_" class="st13" d="M856.2-38.7l12,21.9c0.3,0.5,0.7,1,1.2,1.2l21.9,12c2.2,1.2,2.2,4.3,0,5.5l-21.9,12
				c-0.5,0.3-1,0.7-1.2,1.2l-12,21.9c-1.2,2.2-4.3,2.2-5.5,0l-12-21.9c-0.3-0.5-0.7-1-1.2-1.2l-21.9-12c-2.2-1.2-2.2-4.3,0-5.5
				l21.9-12c0.5-0.3,1-0.7,1.2-1.2l12-21.9C851.9-40.8,855-40.8,856.2-38.7z"/>
			<path id="XMLID_25_" class="st13" d="M710-44.2l6.7,12.3c0.2,0.3,0.4,0.5,0.7,0.7l12.3,6.7c1.2,0.7,1.2,2.4,0,3.1l-12.3,6.7
				c-0.3,0.2-0.5,0.4-0.7,0.7L710-1.7c-0.7,1.2-2.4,1.2-3.1,0L700.2-14c-0.2-0.3-0.4-0.5-0.7-0.7l-12.3-6.7c-1.2-0.7-1.2-2.4,0-3.1
				l12.3-6.7c0.3-0.2,0.5-0.4,0.7-0.7l6.7-12.3C707.6-45.4,709.4-45.4,710-44.2z"/>
			<path id="XMLID_24_" class="st13" d="M670.2,77.4l15.9,29c0.4,0.7,0.9,1.3,1.6,1.6l29,15.9c2.9,1.6,2.9,5.7,0,7.2l-29,15.9
				c-0.7,0.4-1.3,0.9-1.6,1.6l-15.9,29c-1.6,2.9-5.7,2.9-7.2,0l-15.9-29c-0.4-0.7-0.9-1.3-1.6-1.6l-29-15.9c-2.9-1.6-2.9-5.7,0-7.2
				l29-15.9c0.7-0.4,1.3-0.9,1.6-1.6l15.9-29C664.5,74.5,668.6,74.5,670.2,77.4z"/>
			<path id="XMLID_23_" class="st13" d="M890.5,104.5c0,0-276.4,161.8,44.4,260s284.8-106.4,284.8-106.4s75,310.4-366.3,188.3
				S890.5,104.5,890.5,104.5z"/>
			<path id="XMLID_22_" class="st13" d="M1224.6,249.3c0,0-600.8,58.6-342.6-200.3c0,0-98.8,191.2,342.6,154.2
				c0,0,72.7-13.3,3.1-37.4C1227.6,165.9,1367.7,195.6,1224.6,249.3z"/>
		</g>
	</g>
	<g id="Capa_1_copia_1_" class="st8">
		<path id="XMLID_20_" class="st9" d="M854.4,225.9c0-27.9-22-50.9-49.6-52.2v-85c0-22-17.8-39.8-39.8-39.8H485.8
			c-22,0-39.8,17.8-39.8,39.8v204.5c-27.6,1.4-49.6,24.3-49.6,52.2s22,50.9,49.6,52.2v69.8c0,22,17.8,39.8,39.8,39.8H765
			c22,0,39.8-17.8,39.8-39.8V278.1C832.4,276.7,854.4,253.8,854.4,225.9z M411.2,345.4c0-19.8,15.3-35.9,34.7-37.2v74.6
			C426.5,381.4,411.2,365.2,411.2,345.4z M804.7,263.1v-74.6c19.4,1.4,34.7,17.6,34.7,37.2C839.4,245.5,824.1,261.8,804.7,263.1z"/>
		<path id="XMLID_19_" class="st9" d="M832.5,227.2c0-24.6-19.4-44.8-43.7-46v-74.8c0-19.4-15.7-35.1-35.1-35.1H507.8
			c-19.4,0-35.1,15.7-35.1,35.1v180.1c-24.3,1.2-43.7,21.4-43.7,46s19.4,44.8,43.7,46V440c0,19.4,15.7,35.1,35.1,35.1h245.9
			c19.4,0,35.1-15.7,35.1-35.1V273.2C813.1,272,832.5,251.8,832.5,227.2z M442.1,332.5c0-17.4,13.5-31.6,30.6-32.8v65.7
			C455.6,364.2,442.1,349.9,442.1,332.5z M788.7,260v-65.7c17.1,1.2,30.6,15.5,30.6,32.8C819.3,244.5,805.8,258.8,788.7,260z"/>
		<path id="XMLID_18_" class="st10" d="M501.2,181.1c0-3.6,2.9-6.6,6.6-6.6h79c3.6,0,6.6,2.9,6.6,6.6c0,3.6-2.9,6.6-6.6,6.6h-79
			C504.1,187.7,501.2,184.7,501.2,181.1z M753.6,358.9h-79c-3.6,0-6.6,2.9-6.6,6.6s2.9,6.6,6.6,6.6h79c3.6,0,6.6-2.9,6.6-6.6
			S757.3,358.9,753.6,358.9z M595.6,297.4h-87.8c-3.6,0-6.6,2.9-6.6,6.6c0,3.6,2.9,6.6,6.6,6.6h87.8c3.6,0,6.6-2.9,6.6-6.6
			C602.2,300.4,599.2,297.4,595.6,297.4z M753.6,297.4h-79c-3.6,0-6.6,2.9-6.6,6.6c0,3.6,2.9,6.6,6.6,6.6h79c3.6,0,6.6-2.9,6.6-6.6
			C760.2,300.4,757.3,297.4,753.6,297.4z M589,242.5c0,3.6,2.9,6.6,6.6,6.6h158c3.6,0,6.6-2.9,6.6-6.6c0-3.6-2.9-6.6-6.6-6.6h-158
			C591.9,236,589,238.9,589,242.5z M507.8,249.1h35.1c3.6,0,6.6-2.9,6.6-6.6c0-3.6-2.9-6.6-6.6-6.6h-35.1c-3.6,0-6.6,2.9-6.6,6.6
			S504.1,249.1,507.8,249.1z M568.3,236c-3.6,0-6.6,2.9-6.6,6.6c0,3.6,2.9,6.6,6.6,6.6h0.9c3.6,0,6.6-2.9,6.6-6.6
			c0-3.6-2.9-6.6-6.6-6.6H568.3z M622.8,297.4h-0.9c-3.6,0-6.6,2.9-6.6,6.6c0,3.6,2.9,6.6,6.6,6.6h0.9c3.6,0,6.6-2.9,6.6-6.6
			C629.4,300.4,626.4,297.4,622.8,297.4z M648.2,297.4h-0.8c-3.6,0-6.6,2.9-6.6,6.6c0,3.6,2.9,6.6,6.6,6.6h0.9
			c3.6,0,6.6-2.9,6.6-6.6C654.8,300.4,651.9,297.4,648.2,297.4z"/>
		<path id="XMLID_17_" class="st11" d="M636.9,370.4l-34.1,26.9c-1.7,1.4-4.5,1.4-6.2,0c-0.8-0.7-1.3-1.5-1.3-2.4v-16.2H479.4H475
			c-25.4,0-46.1-20.7-46.1-46.1c0-24.7,19.5-44.9,43.9-46v13.2c-17.1,1.1-30.7,15.4-30.7,32.8c0,18.2,14.8,32.9,32.9,32.9h4.4h115.9
			v-29.4c0-0.9,0.5-1.8,1.3-2.4c1.7-1.4,4.5-1.4,6.2,0l34.1,26.9C640.3,363.3,640.3,367.7,636.9,370.4z M786.4,181.1H782H665.8
			v-29.4c0-0.9-0.5-1.8-1.3-2.4c-1.7-1.4-4.5-1.4-6.2,0l-34.1,26.9c-3.4,2.7-3.4,7.1,0,9.8l34.1,26.9c1.7,1.4,4.5,1.4,6.2,0
			c0.8-0.7,1.3-1.5,1.3-2.4v-16.2H782h4.4c18.2,0,32.9,14.8,32.9,32.9c0,17.4-13.6,31.7-30.7,32.8v13.2c24.4-1.2,43.9-21.4,43.9-46
			C832.5,201.8,811.8,181.1,786.4,181.1z"/>
		<path id="XMLID_16_" class="st12" d="M637.9,385.7l-39.5,31.2c-2,1.6-5.2,1.6-7.2,0c-1-0.8-1.5-1.8-1.5-2.8v-18.8H455.5h-5.1
			c-29.4,0-53.4-23.9-53.4-53.4c0-28.6,22.6-52,50.8-53.3v15.3c-19.8,1.3-35.6,17.9-35.6,38c0,21,17.1,38.1,38.1,38.1h5.1h134.2v-34
			c0-1.1,0.5-2.1,1.5-2.8c2-1.6,5.2-1.6,7.2,0l39.5,31.2C641.9,377.5,641.9,382.6,637.9,385.7z M811,166.5h-5.1H671.4v-34
			c0-1.1-0.5-2.1-1.5-2.8c-2-1.6-5.2-1.6-7.2,0l-39.5,31.2c-4,3.1-4,8.2,0,11.3l39.5,31.2c2,1.6,5.2,1.6,7.2,0
			c1-0.8,1.5-1.8,1.5-2.8v-18.8H806h5.1c21,0,38.1,17.1,38.1,38.1c0,20.2-15.7,36.7-35.6,38v15.3c28.3-1.3,50.8-24.7,50.8-53.3
			C864.4,190.4,840.4,166.5,811,166.5z"/>
		<path id="XMLID_15_" class="st13" d="M420.7,70.9l12,21.9c0.3,0.5,0.7,1,1.2,1.2l21.9,12c2.2,1.2,2.2,4.3,0,5.5l-21.9,12
			c-0.5,0.3-1,0.7-1.2,1.2l-12,21.9c-1.2,2.2-4.3,2.2-5.5,0l-12-21.9c-0.3-0.5-0.7-1-1.2-1.2l-21.9-12c-2.2-1.2-2.2-4.3,0-5.5
			L402,94c0.5-0.3,1-0.7,1.2-1.2l12-21.9C416.4,68.8,419.5,68.8,420.7,70.9z"/>
		<path id="XMLID_14_" class="st13" d="M278.2,39l6.7,12.3c0.2,0.3,0.4,0.5,0.7,0.7l12.3,6.7c1.2,0.7,1.2,2.4,0,3.1l-12.3,6.7
			c-0.3,0.2-0.5,0.4-0.7,0.7l-6.7,12.3c-0.7,1.2-2.4,1.2-3.1,0l-6.7-12.3c-0.2-0.3-0.4-0.5-0.7-0.7l-12.3-6.7
			c-1.2-0.7-1.2-2.4,0-3.1l12.3-6.7c0.3-0.2,0.5-0.4,0.7-0.7l6.7-12.3C275.8,37.8,277.6,37.8,278.2,39z"/>
		<path id="XMLID_1_" class="st13" d="M265.3,223.1l15.9,29c0.4,0.7,0.9,1.3,1.6,1.6l29,15.9c2.9,1.6,2.9,5.7,0,7.2l-29,15.9
			c-0.7,0.4-1.3,0.9-1.6,1.6l-15.9,29c-1.6,2.9-5.7,2.9-7.2,0l-15.9-29c-0.4-0.7-0.9-1.3-1.6-1.6l-29-15.9c-2.9-1.6-2.9-5.7,0-7.2
			l29-15.9c0.7-0.4,1.3-0.9,1.6-1.6l15.9-29C259.6,220.2,263.7,220.2,265.3,223.1z"/>
		<path class="st14" d="M189.8,95.3c0,0,173.7,200.6,480.4,219.1s193.5-113.2,193.5-113.2s163.5,156.7-207.5,147.3
			S189.8,95.3,189.8,95.3z"/>
		<path class="st14" d="M824.2,365.5c0,0,150.8,109.3-119.2,125.8s-396-76.5-327-166.5c0,0-70.5,168,309,141
			C687,465.8,818.8,455.7,824.2,365.5z"/>
		<path class="st14" d="M864.4,365.4c0,0,144.2,124.2-149,142.1S303,422.6,378,324.8c0,0-94.2,184.3,317.9,155
			C695.9,479.8,858.7,463.3,864.4,365.4z"/>
		<path class="st14" d="M189.8,95.3c0,0,192.3,188.6,478.3,205.8s195.6-99.9,195.6-99.9S1000.9,341.7,655,333
			C309,324.3,189.8,95.3,189.8,95.3z"/>
	</g>
</g>
<g id="Capa_1_2_">
	<g id="Capa_1_1_" class="st7">
		<g id="XMLID_40_" class="st8">
			<path id="XMLID_335_" class="st9" d="M1290.1,157c0-24.6-19.4-44.8-43.7-46V36.2c0-19.4-15.7-35.1-35.1-35.1H965.4
				c-19.4,0-35.1,15.7-35.1,35.1v180.1c-24.3,1.2-43.7,21.4-43.7,46c0,24.6,19.4,44.8,43.7,46v61.5c0,19.4,15.7,35.1,35.1,35.1
				h245.9c19.4,0,35.1-15.7,35.1-35.1V203C1270.7,201.8,1290.1,181.6,1290.1,157z M899.7,262.3c0-17.4,13.5-31.6,30.6-32.8v65.7
				C913.2,294,899.7,279.7,899.7,262.3z M1246.3,189.8v-65.7c17.1,1.2,30.6,15.5,30.6,32.8C1276.9,174.3,1263.4,188.6,1246.3,189.8z
				"/>
			<path id="XMLID_325_" class="st10" d="M958.8,110.9c0-3.6,2.9-6.6,6.6-6.6h79c3.6,0,6.6,2.9,6.6,6.6c0,3.6-2.9,6.6-6.6,6.6h-79
				C961.7,117.5,958.8,114.5,958.8,110.9z M1211.2,288.7h-79c-3.6,0-6.6,2.9-6.6,6.6s2.9,6.6,6.6,6.6h79c3.6,0,6.6-2.9,6.6-6.6
				S1214.9,288.7,1211.2,288.7z M1053.2,227.2h-87.8c-3.6,0-6.6,2.9-6.6,6.6c0,3.6,2.9,6.6,6.6,6.6h87.8c3.6,0,6.6-2.9,6.6-6.6
				C1059.8,230.2,1056.8,227.2,1053.2,227.2z M1211.2,227.2h-79c-3.6,0-6.6,2.9-6.6,6.6c0,3.6,2.9,6.6,6.6,6.6h79
				c3.6,0,6.6-2.9,6.6-6.6C1217.8,230.2,1214.9,227.2,1211.2,227.2z M1046.6,172.3c0,3.6,2.9,6.6,6.6,6.6h158c3.6,0,6.6-2.9,6.6-6.6
				c0-3.6-2.9-6.6-6.6-6.6h-158C1049.5,165.8,1046.6,168.7,1046.6,172.3z M965.4,178.9h35.1c3.6,0,6.6-2.9,6.6-6.6
				c0-3.6-2.9-6.6-6.6-6.6h-35.1c-3.6,0-6.6,2.9-6.6,6.6C958.8,176,961.7,178.9,965.4,178.9z M1025.9,165.8c-3.6,0-6.6,2.9-6.6,6.6
				c0,3.6,2.9,6.6,6.6,6.6h0.9c3.6,0,6.6-2.9,6.6-6.6c0-3.6-2.9-6.6-6.6-6.6H1025.9z M1080.4,227.2h-0.9c-3.6,0-6.6,2.9-6.6,6.6
				c0,3.6,2.9,6.6,6.6,6.6h0.9c3.6,0,6.6-2.9,6.6-6.6C1087,230.2,1084,227.2,1080.4,227.2z M1105.8,227.2h-0.8
				c-3.6,0-6.6,2.9-6.6,6.6c0,3.6,2.9,6.6,6.6,6.6h0.9c3.6,0,6.6-2.9,6.6-6.6C1112.4,230.2,1109.5,227.2,1105.8,227.2z"/>
			<path id="XMLID_322_" class="st11" d="M1094.5,300.2l-34.1,26.9c-1.7,1.4-4.5,1.4-6.2,0c-0.8-0.7-1.3-1.5-1.3-2.4v-16.2H937h-4.4
				c-25.4,0-46.1-20.7-46.1-46.1c0-24.7,19.5-44.9,43.9-46v13.2c-17.1,1.1-30.7,15.4-30.7,32.8c0,18.2,14.8,32.9,32.9,32.9h4.4
				h115.9v-29.4c0-0.9,0.5-1.8,1.3-2.4c1.7-1.4,4.5-1.4,6.2,0l34.1,26.9C1097.9,293.1,1097.9,297.5,1094.5,300.2z M1244,110.9h-4.4
				h-116.2V81.5c0-0.9-0.5-1.8-1.3-2.4c-1.7-1.4-4.5-1.4-6.2,0l-34.1,26.9c-3.4,2.7-3.4,7.1,0,9.8l34.1,26.9c1.7,1.4,4.5,1.4,6.2,0
				c0.8-0.7,1.3-1.5,1.3-2.4v-16.2h116.2h4.4c18.2,0,32.9,14.8,32.9,32.9c0,17.4-13.6,31.7-30.7,32.8V203
				c24.4-1.2,43.9-21.4,43.9-46C1290.1,131.6,1269.4,110.9,1244,110.9z"/>
			<path id="XMLID_41_" class="st12" d="M1095.5,315.5l-39.5,31.2c-2,1.6-5.2,1.6-7.2,0c-1-0.8-1.5-1.8-1.5-2.8v-18.8H913.1H908
				c-29.4,0-53.4-23.9-53.4-53.4c0-28.6,22.6-52,50.8-53.3v15.3c-19.8,1.3-35.6,17.9-35.6,38c0,21,17.1,38.1,38.1,38.1h5.1h134.2
				v-34c0-1.1,0.5-2.1,1.5-2.8c2-1.6,5.2-1.6,7.2,0l39.5,31.2C1099.5,307.3,1099.5,312.4,1095.5,315.5z M1268.6,96.3h-5.1H1129v-34
				c0-1.1-0.5-2.1-1.5-2.8c-2-1.6-5.2-1.6-7.2,0l-39.5,31.2c-4,3.1-4,8.2,0,11.3l39.5,31.2c2,1.6,5.2,1.6,7.2,0
				c1-0.8,1.5-1.8,1.5-2.8v-18.8h134.6h5.1c21,0,38.1,17.1,38.1,38.1c0,20.2-15.7,36.7-35.6,38V203c28.3-1.3,50.8-24.7,50.8-53.3
				C1322,120.2,1298,96.3,1268.6,96.3z"/>
			<path id="XMLID_229_" class="st13" d="M889.2-25.7l12,21.9c0.3,0.5,0.7,1,1.2,1.2l21.9,12c2.2,1.2,2.2,4.3,0,5.5l-21.9,12
				c-0.5,0.3-1,0.7-1.2,1.2l-12,21.9c-1.2,2.2-4.3,2.2-5.5,0l-12-21.9c-0.3-0.5-0.7-1-1.2-1.2l-21.9-12c-2.2-1.2-2.2-4.3,0-5.5
				l21.9-12c0.5-0.3,1-0.7,1.2-1.2l12-21.9C884.9-27.8,888-27.8,889.2-25.7z"/>
			<path id="XMLID_170_" class="st13" d="M743-31.2l6.7,12.3c0.2,0.3,0.4,0.5,0.7,0.7l12.3,6.7c1.2,0.7,1.2,2.4,0,3.1l-12.3,6.7
				c-0.3,0.2-0.5,0.4-0.7,0.7L743,11.3c-0.7,1.2-2.4,1.2-3.1,0L733.2-1c-0.2-0.3-0.4-0.5-0.7-0.7l-12.3-6.7c-1.2-0.7-1.2-2.4,0-3.1
				l12.3-6.7c0.3-0.2,0.5-0.4,0.7-0.7l6.7-12.3C740.6-32.4,742.4-32.4,743-31.2z"/>
			<path id="XMLID_155_" class="st13" d="M703.2,90.4l15.9,29c0.4,0.7,0.9,1.3,1.6,1.6l29,15.9c2.9,1.6,2.9,5.7,0,7.2l-29,15.9
				c-0.7,0.4-1.3,0.9-1.6,1.6l-15.9,29c-1.6,2.9-5.7,2.9-7.2,0l-15.9-29c-0.4-0.7-0.9-1.3-1.6-1.6l-29-15.9c-2.9-1.6-2.9-5.7,0-7.2
				l29-15.9c0.7-0.4,1.3-0.9,1.6-1.6l15.9-29C697.5,87.5,701.6,87.5,703.2,90.4z"/>
			<path id="XMLID_230_" class="st13" d="M923.5,117.5c0,0-276.4,161.8,44.4,260s284.8-106.4,284.8-106.4s75,310.4-366.3,188.3
				S923.5,117.5,923.5,117.5z"/>
			<path id="XMLID_232_" class="st13" d="M1257.6,262.3c0,0-600.8,58.6-342.6-200.3c0,0-98.8,191.2,342.6,154.2
				c0,0,72.7-13.3,3.1-37.4C1260.6,178.9,1400.7,208.6,1257.6,262.3z"/>
		</g>
	</g>
	<path id="XMLID_2_" class="st9" d="M887.4,238.9c0-27.9-22-50.9-49.6-52.2v-85c0-22-17.8-39.8-39.8-39.8H518.8
		c-22,0-39.8,17.8-39.8,39.8v204.5c-27.6,1.4-49.6,24.3-49.6,52.2s22,50.9,49.6,52.2v69.8c0,22,17.8,39.8,39.8,39.8H798
		c22,0,39.8-17.8,39.8-39.8V291.1C865.4,289.7,887.4,266.8,887.4,238.9z M444.2,358.4c0-19.8,15.3-35.9,34.7-37.2v74.6
		C459.5,394.4,444.2,378.2,444.2,358.4z M837.7,276.1v-74.6c19.4,1.4,34.7,17.6,34.7,37.2C872.4,258.5,857.1,274.8,837.7,276.1z"/>
	<path id="XMLID_10_" class="st9" d="M865.5,240.2c0-24.6-19.4-44.8-43.7-46v-74.8c0-19.4-15.7-35.1-35.1-35.1H540.8
		c-19.4,0-35.1,15.7-35.1,35.1v180.1c-24.3,1.2-43.7,21.4-43.7,46s19.4,44.8,43.7,46V453c0,19.4,15.7,35.1,35.1,35.1h245.9
		c19.4,0,35.1-15.7,35.1-35.1V286.2C846.1,285,865.5,264.8,865.5,240.2z M475.1,345.5c0-17.4,13.5-31.6,30.6-32.8v65.7
		C488.6,377.2,475.1,362.9,475.1,345.5z M821.7,273v-65.7c17.1,1.2,30.6,15.5,30.6,32.8C852.3,257.5,838.8,271.8,821.7,273z"/>
	<path id="XMLID_9_" class="st10" d="M534.2,194.1c0-3.6,2.9-6.6,6.6-6.6h79c3.6,0,6.6,2.9,6.6,6.6c0,3.6-2.9,6.6-6.6,6.6h-79
		C537.1,200.7,534.2,197.7,534.2,194.1z M786.6,371.9h-79c-3.6,0-6.6,2.9-6.6,6.6s2.9,6.6,6.6,6.6h79c3.6,0,6.6-2.9,6.6-6.6
		S790.3,371.9,786.6,371.9z M628.6,310.4h-87.8c-3.6,0-6.6,2.9-6.6,6.6c0,3.6,2.9,6.6,6.6,6.6h87.8c3.6,0,6.6-2.9,6.6-6.6
		C635.2,313.4,632.2,310.4,628.6,310.4z M786.6,310.4h-79c-3.6,0-6.6,2.9-6.6,6.6c0,3.6,2.9,6.6,6.6,6.6h79c3.6,0,6.6-2.9,6.6-6.6
		C793.2,313.4,790.3,310.4,786.6,310.4z M622,255.5c0,3.6,2.9,6.6,6.6,6.6h158c3.6,0,6.6-2.9,6.6-6.6c0-3.6-2.9-6.6-6.6-6.6h-158
		C624.9,249,622,251.9,622,255.5z M540.8,262.1h35.1c3.6,0,6.6-2.9,6.6-6.6c0-3.6-2.9-6.6-6.6-6.6h-35.1c-3.6,0-6.6,2.9-6.6,6.6
		S537.1,262.1,540.8,262.1z M601.3,249c-3.6,0-6.6,2.9-6.6,6.6c0,3.6,2.9,6.6,6.6,6.6h0.9c3.6,0,6.6-2.9,6.6-6.6
		c0-3.6-2.9-6.6-6.6-6.6H601.3z M655.8,310.4h-0.9c-3.6,0-6.6,2.9-6.6,6.6c0,3.6,2.9,6.6,6.6,6.6h0.9c3.6,0,6.6-2.9,6.6-6.6
		C662.4,313.4,659.4,310.4,655.8,310.4z M681.2,310.4h-0.8c-3.6,0-6.6,2.9-6.6,6.6c0,3.6,2.9,6.6,6.6,6.6h0.9c3.6,0,6.6-2.9,6.6-6.6
		C687.8,313.4,684.9,310.4,681.2,310.4z"/>
	<path id="XMLID_8_" class="st11" d="M669.9,383.4l-34.1,26.9c-1.7,1.4-4.5,1.4-6.2,0c-0.8-0.7-1.3-1.5-1.3-2.4v-16.2H512.4H508
		c-25.4,0-46.1-20.7-46.1-46.1c0-24.7,19.5-44.9,43.9-46v13.2c-17.1,1.1-30.7,15.4-30.7,32.8c0,18.2,14.8,32.9,32.9,32.9h4.4h115.9
		v-29.4c0-0.9,0.5-1.8,1.3-2.4c1.7-1.4,4.5-1.4,6.2,0l34.1,26.9C673.3,376.3,673.3,380.7,669.9,383.4z M819.4,194.1H815H698.8v-29.4
		c0-0.9-0.5-1.8-1.3-2.4c-1.7-1.4-4.5-1.4-6.2,0l-34.1,26.9c-3.4,2.7-3.4,7.1,0,9.8l34.1,26.9c1.7,1.4,4.5,1.4,6.2,0
		c0.8-0.7,1.3-1.5,1.3-2.4v-16.2H815h4.4c18.2,0,32.9,14.8,32.9,32.9c0,17.4-13.6,31.7-30.7,32.8v13.2c24.4-1.2,43.9-21.4,43.9-46
		C865.5,214.8,844.8,194.1,819.4,194.1z"/>
	<path id="XMLID_7_" class="st12" d="M670.9,398.7l-39.5,31.2c-2,1.6-5.2,1.6-7.2,0c-1-0.8-1.5-1.8-1.5-2.8v-18.8H488.5h-5.1
		c-29.4,0-53.4-23.9-53.4-53.4c0-28.6,22.6-52,50.8-53.3v15.3c-19.8,1.3-35.6,17.9-35.6,38c0,21,17.1,38.1,38.1,38.1h5.1h134.2v-34
		c0-1.1,0.5-2.1,1.5-2.8c2-1.6,5.2-1.6,7.2,0l39.5,31.2C674.9,390.5,674.9,395.6,670.9,398.7z M844,179.5h-5.1H704.4v-34
		c0-1.1-0.5-2.1-1.5-2.8c-2-1.6-5.2-1.6-7.2,0l-39.5,31.2c-4,3.1-4,8.2,0,11.3l39.5,31.2c2,1.6,5.2,1.6,7.2,0c1-0.8,1.5-1.8,1.5-2.8
		v-18.8H839h5.1c21,0,38.1,17.1,38.1,38.1c0,20.2-15.7,36.7-35.6,38v15.3c28.3-1.3,50.8-24.7,50.8-53.3
		C897.4,203.4,873.4,179.5,844,179.5z"/>
	<path id="XMLID_6_" class="st13" d="M352.1,118l5.5,10c0.1,0.2,0.3,0.5,0.5,0.5l10,5.5c1,0.5,1,2,0,2.5l-10,5.5
		c-0.2,0.1-0.5,0.3-0.5,0.5l-5.5,10c-0.5,1-2,1-2.5,0l-5.5-10c-0.1-0.2-0.3-0.5-0.5-0.5l-10-5.5c-1-0.5-1-2,0-2.5l10-5.5
		c0.2-0.1,0.5-0.3,0.5-0.5l5.5-10C350.1,117,351.5,117,352.1,118z"/>
	<path id="XMLID_5_" class="st13" d="M256.4,82.7l3.3,6.1c0.1,0.1,0.2,0.2,0.3,0.3l6.1,3.3c0.6,0.3,0.6,1.2,0,1.5l-6.1,3.3
		c-0.1,0.1-0.2,0.2-0.3,0.3l-3.3,6.1c-0.3,0.6-1.2,0.6-1.5,0l-3.3-6.1c-0.1-0.1-0.2-0.2-0.3-0.3l-6.1-3.3c-0.6-0.3-0.6-1.2,0-1.5
		l6.1-3.3c0.1-0.1,0.2-0.2,0.3-0.3l3.3-6.1C255.2,82.1,256.1,82.1,256.4,82.7z"/>
	<path id="XMLID_4_" class="st13" d="M338,269l9.7,17.7c0.2,0.4,0.5,0.8,1,1l17.7,9.7c1.8,1,1.8,3.5,0,4.4l-17.7,9.7
		c-0.4,0.2-0.8,0.5-1,1l-9.7,17.7c-1,1.8-3.5,1.8-4.4,0l-9.7-17.7c-0.2-0.4-0.5-0.8-1-1l-17.7-9.7c-1.8-1-1.8-3.5,0-4.4l17.7-9.7
		c0.4-0.2,0.8-0.5,1-1l9.7-17.7C334.5,267.3,337,267.3,338,269z"/>
	<path class="st15" d="M222.8,108.3c0,0,173.7,200.6,480.4,219.1s193.5-113.2,193.5-113.2s163.5,156.7-207.5,147.3
		S222.8,108.3,222.8,108.3z"/>
	<path class="st15" d="M353.1,327.5c0,0,47.6,179.5,347.9,170.6c305.8-9,175.1-103.7,171.4-106.5c0,0,126.9,117.5-224.1,87
		C401.1,457.1,353.1,327.5,353.1,327.5z"/>
</g>
<g id="Capa_2">
	<g id="XMLID_666_">
		<rect id="XMLID_671_" x="423" y="212.4" class="st16" width="25.9" height="27.5"/>
		<polygon id="XMLID_669_" class="st17" points="448.9,212.4 457,207.7 457,235.4 448.9,239.9 		"/>
		<polygon id="XMLID_667_" class="st18" points="448.9,212.4 423,212.4 432,207.7 457,207.7 		"/>
	</g>
	<g id="XMLID_31_">
		<rect id="XMLID_34_" x="220" y="185.8" class="st16" width="17.9" height="16.2"/>
		<polygon id="XMLID_33_" class="st17" points="237.9,185.8 243.4,180.8 243.4,197.4 237.9,202 		"/>
		<polygon id="XMLID_32_" class="st18" points="237.9,185.8 220,185.8 226.2,180.8 243.4,180.8 		"/>
	</g>
	<g id="XMLID_3_">
		<rect id="XMLID_13_" x="325.8" y="195.3" class="st19" width="23.4" height="21.3"/>
		<polygon id="XMLID_12_" class="st20" points="349.2,195.3 356.5,188.7 356.5,210.5 349.2,216.6 		"/>
		<polygon id="XMLID_11_" class="st21" points="349.2,195.3 325.8,195.3 333.9,188.7 356.5,188.7 		"/>
	</g>
</g>
</svg>
