<?xml version="1.0" encoding="utf-8"?>
<svg version="1.1" id="Capa_1" xmlns="http://www.w3.org/2000/svg" xmlns:xlink="http://www.w3.org/1999/xlink" x="0px" y="0px"
	 viewBox="0 0 500 500" style="enable-background:new 0 0 500 500;" xml:space="preserve">
<style type="text/css">
	.st0{fill:#DD0031;}
	.st1{fill:#C3002F;}
	.st2{fill:#FFFFFF;}
</style>
<g id="XMLID_3724_">
	<polygon id="XMLID_3729_" class="st0" points="252,12.1 252,12.1 252,12.1 30.5,91.1 64.3,384 252,487.9 252,487.9 252,487.9 
		439.7,384 473.5,91.1 	"/>
	<polygon id="XMLID_3728_" class="st1" points="252,12.1 252,64.9 252,64.7 252,305.7 252,305.7 252,487.9 252,487.9 439.7,384 
		473.5,91.1 	"/>
	<path id="XMLID_3725_" class="st2" d="M252,64.7L113.5,375.1l0,0h51.6l0,0l27.8-69.5h117.5l27.8,69.5l0,0H390l0,0L252,64.7
		L252,64.7L252,64.7L252,64.7L252,64.7z M292.4,262.8h-80.9l40.4-97.3L292.4,262.8z"/>
</g>
</svg>
