<?xml version="1.0" encoding="utf-8"?>
<!-- Generator: Adobe Illustrator 17.0.0, SVG Export Plug-In . SVG Version: 6.00 Build 0)  -->
<!DOCTYPE svg PUBLIC "-//W3C//DTD SVG 1.1//EN" "http://www.w3.org/Graphics/SVG/1.1/DTD/svg11.dtd">
<svg version="1.1" id="Capa_1" xmlns="http://www.w3.org/2000/svg" xmlns:xlink="http://www.w3.org/1999/xlink" x="0px" y="0px"
	 width="50.635px" height="50.635px" viewBox="0 0 50.635 50.635" enable-background="new 0 0 50.635 50.635" xml:space="preserve">
<g>
	<g>
		<defs>
			<circle id="SVGID_1_" cx="25.534" cy="25.101" r="24.101"/>
		</defs>
		<clipPath id="SVGID_2_">
			<use xlink:href="#SVGID_1_"  overflow="visible"/>
		</clipPath>
		<circle clip-path="url(#SVGID_2_)" fill="#E6332A" cx="25.534" cy="25.101" r="24.101"/>
		<g clip-path="url(#SVGID_2_)">
			<g>
				<path fill="#F4E3D6" d="M29.443,34.658c-0.993-1.441-1.578-2.845-1.54-4.626c0.008-0.385-0.321-0.553-0.616-0.506
					c-0.035-0.04-0.074-0.079-0.126-0.111c-1.498-0.953-3.433-0.713-5.032-0.141c-0.13,0.046-0.213,0.154-0.25,0.275
					c-0.19,0.03-0.351,0.193-0.29,0.452c0.489,2.091-0.256,3.481-1.225,5.243c-0.519,0.944-0.693,1.966-0.386,3.01
					c0.707,2.399,3.187,3.5,5.537,3.368c2.273-0.127,4.545-1.263,4.881-3.722C30.566,36.664,30.131,35.656,29.443,34.658z"/>
				<path fill="#F3D1BB" d="M33.653,20.2c0.126-1.122,0.158-2.237,0.028-3.261c-0.686-5.375-7.856-4.793-11.788-4.767
					c-2.362,0.016-3.785,1.177-4.419,3.436c-0.434,1.546-0.605,3.176-0.593,4.804c-0.375-0.066-0.771,0.059-1.045,0.351
					c-0.417,0.446-0.433,1.138-0.366,1.708c0.068,0.572,0.285,1.179,0.807,1.487c0.285,0.168,0.617,0.221,0.916,0.143
					c0.014,0.087,0.026,0.174,0.041,0.26c0.009,0.054,0.03,0.099,0.058,0.136c0.296,1.534,0.868,2.991,1.814,4.278
					c2.474,3.365,7.044,4.307,10.325,1.538c1.742-1.47,2.77-3.558,3.349-5.729c0.047-0.177,0.094-0.357,0.14-0.54
					c0.052,0.019,0.111,0.029,0.177,0.025C34.791,23.975,35.104,20.618,33.653,20.2z"/>
				<path fill="#7D4E24" d="M32.175,13.104c-2.037-1.823-4.768-2.381-7.452-2.456c-2.452-0.069-5.05,0.589-6.743,2.466
					c-1.795,1.991-2.302,4.834-1.993,7.426c0.007,0.061,0.046,0.1,0.091,0.117c0.017,0.036,0.053,0.061,0.099,0.044
					c0.154-0.056,0.307-0.086,0.451-0.08c0.172,0.1,0.357,0.18,0.525,0.31c0.003,0.004,0.006,0.007,0.009,0.012
					c0.205,0.336,0.151,0.745,0.133,1.12c-0.002,0.04,0.012,0.07,0.032,0.093c0.006,0.033,0.023,0.064,0.063,0.071
					c0.357,0.065,0.761,0.049,1.097-0.099c0.053-0.023,0.071-0.07,0.067-0.118c0.023-0.02,0.038-0.05,0.036-0.092
					c-0.065-1.956-0.631-5.35,2.082-5.734c1.729-0.245,3.181,1.517,4.97,1.314c1.622-0.185,2.742-1.707,4.406-1.67
					c3.149,0.07,2.162,4.484,1.654,6.332c-0.011,0.041-0.011,0.077-0.004,0.111c-0.013,0.006-0.026,0.012-0.039,0.018
					c-0.066,0.03-0.022,0.114,0.033,0.121c0.178,0.023,0.385,0.157,0.565,0.099c0.002-0.001,0.003-0.002,0.005-0.003
					c0.126-0.002,0.253-0.005,0.379-0.008c0.086-0.002,0.167-0.073,0.164-0.164c-0.015-0.445-0.015-0.924,0.104-1.357
					c0.042-0.154,0.115-0.414,0.262-0.508c0.334-0.213,0.672,0.019,0.956,0.192c0.041,0.025,0.081,0.015,0.108-0.01
					c0.098,0.027,0.215-0.024,0.219-0.16C34.518,17.96,34.152,14.874,32.175,13.104z"/>
			</g>
			<g>
				<path fill="#F5F5F5" d="M30.332,35.579c0.004-0.023,0.006-0.047,0.001-0.07c-0.052-0.24-0.245-0.452-0.384-0.65
					c-0.148-0.211-0.314-0.389-0.506-0.561c-0.031-0.028-0.074-0.034-0.113-0.024c-0.046-0.132-0.209-0.218-0.328-0.084
					c-0.499,0.56-1.118,0.891-1.805,1.126c-0.046-0.077-0.131-0.122-0.242-0.079c-0.554,0.214-1.117,0.34-1.714,0.341
					c-0.475,0.001-0.938-0.159-1.406-0.091c-0.005,0.001-0.009,0.004-0.014,0.005c-0.386-0.067-0.77-0.152-1.133-0.297
					c-0.526-0.21-0.912-0.594-1.4-0.847c0.034-0.171-0.212-0.279-0.334-0.118c-2.199,2.906-2.799,6.902-1.757,10.386
					c0.98,3.278,3.688,6.135,7.352,5.73c3.446-0.38,5.244-3.316,5.696-6.494C32.661,40.913,32.037,37.95,30.332,35.579z"/>
				<path fill="#ECECEC" d="M23.679,35.297c-0.576-0.077-2.14-0.49-2.465-1.182c-0.004-0.032-0.015-0.062-0.031-0.09
					c-0.006-0.02-0.015-0.039-0.019-0.06c-0.017-0.087-0.106-0.105-0.172-0.074c-0.056-0.003-0.114,0.018-0.163,0.078
					c-0.718,0.883-1.258,1.37-0.59,2.468c0.615,1.012,1.467,1.841,2.433,2.516c0.142,0.099,0.336-0.034,0.335-0.193
					c-0.002-1.136,0.276-2.182,0.843-3.167C23.933,35.452,23.823,35.316,23.679,35.297z"/>
				<path fill="#ECECEC" d="M29.551,33.999c-0.017-0.015-0.036-0.02-0.054-0.03c-0.047-0.138-0.23-0.235-0.369-0.103
					c-0.619,0.587-1.34,0.98-2.152,1.234c-0.121,0.038-0.142,0.15-0.102,0.234c-0.01,0.033-0.008,0.07,0.014,0.108
					c0.503,0.86,0.804,1.695,0.607,2.698c-0.029,0.148,0.102,0.339,0.272,0.272C29.29,37.82,31.233,35.416,29.551,33.999z"/>
				<path fill="#575756" d="M28.354,47.226c-0.686-3.215-1.198-6.535-2.167-9.679c0.056-0.006,0.109-0.038,0.133-0.104
					c0.21-0.586,0.474-1.331,0.372-1.973c0.095-0.09,0.016-0.293-0.145-0.27c-0.023-0.005-0.048-0.006-0.076,0
					c-0.121,0.029-0.243,0.048-0.365,0.065c-0.232,0.026-0.463,0.037-0.695,0.037c-0.241-0.007-0.482-0.029-0.721-0.077
					c-0.064-0.013-0.114,0.012-0.146,0.05c-0.09-0.004-0.181-0.008-0.272-0.011c-0.049-0.002-0.071,0.031-0.071,0.068
					c-0.031,0.028-0.05,0.071-0.04,0.119c0.069,0.35,0.198,0.679,0.318,1.014c0.106,0.298,0.184,0.627,0.355,0.895
					c0.009,0.015,0.022,0.026,0.036,0.036c0.001,0.026,0.013,0.051,0.043,0.069c0.007,0.004,0.014,0.009,0.021,0.014
					c-0.005,0.009-0.011,0.018-0.013,0.03c-0.681,3.117-0.838,6.42-1.199,9.588c-0.009,0.083,0.034,0.132,0.093,0.151
					c0.314,2.231,3.922,2.474,4.443,0.224c0.002-0.008,0-0.015,0.001-0.023C28.329,47.406,28.376,47.328,28.354,47.226z"/>
				<path fill="#3C3C3B" d="M40.333,51.967c-0.006-0.033-0.013-0.067-0.019-0.1c-0.002-0.015-0.004-0.029-0.008-0.044
					c-0.685-3.63-1.469-7.302-2.944-10.703c-0.571-1.315-1.19-2.723-2.369-3.607c-1.301-0.976-3.081-1.537-4.603-2.063
					c-0.048-0.017-0.091,0.003-0.119,0.036c-0.04-0.015-0.092-0.002-0.109,0.047c-0.468,1.358-1.483,2.44-2.333,3.576
					c-0.823,1.1-1.655,2.195-2.466,3.304c-1.873-2.095-4.048-4.148-5.408-6.589c-0.006-0.019-0.015-0.035-0.028-0.049
					c-0.01-0.018-0.021-0.036-0.031-0.055c-0.024-0.043-0.073-0.023-0.085,0.014c-0.014,0.002-0.028,0.004-0.043,0.011
					c-2.729,1.227-5.519,2.765-6.545,5.726c-0.555,1.602-0.757,3.329-1.048,4.993c-0.325,1.86-0.65,3.719-0.975,5.579
					c-0.157-0.102-0.315-0.202-0.469-0.311c-0.119-0.085-0.261,0.103-0.156,0.202c0.198,0.185,0.405,0.359,0.616,0.527
					c0.025,0.036,0.06,0.061,0.098,0.08c3.737,2.89,9.354,3.17,13.854,3.131c2.862-0.025,5.725-0.329,8.53-0.892
					c2.131-0.428,4.904-0.799,6.417-2.539C40.22,52.244,40.365,52.136,40.333,51.967z"/>
				<path fill="#1D1D1B" d="M30.491,35.484c-0.041-0.155-0.286-0.088-0.24,0.066c0.384,1.291,0.427,2.767,0.913,4.012
					c-0.007,0.001-0.014,0-0.022,0.003c-0.727,0.251-1.479,0.412-2.209,0.649c-0.08-0.03-0.183,0.007-0.177,0.118
					c0.054,1.128,0.092,2.29,0.248,3.41c-0.02,0.009-0.038,0.022-0.051,0.044c-1.097,1.904-2.1,3.905-3.127,5.855
					c-0.084-2.417-0.218-4.833-0.367-7.226c-0.007-0.119-0.188-0.121-0.187,0c0.027,2.353,0.056,4.723,0.12,7.09
					c-1.142-2.128-2.46-4.328-4.027-6.142c0.227-1.088,0.286-2.383,0.092-3.471c-0.008-0.042-0.037-0.055-0.068-0.054
					c-0.018-0.035-0.051-0.065-0.1-0.071c-0.464-0.057-0.926-0.101-1.383-0.202c-0.319-0.071-0.631-0.171-0.954-0.215
					c0.261-0.676,0.44-1.393,0.642-2.088c0.117-0.403,0.453-1.032,0.308-1.449c-0.032-0.091-0.157-0.073-0.165,0.022
					c-0.044,0.561-0.359,1.199-0.522,1.743c-0.18,0.602-0.388,1.205-0.509,1.822c-0.014,0.07,0.026,0.115,0.076,0.127
					c0.704,0.377,1.716,0.461,2.507,0.483c0.002,0,0.003-0.001,0.004-0.001c-0.134,1.103-0.176,2.288-0.178,3.396
					c0,0.065,0.05,0.106,0.104,0.116c1.364,2.226,2.865,4.352,4.186,6.612c0.002,0.003,0.005,0.005,0.007,0.008
					c0.058,1.953,0.141,3.903,0.27,5.84c0.01,0.143,0.222,0.146,0.225,0c0.028-1.963-0.002-3.94-0.066-5.918
					c0.002-0.003,0.005-0.004,0.007-0.007c1.261-1.908,2.486-4.047,3.323-6.178c0.007-0.018,0.008-0.034,0.006-0.05
					c0.018-0.017,0.03-0.04,0.031-0.068c0.037-1.107-0.07-2.252-0.178-3.356c0.746-0.092,1.475-0.355,2.169-0.631
					c0.06-0.024,0.079-0.082,0.07-0.132c0.004-0.006,0.009-0.013,0.01-0.022C31.419,38.29,30.825,36.754,30.491,35.484z"/>
			</g>
		</g>
	</g>
</g>
</svg>
