<?xml version="1.0" encoding="utf-8"?>
<!-- Generator: Adobe Illustrator 19.0.0, SVG Export Plug-In . SVG Version: 6.00 Build 0)  -->
<svg version="1.1" id="Capa_1" xmlns="http://www.w3.org/2000/svg" xmlns:xlink="http://www.w3.org/1999/xlink" x="0px" y="0px"
	 viewBox="-449 251 60 60" style="enable-background:new -449 251 60 60;" xml:space="preserve">
<style type="text/css">
	.st0{fill:#4565FF;}
</style>
<path class="st0" d="M-448.7,310.7c0.2,0.2,0.5,0.3,0.7,0.3c0.1,0,0.2,0,0.3,0l15.9-4.2c4.1,2.1,8.7,3.2,13.4,3.2
	c16.3,0,29.5-13.2,29.5-29.5s-13.2-29.5-29.5-29.5s-29.5,13.2-29.5,29.5c0,5.1,1.3,10.2,3.9,14.6l-4.8,14.5
	C-449.1,310-449,310.4-448.7,310.7z M-409,281c0-2.2,1.8-4,4-4c2.2,0,4,1.8,4,4s-1.8,4-4,4C-407.2,285-409,283.2-409,281z M-422,281
	c0-2.2,1.8-4,4-4c2.2,0,4,1.8,4,4s-1.8,4-4,4C-420.2,285-422,283.2-422,281z M-435,281c0-2.2,1.8-4,4-4c2.2,0,4,1.8,4,4s-1.8,4-4,4
	C-433.2,285-435,283.2-435,281z"/>
</svg>
