<?xml version="1.0" encoding="utf-8"?>
<!-- Generator: Adobe Illustrator 19.0.0, SVG Export Plug-In . SVG Version: 6.00 Build 0)  -->
<svg version="1.1" id="Layer_1" xmlns="http://www.w3.org/2000/svg" xmlns:xlink="http://www.w3.org/1999/xlink" x="0px" y="0px"
	 viewBox="-12 11 473.3 479" style="enable-background:new -12 11 473.3 479;" xml:space="preserve">
<style type="text/css">
	.st0{fill:#F42A0F;}
</style>
<path class="st0" d="M439.2,262.8c-0.7-7.5-7.4-4.7-7.4-4.7s-10.7,8.5-20.2,7.5s-6.6-22.2-6.6-22.2s2.2-19.3-3.4-20.9
	c-5.6-1.6-12.4,5-12.4,5s-8.5,9.4-12.6,21.5l-0.9,0.4c0,0,1.1-21.1-0.3-25.9c-1.9-2.4-11.3-2.3-13.2,2.1
	c-1.9,4.3-10.4,33.9-10.4,46.2c0,0-16,13.6-30.2,15.8c-14.1,2.3-17.9-6.6-17.9-6.6s37.7-10.4,35.8-40.5
	c-1.9-30.2-31.1-19.1-33.9-16.7s-19.8,12.6-24.5,41.2l-0.9,5.2c0,0-14.7,9.8-22.6,12.4c0,0,22.6-38.4-5.2-55.6
	c-12.3-7.7-22.6,8.2-22.6,8.2s37.7-41.9,29.2-77.3c-1.3-16.7-9.8-18.6-18.3-15.7c-11.6,4.5-16,11.3-16,11.3s-15.1,22.1-18.7,54.9
	s-8.7,72.4-8.7,72.4s-7.4,7.1-14,7.5c-6.6,0.5-3.8-19.8-3.8-19.8s5.2-30.8,4.7-36s-0.6-8-6.6-9.9c-6-1.9-12.9,5.9-12.9,5.9
	s-17.6,26.7-19,30.7l-0.9,1.7l-0.9-1.1c0,0,12.3-36.3,0.6-36.8c-11.7-0.5-19.8,12.9-19.8,12.9s-14.1,22.6-14.1,25.2l-0.9-1.1
	c0,0,5.7-26.4,3.8-32.7c-1.9-6.3-7.5-5.2-7.5-5.2s-8.5-0.9-10.4,4.1c-1.9,5-9.4,38.7-10.4,49c0,0-19.8,14.1-32.1,14.1
	s-11.3-8.5-11.3-8.5s46.2-16,33.9-47.1c-5.7-8.5-12.3-10.4-21.7-10.4s-20.7,5.7-28.3,22.6c-3.8,8.5-4.7,16-5.7,21.7
	c-0.9,5.7-8.5,1.9-13.2-1.9s-6.6,0-6.6,0s-7.5,9.4,0,12.3c7.5,2.8,19.3,3.8,19.3,3.8c1.9,9.4,6.6,17,13.2,21.7
	c13.8,10.4,40.5-0.9,40.5-0.9l10.7-5.7c0,0,0.4,10.4,8.5,12.3c8.1,1.9,11.3,0,25.1-33.9c8.5-17,9.1-16,9.1-16h0.9c0,0-6,33-3.8,41.9
	c2.3,8.9,13.2,7.5,13.2,7.5s5.7,0.9,10.4-15.1c4.7-16,14.1-34.4,14.1-34.4h0.9c0,0-3.8,33.9,2.2,44.5s21,3.8,21,3.8
	s10.7-5.7,12.4-7.3c0,0,12.6,11.3,30.6,9.4c40.5-7.5,54.7-18.9,54.7-18.9s7.1,17.9,28.3,19.8c24.5,1.9,37.7-13.2,37.7-13.2
	s0,10,8.5,13.6S372,294,372,294l14.4-39.6h0.9c0,0,0.9,25.9,15.1,30s32.4-9.4,32.4-9.4s4.7-1.9,3.8-9.4v-1.9L439.2,262.8z
	 M40.7,266.6c0.7-22.2,15.1-31.8,20.1-27c5,4.8,3.1,15.1-6.3,21.7C45.1,267.9,40.7,266.6,40.7,266.6z M228.8,181
	c0,0,13.2-34.2,16.3-17.5c3.1,16.7-27.6,66.3-27.6,66.3C217.9,218.7,228.8,181,228.8,181z M244.6,276.5
	c-8.7,22.8-29.8,13.5-29.8,13.5s-2.5-8.1,4.4-30.9c6.9-22.8,22.9-13.9,22.9-13.9S253.3,253.6,244.6,276.5z M303.1,266.5
	c0,0-2.2-7.5,5.5-21.7c7.6-14.1,13.5-6.6,13.5-6.6s6.6,6.6-0.9,17s-18.2,10.4-18.2,10.4L303.1,266.5z"/>
<path class="st0" d="M394,307c0,3-2.3,5.3-5.2,5.4c-3,0-5.3-2.3-5.4-5.2c0-3,2.3-5.3,5.2-5.4c2.8,0,5.2,2.2,5.3,5v0.2H394z
	 M384.6,307c0,2.2,1.8,4,4,4s4-1.8,4-4s-1.8-4-4-4S384.6,304.8,384.6,307z M387.8,309.6h-1.2v-5c0.7-0.2,1.3-0.3,2-0.3
	c0.6,0,1.3,0,1.8,0.4c0.3,0.2,0.5,0.6,0.5,1c0,0.7-1,1.4-2,1.5c-0.3,0-0.7,0-1-0.2c0.7,0.2,1,0.7,1,1.3v1.3L387.8,309.6l-0.9-1.2
	c0-0.6-0.4-1-1-1h-0.6l1.6,2.2L387.8,309.6L387.8,309.6z M387.8,306.6h0.6c0.6,0,1.2,0,1.2-0.6s-0.4-0.8-1-0.8h-0.8L387.8,306.6
	L387.8,306.6z"/>
</svg>
