<?xml version="1.0" encoding="utf-8"?>
<!-- Generator: Adobe Illustrator 19.0.0, SVG Export Plug-In . SVG Version: 6.00 Build 0)  -->
<svg version="1.1" id="Capa_1" xmlns="http://www.w3.org/2000/svg" xmlns:xlink="http://www.w3.org/1999/xlink" x="0px" y="0px"
	 viewBox="0 0 238 138.8" style="enable-background:new 0 0 238 138.8;" xml:space="preserve">
<style type="text/css">
	.st0{fill:#4C6338;}
	.st1{opacity:0.85;}
	.st2{opacity:0.26;}
	.st3{fill:#77F300;}
	.st4{opacity:0.47;}
	.st5{opacity:0.35;fill:#77F300;enable-background:new    ;}
	.st6{opacity:0.26;fill:#77F300;enable-background:new    ;}
	.st7{fill:#B9D800;}
	.st8{opacity:0.47;fill:#77F300;enable-background:new    ;}
</style>
<g id="XMLID_61_">
	<path id="XMLID_63_" class="st0" d="M124.4,72.6c-2.8-6.4-2.9-14.4,1.5-20.2c0.2-0.3,0.8-0.5,1.4-0.4c0.3,0.1,0.6,0.1,0.9,0.2
		c1.5,0.4,3.2,0.4,4.7,0.6c1.7,0,3.3,0.1,4.9-0.2c6.9-1,14.2-3.9,19-9.3c1.1-1.2,2.1-2.6,2.8-4.1c0.2-0.3,0.3-0.6,0.5-0.8
		c0.2-0.4,0.1-0.6-0.4-0.4c-0.2,0.1-0.5,0.2-0.8,0.4c-0.5,0.2-1.1,0.5-1.9,0.7c-4.5,1.2-14.7,2.4-17.6-2.7c-0.7-1.2,0.2-3.3,0.3-4.6
		c0.5-3.9,0.2-7.9-0.8-11.7c-1.7-6.7-6.3-13.9-12.6-17.2c-0.3-0.2-0.6-0.3-0.8-0.5C125,2.2,124.8,2,124.8,2s0.3,0.6,0.7,1.7
		c0.2,0.5,0.5,1.1,0.7,1.9c0.9,3.3,1.3,6.5,0.7,9.9c-0.5,2.8-1.5,8.7-5.4,7.8c-9.2-2.1-20.9,0.6-27.5,7.7c-0.4,0.4-0.8,0.8-1.1,1.2
		c-0.7,0.8-1.3,1.5-1.8,2.2c-0.5,0.6-0.9,1.2-1.2,1.8c-0.2,0.3-0.3,0.6-0.5,0.8c-0.2,0.5-0.1,0.6,0.4,0.4c0.2-0.1,0.5-0.2,0.8-0.4
		c0.5-0.2,1.1-0.5,1.9-0.7c0.7-0.2,1.5-0.5,2.4-0.6c3-0.5,6.1-0.5,9,0.3c1.5,0.4,6.9,1.9,6.4,4.2c-1.9,8.9-0.2,18,5.1,25.4
		c0.4,0.6,0.8,1.1,1.2,1.5c0.4,0.5,0.8,0.9,1.2,1.4c0.4,0.4,0.8,0.8,1.2,1.1c0.8,0.7,1.5,1.3,2.2,1.8c0.6,0.5,1.2,0.9,1.8,1.2
		c0.3,0.2,0.6,0.3,0.8,0.5C124.4,73.2,124.6,73.1,124.4,72.6z M121.1,41.4c-2-2-2-5.1-0.2-7.2c0.1-0.1,0.1-0.1,0.2-0.2
		c2-2,5.3-2,7.4,0c2,2,2,5.1,0.2,7.2c-0.1,0.1-0.1,0.1-0.2,0.2C126.4,43.4,123.1,43.4,121.1,41.4z"/>
</g>
<g id="XMLID_14_" class="st1">
	<g id="XMLID_26_" class="st2">
		<path id="XMLID_27_" class="st3" d="M117.7,73.2c-1.4-6.8,0.1-14.7,5.5-19.5c0.3-0.3,1-0.3,1.4-0.1c0.3,0.1,0.5,0.2,0.8,0.4
			c1.4,0.6,3,1.1,4.5,1.5c1.6,0.3,3.2,0.7,4.9,0.8c7,0.5,14.7-1,20.5-5.3c1.3-1,2.5-2.1,3.6-3.4c0.2-0.3,0.4-0.5,0.6-0.7
			c0.3-0.4,0.2-0.6-0.3-0.5c-0.2,0.1-0.5,0.1-0.9,0.2c-0.5,0.1-1.2,0.2-2,0.3c-4.6,0.3-14.9-0.6-16.7-6.2c-0.5-1.3,0.8-3.2,1.2-4.5
			c1.2-3.7,1.8-7.7,1.6-11.6c-0.4-7-3.3-14.9-8.8-19.4c-0.3-0.2-0.5-0.4-0.7-0.6c-0.4-0.4-0.7-0.6-0.7-0.6s0.1,0.6,0.4,1.7
			c0.1,0.5,0.2,1.2,0.3,2c0.2,3.4-0.1,6.6-1.3,9.8c-1.1,2.7-3.3,8.2-6.9,6.5c-8.6-4-20.6-3.6-28.4,2c-0.5,0.3-0.9,0.6-1.4,1
			c-0.9,0.6-1.5,1.2-2.2,1.8c-0.6,0.5-1.1,1.1-1.5,1.5c-0.2,0.3-0.4,0.5-0.6,0.7c-0.3,0.4-0.2,0.6,0.3,0.5c0.2-0.1,0.5-0.1,0.9-0.2
			c0.5-0.1,1.2-0.2,2-0.3c0.8-0.1,1.6-0.2,2.5-0.1c3,0.2,6.1,0.8,8.8,2.1c1.4,0.7,6.4,3.3,5.4,5.4c-3.6,8.3-3.9,17.6-0.2,25.9
			c0.3,0.6,0.6,1.2,0.9,1.8c0.3,0.5,0.6,1.1,0.9,1.5c0.3,0.5,0.6,0.9,1,1.4c0.6,0.8,1.2,1.5,1.8,2.2c0.5,0.6,1.1,1.1,1.5,1.5
			c0.3,0.2,0.5,0.4,0.7,0.6C117.6,73.8,117.8,73.7,117.7,73.2z M120.8,41.9c-1.5-2.3-1-5.4,1.3-7.1c0.1-0.1,0.1-0.1,0.2-0.2
			c2.4-1.6,5.6-0.9,7.2,1.5c1.5,2.3,1,5.4-1.3,7.1c-0.1,0.1-0.1,0.1-0.2,0.2C125.6,45,122.3,44.3,120.8,41.9z"/>
	</g>
	<g id="XMLID_22_" class="st4">
		<g id="XMLID_23_">
			<path id="XMLID_25_" class="st5" d="M110.5,24.4c-2.2,1-8.1,69.7,84.6,61.5c0,0-62.2,27.1-96.2-12.2
				C63.1,32.3,110.5,24.4,110.5,24.4z"/>
			<path id="XMLID_24_" class="st6" d="M111.6,39.7c0,0-1.1,1-1.1,2.4c0.4,10.9,3,56.5,84.5,43.8C195.1,85.9,134.3,87.3,111.6,39.7z
				"/>
		</g>
	</g>
	<g id="XMLID_16_">
		<path id="XMLID_21_" class="st7" d="M109.8,34.1l1.2,2.3c0,0.1,0.1,0.1,0.1,0.1l2.3,1.2c0.2,0.1,0.2,0.5,0,0.6l-2.3,1.2
			c-0.1,0-0.1,0.1-0.1,0.1l-1.2,2.3c-0.1,0.2-0.5,0.2-0.6,0l-1.2-2.3c0-0.1-0.1-0.1-0.1-0.1l-2.3-1.2c-0.2-0.1-0.2-0.5,0-0.6
			l2.3-1.2c0.1,0,0.1-0.1,0.1-0.1l1.2-2.3C109.4,33.9,109.7,33.9,109.8,34.1z"/>
		<path id="XMLID_20_" class="st7" d="M99.2,32.2l0.8,1.5c0,0.1,0.1,0.1,0.1,0.1l1.5,0.8c0.1,0.1,0.1,0.3,0,0.4l-1.5,0.8
			c-0.1,0-0.1,0.1-0.1,0.1l-0.8,1.5c-0.1,0.1-0.3,0.1-0.4,0l-0.8-1.5c0-0.1-0.1-0.1-0.1-0.1L96.3,35c-0.1-0.1-0.1-0.3,0-0.4l1.5-0.8
			c0.1,0,0.1-0.1,0.1-0.1l0.8-1.5C98.9,32,99,32,99.2,32.2z"/>
		<path id="XMLID_19_" class="st7" d="M107.7,59.9l1.2,2.3c0,0.1,0.1,0.1,0.1,0.1l2.3,1.2c0.2,0.1,0.2,0.5,0,0.6l-2.3,1.2
			c-0.1,0-0.1,0.1-0.1,0.1l-1.2,2.3c-0.1,0.2-0.5,0.2-0.6,0l-1.2-2.3c0-0.1-0.1-0.1-0.1-0.1l-2.3-1.2c-0.2-0.1-0.2-0.5,0-0.6
			l2.3-1.2c0.1,0,0.1-0.1,0.1-0.1l1.2-2.3C107.3,59.7,107.6,59.7,107.7,59.9z"/>
		<path id="XMLID_18_" class="st7" d="M122.4,43.9l1.6,3c0.1,0.1,0.1,0.1,0.2,0.2l3,1.6c0.3,0.2,0.3,0.6,0,0.7l-3,1.6
			c-0.1,0.1-0.1,0.1-0.2,0.2l-1.6,3c-0.2,0.3-0.6,0.3-0.7,0l-1.6-3c-0.1-0.1-0.1-0.1-0.2-0.2l-3-1.6c-0.3-0.2-0.3-0.6,0-0.7l3-1.6
			c0.1-0.1,0.1-0.1,0.2-0.2l1.6-3C121.9,43.5,122.3,43.5,122.4,43.9z"/>
		<path id="XMLID_17_" class="st7" d="M85.3,43.9l1.6,3c0.1,0.1,0.1,0.1,0.2,0.2l3,1.6c0.3,0.2,0.3,0.6,0,0.7l-3,1.6
			c-0.1,0.1-0.1,0.1-0.2,0.2l-1.6,3c-0.2,0.3-0.6,0.3-0.7,0l-1.6-3c-0.1-0.1-0.1-0.1-0.2-0.2l-3-1.6c-0.3-0.2-0.3-0.6,0-0.7l3-1.6
			c0.1-0.1,0.1-0.1,0.2-0.2l1.6-3C84.7,43.5,85.1,43.5,85.3,43.9z"/>
	</g>
	<path id="XMLID_15_" class="st8" d="M125.1,2.7c0,0,66.4,30.3-81.1,136C44,138.7,155.6,61.2,125.1,2.7z"/>
</g>
</svg>
