<?xml version="1.0" encoding="utf-8"?>
<!-- Generator: Adobe Illustrator 19.0.0, SVG Export Plug-In . SVG Version: 6.00 Build 0)  -->
<svg version="1.1" id="Capa_1" xmlns="http://www.w3.org/2000/svg" xmlns:xlink="http://www.w3.org/1999/xlink" x="0px" y="0px"
	 viewBox="230 -30 960 560" style="enable-background:new 230 -30 960 560;" xml:space="preserve">
<style type="text/css">
	.st0{fill:#676675;}
	.st1{fill:#0F003B;}
	.st2{fill:#292247;}
	.st3{fill:#D6D6E8;}
</style>
<g id="XMLID_1_">
	<path id="XMLID_2_" class="st0" d="M574.6,216.1l-3.2,55.8H453.1v-9.4c1.8-0.2,4.2-0.5,7.4-1c3.2-0.5,5.4-1,6.8-1.8
		c2.1-1.2,3.7-2.8,4.7-5.1c1-2.2,1.5-5.1,1.5-8.5V112c0-3-0.4-5.6-1.3-8c-0.8-2.3-2.4-4.2-4.9-5.5c-1.7-1.1-3.9-2.1-6.9-3.1
		c-2.9-1-5.3-1.7-7.3-1.8v-9.4H517v9.4c-1.9,0.1-4.6,0.5-7.8,1.4c-3.2,0.8-5.4,1.5-6.9,2.1c-2.4,1.1-4.1,2.8-5,5.4
		c-0.9,2.5-1.4,5.3-1.4,8.2v126.1c0,5.8,0.2,10.3,0.7,13.5c0.5,3.2,1.6,5.7,3.2,7.5c1.7,1.6,4.1,2.6,7.3,3.1
		c3.2,0.5,7.8,0.7,13.6,0.7c2.6,0,5.3-0.1,8.2-0.3c2.8-0.2,5.5-0.5,8.1-1.1c2.5-0.5,4.8-1.3,6.9-2.1c2.1-1,3.6-2.1,4.7-3.5
		c2.9-4.1,6.3-10.2,10.2-18.5c3.9-8.3,6.5-15,8.1-20L574.6,216.1L574.6,216.1L574.6,216.1z"/>
	<path id="XMLID_4_" class="st0" d="M712.2,216.6l-2.9,55.3H583.7v-9.4c2.1-0.2,5-0.6,8.6-1.2c3.6-0.6,5.8-1.2,6.9-1.8
		c2.2-1.4,3.9-3,4.8-5.2c0.9-2.1,1.4-4.8,1.4-8.1v-135c0-2.9-0.4-5.4-1.2-7.8c-0.8-2.2-2.4-4.1-4.9-5.4c-1.9-1.2-4.5-2.1-7.8-3
		c-3.2-0.9-5.8-1.5-7.8-1.6v-9.4h117.2v45.2h-8c-1.5-6.7-4.5-13.8-9.2-21.4s-9.2-11.7-13.5-12.4c-2.2-0.4-4.9-0.6-7.9-0.8
		s-6.5-0.3-10.5-0.3h-23.8v74.7H645c5.4,0,9.4-0.7,12-1.9c2.5-1.3,4.8-3.4,6.7-6.4c1.6-2.5,2.9-5.9,4-10.2c1.1-4.3,1.8-8.3,2.1-12.2
		h8v73.6h-8c-0.3-4.3-1.1-8.8-2.3-13.4c-1.3-4.8-2.5-8.2-3.9-10.2c-2.2-3.4-4.7-5.7-7.5-6.7c-2.8-1.1-6.5-1.6-11.2-1.6h-17.1v56.1
		c0,5.6,0.3,10.1,1,13.3c0.7,3.3,1.8,5.7,3.7,7.4c1.8,1.7,4.4,2.7,7.6,3.2c3.2,0.5,7.8,0.7,13.6,0.7c2.3,0,5.4,0,9.2,0
		c3.8,0,7.1-0.2,9.7-0.5c2.7-0.4,5.4-1,8.4-1.9s5-2.1,6.1-3.8c3.3-4.3,6.7-10.7,10.3-19.3s5.9-15,6.9-19L712.2,216.6L712.2,216.6z"
		/>
	<path id="XMLID_6_" class="st0" d="M868.9,272H806v-9.4c5.5-0.5,10.1-1.4,13.8-2.6c3.7-1.4,5.5-2.9,5.5-4.9c0-0.8-0.1-1.8-0.2-2.9
		c-0.1-1.2-0.4-2.1-0.7-3L811.9,207h-53.1c-2,6.2-3.6,11.6-4.9,16.1c-1.3,4.6-2.3,8.8-3.4,12.7c-1,3.8-1.6,6.9-1.9,9.2
		c-0.4,2.3-0.5,4.3-0.5,5.8c0,3.5,2.2,6.2,6.7,8.2c4.5,1.9,9.5,3.1,15.2,3.4v9.4h-57.1v-9.4c1.8-0.2,4.2-0.7,6.9-1.6
		c2.8-0.9,5.1-1.9,6.8-3.4c2.8-2.3,5.1-4.9,6.6-7.5c1.6-2.6,3.1-6.2,4.6-10.8c7.6-23.5,16-50,25.2-79.4s17.3-55.5,24.5-78.5h8.6
		l50.5,162c1.1,3.4,2.2,6.2,3.6,8.4c1.4,2.1,3.2,4.2,5.6,6.2c1.7,1.3,3.8,2.2,6.4,3.1c2.6,0.9,4.9,1.3,6.6,1.4L868.9,272L868.9,272
		L868.9,272z M807.9,195.2l-23-72.8l-22.6,72.8H807.9z"/>
	<path id="XMLID_9_" class="st0" d="M990.2,130.5c0,9.8-1.6,18.5-4.7,26c-3.1,7.6-7.4,13.8-12.8,18.8c-5.4,5-11.4,8.6-17.8,10.9
		c-6.5,2.3-13.3,3.4-20.6,3.4h-16.9v56.9c0,3.1,0.4,5.8,1.3,8.2c0.8,2.3,2.5,4.1,5.1,5.3c1.3,0.6,3.5,1.2,6.8,1.8
		c3.2,0.5,6.2,0.9,8.9,1v9.4h-65.1v-9.4c1.8-0.2,4.2-0.5,7.4-1s5.4-1,6.8-1.8c2.1-1.2,3.7-2.8,4.7-5.1c1-2.2,1.5-5.1,1.5-8.5V110.9
		c0-3.1-0.4-5.8-1.1-8.4c-0.7-2.4-2.4-4.3-5.1-5.5c-2.7-1.2-5.3-1.9-8.1-2.4c-2.6-0.5-5-0.8-6.9-1v-9.4h69.1
		c14.1,0,25.5,4.2,34.3,12.6C985.8,105.2,990.2,116.5,990.2,130.5z M957.7,162.5c2.4-4.3,4-8.7,4.8-13.1c0.8-4.6,1.2-8.7,1.2-12.3
		c0-5.1-0.5-10.1-1.5-15.4c-1-5.3-2.6-9.7-5-13.6c-2.5-4.2-5.7-7.4-9.8-9.6c-4.1-2.3-9.1-3.4-15.2-3.4h-15.1v83H928
		c7.7,0,13.9-1.5,18.8-4.5C951.7,170.6,955.4,167,957.7,162.5z"/>
</g>
<g id="XMLID_12_">
	<path id="XMLID_13_" class="st1" d="M561.8,380.3v-1.5c3.8-0.3,3.9-0.6,3.9-5.5l-0.2-18.4h-0.1l-11.3,25h-1l-10.2-24.3h-0.1
		l-0.7,13c-0.2,3.9-0.3,5.7-0.2,7.5c0.1,2.1,1.3,2.4,4.3,2.7v1.5h-10.8v-1.5c2.6-0.3,3.5-0.7,3.9-2.7c0.3-1.6,0.6-3.4,0.9-8.3
		l0.7-9.3c0.4-5.8,0.3-5.9-3.9-6.3v-1.4h7.3l10.4,23l10.8-23h7.7v1.4c-4.1,0.4-4.4,0.4-4.3,5.3l0.5,15.9c0.2,5,0.3,5.3,4.3,5.5v1.5
		L561.8,380.3L561.8,380.3L561.8,380.3z"/>
	<path id="XMLID_15_" class="st1" d="M599.8,373.1c-0.3,1.4-1.2,5.8-1.6,7.2h-21.9V379c4.2-0.3,4.6-0.7,4.6-4.4v-17.9
		c0-4-0.4-4.1-4-4.4v-1.4h20.2c0.1,1.1,0.3,4.2,0.5,6.7l-1.5,0.2c-0.4-1.9-0.9-2.8-1.5-3.9c-0.6-1-1.8-1.4-5-1.4h-3.9
		c-1.4,0-1.5,0.2-1.5,1.5v10.2h4.5c4.1,0,4.3-0.4,4.8-3.4h1.5v8.7h-1.5c-0.7-3.2-0.9-3.4-4.8-3.4h-4.5v8.4c0,2.1,0.4,3.1,1.2,3.7
		c0.9,0.6,2.4,0.6,4.8,0.6c3.4,0,4.8-0.4,5.7-1.6c0.8-0.9,1.7-2.4,2.2-4.3L599.8,373.1z"/>
	<path id="XMLID_17_" class="st1" d="M626.4,357.8c-0.5-2.1-0.9-3.2-1.4-3.9c-0.8-1.1-1.4-1.5-4.8-1.5h-3.4v22.2
		c0,3.5,0.4,4,4.8,4.2v1.5h-12.8v-1.5c4.2-0.2,4.6-0.7,4.6-4.2v-22.2h-3.2c-3.4,0-4.4,0.4-5,1.4c-0.5,0.8-0.9,2-1.4,4h-1.5
		c0.2-2.6,0.5-5.5,0.6-8.1h1c0.7,1.1,1.3,1.2,2.5,1.2h17.8c1.3,0,1.5-0.3,2.1-1.2h1.1c0.1,2.1,0.3,5.4,0.5,8L626.4,357.8z"/>
	<path id="XMLID_19_" class="st1" d="M662.1,352.2c-3.8,0.3-4.2,0.5-4.2,4.2v18.3c0,3.8,0.4,3.9,4.2,4.2v1.5H650v-1.5
		c4-0.3,4.4-0.5,4.4-4.2v-8.9h-15.9v8.9c0,3.7,0.4,3.9,4.2,4.2v1.5h-11.8v-1.5c3.8-0.3,4.1-0.4,4.1-4.2v-18.3c0-3.7-0.4-3.9-4.2-4.2
		v-1.4h11.7v1.4c-3.5,0.3-3.9,0.6-3.9,4.2v7.3h15.9v-7.3c0-3.7-0.4-3.9-4-4.2v-1.4h11.7L662.1,352.2L662.1,352.2L662.1,352.2z"/>
	<path id="XMLID_21_" class="st1" d="M695.1,365.1c0,9.8-6.8,15.8-15.1,15.8c-7.9,0-14.5-6.2-14.5-15c0-8.3,5.7-15.7,15.1-15.7
		C688.1,350.3,695.1,356,695.1,365.1z M669.7,364.6c0,8.6,4.9,14.5,11.4,14.5c5.1,0,9.7-4,9.7-12.7c0-9.6-5.3-14.3-11.3-14.3
		C674.6,352,669.7,355.9,669.7,364.6z"/>
	<path id="XMLID_24_" class="st1" d="M711.4,350.8c5.8,0,10,1.2,12.8,3.8c2.2,2.1,3.8,5.4,3.8,9.7c0,5.3-2.1,9.4-5.6,12.2
		c-3.4,2.6-7.8,3.7-13.3,3.7h-10.7v-1.4c4-0.3,4.4-0.5,4.4-4.3v-18.1c0-3.8-0.4-4-3.9-4.3v-1.5L711.4,350.8L711.4,350.8z
		 M706.3,374.2c0,3.4,1.6,4.3,5,4.3c8.8,0,12.7-6.4,12.7-13.5c0-4.6-1.8-8.7-5.6-10.8c-2-1.2-4.7-1.8-7.7-1.8
		c-2.1,0-3.3,0.3-3.8,0.6c-0.4,0.4-0.6,0.9-0.6,2.5V374.2L706.3,374.2z"/>
	<path id="XMLID_27_" class="st1" d="M762.7,365.1c0,9.8-6.8,15.8-15.1,15.8c-7.9,0-14.5-6.2-14.5-15c0-8.3,5.7-15.7,15.1-15.7
		C755.6,350.3,762.7,356,762.7,365.1z M737.2,364.6c0,8.6,4.9,14.5,11.4,14.5c5.2,0,9.7-4,9.7-12.7c0-9.6-5.3-14.3-11.3-14.3
		C742.1,352,737.2,355.9,737.2,364.6z"/>
	<path id="XMLID_30_" class="st1" d="M788.3,373.2c-0.3,1.4-1.3,5.7-1.7,7.1h-20.4v-1.5c3.8-0.2,4.2-0.5,4.2-4.3v-18
		c0-3.8-0.3-4-4.1-4.3v-1.4h11.8v1.4c-3.7,0.3-4.2,0.5-4.2,4.3v17.7c0,2.4,0.3,3.3,1.2,3.8s2.5,0.6,4.5,0.6c2.5,0,4-0.3,5.1-1.4
		c0.9-0.9,1.7-2.2,2.3-4.4L788.3,373.2z"/>
	<path id="XMLID_32_" class="st1" d="M820.3,365.1c0,9.8-6.8,15.8-15.1,15.8c-7.9,0-14.5-6.2-14.5-15c0-8.3,5.7-15.7,15.1-15.7
		C813.3,350.3,820.3,356,820.3,365.1z M794.9,364.6c0,8.6,4.9,14.5,11.4,14.5c5.1,0,9.7-4,9.7-12.7c0-9.6-5.3-14.3-11.3-14.3
		C799.8,352,794.9,355.9,794.9,364.6z"/>
	<path id="XMLID_35_" class="st1" d="M854.5,368c-2.8,0.5-3,0.6-3,3.2v3.8c0,1.6,0.1,3,0.4,4.3c-2.9,0.7-6.6,1.7-10.2,1.7
		c-9.8,0-16.4-6.2-16.4-15.2c0-10.6,8.5-15.5,17-15.5c3.8,0,7.4,1,8.8,1.4c0.2,1.7,0.4,4.2,0.8,7.1l-1.4,0.3c-1.2-5.7-4.6-7-8.8-7
		c-7.1,0-12.3,4.9-12.3,13.2c0,6.5,4,13.9,12.8,13.9c1.7,0,3.1-0.4,4.1-0.9c1.1-0.5,1.6-1,1.6-3v-3.4c0-3.3-0.4-3.5-4.8-3.9v-1.4
		h11.3L854.5,368L854.5,368z"/>
	<path id="XMLID_37_" class="st1" d="M883.8,352.2c-3.1,0.4-3.7,0.8-5.5,3.8c-2,3.2-3.6,5.9-5.8,9.9c-0.6,1-0.7,1.5-0.7,2.6v6.1
		c0,3.7,0.4,4.1,4.7,4.3v1.5h-12.7V379c4.2-0.2,4.5-0.5,4.5-4.3v-6c0-0.9-0.2-1.3-1-2.7l-5.8-9.8c-1.8-3-2.3-3.6-5.1-3.8v-1.4h10.6
		v1.4c-3.3,0.5-3.2,1-2.2,2.5c1.9,3.5,4.1,7.2,6.2,10.6c1.8-3.1,4-7.3,5.3-10.1c1.1-2.3,1-2.6-2.6-3v-1.4h10.1L883.8,352.2
		L883.8,352.2z"/>
</g>
<rect id="XMLID_779_" x="484.2" y="318.7" class="st2" width="4.1" height="97.3"/>
<rect id="XMLID_386_" x="930.7" y="318.7" class="st2" width="4.1" height="97.3"/>
<g>
	<g id="XMLID_1260_">
		<polygon id="XMLID_1261_" class="st3" points="712,507.5 703,479.5 673.5,479.5 697.4,460.7 688.2,432 712,449 735.9,431.5 
			726.8,460.8 750.6,479.5 721.2,479.5 		"/>
	</g>
	<g id="XMLID_1258_">
		<polygon id="XMLID_1259_" class="st3" points="630.6,460.3 626.2,446.4 611.5,446.4 623.4,437.2 618.9,422.9 630.6,431.4 
			642.5,422.7 638,437.2 649.8,446.4 635.2,446.4 		"/>
	</g>
	<g id="XMLID_1256_">
		<polygon id="XMLID_1257_" class="st3" points="793.4,460.3 789,446.4 774.3,446.4 786.1,437.2 781.6,422.9 793.4,431.4 
			805.3,422.7 800.7,437.2 812.6,446.4 798,446.4 		"/>
	</g>
	<g id="XMLID_1160_">
		<g id="XMLID_1191_">
			<path id="XMLID_1196_" class="st3" d="M398,396.5c0,0,0.8,0.3,2.1,0.6c1.4,0.3,3.4,0.6,5.8,0.7c4.8,0.1,11.2-0.8,17.1-4.7
				c2.9-1.8,5.1-4.6,6.7-7.3c1.6-2.7,2.6-5.6,3.3-8.2c1.4-5.3,1.4-9.3,1.4-9.3s-1.6-0.1-4.1,0.3c-2.5,0.5-5.8,1.1-9.5,2.7
				c-1.8,0.9-3.8,1.8-5.8,3.1c-1.9,1.3-4,2.9-6,4.9C404.9,382.9,400.9,388.6,398,396.5z"/>
			<path id="XMLID_1195_" class="st3" d="M363.2,379.6c0,0,0.7,0.5,1.9,1.2c0.7,0.4,1.5,0.8,2.3,1.2s1.9,0.8,3.1,1.1
				c2.3,0.7,5,1.4,8,1.5c3,0.1,6.2-0.1,9.4-1.3c6.5-2,10.5-7.5,12.8-12.3c2.3-4.7,3.2-8.8,3.2-8.8s-1.6-0.5-4-0.8
				c-1.3-0.2-2.7-0.4-4.4-0.4s-3.5,0.1-5.4,0.3c-1.9,0.2-4.1,0.7-6.3,1.4c-2.1,0.7-4.5,1.7-6.8,3c-1.2,0.7-2.3,1.5-3.5,2.3
				c-1.2,0.9-2.3,1.8-3.5,3C367.8,373.4,365.5,376.2,363.2,379.6z"/>
			<path id="XMLID_1194_" class="st3" d="M434.4,368.3c0,0,0.2-3-0.6-7.4c-0.7-4.4-2.3-10.1-5.3-15.7c-1.5-2.9-3.3-5.1-5.1-6.8
				c-1.8-1.8-3.7-3.1-5.3-4.2c-1.7-1.1-3.2-1.8-4.3-2.2s-1.8-0.8-1.8-0.8s-0.4,1.8-0.7,4.5c-0.3,2.7-0.4,6.7,0.5,10.8
				c0.9,4.1,2.6,8.8,6.2,12.8c0.9,1,1.8,2,3,2.9c1.2,0.9,2.3,1.8,3.7,2.5C427.4,366.4,430.6,367.5,434.4,368.3z"/>
			<path id="XMLID_1193_" class="st3" d="M404.3,362.5c0,0,0.8-2.8,1-7.3s-0.2-10.3-1.9-16.7c-0.4-1.6-1-3-1.6-4.3
				c-0.6-1.4-1.3-2.6-1.9-3.7c-0.7-1.2-1.5-2.1-2.2-3c-0.8-1-1.5-1.8-2.2-2.5c-1.5-1.5-2.8-2.6-3.8-3.4c-1-0.8-1.7-1.2-1.7-1.2
				s-0.8,1.6-1.6,4.2c-0.8,2.6-1.7,6.3-1.7,10.6c0,2.1,0.2,4.5,0.7,6.9c0.6,2.3,1.4,4.9,2.7,7.4
				C392.7,354.1,397.2,359.1,404.3,362.5z"/>
			<path id="XMLID_1192_" class="st3" d="M376.6,347.2c0,0,1,0.6,2.5,1.7c0.8,0.5,1.8,1.2,2.9,1.8s2.5,1.4,3.9,2.2
				c5.7,3.2,13.7,6.8,22,9.2c2,0.6,4.1,1.2,6.2,1.7c2,0.4,4.1,0.9,6,1.3c4,0.6,7.7,1.2,10.8,1.4c3.2,0.3,5.8,0.3,7.7,0.3
				s2.9,0,2.9,0l0.1,2.9c0,0-1.1,0-3,0c-1.8,0-4.6,0-7.9-0.3c-3.2-0.2-7-0.8-11.1-1.4c-2-0.4-4.1-0.9-6.1-1.3
				c-2-0.5-4.2-1.2-6.3-1.8c-8.4-2.5-16.5-6.2-22.4-9.4c-1.5-0.8-2.8-1.6-4-2.2c-1.2-0.7-2.1-1.4-3-1.8c-1.7-1.1-2.6-1.7-2.6-1.7
				L376.6,347.2z"/>
		</g>
		<g id="XMLID_1185_">
			<path id="XMLID_1190_" class="st3" d="M326.5,347.3c0,0,0.1,0.2,0.4,0.5c0.3,0.3,0.7,0.8,1.2,1.3c1.1,1,2.6,2.4,4.7,3.8
				c4,2.8,9.8,5.6,16.5,5.6c3.3,0.1,6.3-1,8.8-2.3c2.5-1.5,4.7-3.3,6.4-5.2c1.8-1.8,3-3.7,3.9-5.1c0.9-1.4,1.4-2.2,1.4-2.2
				s-0.3-0.2-1-0.7c-0.6-0.4-1.6-1-2.6-1.6c-1.2-0.6-2.5-1.2-4.1-1.8c-1.6-0.6-3.3-1.2-5.3-1.6c-1.9-0.4-4-0.7-6.3-0.7
				c-1.2,0-2.3,0-3.5,0.2c-1.2,0.1-2.4,0.3-3.7,0.6C338,339.5,332.3,342.1,326.5,347.3z"/>
			<path id="XMLID_1189_" class="st3" d="M303.2,314.5c0,0,0.4,0.8,1.3,2c0.9,1.3,2.1,2.9,3.9,4.8c3.4,3.6,8.6,7.7,15.1,9.3
				c3.3,0.8,6.3,0.6,9-0.2c2.7-0.8,5.2-2.1,7.2-3.5c4-2.8,6.4-5.8,6.4-5.8s-1.2-1.3-3.2-2.9c-1-0.9-2.2-1.8-3.7-2.7
				c-0.7-0.5-1.5-1-2.3-1.4c-0.8-0.5-1.7-1-2.6-1.4c-1.8-0.9-3.9-1.6-6.1-2.1c-2.2-0.6-4.6-1-7.2-1
				C315.8,309.5,309.9,310.7,303.2,314.5z"/>
			<path id="XMLID_1188_" class="st3" d="M369.7,343.9c0,0,0.4-0.6,0.9-1.8c0.5-1.2,1.2-2.8,1.8-4.9c1.3-4.2,2.4-10.1,2.2-16.7
				c-0.1-3.4-0.7-6.3-1.6-8.9c-0.4-1.4-0.9-2.6-1.5-3.8c-0.5-1.2-1.1-2.1-1.7-3.2c-1.1-1.9-2.1-3.5-3-4.6c-0.8-1.1-1.4-1.8-1.4-1.8
				s-1.1,1.3-2.4,3.6c-1.4,2.2-3,5.6-4,9.8c-0.5,2-0.8,4.4-0.9,6.9c0,1.3,0,2.5,0.2,3.9c0.2,1.3,0.4,2.6,0.8,4.1
				c0.4,1.4,0.8,2.8,1.4,4.3c0.6,1.5,1.3,2.9,2.1,4.4C364.5,338.1,366.8,341,369.7,343.9z"/>
			<path id="XMLID_1187_" class="st3" d="M346.1,321.3c0,0,1.8-2,3.9-5.8c2-3.8,4.1-9.2,5.1-15.9c0.3-1.7,0.3-3.2,0.3-4.8
				c0-1.6-0.1-3-0.3-4.5c-0.5-2.8-1.1-5.4-1.8-7.6c-0.8-2.1-1.6-4-2.1-5.3c-0.6-1.3-1.1-1.9-1.1-1.9s-1.3,1-3,2.9
				c-1.8,1.9-3.9,4.9-5.5,8.8c-1.8,3.9-2.8,8.8-2.5,14.6c0.2,2.8,0.8,6,1.9,9.3C342,314.3,343.7,317.8,346.1,321.3z"/>
			<path id="XMLID_1186_" class="st3" d="M327.7,292.5c0,0,0.6,1.1,1.7,2.8c0.5,0.9,1.2,1.9,1.9,3.2c0.8,1.2,1.7,2.6,2.6,4.1
				c3.9,5.9,9.4,13.5,15.6,20.4c6.1,6.9,12.8,13,18.2,17.2c2.6,2.1,4.9,3.7,6.5,4.9c0.8,0.6,1.5,1,1.8,1.4c0.4,0.3,0.7,0.4,0.7,0.4
				l-1.3,2.5c0,0-0.2-0.2-0.7-0.4c-0.5-0.3-1.1-0.8-1.8-1.4c-1.6-1.2-4-2.7-6.6-5c-5.3-4.3-12.3-10.5-18.5-17.5
				c-6.3-7-11.9-14.7-15.9-20.8c-1-1.6-1.8-2.9-2.6-4.2c-0.8-1.3-1.4-2.3-1.9-3.3c-1.1-1.8-1.7-2.8-1.7-2.8L327.7,292.5z"/>
		</g>
		<g id="XMLID_1179_">
			<path id="XMLID_1184_" class="st3" d="M282.5,267.9c0,0,0.1,0.2,0.2,0.6c0.1,0.4,0.3,1,0.7,1.7c0.6,1.5,1.6,3.4,2.8,5.6
				c2.6,4.4,6.8,9.7,12.7,13c2.9,1.7,6,2.2,8.8,2.2c2.8,0,5.4-0.6,7.7-1.4c4.5-1.6,7.5-3.8,7.5-3.8s-0.8-1.6-2.4-3.8
				c-1.7-2.1-4-5.1-7.3-7.7c-1.7-1.4-3.4-2.6-5.4-3.8c-2-1.2-4.4-2.1-6.8-2.8C295.8,266.3,289.7,265.9,282.5,267.9z"/>
			<path id="XMLID_1183_" class="st3" d="M273,227.1c0,0,0.1,0.9,0.5,2.4c0.2,0.8,0.4,1.7,0.7,2.7c0.3,1.1,0.7,2.1,1.2,3.4
				c1.8,5,5.2,11.1,10.5,15.7c2.7,2.2,5.4,3.5,8.3,4.2c2.8,0.6,5.4,0.6,7.8,0.3c4.7-0.6,8-2.1,8-2.1s-0.6-1.8-1.8-4.2
				c-0.6-1.3-1.4-2.7-2.3-4.3c-1-1.6-2.1-3.2-3.5-4.9c-1.4-1.7-2.9-3.3-4.8-4.9c-1.8-1.6-3.9-3-6.2-4.3
				C286.1,228.5,280.4,226.8,273,227.1z"/>
			<path id="XMLID_1182_" class="st3" d="M322.8,286.1c0,0,2.2-1.5,5-4.6c2.7-3.1,5.9-7.9,8.2-14c1.2-3.1,1.7-6.1,1.8-9
				c0.2-2.9,0-5.5-0.3-8c-0.3-2.3-0.8-4.4-1.1-5.7c-0.3-1.5-0.6-2.2-0.6-2.2s-1.5,0.6-3.5,2c-2,1.5-4.8,3.7-7.1,7
				c-1.2,1.7-2.3,3.6-3.2,5.8c-0.5,1.2-0.9,2.3-1.3,3.6c-0.3,1.3-0.6,2.6-0.8,4.1c-0.2,1.5-0.3,3-0.3,4.6c0,1.6,0.1,3.3,0.4,5.1
				C320.2,278.2,321.3,281.9,322.8,286.1z"/>
			<path id="XMLID_1181_" class="st3" d="M309.6,253.7c0,0,2.4-1,5.5-3.5c3.2-2.4,7-6.4,10.2-12.1c0.8-1.4,1.5-2.8,1.9-4.3
				c0.6-1.5,1-2.8,1.3-4.3c0.3-1.4,0.5-2.7,0.7-4.1c0.2-1.4,0.3-2.6,0.3-3.8c0-2.3,0-4.4-0.1-5.8c-0.1-1.5-0.3-2.3-0.3-2.3
				s-1.6,0.3-3.8,1.3c-2.2,1-5.3,2.5-8.1,5.3c-0.7,0.7-1.5,1.5-2.1,2.2c-0.7,0.9-1.4,1.8-1.9,2.7c-1.3,2-2.4,4.4-3.2,7.1
				C308.4,237.8,307.8,245,309.6,253.7z"/>
			<path id="XMLID_1180_" class="st3" d="M303,218.7c0,0,0.2,1.3,0.5,3.4c0.2,1.1,0.3,2.4,0.6,3.9c0.3,1.5,0.6,3.1,1,5
				c1.5,7.3,3.9,16.9,7,26.2c3.1,9.3,7,18.2,10.2,24.7c1.6,3.3,3,5.8,4,7.8c0.5,0.9,0.9,1.7,1.2,2.1s0.4,0.8,0.4,0.8l-2,1.6
				c0,0-0.2-0.3-0.4-0.8c-0.3-0.5-0.7-1.3-1.2-2.1c-1-1.8-2.5-4.6-4.1-7.9c-3.2-6.6-7.2-15.7-10.3-25.1c-3.2-9.4-5.6-19.2-7.1-26.5
				c-0.4-1.8-0.7-3.6-1-5.1c-0.3-1.5-0.5-2.8-0.7-3.9c-0.3-2.1-0.5-3.4-0.5-3.4L303,218.7z"/>
		</g>
		<g id="XMLID_1173_">
			<path id="XMLID_1178_" class="st3" d="M270.4,174.4c0,0-0.1,0.9,0,2.5c0,1.6,0.2,3.8,0.6,6.4c0.9,5.3,2.7,12.2,7,18.1
				c4.3,5.9,10.1,8.1,14.7,8.8c4.7,0.7,8.2,0.1,8.2,0.1s-0.1-0.5-0.2-1.3c-0.1-0.8-0.4-1.9-0.7-3.4c-0.4-1.4-0.9-3-1.5-4.9
				c-0.6-1.8-1.5-3.7-2.4-5.7c-1-2-2.2-4.1-3.7-6c-1.5-2-3.1-4-5.3-5.9C283.1,179.5,277.7,176.2,270.4,174.4z"/>
			<path id="XMLID_1177_" class="st3" d="M275.9,133c0,0-0.2,0.9-0.4,2.4s-0.4,3.8-0.4,6.4c0,5.3,0.9,12.4,4.2,19.1
				c3.3,6.7,8.6,10,13,11.7c4.5,1.8,8,1.8,8,1.8s0-0.5,0-1.3c0-0.8-0.1-2-0.2-3.5c-0.3-2.9-0.9-6.8-2.1-11.2
				c-0.7-2.1-1.6-4.5-2.6-6.7c-1.1-2.3-2.5-4.6-4.3-6.9C287.7,140.6,282.8,136.2,275.9,133z"/>
			<path id="XMLID_1176_" class="st3" d="M300.8,210.4c0,0,2.5-0.3,6.1-1.8c3.6-1.6,8.2-4.3,12.4-8.8c4.3-4.6,6.2-10.1,7.4-14.7
				c0.6-2.3,0.9-4.3,1.1-5.8c0.2-1.5,0.2-2.3,0.2-2.3s-1.6-0.1-3.9,0.2s-5.6,1.1-8.9,2.9c-1.7,1-3.4,2.1-5.1,3.8
				c-1.7,1.6-3.2,3.6-4.6,6C302.7,194.7,300.8,201.5,300.8,210.4z"/>
			<path id="XMLID_1175_" class="st3" d="M300.2,174.6c0,0,2.5,0.3,6.3-0.5c3.7-0.7,8.8-2.4,13.5-6c4.9-3.6,7.8-8.8,9.5-13.1
				c1-2.1,1.6-4.1,1.9-5.5c0.4-1.5,0.6-2.3,0.6-2.3s-1.5-0.4-3.9-0.6c-2.3-0.2-5.7-0.1-9.2,1.1c-1.8,0.6-3.7,1.5-5.5,2.7
				s-3.7,2.9-5.4,5C304.6,159.6,301.6,165.9,300.2,174.6z"/>
			<path id="XMLID_1174_" class="st3" d="M306.3,139.5c0,0-0.3,1.2-0.7,3.3c-0.4,2.1-1.1,5.2-1.6,8.8c-1.2,7.4-2.4,17.3-2.8,27.2
				c-0.4,10-0.2,19.9,0.6,27.4c0.1,1,0.1,1.8,0.2,2.6c0.1,0.9,0.2,1.7,0.3,2.4c0.2,1.5,0.3,2.8,0.5,3.9c0.2,2.1,0.5,3.4,0.5,3.4
				l-2.4,0.5c0,0-0.2-1.3-0.5-3.4c-0.1-1.1-0.3-2.4-0.5-4c-0.1-0.8-0.2-1.6-0.3-2.4c-0.1-0.9-0.1-1.8-0.2-2.7
				c-0.7-7.6-1-17.7-0.6-27.8c0.4-10.1,1.7-20.1,2.8-27.6c0.6-3.7,1.3-6.8,1.7-8.9c0.5-2.1,0.7-3.4,0.7-3.4L306.3,139.5z"/>
		</g>
		<g id="XMLID_1167_">
			<path id="XMLID_1172_" class="st3" d="M291.4,83.8c0,0-0.4,0.8-0.9,2.3c-0.6,1.5-1.2,3.6-1.7,6.2c-1.1,5.3-1.6,12.4,0.4,19.8
				c1.9,7.4,6.5,12,10.5,14.8c4,2.8,7.5,3.9,7.5,3.9s0.5-1.8,0.7-4.7c0.3-2.9,0.5-6.9,0-11.5c-0.3-2.3-0.7-4.8-1.4-7.3
				c-0.7-2.5-1.6-5.2-2.8-7.8C301.3,94.3,297.5,88.8,291.4,83.8z"/>
			<path id="XMLID_1171_" class="st3" d="M311.6,47.5c0,0-0.5,0.7-1.4,2c-0.8,1.4-1.8,3.3-2.8,5.8c-1.1,2.4-1.9,5.5-2.6,8.8
				c-0.6,3.4-1,7.1-0.6,11c0.6,7.8,4.5,13.3,7.9,16.9c3.5,3.6,6.7,5.4,6.7,5.4s0.8-1.7,1.5-4.4c0.4-1.4,0.8-3,1.1-5
				c0.3-1.9,0.6-4,0.8-6.3c0.1-2.3,0.2-4.8,0-7.4c-0.1-1.4-0.3-2.7-0.5-4.1c-0.2-1.4-0.5-2.8-0.9-4.3
				C319.3,60.4,316.5,54,311.6,47.5z"/>
			<path id="XMLID_1170_" class="st3" d="M307.1,130.9c0,0,2.4,1,6.2,1.2c1.9,0.1,4.2,0.1,6.6-0.3c2.4-0.4,5.1-1.1,7.8-2.1
				c5.4-2.2,9.2-6.5,11.8-10.2c0.7-0.9,1.2-1.8,1.7-2.6s0.9-1.6,1.3-2.1c0.7-1.3,1-2,1-2s-1.4-0.8-3.6-1.7c-2.2-0.8-5.4-1.7-9.2-1.5
				c-1.8,0.1-3.8,0.4-5.8,1.2c-1.1,0.4-2,0.8-3.1,1.4c-1.1,0.6-2,1.3-3.1,2C314.2,117.3,310.1,122.6,307.1,130.9z"/>
			<path id="XMLID_1169_" class="st3" d="M318.6,97.7c0,0,2.2,1.5,5.9,2.5c1.8,0.6,4.1,1,6.5,1.2c1.3,0.1,2.5,0.1,3.8,0.1
				c1.4,0,2.7-0.2,4.2-0.4c5.6-1,10-4.1,13-6.9c0.8-0.7,1.5-1.4,2-2c0.6-0.6,1.2-1.2,1.6-1.8c0.9-1,1.3-1.7,1.3-1.7
				s-1.2-1.2-3.2-2.5c-2-1.4-5.1-3-8.7-3.8c-1.8-0.4-3.8-0.6-5.9-0.4c-1.1,0.1-2.1,0.3-3.3,0.6c-1.1,0.3-2.2,0.7-3.4,1.3
				C327.8,85.9,322.9,90.2,318.6,97.7z"/>
			<path id="XMLID_1168_" class="st3" d="M336.7,68.7c0,0-0.7,1-1.8,2.6s-2.8,4.2-4.7,7.2c-3.7,6-8.2,14.6-12,23.5
				c-3.8,8.9-6.8,18.3-8.8,25.4s-2.9,12-2.9,12l-2.4-0.7c0,0,1-5,3-12.2c1.9-7.2,5-16.7,8.8-25.8c3.8-9.1,8.4-17.8,12.2-23.9
				c1.9-3.1,3.5-5.6,4.8-7.3c1.2-1.8,1.8-2.7,1.8-2.7L336.7,68.7z"/>
		</g>
		<g id="XMLID_1161_">
			<path id="XMLID_1166_" class="st3" d="M347.1,10.7c0,0-0.2,0.1-0.5,0.4c-0.3,0.3-0.8,0.6-1.4,1.2c-1.2,1.1-2.7,2.5-4.5,4.7
				c-3.4,4.1-7.2,10.4-8.6,18.2c-1.4,7.8,0.9,14.4,3.4,19c2.5,4.7,5.2,7.4,5.2,7.4s0.3-0.4,0.7-1c0.4-0.7,1.1-1.7,1.8-2.8
				c0.7-1.2,1.5-2.7,2.2-4.4c0.8-1.7,1.6-3.6,2.3-5.8c0.8-2.1,1.4-4.6,1.9-7.1c0.5-2.5,0.9-5.4,1-8.5
				C350.8,25.8,350,18.6,347.1,10.7z"/>
			<path id="XMLID_1165_" class="st3" d="M384.1-7.4c0,0-0.9,0.2-2.3,0.8c-1.5,0.6-3.5,1.5-5.7,2.8c-4.6,2.7-10,7.6-13.5,14.7
				s-2.8,14.3-1.5,19.5c1.4,5.3,3.3,8.8,3.3,8.8s0.3-0.3,0.9-0.8c0.6-0.5,1.4-1.3,2.3-2.1c1.9-1.8,4.4-4.6,6.9-8.3
				c2.5-3.6,5.1-8.2,6.9-13.9C383.3,8.2,384.6,1.2,384.1-7.4z"/>
			<path id="XMLID_1164_" class="st3" d="M340.6,61.4c0,0,1.8,2.1,5.2,4.3c3.2,2.2,8.1,4.6,13.5,5.6c5.5,1.2,10.3-0.2,13.8-1.7
				c1.8-0.7,3.2-1.5,4.2-2s1.6-1,1.6-1s-0.8-1.6-2.3-3.6c-1.6-2-3.9-4.9-7.1-6.9c-1.6-1.1-3.4-1.9-5.4-2.6c-2-0.6-4.3-0.9-6.8-0.7
				C352.2,53.3,346.4,55.6,340.6,61.4z"/>
			<path id="XMLID_1163_" class="st3" d="M364.3,39c0,0,1.3,2.6,4,5.7c2.6,3.1,6.6,6.9,11.5,9.9c4.9,3,9.4,3.6,12.8,3.6
				c1.8,0,3.2-0.2,4.2-0.3c1.1-0.2,1.7-0.4,1.7-0.4s-0.3-1.8-1.2-4.4c-0.9-2.6-2.2-6-4.7-9.2c-2.3-3.2-5.7-6.2-10.5-7.7
				C377.3,35,371.2,35.2,364.3,39z"/>
			<path id="XMLID_1162_" class="st3" d="M393,27.2c0,0-0.3,0.1-0.8,0.2c-0.5,0.1-1.2,0.3-2,0.6c-1.8,0.5-4.4,1.4-7.4,2.5
				c-6,2.3-13.7,6.5-20.8,12s-13.5,12-18,17.2c-2.2,2.6-4.1,4.9-5.3,6.6c-1.3,1.7-1.9,2.5-1.9,2.5l-1.8-1.8c0,0,0.7-1,1.9-2.6
				c1.3-1.7,3.1-4,5.3-6.7c4.6-5.4,11.2-12.1,18.4-17.6c7.2-5.6,15.2-9.9,21.3-12.4c3.1-1.3,5.7-2,7.6-2.6c0.9-0.3,1.7-0.5,2.1-0.6
				c0.5-0.1,0.8-0.2,0.8-0.2L393,27.2z"/>
		</g>
	</g>
	<path id="XMLID_1159_" class="st3" d="M386.3,27.3c0,0,3-8.8,11.6-13.5c8.6-4.7,18.6,1,18.6,1S408.3,35.5,386.3,27.3z"/>
	<g id="XMLID_791_">
		<g id="XMLID_1153_">
			<path id="XMLID_1158_" class="st3" d="M1022,396.5c0,0-0.8,0.3-2.1,0.6c-1.4,0.3-3.4,0.6-5.8,0.7c-4.8,0.1-11.2-0.8-17.1-4.7
				c-2.9-1.8-5.1-4.6-6.7-7.3c-1.6-2.7-2.6-5.6-3.3-8.2c-1.4-5.3-1.4-9.3-1.4-9.3s1.6-0.1,4.1,0.3c2.5,0.5,5.8,1.1,9.5,2.7
				c1.8,0.9,3.8,1.8,5.8,3.1c1.9,1.3,4,2.9,6,4.9C1015.1,382.9,1019,388.6,1022,396.5z"/>
			<path id="XMLID_1157_" class="st3" d="M1056.8,379.6c0,0-0.7,0.5-1.9,1.2c-0.7,0.4-1.5,0.8-2.3,1.2s-1.9,0.8-3.1,1.1
				c-2.3,0.7-5,1.4-8,1.5c-3,0.1-6.2-0.1-9.4-1.3c-6.5-2-10.5-7.5-12.8-12.3c-2.3-4.7-3.2-8.8-3.2-8.8s1.6-0.5,4-0.8
				c1.3-0.2,2.7-0.4,4.4-0.4s3.5,0.1,5.4,0.3s4.1,0.7,6.3,1.4c2.1,0.7,4.5,1.7,6.8,3c1.2,0.7,2.3,1.5,3.5,2.3c1.2,0.9,2.3,1.8,3.5,3
				C1052.1,373.4,1054.4,376.2,1056.8,379.6z"/>
			<path id="XMLID_1156_" class="st3" d="M985.6,368.3c0,0-0.2-3,0.6-7.4c0.7-4.4,2.3-10.1,5.3-15.7c1.5-2.9,3.3-5.1,5.1-6.8
				c1.8-1.8,3.7-3.1,5.3-4.2s3.2-1.8,4.3-2.2c1.1-0.5,1.8-0.8,1.8-0.8s0.4,1.8,0.7,4.5c0.3,2.7,0.4,6.7-0.5,10.8s-2.6,8.8-6.2,12.8
				c-0.9,1-1.8,2-3,2.9c-1.2,0.9-2.3,1.8-3.7,2.5C992.6,366.4,989.4,367.5,985.6,368.3z"/>
			<path id="XMLID_1155_" class="st3" d="M1015.7,362.5c0,0-0.8-2.8-1-7.3s0.2-10.3,1.9-16.7c0.4-1.6,1-3,1.6-4.3
				c0.6-1.4,1.3-2.6,1.9-3.7c0.7-1.2,1.5-2.1,2.2-3c0.8-1,1.5-1.8,2.2-2.5c1.5-1.5,2.8-2.6,3.8-3.4c1-0.8,1.7-1.2,1.7-1.2
				s0.8,1.6,1.6,4.2c0.8,2.6,1.7,6.3,1.7,10.6c0,2.1-0.2,4.5-0.7,6.9c-0.6,2.3-1.4,4.9-2.7,7.4
				C1027.2,354.1,1022.8,359.1,1015.7,362.5z"/>
			<path id="XMLID_1154_" class="st3" d="M1043.4,347.2c0,0-1,0.6-2.5,1.7c-0.8,0.5-1.8,1.2-2.9,1.8c-1.2,0.7-2.5,1.4-3.9,2.2
				c-5.7,3.2-13.7,6.8-22,9.2c-2,0.6-4.1,1.2-6.2,1.7c-2,0.4-4.1,0.9-6,1.3c-4,0.6-7.7,1.2-10.8,1.4c-3.2,0.3-5.8,0.3-7.7,0.3
				c-1.8,0-2.9,0-2.9,0l-0.1,2.9c0,0,1.1,0,3,0c1.8,0,4.6,0,7.9-0.3c3.2-0.2,7-0.8,11.1-1.4c2-0.4,4.1-0.9,6.1-1.3
				c2-0.5,4.2-1.2,6.3-1.8c8.4-2.5,16.5-6.2,22.4-9.4c1.5-0.8,2.8-1.6,4-2.2c1.2-0.7,2.1-1.4,3-1.8c1.7-1.1,2.6-1.7,2.6-1.7
				L1043.4,347.2z"/>
		</g>
		<g id="XMLID_1147_">
			<path id="XMLID_1152_" class="st3" d="M1093.4,347.3c0,0-0.1,0.2-0.4,0.5s-0.7,0.8-1.2,1.3c-1.1,1-2.6,2.4-4.7,3.8
				c-4,2.8-9.8,5.6-16.5,5.6c-3.3,0.1-6.3-1-8.8-2.3c-2.5-1.5-4.7-3.3-6.4-5.2c-1.8-1.8-3-3.7-3.9-5.1c-0.9-1.4-1.4-2.2-1.4-2.2
				s0.3-0.2,1-0.7c0.6-0.4,1.6-1,2.6-1.6c1.2-0.6,2.5-1.2,4.1-1.8c1.6-0.6,3.3-1.2,5.3-1.6c1.9-0.4,4-0.7,6.3-0.7
				c1.2,0,2.3,0,3.5,0.2c1.2,0.1,2.4,0.3,3.7,0.6C1081.9,339.5,1087.6,342.1,1093.4,347.3z"/>
			<path id="XMLID_1151_" class="st3" d="M1116.8,314.5c0,0-0.4,0.8-1.3,2c-0.9,1.3-2.1,2.9-3.9,4.8c-3.4,3.6-8.6,7.7-15.1,9.3
				c-3.3,0.8-6.3,0.6-9-0.2c-2.7-0.8-5.2-2.1-7.2-3.5c-4-2.8-6.4-5.8-6.4-5.8s1.2-1.3,3.2-2.9c1-0.9,2.2-1.8,3.7-2.7
				c0.7-0.5,1.5-1,2.3-1.4c0.8-0.5,1.7-1,2.6-1.4c1.8-0.9,3.9-1.6,6.1-2.1c2.2-0.6,4.6-1,7.2-1
				C1104.1,309.5,1110.1,310.7,1116.8,314.5z"/>
			<path id="XMLID_1150_" class="st3" d="M1050.2,343.9c0,0-0.4-0.6-0.9-1.8c-0.5-1.2-1.2-2.8-1.8-4.9c-1.3-4.2-2.4-10.1-2.2-16.7
				c0.1-3.4,0.7-6.3,1.6-8.9c0.4-1.4,0.9-2.6,1.5-3.8c0.5-1.2,1.1-2.1,1.7-3.2c1.1-1.9,2.1-3.5,3-4.6c0.8-1.1,1.4-1.8,1.4-1.8
				s1.1,1.3,2.4,3.6c1.4,2.2,3,5.6,4,9.8c0.5,2,0.8,4.4,0.9,6.9c0,1.3,0,2.5-0.2,3.9c-0.2,1.3-0.4,2.6-0.8,4.1
				c-0.4,1.4-0.8,2.8-1.4,4.3c-0.6,1.5-1.3,2.9-2.1,4.4C1055.5,338.1,1053.1,341,1050.2,343.9z"/>
			<path id="XMLID_1149_" class="st3" d="M1073.9,321.3c0,0-1.8-2-3.9-5.8c-2-3.8-4.1-9.2-5.1-15.9c-0.3-1.7-0.3-3.2-0.3-4.8
				c0-1.6,0.1-3,0.3-4.5c0.5-2.8,1.1-5.4,1.8-7.6c0.8-2.1,1.6-4,2.1-5.3c0.6-1.3,1.1-1.9,1.1-1.9s1.3,1,3,2.9
				c1.8,1.9,3.9,4.9,5.5,8.8c1.8,3.9,2.8,8.8,2.5,14.6c-0.2,2.8-0.8,6-1.9,9.3C1077.9,314.3,1076.3,317.8,1073.9,321.3z"/>
			<path id="XMLID_1148_" class="st3" d="M1092.3,292.5c0,0-0.6,1.1-1.7,2.8c-0.5,0.9-1.2,1.9-1.9,3.2c-0.8,1.2-1.7,2.6-2.6,4.1
				c-3.9,5.9-9.4,13.5-15.6,20.4c-6.1,6.9-12.8,13-18.2,17.2c-2.6,2.1-4.9,3.7-6.5,4.9c-0.8,0.6-1.5,1-1.8,1.4
				c-0.4,0.3-0.7,0.4-0.7,0.4l1.3,2.5c0,0,0.2-0.2,0.7-0.4c0.5-0.3,1.1-0.8,1.8-1.4c1.6-1.2,4-2.7,6.6-5
				c5.3-4.3,12.3-10.5,18.5-17.5c6.3-7,11.9-14.7,15.9-20.8c1-1.6,1.8-2.9,2.6-4.2c0.8-1.3,1.4-2.3,1.9-3.3c1.1-1.8,1.7-2.8,1.7-2.8
				L1092.3,292.5z"/>
		</g>
		<g id="XMLID_1141_">
			<path id="XMLID_1146_" class="st3" d="M1137.4,267.9c0,0-0.1,0.2-0.2,0.6c-0.1,0.4-0.3,1-0.7,1.7c-0.6,1.5-1.6,3.4-2.8,5.6
				c-2.6,4.4-6.8,9.7-12.7,13c-2.9,1.7-6,2.2-8.8,2.2c-2.8,0-5.4-0.6-7.7-1.4c-4.5-1.6-7.5-3.8-7.5-3.8s0.8-1.6,2.4-3.8
				c1.7-2.1,4-5.1,7.3-7.7c1.7-1.4,3.4-2.6,5.4-3.8c2-1.2,4.4-2.1,6.8-2.8C1124.2,266.3,1130.3,265.9,1137.4,267.9z"/>
			<path id="XMLID_1145_" class="st3" d="M1147,227.1c0,0-0.1,0.9-0.5,2.4c-0.2,0.8-0.4,1.7-0.7,2.7c-0.3,1.1-0.7,2.1-1.2,3.4
				c-1.8,5-5.2,11.1-10.5,15.7c-2.7,2.2-5.4,3.5-8.3,4.2c-2.8,0.6-5.4,0.6-7.8,0.3c-4.7-0.6-8-2.1-8-2.1s0.6-1.8,1.8-4.2
				c0.6-1.3,1.4-2.7,2.3-4.3c1-1.6,2.1-3.2,3.5-4.9c1.4-1.7,2.9-3.3,4.8-4.9c1.8-1.6,3.9-3,6.2-4.3
				C1133.8,228.5,1139.6,226.8,1147,227.1z"/>
			<path id="XMLID_1144_" class="st3" d="M1097.1,286.1c0,0-2.2-1.5-5-4.6c-2.7-3.1-5.9-7.9-8.2-14c-1.2-3.1-1.7-6.1-1.8-9
				c-0.2-2.9,0-5.5,0.3-8c0.3-2.3,0.8-4.4,1.1-5.7c0.3-1.5,0.6-2.2,0.6-2.2s1.5,0.6,3.5,2c2,1.5,4.8,3.7,7.1,7
				c1.2,1.7,2.3,3.6,3.2,5.8c0.5,1.2,0.9,2.3,1.3,3.6c0.3,1.3,0.6,2.6,0.8,4.1c0.2,1.5,0.3,3,0.3,4.6c0,1.6-0.1,3.3-0.4,5.1
				C1099.8,278.2,1098.7,281.9,1097.1,286.1z"/>
			<path id="XMLID_1143_" class="st3" d="M1110.4,253.7c0,0-2.4-1-5.5-3.5c-3.2-2.4-7-6.4-10.2-12.1c-0.8-1.4-1.5-2.8-1.9-4.3
				c-0.6-1.5-1-2.8-1.3-4.3c-0.3-1.4-0.5-2.7-0.7-4.1c-0.2-1.4-0.3-2.6-0.3-3.8c0-2.3,0-4.4,0.1-5.8c0.1-1.5,0.3-2.3,0.3-2.3
				s1.6,0.3,3.8,1.3s5.3,2.5,8.1,5.3c0.7,0.7,1.5,1.5,2.1,2.2c0.7,0.9,1.4,1.8,1.9,2.7c1.3,2,2.4,4.4,3.2,7.1
				C1111.5,237.8,1112.2,245,1110.4,253.7z"/>
			<path id="XMLID_1142_" class="st3" d="M1117,218.7c0,0-0.2,1.3-0.5,3.4c-0.2,1.1-0.3,2.4-0.6,3.9c-0.3,1.5-0.6,3.1-1,5
				c-1.5,7.3-3.9,16.9-7,26.2c-3.1,9.3-7,18.2-10.2,24.7c-1.6,3.3-3,5.8-4,7.8c-0.5,0.9-0.9,1.7-1.2,2.1c-0.3,0.5-0.4,0.8-0.4,0.8
				l2,1.6c0,0,0.2-0.3,0.4-0.8c0.3-0.5,0.7-1.3,1.2-2.1c1-1.8,2.5-4.6,4.1-7.9c3.2-6.6,7.2-15.7,10.3-25.1
				c3.2-9.4,5.6-19.2,7.1-26.5c0.4-1.8,0.7-3.6,1-5.1c0.3-1.5,0.5-2.8,0.7-3.9c0.3-2.1,0.5-3.4,0.5-3.4L1117,218.7z"/>
		</g>
		<g id="XMLID_1135_">
			<path id="XMLID_1140_" class="st3" d="M1149.5,174.4c0,0,0.1,0.9,0,2.5c0,1.6-0.2,3.8-0.6,6.4c-0.9,5.3-2.7,12.2-7,18.1
				c-4.3,5.9-10.1,8.1-14.7,8.8c-4.7,0.7-8.2,0.1-8.2,0.1s0.1-0.5,0.2-1.3c0.1-0.8,0.4-1.9,0.7-3.4c0.4-1.4,0.9-3,1.5-4.9
				c0.6-1.8,1.5-3.7,2.4-5.7c1-2,2.2-4.1,3.7-6c1.5-2,3.1-4,5.3-5.9C1136.8,179.5,1142.3,176.2,1149.5,174.4z"/>
			<path id="XMLID_1139_" class="st3" d="M1144,133c0,0,0.2,0.9,0.4,2.4c0.2,1.6,0.4,3.8,0.4,6.4c0,5.3-0.9,12.4-4.2,19.1
				c-3.3,6.7-8.6,10-13,11.7c-4.5,1.8-8,1.8-8,1.8s0-0.5,0-1.3c0-0.8,0.1-2,0.2-3.5c0.3-2.9,0.9-6.8,2.1-11.2
				c0.7-2.1,1.6-4.5,2.6-6.7c1.1-2.3,2.5-4.6,4.3-6.9C1132.3,140.6,1137.2,136.2,1144,133z"/>
			<path id="XMLID_1138_" class="st3" d="M1119.2,210.4c0,0-2.5-0.3-6.1-1.8c-3.6-1.6-8.2-4.3-12.4-8.8c-4.3-4.6-6.2-10.1-7.4-14.7
				c-0.6-2.3-0.9-4.3-1.1-5.8c-0.2-1.5-0.2-2.3-0.2-2.3s1.6-0.1,3.9,0.2s5.6,1.1,8.9,2.9c1.7,1,3.4,2.1,5.1,3.8
				c1.7,1.6,3.2,3.6,4.6,6C1117.3,194.7,1119.2,201.5,1119.2,210.4z"/>
			<path id="XMLID_1137_" class="st3" d="M1119.8,174.6c0,0-2.5,0.3-6.3-0.5c-3.7-0.7-8.8-2.4-13.5-6c-4.9-3.6-7.8-8.8-9.5-13.1
				c-1-2.1-1.6-4.1-1.9-5.5c-0.4-1.5-0.6-2.3-0.6-2.3s1.5-0.4,3.9-0.6c2.3-0.2,5.7-0.1,9.2,1.1c1.8,0.6,3.7,1.5,5.5,2.7
				c1.8,1.3,3.7,2.9,5.4,5C1115.3,159.6,1118.4,165.9,1119.8,174.6z"/>
			<path id="XMLID_1136_" class="st3" d="M1113.6,139.5c0,0,0.3,1.2,0.7,3.3c0.4,2.1,1.1,5.2,1.6,8.8c1.2,7.4,2.4,17.3,2.8,27.2
				c0.4,10,0.2,19.9-0.6,27.4c-0.1,1-0.1,1.8-0.2,2.6c-0.1,0.9-0.2,1.7-0.3,2.4c-0.2,1.5-0.3,2.8-0.5,3.9c-0.2,2.1-0.5,3.4-0.5,3.4
				l2.4,0.5c0,0,0.2-1.3,0.5-3.4c0.1-1.1,0.3-2.4,0.5-4c0.1-0.8,0.2-1.6,0.3-2.4c0.1-0.9,0.1-1.8,0.2-2.7c0.7-7.6,1-17.7,0.6-27.8
				c-0.4-10.1-1.7-20.1-2.8-27.6c-0.6-3.7-1.3-6.8-1.7-8.9c-0.5-2.1-0.7-3.4-0.7-3.4L1113.6,139.5z"/>
		</g>
		<g id="XMLID_847_">
			<path id="XMLID_1134_" class="st3" d="M1128.5,83.8c0,0,0.4,0.8,0.9,2.3c0.6,1.5,1.2,3.6,1.7,6.2c1.1,5.3,1.6,12.4-0.4,19.8
				c-1.9,7.4-6.5,12-10.5,14.8s-7.5,3.9-7.5,3.9s-0.5-1.8-0.7-4.7c-0.3-2.9-0.5-6.9,0-11.5c0.3-2.3,0.7-4.8,1.4-7.3
				c0.7-2.5,1.6-5.2,2.8-7.8C1118.7,94.3,1122.4,88.8,1128.5,83.8z"/>
			<path id="XMLID_1123_" class="st3" d="M1108.4,47.5c0,0,0.5,0.7,1.4,2c0.8,1.4,1.8,3.3,2.8,5.8c1.1,2.4,1.9,5.5,2.6,8.8
				c0.6,3.4,1,7.1,0.6,11c-0.6,7.8-4.5,13.3-7.9,16.9c-3.5,3.6-6.7,5.4-6.7,5.4s-0.8-1.7-1.5-4.4c-0.4-1.4-0.8-3-1.1-5
				c-0.3-1.9-0.6-4-0.8-6.3c-0.1-2.3-0.2-4.8,0-7.4c0.1-1.4,0.3-2.7,0.5-4.1c0.2-1.4,0.5-2.8,0.9-4.3
				C1100.7,60.4,1103.4,54,1108.4,47.5z"/>
			<path id="XMLID_1122_" class="st3" d="M1112.9,130.9c0,0-2.4,1-6.2,1.2c-1.9,0.1-4.2,0.1-6.6-0.3c-2.4-0.4-5.1-1.1-7.8-2.1
				c-5.4-2.2-9.2-6.5-11.8-10.2c-0.7-0.9-1.2-1.8-1.7-2.6s-0.9-1.6-1.3-2.1c-0.7-1.3-1-2-1-2s1.4-0.8,3.6-1.7
				c2.2-0.8,5.4-1.7,9.2-1.5c1.8,0.1,3.8,0.4,5.8,1.2c1.1,0.4,2,0.8,3.1,1.4c1.1,0.6,2,1.3,3.1,2
				C1105.7,117.3,1109.9,122.6,1112.9,130.9z"/>
			<path id="XMLID_1120_" class="st3" d="M1101.3,97.7c0,0-2.2,1.5-5.9,2.5c-1.8,0.6-4.1,1-6.5,1.2c-1.3,0.1-2.5,0.1-3.8,0.1
				c-1.4,0-2.7-0.2-4.2-0.4c-5.6-1-10-4.1-13-6.9c-0.8-0.7-1.5-1.4-2-2c-0.6-0.6-1.2-1.2-1.6-1.8c-0.9-1-1.3-1.7-1.3-1.7
				s1.2-1.2,3.2-2.5c2-1.4,5.1-3,8.7-3.8c1.8-0.4,3.8-0.6,5.9-0.4c1.1,0.1,2.1,0.3,3.3,0.6c1.1,0.3,2.2,0.7,3.4,1.3
				C1092.1,85.9,1097,90.2,1101.3,97.7z"/>
			<path id="XMLID_848_" class="st3" d="M1083.3,68.7c0,0,0.7,1,1.8,2.6c1.2,1.7,2.8,4.2,4.7,7.2c3.7,6,8.2,14.6,12,23.5
				s6.8,18.3,8.8,25.4s2.9,12,2.9,12l2.4-0.7c0,0-1-5-3-12.2c-1.9-7.2-5-16.7-8.8-25.8c-3.8-9.1-8.4-17.8-12.2-23.9
				c-1.9-3.1-3.5-5.6-4.8-7.3c-1.2-1.8-1.8-2.7-1.8-2.7L1083.3,68.7z"/>
		</g>
		<g id="XMLID_792_">
			<path id="XMLID_846_" class="st3" d="M1072.9,10.7c0,0,0.2,0.1,0.5,0.4c0.3,0.3,0.8,0.6,1.4,1.2c1.2,1.1,2.7,2.5,4.5,4.7
				c3.3,4.2,7.2,10.4,8.6,18.2s-0.9,14.4-3.4,19c-2.5,4.7-5.2,7.4-5.2,7.4s-0.3-0.4-0.7-1c-0.4-0.7-1.1-1.7-1.8-2.8
				c-0.7-1.2-1.5-2.7-2.2-4.4c-0.8-1.7-1.6-3.6-2.3-5.8c-0.8-2.1-1.4-4.6-1.9-7.1c-0.5-2.5-0.9-5.4-1-8.5
				C1069.1,25.8,1070,18.6,1072.9,10.7z"/>
			<path id="XMLID_800_" class="st3" d="M1035.9-7.4c0,0,0.9,0.2,2.3,0.8c1.5,0.6,3.5,1.5,5.7,2.8c4.6,2.7,10,7.6,13.5,14.7
				c3.5,7.1,2.8,14.3,1.5,19.5s-3.3,8.8-3.3,8.8s-0.3-0.3-0.9-0.8c-0.6-0.5-1.4-1.3-2.3-2.1c-1.9-1.8-4.4-4.6-6.9-8.3
				c-2.5-3.6-5.1-8.2-6.9-13.9C1036.7,8.2,1035.3,1.2,1035.9-7.4z"/>
			<path id="XMLID_797_" class="st3" d="M1079.4,61.4c0,0-1.8,2.1-5.2,4.3c-3.2,2.2-8.1,4.6-13.5,5.6c-5.5,1.2-10.3-0.2-13.8-1.7
				c-1.8-0.7-3.2-1.5-4.2-2c-1-0.6-1.6-1-1.6-1s0.8-1.6,2.3-3.6c1.6-2,3.9-4.9,7.1-6.9c1.6-1.1,3.4-1.9,5.4-2.6
				c2-0.6,4.3-0.9,6.8-0.7C1067.8,53.3,1073.5,55.6,1079.4,61.4z"/>
			<path id="XMLID_796_" class="st3" d="M1055.7,39c0,0-1.3,2.6-4,5.7c-2.6,3.1-6.6,6.9-11.5,9.9s-9.4,3.6-12.8,3.6
				c-1.8,0-3.2-0.2-4.2-0.3c-1.1-0.2-1.7-0.4-1.7-0.4s0.3-1.8,1.2-4.4c0.9-2.6,2.2-6,4.7-9.2c2.3-3.2,5.7-6.2,10.5-7.7
				C1042.6,35,1048.8,35.2,1055.7,39z"/>
			<path id="XMLID_793_" class="st3" d="M1027,27.2c0,0,0.3,0.1,0.8,0.2c0.5,0.1,1.2,0.3,2,0.6c1.8,0.5,4.4,1.4,7.4,2.5
				c6,2.3,13.7,6.5,20.8,12c7.1,5.4,13.5,12,18,17.2c2.2,2.6,4.1,4.9,5.3,6.6c1.3,1.7,1.9,2.5,1.9,2.5l1.8-1.8c0,0-0.7-1-1.9-2.6
				c-1.3-1.7-3.1-4-5.3-6.7c-4.6-5.4-11.2-12.1-18.4-17.6c-7.2-5.6-15.2-9.9-21.3-12.4c-3.1-1.3-5.7-2-7.6-2.6
				c-0.9-0.3-1.7-0.5-2.1-0.6c-0.5-0.1-0.8-0.2-0.8-0.2L1027,27.2z"/>
		</g>
	</g>
	<path id="XMLID_788_" class="st3" d="M1033.7,27.3c0,0-3-8.8-11.6-13.5c-8.5-4.7-18.6,1-18.6,1S1011.7,35.5,1033.7,27.3z"/>
	<path id="XMLID_204_" class="st3" d="M467.5,362.5c0,0-15.4,4.6-28.7,4.2v2.9c0,0,26.5,0.4,28.7-1.4
		C467.5,368.2,469.7,367.2,467.5,362.5z"/>
	<path id="XMLID_1244_" class="st3" d="M954.3,362.5c0,0,15.4,4.6,28.7,4.2v2.9c0,0-26.5,0.4-28.7-1.4
		C954.3,368.2,952,367.2,954.3,362.5z"/>
</g>
</svg>
