<?xml version="1.0" encoding="utf-8"?>
<!-- Generator: Adobe Illustrator 19.0.0, SVG Export Plug-In . SVG Version: 6.00 Build 0)  -->
<svg version="1.1" id="Capa_1" xmlns="http://www.w3.org/2000/svg" xmlns:xlink="http://www.w3.org/1999/xlink" x="0px" y="0px"
	 viewBox="-233 86 492 390" style="enable-background:new -233 86 492 390;" xml:space="preserve">
<style type="text/css">
	.st0{enable-background:new    ;}
	.st1{fill:#68CBF2;}
	.st2{fill:#124389;}
	.st3{fill:#48B1E5;}
	.st4{fill:#BAFFF4;}
	.st5{opacity:0.25;fill:#4B00FF;}
	.st6{fill:#51F2FF;}
	.st7{opacity:0.5;}
	.st8{fill:url(#XMLID_48_);}
	.st9{opacity:0.25;fill:#5D5D5D;enable-background:new    ;}
	.st10{fill:url(#XMLID_51_);}
	.st11{opacity:0.79;fill:url(#XMLID_54_);enable-background:new    ;}
	.st12{fill:url(#XMLID_55_);}
	.st13{opacity:0.77;fill:url(#XMLID_63_);enable-background:new    ;}
	.st14{opacity:0.37;fill:#4B00FF;}
</style>
<g id="XMLID_16_">
	<g id="XMLID_22_">
		<g id="XMLID_23_" class="st0">
			<g id="XMLID_24_">
				<polygon id="XMLID_25_" class="st1" points="130.3,160.6 130.3,213.1 175.9,239.5 175.9,187 				"/>
			</g>
		</g>
	</g>
	<g id="XMLID_18_">
		<g id="XMLID_19_" class="st0">
			<g id="XMLID_20_">
				<polygon id="XMLID_21_" class="st2" points="221.5,160.6 221.5,213.1 175.9,239.5 175.9,187 				"/>
			</g>
		</g>
	</g>
	<polygon id="XMLID_17_" class="st3" points="221.5,160.6 175.9,134.3 130.3,160.6 175.9,187 	"/>
</g>
<g id="XMLID_1_">
	<g id="XMLID_7_">
		<g id="XMLID_8_" class="st0">
			<g id="XMLID_11_">
				<polygon id="XMLID_14_" class="st1" points="33.2,192.7 33.2,309.2 134.4,367.8 134.4,251.1 				"/>
			</g>
		</g>
	</g>
	<g id="XMLID_3_">
		<g id="XMLID_4_" class="st0">
			<g id="XMLID_5_">
				<polygon id="XMLID_6_" class="st2" points="235.6,192.7 235.6,309.2 134.4,367.8 134.4,251.1 				"/>
			</g>
		</g>
	</g>
	<polygon id="XMLID_2_" class="st3" points="235.6,192.7 134.3,134.3 33.2,192.7 134.4,251.1 	"/>
</g>
<g id="XMLID_26_">
	<g id="XMLID_32_">
		<g id="XMLID_33_" class="st0">
			<g id="XMLID_34_">
				<polygon id="XMLID_35_" class="st1" points="14.2,271.7 14.2,335.8 69.9,368 69.9,303.8 				"/>
			</g>
		</g>
	</g>
	<g id="XMLID_28_">
		<g id="XMLID_29_" class="st0">
			<g id="XMLID_30_">
				<polygon id="XMLID_31_" class="st2" points="125.5,271.7 125.5,335.8 69.9,368 69.9,303.8 				"/>
			</g>
		</g>
	</g>
	<polygon id="XMLID_27_" class="st3" points="125.5,271.7 69.8,239.6 14.2,271.7 69.9,303.8 	"/>
</g>
<g id="XMLID_36_">
	<g id="XMLID_44_">
		<g id="XMLID_46_" class="st0">
			<g id="XMLID_49_">
				<polygon id="XMLID_50_" class="st1" points="143.3,265.9 143.3,329.7 198.7,361.7 198.7,297.9 				"/>
			</g>
		</g>
	</g>
	<g id="XMLID_38_">
		<g id="XMLID_39_" class="st0">
			<g id="XMLID_40_">
				<polygon id="XMLID_43_" class="st2" points="254.1,265.9 254.1,329.7 198.7,361.7 198.7,297.9 				"/>
			</g>
		</g>
	</g>
	<polygon id="XMLID_37_" class="st3" points="254.1,265.9 198.7,234 143.3,265.9 198.7,297.9 	"/>
</g>
<g id="XMLID_52_">
	<g id="XMLID_60_">
		<g id="XMLID_61_" class="st0">
			<g id="XMLID_62_">
				<polygon id="XMLID_65_" class="st1" points="121.2,305 121.2,341.7 153.1,360.2 153.1,323.4 				"/>
			</g>
		</g>
	</g>
	<g id="XMLID_56_">
		<g id="XMLID_57_" class="st0">
			<g id="XMLID_58_">
				<polygon id="XMLID_59_" class="st2" points="185,305 185,341.7 153.1,360.2 153.1,323.4 				"/>
			</g>
		</g>
	</g>
	<polygon id="XMLID_53_" class="st3" points="185,305 153.1,286.6 121.2,305 153.1,323.4 	"/>
</g>
<path id="XMLID_15_" class="st4" d="M95.8,193l41.4,28.5c2.3,1.5,5.6-0.7,5.7-3.7l10.1-39.4c0.1-2.8-2.5-4.3-4.9-2.9l-51.5,10.8
	C94,187.8,93.6,191.5,95.8,193z"/>
<path id="XMLID_77_" class="st5" d="M-40.6,326.4l7.9,14.5c0.2,0.3,0.5,0.6,0.8,0.8l14.5,7.9c1.4,0.8,1.4,2.8,0,3.6l-14.5,7.9
	c-0.3,0.2-0.6,0.5-0.8,0.8l-7.9,14.5c-0.8,1.4-2.8,1.4-3.6,0l-7.9-14.5c-0.2-0.3-0.5-0.6-0.8-0.8l-14.5-7.9c-1.4-0.8-1.4-2.8,0-3.6
	l14.5-7.9c0.3-0.2,0.6-0.5,0.8-0.8l7.9-14.5C-43.4,325-41.3,325-40.6,326.4z"/>
<path id="XMLID_76_" class="st5" d="M80.8,94.5l4.4,8.1c0.1,0.2,0.3,0.4,0.5,0.5l8.1,4.4c0.8,0.4,0.8,1.6,0,2l-8.1,4.4
	c-0.2,0.1-0.4,0.3-0.5,0.5l-4.4,8.1c-0.4,0.8-1.6,0.8-2,0l-4.4-8.1c-0.1-0.2-0.3-0.4-0.5-0.5l-8.1-4.4c-0.8-0.4-0.8-1.6,0-2l8.1-4.4
	c0.2-0.1,0.4-0.3,0.5-0.5l4.4-8.1C79.2,93.7,80.3,93.7,80.8,94.5z"/>
<path id="XMLID_75_" class="st5" d="M84.1,248.6l4.4,8.1c0.1,0.2,0.3,0.4,0.5,0.5l8.1,4.4c0.8,0.4,0.8,1.6,0,2L89,268
	c-0.2,0.1-0.4,0.3-0.5,0.5l-4.4,8.1c-0.4,0.8-1.6,0.8-2,0l-4.4-8.1c-0.1-0.2-0.3-0.4-0.5-0.5l-8.1-4.4c-0.8-0.4-0.8-1.6,0-2l8.1-4.4
	c0.2-0.1,0.4-0.3,0.5-0.5l4.4-8.1C82.5,247.8,83.6,247.8,84.1,248.6z"/>
<path id="XMLID_74_" class="st5" d="M9.1,204.8l7.2,13.1c0.2,0.3,0.4,0.6,0.7,0.7l13.1,7.2c1.3,0.7,1.3,2.6,0,3.3L17,236.3
	c-0.3,0.2-0.6,0.4-0.7,0.7l-7.2,13.1c-0.7,1.3-2.6,1.3-3.3,0L-1.4,237c-0.2-0.3-0.4-0.6-0.7-0.7l-13.1-7.2c-1.3-0.7-1.3-2.6,0-3.3
	l13.1-7.2c0.3-0.2,0.6-0.4,0.7-0.7l7.2-13.1C6.5,203.5,8.3,203.5,9.1,204.8z"/>
<path class="st6" d="M235.6,255.3"/>
<g id="XMLID_10_" class="st7">
	
		<linearGradient id="XMLID_48_" gradientUnits="userSpaceOnUse" x1="-683.2758" y1="766.5458" x2="-683.2758" y2="536.4435" gradientTransform="matrix(-0.3166 0.3166 -0.7701 -0.7701 299.3664 954.5127)">
		<stop  offset="0" style="stop-color:#2194FF;stop-opacity:0"/>
		<stop  offset="0.3902" style="stop-color:#218FFF;stop-opacity:0.6251"/>
		<stop  offset="0.6242" style="stop-color:#2189FF"/>
		<stop  offset="0.6654" style="stop-color:#2184FF;stop-opacity:0.8904"/>
		<stop  offset="0.8631" style="stop-color:#2171FF;stop-opacity:0.3642"/>
		<stop  offset="1" style="stop-color:#216AFF;stop-opacity:0"/>
	</linearGradient>
	<path id="XMLID_47_" class="st8" d="M-2.5,245.7c39.8,16.5,87.6,29.3,140.7,28.7c-2.5,8.9-5.9,17.2-10,25
		c-55.8-4.7-105.2-21.8-146-42.1c-41-20.5-73.4-44.2-100-66.3c6,0.2,11.8-0.3,17.2-1.5C-74.4,208.5-42.5,229-2.5,245.7z"/>
	<path id="XMLID_45_" class="st9" d="M-20.1,275.8c62.7,33.7,145.9,61.1,239.4,51.3c-2.7,6.4-5.8,12.5-9.2,18.4
		c-96.3,3.5-180.5-28.5-243.4-66.1C-97,241-139.5,197-173.2,158.2c4,2.5,8.1,4.6,12.1,6.5C-126.9,200.3-83.7,241.2-20.1,275.8z"/>
	
		<linearGradient id="XMLID_51_" gradientUnits="userSpaceOnUse" x1="-721.0611" y1="815.13" x2="-721.0611" y2="481.0939" gradientTransform="matrix(-0.3166 0.3166 -0.7701 -0.7701 299.3664 954.5127)">
		<stop  offset="0" style="stop-color:#21FFFF;stop-opacity:0"/>
		<stop  offset="0.1673" style="stop-color:#21FAFF;stop-opacity:0.317"/>
		<stop  offset="0.3592" style="stop-color:#21ECFF;stop-opacity:0.6805"/>
		<stop  offset="0.5279" style="stop-color:#21DAFF"/>
		<stop  offset="0.6268" style="stop-color:#21E5FF;stop-opacity:0.7904"/>
		<stop  offset="0.8473" style="stop-color:#21F8FF;stop-opacity:0.3234"/>
		<stop  offset="1" style="stop-color:#21FFFF;stop-opacity:0"/>
	</linearGradient>
	<path id="XMLID_42_" class="st10" d="M-10.8,253.2C46.9,279.8,123,300.3,207.1,284c-2.1,10.8-5.1,21.1-9,30.8
		c-89,7-167.3-20.1-226.1-52.3c-59.6-32.9-99.8-70.8-132.9-103.2c6.3,2.5,12.4,4.3,18.4,5.3C-109.6,192.4-69.4,225.8-10.8,253.2z"/>
	
		<linearGradient id="XMLID_54_" gradientUnits="userSpaceOnUse" x1="-610.0288" y1="855.1984" x2="-610.0288" y2="469.8919" gradientTransform="matrix(-0.3166 0.3166 -0.7701 -0.7701 299.3664 954.5127)">
		<stop  offset="0" style="stop-color:#21FFFF;stop-opacity:0"/>
		<stop  offset="0.1673" style="stop-color:#21FAFF;stop-opacity:0.317"/>
		<stop  offset="0.3592" style="stop-color:#21ECFF;stop-opacity:0.6805"/>
		<stop  offset="0.5279" style="stop-color:#21DAFF"/>
		<stop  offset="0.6268" style="stop-color:#21E5FF;stop-opacity:0.7904"/>
		<stop  offset="0.8473" style="stop-color:#21F8FF;stop-opacity:0.3234"/>
		<stop  offset="1" style="stop-color:#21FFFF;stop-opacity:0"/>
	</linearGradient>
	<path id="XMLID_41_" class="st11" d="M-65.5,268.9c58.6,42.5,138.8,82,234.7,91.9c-1.3,1.4-2.6,2.8-4,4.2
		c-96.5-11.7-176.7-52.6-235.1-96.2c-59.3-44.4-96.8-91.6-128.2-133.9c1.2,1.1,2.3,2.2,3.5,3.2C-162.9,179.4-125,225.6-65.5,268.9z"
		/>
	
		<linearGradient id="XMLID_55_" gradientUnits="userSpaceOnUse" x1="-633.1699" y1="805.5753" x2="-633.1699" y2="478.4551" gradientTransform="matrix(-0.3166 0.3166 -0.7701 -0.7701 299.3664 954.5127)">
		<stop  offset="0" style="stop-color:#8857FF;stop-opacity:0"/>
		<stop  offset="0.5279" style="stop-color:#8857FF"/>
		<stop  offset="0.5725" style="stop-color:#8857FF;stop-opacity:0.9054"/>
		<stop  offset="1" style="stop-color:#8857FF;stop-opacity:0"/>
	</linearGradient>
	<path id="XMLID_13_" class="st12" d="M-25.3,281.1c53.5,30.4,121.2,56,198.5,59.8c-3.6,5.2-7.6,10.1-11.8,14.7
		c-79-8.8-147.3-38.3-200.7-72c-53.8-34.1-92.8-72.4-123.3-107.9c4.2,2.4,8.5,4.4,12.7,6.2C-118.8,214.7-79.2,250.3-25.3,281.1z"/>
	
		<linearGradient id="XMLID_63_" gradientUnits="userSpaceOnUse" x1="-803.1003" y1="765.3416" x2="-803.1003" y2="500.4481" gradientTransform="matrix(-0.3166 0.3166 -0.7701 -0.7701 299.3664 954.5127)">
		<stop  offset="0" style="stop-color:#8857FF;stop-opacity:0"/>
		<stop  offset="0.1505" style="stop-color:#8857FF;stop-opacity:0.285"/>
		<stop  offset="0.4297" style="stop-color:#8857FF;stop-opacity:0.8141"/>
		<stop  offset="0.5279" style="stop-color:#8857FF"/>
		<stop  offset="0.5512" style="stop-color:#8857FF;stop-opacity:0.9507"/>
		<stop  offset="0.7359" style="stop-color:#8857FF;stop-opacity:0.5593"/>
		<stop  offset="0.8921" style="stop-color:#8857FF;stop-opacity:0.2286"/>
		<stop  offset="1" style="stop-color:#8857FF;stop-opacity:0"/>
	</linearGradient>
	<path id="XMLID_12_" class="st13" d="M31.1,250.1c57.7,17,130.2,23.9,205.1-8.6c0.1,1.8,0.1,3.6,0.1,5.3
		c-75.7,31.3-148.8,23.5-206.8,5.7c-58.7-18.4-102.4-46.7-136-71c0.7-0.2,1.5-0.3,2.2-0.5C-70.9,204.7-27.3,232.5,31.1,250.1z"/>
</g>
<path class="st14" d="M-130,108.5c0,0,78,340.2,325.3,228.2C195.3,336.7-32.7,384.3-130,108.5z"/>
</svg>
