<?xml version="1.0" encoding="utf-8"?>
<!-- Generator: Adobe Illustrator 19.0.0, SVG Export Plug-In . SVG Version: 6.00 Build 0)  -->
<svg version="1.1" id="Capa_1" xmlns="http://www.w3.org/2000/svg" xmlns:xlink="http://www.w3.org/1999/xlink" x="0px" y="0px"
	 viewBox="0 0 960 560" style="enable-background:new 0 0 960 560;" xml:space="preserve">
<style type="text/css">
	.st0{opacity:0.36;fill:#16FBFF;enable-background:new    ;}
	.st1{fill:#101F49;}
	.st2{opacity:0.36;fill:#A566FF;enable-background:new    ;}
	.st3{display:none;}
	.st4{display:inline;opacity:0.32;fill:#101F49;enable-background:new    ;}
	.st5{opacity:0.51;}
	.st6{fill:url(#XMLID_22_);}
	.st7{fill:url(#XMLID_23_);}
	.st8{fill:url(#XMLID_24_);}
	.st9{opacity:0.79;fill:url(#XMLID_25_);enable-background:new    ;}
	.st10{fill:url(#XMLID_26_);}
	.st11{opacity:0.77;fill:url(#XMLID_27_);enable-background:new    ;}
</style>
<g id="Capa_1_1_">
	<path id="XMLID_15_" class="st0" d="M921.8,103.8c0,0-728.1-65.4-865.9,104c0,0,119.5-132.3,513.8-36.6
		C569.7,171.3,849.3,311.3,921.8,103.8z"/>
	<path id="XMLID_1_" class="st0" d="M62.9,236.7c0,0,408.7,257.2,749.6-27.5l-168.2-12.5C644.4,196.7,410.6,425.5,62.9,236.7z"/>
	<g id="XMLID_8_">
		<g id="XMLID_2_">
			<g id="_x33_6_24_">
				<g id="XMLID_3_">
					<path id="XMLID_5_" class="st1" d="M740.8,140.3c33.7,0,61.1-27.4,61.1-61.1s-27.4-61.1-61.1-61.1s-61.1,27.4-61.1,61.1
						C679.7,113,707,140.3,740.8,140.3z"/>
					<path id="XMLID_4_" class="st1" d="M841.2,122.7c-35.1,49.1-82.1,54.8-132.6,24.8c-3.4-2-18.7-10.5-22.1-12.5
						c-81.3-48.3-162.5-29.3-217,46.9c-23.1,32.4,30.4,63.2,53.3,31.1c28.1-39.4,63.9-50.8,103.1-38.3
						c-20,34.8-37.6,69.4-62.3,118.5s-79.3,88.3-131.8,57.7c-37.9-22.1-72,32.3-34.2,54.3c71.6,41.9,155.6,16.2,198.5-38.3
						c1.5,0.8,3.1,1.5,4.8,2.1c35,12.2,80.9,44.7,94.9,56.2s38,70.2,52.3,99.6c17.3,35.8,73.2,9.7,55.8-26.2
						c-16.2-33.4-43.3-100.2-64.5-117c-17-13.5-50-38.7-77.9-53c18.9-36.7,38.6-72.9,59.4-108.5c66.1,20.3,129-3.6,173.7-66.3
						C917.7,121.4,864.1,90.7,841.2,122.7z"/>
				</g>
			</g>
		</g>
	</g>
	<path id="XMLID_16_" class="st0" d="M766.6,541c0,0-40.9-440.7-703.7-308.9c0,0,315.9-56.7,559.7,227.9"/>
	<path id="XMLID_17_" class="st2" d="M596.8,233.2C380.3,442.9,62.9,267.6,62.9,267.6C590.7,513.6,818.5,152,818.5,152"/>
	<path id="XMLID_12_" class="st2" d="M69.7,206.4c0,0,267,214,742.8-97.7C812.5,108.7,392.5,374,69.7,206.4z"/>
</g>
<g id="Capa_2" class="st3">
	<polyline id="XMLID_6_" class="st4" points="723.8,36.3 640.1,36.3 724.4,57.3 608.9,57.3 724.4,71.3 563.6,71.3 713.2,98.3 	"/>
	<polyline id="XMLID_7_" class="st4" points="596.8,108.3 444.9,108.3 596.4,127.4 554.2,141.3 373,141.3 552.6,154.8 491.7,179.3 
		324.6,179.3 491.9,195.7 	"/>
	<polyline id="XMLID_9_" class="st4" points="640.8,223.3 563.6,223.3 640.1,244.3 504.2,244.3 615.1,264.3 408.9,264.3 612,287.9 
		582.3,305.3 324.6,305.3 573.3,325.5 	"/>
</g>
<g id="Capa_3">
</g>
<g id="XMLID_10_" class="st5">
	<g>
		
			<linearGradient id="XMLID_22_" gradientUnits="userSpaceOnUse" x1="-118.1154" y1="534.2039" x2="-118.1154" y2="204.186" gradientTransform="matrix(-0.5217 0.5217 0.9767 0.9767 180.4529 -18.1296)">
			<stop  offset="0" style="stop-color:#2194FF;stop-opacity:0"/>
			<stop  offset="0.3902" style="stop-color:#218FFF;stop-opacity:0.6251"/>
			<stop  offset="0.6242" style="stop-color:#2189FF"/>
			<stop  offset="0.6654" style="stop-color:#2184FF;stop-opacity:0.8904"/>
			<stop  offset="0.8631" style="stop-color:#2171FF;stop-opacity:0.3642"/>
			<stop  offset="1" style="stop-color:#216AFF;stop-opacity:0"/>
		</linearGradient>
		<path id="XMLID_63_" class="st6" d="M855.6,330.1c-11.1,19.4-23.4,38.5-36.8,57C606,423.4,427.9,335.3,342.7,218.5
			c15.1-3.7,29.6-8.4,43.4-13.8C473.9,310.5,651.5,384.3,855.6,330.1z"/>
		
			<linearGradient id="XMLID_23_" gradientUnits="userSpaceOnUse" x1="-26.1928" y1="587.3527" x2="-26.1928" y2="80.2321" gradientTransform="matrix(-0.5217 0.5217 0.9767 0.9767 180.4529 -18.1296)">
			<stop  offset="0" style="stop-color:#2194FF;stop-opacity:0"/>
			<stop  offset="0.33" style="stop-color:#218FFF;stop-opacity:0.6251"/>
			<stop  offset="0.5279" style="stop-color:#2189FF"/>
			<stop  offset="0.5796" style="stop-color:#2184FF;stop-opacity:0.8904"/>
			<stop  offset="0.828" style="stop-color:#2171FF;stop-opacity:0.3642"/>
			<stop  offset="1" style="stop-color:#216AFF;stop-opacity:0"/>
		</linearGradient>
		<path id="XMLID_62_" class="st7" d="M871.9,429.6c-9.3,12.8-19.1,25.3-29.3,37.5c-168.2,30.2-321.6-8.7-431.4-80.7
			C300.3,314.3,232.9,209,212.8,106.3c9.6,1.9,19.1,3.3,28.5,4.3c23,97.9,92.6,197.4,204,262.5C555.6,438.2,707.8,469,871.9,429.6z"
			/>
		
			<linearGradient id="XMLID_24_" gradientUnits="userSpaceOnUse" x1="-162.3707" y1="593.2611" x2="-162.3707" y2="128.1591" gradientTransform="matrix(-0.5217 0.5217 0.9767 0.9767 180.4529 -18.1296)">
			<stop  offset="0" style="stop-color:#21FFFF;stop-opacity:0"/>
			<stop  offset="0.1673" style="stop-color:#21FAFF;stop-opacity:0.317"/>
			<stop  offset="0.3592" style="stop-color:#21ECFF;stop-opacity:0.6805"/>
			<stop  offset="0.5279" style="stop-color:#21DAFF"/>
			<stop  offset="0.6268" style="stop-color:#21E5FF;stop-opacity:0.7904"/>
			<stop  offset="0.8473" style="stop-color:#21F8FF;stop-opacity:0.3234"/>
			<stop  offset="1" style="stop-color:#21FFFF;stop-opacity:0"/>
		</linearGradient>
		<path id="XMLID_61_" class="st8" d="M971.3,317c-10.2,22.9-21.8,45.5-34.5,67.5c-160.7,59.5-316,45.3-433-7.1
			c-118.1-52.4-197.9-143.2-231.6-236.8c14.8-0.3,29.2-1.5,43.1-3.8C352,223.3,434,305.2,551.2,347C667.5,388.8,819,390.6,971.3,317
			z"/>
		
			<linearGradient id="XMLID_25_" gradientUnits="userSpaceOnUse" x1="39.7674" y1="610.3317" x2="39.7674" y2="75.0811" gradientTransform="matrix(-0.5217 0.5217 0.9767 0.9767 180.4529 -18.1296)">
			<stop  offset="0" style="stop-color:#21FFFF;stop-opacity:0"/>
			<stop  offset="0.1673" style="stop-color:#21FAFF;stop-opacity:0.317"/>
			<stop  offset="0.3592" style="stop-color:#21ECFF;stop-opacity:0.6805"/>
			<stop  offset="0.5279" style="stop-color:#21DAFF"/>
			<stop  offset="0.6268" style="stop-color:#21E5FF;stop-opacity:0.7904"/>
			<stop  offset="0.8473" style="stop-color:#21F8FF;stop-opacity:0.3234"/>
			<stop  offset="1" style="stop-color:#21FFFF;stop-opacity:0"/>
		</linearGradient>
		<path id="XMLID_60_" class="st9" d="M856.4,496.9c-3.3,3.8-6.6,7.6-10,11.3c-174.9,30-334.9-10.2-451.1-85.1
			c-117.2-75-190.4-184.8-215.3-294c3.1,0.8,6.2,1.6,9.3,2.3c25.9,107.7,100,215.5,217.4,288.2C523,492.3,682.7,529.8,856.4,496.9z"
			/>
		
			<linearGradient id="XMLID_26_" gradientUnits="userSpaceOnUse" x1="61.1454" y1="545.2151" x2="61.1454" y2="94.9685" gradientTransform="matrix(-0.5217 0.5217 0.9767 0.9767 180.4529 -18.1296)">
			<stop  offset="0" style="stop-color:#F7931E;stop-opacity:0"/>
			<stop  offset="0.5279" style="stop-color:#FF931E"/>
			<stop  offset="0.5725" style="stop-color:#FE931E;stop-opacity:0.9054"/>
			<stop  offset="1" style="stop-color:#F7931E;stop-opacity:0"/>
		</linearGradient>
		<path id="XMLID_59_" class="st10" d="M758.9,468.5c-10.8,10.8-22,21.3-33.6,31.5c-137.2-0.8-258.2-44.7-348.1-110.7
			c-90.4-66-149.8-154-175.6-243.1c10.3,1.9,20.5,3.4,30.6,4.3c28.3,84.7,89.6,167.6,180.7,227.6C503.5,438.1,624,475.2,758.9,468.5
			z"/>
		
			<linearGradient id="XMLID_27_" gradientUnits="userSpaceOnUse" x1="-195.8924" y1="533.696" x2="-195.8924" y2="142.2101" gradientTransform="matrix(-0.5217 0.5217 0.9767 0.9767 180.4529 -18.1296)">
			<stop  offset="0" style="stop-color:#FF00A1;stop-opacity:0"/>
			<stop  offset="0.1505" style="stop-color:#FF0DA4;stop-opacity:0.285"/>
			<stop  offset="0.4297" style="stop-color:#FF30AB;stop-opacity:0.8141"/>
			<stop  offset="0.5279" style="stop-color:#FF3EAE"/>
			<stop  offset="0.5512" style="stop-color:#FF3AAD;stop-opacity:0.9507"/>
			<stop  offset="0.7359" style="stop-color:#FF1AA6;stop-opacity:0.5593"/>
			<stop  offset="0.8921" style="stop-color:#FF07A2;stop-opacity:0.2286"/>
			<stop  offset="1" style="stop-color:#FF00A1;stop-opacity:0"/>
		</linearGradient>
		<path id="XMLID_58_" class="st11" d="M905.9,294.3c-1.4,2.9-2.7,5.9-4.1,8.8c-137.4,51.1-269.1,39.8-368.4-3.6
			c-100.1-43.4-167.8-119-196.1-196.7c1.8-0.4,3.6-0.9,5.3-1.3c28.6,76.9,96.5,151.4,196.5,193.6C638.3,337.3,769.5,347,905.9,294.3
			z"/>
	</g>
</g>
</svg>
