<?xml version="1.0" encoding="utf-8"?>
<!-- Generator: Adobe Illustrator 19.0.0, SVG Export Plug-In . SVG Version: 6.00 Build 0)  -->
<svg version="1.1" id="Capa_1" xmlns="http://www.w3.org/2000/svg" xmlns:xlink="http://www.w3.org/1999/xlink" x="0px" y="0px"
	 viewBox="0 0 960 560" style="enable-background:new 0 0 960 560;" xml:space="preserve">
<style type="text/css">
	.st0{fill:#BA0C4F;}
	.st1{opacity:0.33;fill:none;stroke:#49051D;stroke-width:2;stroke-miterlimit:10;enable-background:new    ;}
	.st2{opacity:0.33;fill:#DD2626;enable-background:new    ;}
	.st3{opacity:0.72;fill:#C94545;enable-background:new    ;}
	.st4{opacity:0.35;fill:#DD2626;enable-background:new    ;}
	.st5{opacity:0.26;fill:#DD2626;enable-background:new    ;}
	.st6{opacity:0.36;}
	.st7{fill:url(#XMLID_8_);}
	.st8{fill:url(#XMLID_9_);}
	.st9{fill:url(#XMLID_10_);}
	.st10{opacity:0.79;fill:url(#XMLID_11_);enable-background:new    ;}
	.st11{opacity:0.35;fill:url(#XMLID_12_);enable-background:new    ;}
	.st12{opacity:0.77;fill:url(#XMLID_13_);enable-background:new    ;}
</style>
<g>
	<g id="XMLID_288_">
		<path id="XMLID_329_" class="st0" d="M380,135.3c5.1,21.9,17.1,41.8,34.5,57.6l88.4,78.8l86.9-78.8c17.4-15.8,29.3-35.7,34.5-57.6
			c3.6-15.2,2.4-24.5,2.1-26.3c-3.7-40-32-69.1-67.5-69.1c-23.3,0-44,12.4-56.1,33.1c-12.2-20.4-33.9-33.1-57.5-33.1
			c-35.5,0-63.9,29-67.5,69.1C377.5,110.8,376.3,120.1,380,135.3z"/>
		<circle id="XMLID_320_" class="st1" cx="572.1" cy="285.1" r="209.8"/>
		<g id="XMLID_257_">
			<path id="XMLID_287_" class="st2" d="M653.1,325.9c2.1,9,7,17.2,14.2,23.7l36.4,32.5l35.8-32.5c7.1-6.5,12.1-14.7,14.2-23.7
				c1.5-6.2,1-10.1,0.9-10.8c-1.5-16.5-13.2-28.5-27.8-28.5c-9.6,0-18.1,5.2-23.1,13.7c-5-8.4-14-13.6-23.7-13.6
				c-14.6,0-26.3,12-27.8,28.5C652.1,316,651.6,319.8,653.1,325.9z"/>
			<path id="XMLID_323_" class="st2" d="M657.6,451.1c0.8,3.7,2.9,7,5.8,9.7l14.9,13.3l14.7-13.3c2.9-2.6,4.9-6,5.8-9.7
				c0.6-2.5,0.4-4.1,0.4-4.4c-0.6-6.8-5.4-11.7-11.4-11.7c-3.9,0-7.5,2.1-9.5,5.6c-2-3.4-5.7-5.6-9.7-5.6c-6,0-10.8,4.9-11.4,11.7
				C657.2,447,657,448.6,657.6,451.1z"/>
			<path id="XMLID_286_" class="st2" d="M834,294.6c2.5,10.8,8.4,20.6,17,28.4l43.5,38.8l42.7-38.8c8.6-7.8,14.5-17.6,17-28.4
				c1.7-7.4,1.1-12,1-12.9c-1.7-19.8-15.7-34.1-33.2-34.1c-11.4,0-21.7,6.1-27.6,16.3c-6-10-16.7-16.3-28.3-16.3
				c-17.4,0-31.4,14.4-33.2,34.1C832.8,282.5,832.2,287.1,834,294.6z"/>
			<path id="XMLID_285_" class="st2" d="M756.8,159c1,4.5,3.5,8.6,7.1,11.9l18.2,16.3l17.9-16.3c3.6-3.3,6-7.4,7.1-11.9
				c0.7-3.1,0.5-5,0.4-5.4c-0.7-8.3-6.6-14.3-13.9-14.3c-4.8,0-9.1,2.5-11.6,6.8c-2.5-4.2-6.9-6.8-11.8-6.8c-7.3,0-13.1,6-13.9,14.3
				C756.2,154,756,155.9,756.8,159z"/>
		</g>
	</g>
	<path id="XMLID_347_" class="st3" d="M574,102.3l8.3,15.2c0.2,0.4,0.5,0.7,0.9,0.9l15.2,8.3c1.5,0.8,1.5,3,0,3.8l-15.2,8.3
		c-0.4,0.2-0.7,0.5-0.9,0.9l-8.3,15.2c-0.8,1.5-3,1.5-3.8,0l-8.3-15.2c-0.2-0.4-0.5-0.7-0.9-0.9l-15.2-8.3c-1.5-0.8-1.5-3,0-3.8
		l15.2-8.3c0.4-0.2,0.7-0.5,0.9-0.9l8.3-15.2C571,100.8,573.2,100.8,574,102.3z"/>
	<path id="XMLID_356_" class="st3" d="M491.3,166.9l10.8,19.7c0.2,0.5,0.6,0.8,1.1,1.1l19.7,10.8c1.9,1,1.9,3.8,0,4.9l-19.7,10.8
		c-0.5,0.2-0.8,0.6-1.1,1.1L491.3,235c-1,1.9-3.8,1.9-4.9,0l-10.8-19.7c-0.2-0.5-0.6-0.8-1.1-1.1l-19.7-10.8c-1.9-1-1.9-3.8,0-4.9
		l19.7-10.8c0.5-0.2,0.8-0.6,1.1-1.1l10.8-19.7C487.5,164.9,490.3,164.9,491.3,166.9z"/>
</g>
<path id="XMLID_284_" class="st4" d="M589.7,361.8C398.2,543.8,5.1,445.3,5.1,445.3c614.6,54.3,575.3-401,560.7-407.6
	C565.8,37.7,826.8,87.4,589.7,361.8z"/>
<path id="XMLID_283_" class="st5" d="M5.1,445.2c540.2,84.2,582-218.7,584.5-291.2c0.3-9.3,0-14.6,0-14.6
	C439.6,454.9,5.1,445.2,5.1,445.2z"/>
<g id="XMLID_731_" class="st6">
	
		<linearGradient id="XMLID_8_" gradientUnits="userSpaceOnUse" x1="494.6277" y1="19.1913" x2="494.6277" y2="527.1779" gradientTransform="matrix(0.6056 0.7958 -0.7958 0.6056 397.1516 -261.7474)">
		<stop  offset="0" style="stop-color:#2194FF;stop-opacity:0"/>
		<stop  offset="0.3902" style="stop-color:#218FFF;stop-opacity:0.6251"/>
		<stop  offset="0.6242" style="stop-color:#2189FF"/>
		<stop  offset="0.6654" style="stop-color:#2184FF;stop-opacity:0.8904"/>
		<stop  offset="0.8631" style="stop-color:#2171FF;stop-opacity:0.3642"/>
		<stop  offset="1" style="stop-color:#216AFF;stop-opacity:0"/>
	</linearGradient>
	<path id="XMLID_7_" class="st7" d="M698.1,184.6c6.2,2.1,12.6,4.1,19.1,5.9C678.6,256.2,616,315.8,533.6,355.5
		c-82.1,39.7-184,59.6-294.2,45.9c-4.5-7.7-8.8-15.4-12.9-23.2c107.9,16.7,208.3-0.2,289.4-37C597.4,304.4,659.5,247.6,698.1,184.6z
		"/>
	
		<linearGradient id="XMLID_9_" gradientUnits="userSpaceOnUse" x1="457.2054" y1="-65.3247" x2="457.2054" y2="662.7126" gradientTransform="matrix(0.6056 0.7958 -0.7958 0.6056 397.1516 -261.7474)">
		<stop  offset="0" style="stop-color:#2194FF;stop-opacity:0"/>
		<stop  offset="0.33" style="stop-color:#218FFF;stop-opacity:0.6251"/>
		<stop  offset="0.5279" style="stop-color:#2189FF"/>
		<stop  offset="0.5796" style="stop-color:#2184FF;stop-opacity:0.8904"/>
		<stop  offset="0.828" style="stop-color:#2171FF;stop-opacity:0.3642"/>
		<stop  offset="1" style="stop-color:#216AFF;stop-opacity:0"/>
	</linearGradient>
	<path id="XMLID_6_" class="st8" d="M767.1,132.3c4.2,0.4,8.4,0.7,12.7,0.9c-34,105.2-120.5,206.5-249.7,263
		c-127.9,56.4-298.4,68-469.8-6.3c-2.3-6-4.5-11.9-6.7-17.9C222.2,449.3,391,440.7,518,387.1C646.2,333.5,732.7,234.9,767.1,132.3z"
		/>
	
		<linearGradient id="XMLID_10_" gradientUnits="userSpaceOnUse" x1="448.351" y1="-71.8308" x2="448.351" y2="625.7265" gradientTransform="matrix(0.6056 0.7958 -0.7958 0.6056 397.1516 -261.7474)">
		<stop  offset="0" style="stop-color:#B411FF;stop-opacity:0"/>
		<stop  offset="0.1673" style="stop-color:#E900E4;stop-opacity:0.317"/>
		<stop  offset="0.3592" style="stop-color:#A600F2;stop-opacity:0.6805"/>
		<stop  offset="0.6268" style="stop-color:#21E5FF;stop-opacity:0.7904"/>
		<stop  offset="0.8473" style="stop-color:#21F8FF;stop-opacity:0.3234"/>
		<stop  offset="1" style="stop-color:#21FFFF;stop-opacity:0"/>
	</linearGradient>
	<path id="XMLID_5_" class="st9" d="M746.4,102c6.3,0.8,12.7,1.4,19.2,1.8c-25.8,100.5-102.2,200.7-221.7,260
		c-118.2,59.4-279.5,78-445.3,15.3c-3.6-9-7-18.1-10.2-27.1c161.6,67.2,320.4,53,437.2-2.1C643.8,294.8,720.1,198.7,746.4,102z"/>
	
		<linearGradient id="XMLID_11_" gradientUnits="userSpaceOnUse" x1="507.9344" y1="-103.1696" x2="507.9344" y2="638.8119" gradientTransform="matrix(0.6056 0.7958 -0.7958 0.6056 397.1516 -261.7474)">
		<stop  offset="0" style="stop-color:#FF67A2;stop-opacity:0"/>
		<stop  offset="0.1673" style="stop-color:#21FAFF;stop-opacity:0.317"/>
		<stop  offset="0.3592" style="stop-color:#21ECFF;stop-opacity:0.6805"/>
		<stop  offset="0.5279" style="stop-color:#21DAFF"/>
		<stop  offset="0.6268" style="stop-color:#21E5FF;stop-opacity:0.7904"/>
		<stop  offset="0.8473" style="stop-color:#21F8FF;stop-opacity:0.3234"/>
		<stop  offset="1" style="stop-color:#21FFFF;stop-opacity:0"/>
	</linearGradient>
	<path id="XMLID_4_" class="st10" d="M801.2,104.1c1.3-0.1,2.6-0.1,3.9-0.2C780.9,212.5,704.7,321.1,583,389.3
		c-120.5,68.2-286.5,96-460.5,42.9c-0.9-1.7-1.7-3.4-2.5-5.1c173.2,54,338.8,27.1,459.1-40.2C700.6,319.7,776.8,211.9,801.2,104.1z"
		/>
	<linearGradient id="XMLID_12_" gradientUnits="userSpaceOnUse" x1="130.2022" y1="321.4214" x2="764.9741" y2="321.4214">
		<stop  offset="0" style="stop-color:#FF2BD6;stop-opacity:0"/>
		<stop  offset="0.5279" style="stop-color:#9B003C"/>
		<stop  offset="0.5725" style="stop-color:#FE931E;stop-opacity:0.9054"/>
		<stop  offset="1" style="stop-color:#F7931E;stop-opacity:0"/>
	</linearGradient>
	<path id="XMLID_3_" class="st11" d="M751.8,190.8c4.4,0.8,8.8,1.4,13.2,2C721,280.1,640.3,359.4,530.4,406.7
		c-109.2,47.3-247.6,62.5-392,21.9c-2.8-5.6-5.6-11.1-8.3-16.7c142.3,43.3,279.3,30.6,387.7-14.3C627,352.7,707.6,275.8,751.8,190.8
		z"/>
	
		<linearGradient id="XMLID_13_" gradientUnits="userSpaceOnUse" x1="390.8135" y1="8.0933" x2="390.8135" y2="634.5972" gradientTransform="matrix(0.6056 0.7958 -0.7958 0.6056 397.1516 -261.7474)">
		<stop  offset="0" style="stop-color:#FF00A1;stop-opacity:0"/>
		<stop  offset="0.1505" style="stop-color:#FF0DA4;stop-opacity:0.285"/>
		<stop  offset="0.4297" style="stop-color:#FF30AB;stop-opacity:0.8141"/>
		<stop  offset="0.5279" style="stop-color:#FF3EAE"/>
		<stop  offset="0.5512" style="stop-color:#FF3AAD;stop-opacity:0.9507"/>
		<stop  offset="0.7359" style="stop-color:#FF1AA6;stop-opacity:0.5593"/>
		<stop  offset="0.8921" style="stop-color:#FF07A2;stop-opacity:0.2286"/>
		<stop  offset="1" style="stop-color:#FF00A1;stop-opacity:0"/>
	</linearGradient>
	<path id="XMLID_2_" class="st12" d="M704.5,158.1c0.9,0.3,1.7,0.5,2.6,0.8C662.9,245.7,574,324,452.3,359.5
		c-120.6,35.5-273.8,28.3-422.6-56.1c-0.3-1.4-0.7-2.7-1-4.1c148.1,85,300.9,92.8,421.3,57.8C571.4,322.2,660.3,244.3,704.5,158.1z"
		/>
</g>
</svg>
