<?xml version="1.0" encoding="utf-8"?>
<!-- Generator: Adobe Illustrator 19.0.0, SVG Export Plug-In . SVG Version: 6.00 Build 0)  -->
<svg version="1.1" id="Capa_1" xmlns="http://www.w3.org/2000/svg" xmlns:xlink="http://www.w3.org/1999/xlink" x="0px" y="0px"
	 viewBox="0 0 500 500" style="enable-background:new 0 0 500 500;" xml:space="preserve">
<style type="text/css">
	.st0{fill:#030104;}
</style>
<g id="XMLID_1434_">
	<path id="XMLID_1435_" class="st0" d="M455.5,461.1c-54.6-21.7-103.1-68.5-111.2-129c-0.4-3.4,2.2-8,5.7-10.2
		c2.1-1.4,4.2-2.7,6.3-4.1c11-6.8,21.2-16.1,31.6-24.7c9.8-9.8,19.9-19.2,28.4-30.4c35.5-46.8,61.2-108.2,57.6-168.2
		c-0.8-13.9-3.2-27.6-7.4-41.2c-0.8-2.8-1.5-5.3-2.1-7.3c-1.1-4.1-3.3-4.2-4.8-0.3c-0.8,2-1.7,4.3-2.8,7c-1.6,4.4-4,9.5-7.2,15.2
		c-19.4,34.1-73.4,101.3-120.6,88.9c-11.4-3-18.7-20.7-25.7-29.4c-20.6-25.8-46-48.3-74.5-65C178.7,32.6,109.3,17,52,34.7
		c-2.8,0.8-5.3,1.5-7.3,2.1c-4.6,1.3-7.3,2-7.3,2s5.1,2,14,5.5c4.4,1.6,9.5,4,15.2,7.2c24.7,14,46.3,31.1,62.9,54.6
		c14,19.9,42.5,61.1,14.1,78.8C76.1,226.7,22.9,312.9,26.3,394c0.2,4.8,0.4,9.5,0.6,14c0.2,8.8,1.5,16.8,2.7,23.7
		c0.9,6.9,2.2,12.7,3.7,17.5c0.8,2.8,1.5,5.3,2.1,7.3c1.1,4.1,3.3,4.2,4.8,0.3c0.8-2,1.7-4.3,2.8-7c1.6-4.4,4-9.5,7.2-15.2
		c3-5.7,6.2-11.9,10.9-18.1c15.1-20.4,33.4-38.8,55.3-51.9c11.5-6.9,52.4-29.7,63.1-13.2c41.8,64.1,105.6,108.5,181.5,120.9
		c5.7,0.9,11.2,1.7,16.8,1.8c5.2,0.3,10.2,0.6,15.1,0.8c4.8-0.2,9.5-0.4,14-0.6c8.8-0.2,16.8-1.5,23.7-2.7
		c6.9-0.9,12.7-2.2,17.5-3.7c2.8-0.8,5.3-1.5,7.3-2C459.2,464.8,459.4,462.7,455.5,461.1z M249.9,295.2c-23.5,0-42.5-18.5-43.7-41.7
		c0-0.7-0.2-1.5-0.2-2.2c0-24.2,19.7-43.9,43.9-43.9c23.5,0,42.5,18.5,43.7,41.7c0,0.7,0.2,1.5,0.2,2.2
		C293.8,275.6,274.1,295.2,249.9,295.2z"/>
</g>
</svg>
