<?xml version="1.0" encoding="utf-8"?>
<!-- Generator: Adobe Illustrator 19.0.0, SVG Export Plug-In . SVG Version: 6.00 Build 0)  -->
<svg version="1.1" id="Capa_1" xmlns="http://www.w3.org/2000/svg" xmlns:xlink="http://www.w3.org/1999/xlink" x="0px" y="0px"
	 viewBox="-233 86 492 390" style="enable-background:new -233 86 492 390;" xml:space="preserve">
<style type="text/css">
	.st0{fill:#51F2FF;}
	.st1{fill:url(#XMLID_2_);}
	.st2{fill:url(#XMLID_3_);}
	.st3{fill:url(#XMLID_4_);}
	.st4{opacity:0.79;fill:url(#XMLID_5_);enable-background:new    ;}
	.st5{fill:url(#XMLID_6_);}
	.st6{opacity:0.77;fill:url(#XMLID_7_);enable-background:new    ;}
	.st7{fill:#1C74C4;}
	.st8{clip-path:url(#SVGID_2_);fill:#298CD6;}
	.st9{clip-path:url(#SVGID_4_);fill:#56ABF4;}
	.st10{fill:none;stroke:#9D1B64;stroke-width:2.5097;stroke-linecap:round;stroke-linejoin:round;stroke-miterlimit:10;}
	.st11{fill:none;stroke:#653B87;stroke-width:5.4539;stroke-linecap:round;stroke-linejoin:round;stroke-miterlimit:10;}
	.st12{fill:none;stroke:#AB1868;stroke-width:6.445;stroke-linecap:round;stroke-linejoin:round;stroke-miterlimit:10;}
	.st13{fill:none;stroke:#21FFD6;stroke-width:2.8958;stroke-linecap:round;stroke-linejoin:round;stroke-miterlimit:10;}
	.st14{fill:#21FFD6;}
	.st15{opacity:0.5;enable-background:new    ;}
	.st16{fill:#FE8965;}
	.st17{fill:#FE7043;}
	.st18{fill:#FEAA90;}
	.st19{fill:#28B5F5;}
	.st20{fill:#0287D0;}
	.st21{fill:#0277BC;}
	.st22{fill:#EF6291;}
	.st23{fill:#E81D62;}
	.st24{fill:#F8BACF;}
	.st25{opacity:0.25;fill:#7900B8;enable-background:new    ;}
	.st26{enable-background:new    ;}
	.st27{fill:#EE293D;}
	.st28{fill:#460055;}
	.st29{fill:#9F65FF;}
</style>
<path class="st0" d="M-22.2,316.8"/>
<g>
	<g id="XMLID_731_">
		
			<linearGradient id="XMLID_2_" gradientUnits="userSpaceOnUse" x1="18.05" y1="414" x2="18.05" y2="166.3" gradientTransform="matrix(1 0 0 -1 0 564)">
			<stop  offset="0" style="stop-color:#2194FF;stop-opacity:0"/>
			<stop  offset="0.3902" style="stop-color:#218FFF;stop-opacity:0.6251"/>
			<stop  offset="0.6242" style="stop-color:#2189FF"/>
			<stop  offset="0.6654" style="stop-color:#2184FF;stop-opacity:0.8904"/>
			<stop  offset="0.8631" style="stop-color:#2171FF;stop-opacity:0.3642"/>
			<stop  offset="1" style="stop-color:#216AFF;stop-opacity:0"/>
		</linearGradient>
		<rect id="XMLID_737_" x="-6.7" y="150" class="st1" width="49.5" height="247.7"/>
		
			<linearGradient id="XMLID_3_" gradientUnits="userSpaceOnUse" x1="112.25" y1="451.3" x2="112.25" y2="94.4" gradientTransform="matrix(1 0 0 -1 0 564)">
			<stop  offset="0" style="stop-color:#2194FF;stop-opacity:0"/>
			<stop  offset="0.33" style="stop-color:#218FFF;stop-opacity:0.6251"/>
			<stop  offset="0.5279" style="stop-color:#2189FF"/>
			<stop  offset="0.5796" style="stop-color:#2184FF;stop-opacity:0.8904"/>
			<stop  offset="0.828" style="stop-color:#2171FF;stop-opacity:0.3642"/>
			<stop  offset="1" style="stop-color:#216AFF;stop-opacity:0"/>
		</linearGradient>
		<rect id="XMLID_736_" x="96.6" y="112.7" class="st2" width="31.3" height="356.9"/>
		
			<linearGradient id="XMLID_4_" gradientUnits="userSpaceOnUse" x1="47.15" y1="467.5" x2="47.15" y2="112.3" gradientTransform="matrix(1 0 0 -1 0 564)">
			<stop  offset="0" style="stop-color:#21FFFF;stop-opacity:0"/>
			<stop  offset="0.1673" style="stop-color:#21FAFF;stop-opacity:0.317"/>
			<stop  offset="0.3592" style="stop-color:#21ECFF;stop-opacity:0.6805"/>
			<stop  offset="0.5279" style="stop-color:#21DAFF"/>
			<stop  offset="0.6268" style="stop-color:#21E5FF;stop-opacity:0.7904"/>
			<stop  offset="0.8473" style="stop-color:#21F8FF;stop-opacity:0.3234"/>
			<stop  offset="1" style="stop-color:#21FFFF;stop-opacity:0"/>
		</linearGradient>
		<rect id="XMLID_735_" x="22.4" y="96.5" class="st3" width="49.5" height="355.2"/>
		
			<linearGradient id="XMLID_5_" gradientUnits="userSpaceOnUse" x1="164.95" y1="467.5" x2="164.95" y2="112.3" gradientTransform="matrix(1 0 0 -1 0 564)">
			<stop  offset="0" style="stop-color:#21FFFF;stop-opacity:0"/>
			<stop  offset="0.1673" style="stop-color:#21FAFF;stop-opacity:0.317"/>
			<stop  offset="0.3592" style="stop-color:#21ECFF;stop-opacity:0.6805"/>
			<stop  offset="0.5279" style="stop-color:#21DAFF"/>
			<stop  offset="0.6268" style="stop-color:#21E5FF;stop-opacity:0.7904"/>
			<stop  offset="0.8473" style="stop-color:#21F8FF;stop-opacity:0.3234"/>
			<stop  offset="1" style="stop-color:#21FFFF;stop-opacity:0"/>
		</linearGradient>
		<rect id="XMLID_734_" x="160.2" y="96.5" class="st4" width="9.5" height="355.2"/>
		
			<linearGradient id="XMLID_6_" gradientUnits="userSpaceOnUse" x1="135.3" y1="418" x2="135.3" y2="119.5" gradientTransform="matrix(1 0 0 -1 0 564)">
			<stop  offset="0" style="stop-color:#F7931E;stop-opacity:0"/>
			<stop  offset="0.5279" style="stop-color:#FF931E"/>
			<stop  offset="0.5725" style="stop-color:#FE931E;stop-opacity:0.9054"/>
			<stop  offset="1" style="stop-color:#F7931E;stop-opacity:0"/>
		</linearGradient>
		<rect id="XMLID_733_" x="119.5" y="146" class="st5" width="31.6" height="298.5"/>
		
			<linearGradient id="XMLID_7_" gradientUnits="userSpaceOnUse" x1="-22.3" y1="429.7" x2="-22.3" y2="93" gradientTransform="matrix(1 0 0 -1 0 564)">
			<stop  offset="0" style="stop-color:#FF00A1;stop-opacity:0"/>
			<stop  offset="0.1505" style="stop-color:#FF0DA4;stop-opacity:0.285"/>
			<stop  offset="0.4297" style="stop-color:#FF30AB;stop-opacity:0.8141"/>
			<stop  offset="0.5279" style="stop-color:#FF3EAE"/>
			<stop  offset="0.5512" style="stop-color:#FF3AAD;stop-opacity:0.9507"/>
			<stop  offset="0.7359" style="stop-color:#FF1AA6;stop-opacity:0.5593"/>
			<stop  offset="0.8921" style="stop-color:#FF07A2;stop-opacity:0.2286"/>
			<stop  offset="1" style="stop-color:#FF00A1;stop-opacity:0"/>
		</linearGradient>
		<rect id="XMLID_732_" x="-25.8" y="134.3" class="st6" width="7" height="336.7"/>
	</g>
	<g id="XMLID_687_">
		<g id="XMLID_688_">
			<g id="XMLID_702_">
				<g id="XMLID_716_">
					<g id="XMLID_717_">
						<circle id="XMLID_728_" class="st7" cx="75.8" cy="303.6" r="101.5"/>
						<g id="XMLID_718_">
							<g>
								<defs>
									<circle id="SVGID_1_" cx="75.8" cy="304.7" r="101.5"/>
								</defs>
								<clipPath id="SVGID_2_">
									<use xlink:href="#SVGID_1_"  style="overflow:visible;"/>
								</clipPath>
								<circle id="XMLID_725_" class="st8" cx="63.1" cy="266.5" r="99.9"/>
							</g>
							<g>
								<defs>
									<circle id="SVGID_3_" cx="75.8" cy="304.7" r="101.5"/>
								</defs>
								<clipPath id="SVGID_4_">
									<use xlink:href="#SVGID_3_"  style="overflow:visible;"/>
								</clipPath>
								<circle id="XMLID_720_" class="st9" cx="39.3" cy="251.2" r="77.3"/>
							</g>
						</g>
					</g>
				</g>
				<g id="XMLID_704_">
					<path id="XMLID_715_" class="st10" d="M-2.3,227.8c-13.3,13.7-23,30.8-27.6,49.9"/>
					<g id="XMLID_706_">
						<path id="XMLID_713_" class="st10" d="M183.2,321.2c0.9-5.8,1.4-11.7,1.4-17.7c0-29.5-11.7-56.2-30.7-75.8"/>
						<path id="XMLID_709_" class="st10" d="M181.3,330.3c0.2-0.9,0.5-1.9,0.7-2.8"/>
					</g>
				</g>
			</g>
			<g id="XMLID_695_">
				<g id="XMLID_699_">
					<line id="XMLID_701_" class="st11" x1="203.7" y1="311.7" x2="203.7" y2="333.4"/>
					<line id="XMLID_700_" class="st11" x1="192.9" y1="322.5" x2="214.5" y2="322.5"/>
				</g>
				<g id="XMLID_696_">
					<line id="XMLID_698_" class="st12" x1="0.6" y1="196" x2="0.6" y2="221.6"/>
					<line id="XMLID_697_" class="st12" x1="-12.2" y1="208.8" x2="13.4" y2="208.8"/>
				</g>
			</g>
			<g id="XMLID_689_">
				<g id="XMLID_692_">
					<line id="XMLID_694_" class="st13" x1="18.8" y1="248" x2="18.8" y2="259.5"/>
					<line id="XMLID_693_" class="st13" x1="13.1" y1="253.7" x2="24.6" y2="253.7"/>
				</g>
				<circle id="XMLID_691_" class="st14" cx="1.9" cy="269.4" r="2.8"/>
				<circle id="XMLID_690_" class="st14" cx="140.6" cy="335.5" r="2.8"/>
			</g>
		</g>
	</g>
	<path id="XMLID_686_" class="st15" d="M128.6,301.5l-75.1-51.8c-0.8-0.5-1.8-0.6-2.7-0.2s-1.4,1.3-1.4,2.3v103.6
		c0,1,0.5,1.8,1.4,2.3c0.4,0.2,0.8,0.3,1.2,0.3c0.5,0,1-0.2,1.5-0.5l75.1-51.8c0.7-0.5,1.1-1.3,1.1-2.1
		C129.7,302.7,129.3,301.9,128.6,301.5z"/>
	<g id="XMLID_672_">
		<rect id="XMLID_685_" x="32.6" y="175.1" class="st16" width="19.2" height="17.5"/>
		<polygon id="XMLID_677_" class="st17" points="51.9,175.1 57.9,169.7 57.9,187.6 51.9,192.6 		"/>
		<polygon id="XMLID_674_" class="st18" points="51.9,175.1 32.6,175.1 39.3,169.7 57.9,169.7 		"/>
	</g>
	<g id="XMLID_666_">
		<rect id="XMLID_671_" x="46.4" y="117.2" class="st19" width="17.4" height="14.1"/>
		<polygon id="XMLID_669_" class="st20" points="63.8,117.2 69.3,114.7 69.3,129 63.8,131.2 		"/>
		<polygon id="XMLID_667_" class="st21" points="63.8,117.2 46.4,117.2 52.5,114.7 69.3,114.7 		"/>
	</g>
	<g id="XMLID_432_">
		<rect id="XMLID_661_" x="68.8" y="160.8" class="st22" width="22.5" height="10.2"/>
		<polygon id="XMLID_659_" class="st23" points="91.3,160.8 98.3,157.7 98.3,168.1 91.3,171 		"/>
		<polygon id="XMLID_434_" class="st24" points="91.3,160.8 68.8,160.8 76.6,157.7 98.3,157.7 		"/>
	</g>
	<path id="XMLID_416_" class="st25" d="M-218.5,96.5c0,0,211.2,480.7,395.8,220.3C177.3,316.8,14.6,443-218.5,96.5z"/>
	<g id="XMLID_398_">
		<g id="XMLID_415_" class="st26">
			<path d="M173.7,385.4h-1.2c-0.2,0-0.3,0-0.4-0.1c-0.1-0.1-0.2-0.1-0.3-0.3l-6.4-8c-0.1-0.1-0.2-0.2-0.2-0.3
				c-0.1-0.1-0.2-0.1-0.3-0.2c-0.1,0-0.2-0.1-0.4-0.1s-0.3,0-0.5,0h-2.6v9H160v-19.8h5.1c2.3,0,4,0.4,5.1,1.3s1.7,2.2,1.7,3.9
				c0,0.8-0.1,1.4-0.4,2.1c-0.3,0.6-0.6,1.2-1.1,1.6c-0.5,0.5-1.1,0.9-1.8,1.2c-0.7,0.3-1.5,0.5-2.3,0.6c0.2,0.1,0.4,0.3,0.6,0.6
				L173.7,385.4z M164.9,375.4c0.9,0,1.7-0.1,2.4-0.3c0.7-0.2,1.3-0.5,1.8-0.9s0.8-0.9,1.1-1.4c0.3-0.5,0.4-1.2,0.4-1.9
				c0-1.4-0.5-2.5-1.4-3.1c-0.9-0.7-2.3-1-4-1h-3.6v8.7H164.9z"/>
			<path d="M188.9,384.2l0,1.2H177v-19.8h11.9v1.2h-10.4v8h8.7v1.2h-8.7v8.3H188.9z"/>
			<path d="M207.1,382.1c0.1,0,0.2,0,0.2,0.1l0.6,0.6c-0.4,0.4-0.9,0.8-1.3,1.2c-0.5,0.3-1,0.6-1.6,0.9c-0.6,0.2-1.2,0.4-1.9,0.6
				c-0.7,0.1-1.4,0.2-2.3,0.2c-1.4,0-2.6-0.2-3.8-0.7s-2.1-1.2-2.9-2c-0.8-0.9-1.5-1.9-1.9-3.2c-0.5-1.3-0.7-2.6-0.7-4.2
				c0-1.5,0.2-2.9,0.7-4.1c0.5-1.2,1.1-2.3,2-3.2c0.8-0.9,1.8-1.6,3-2.1c1.2-0.5,2.5-0.7,3.9-0.7c1.4,0,2.6,0.2,3.6,0.6
				c1,0.4,2,1,2.9,1.8l-0.4,0.6c-0.1,0.1-0.2,0.2-0.4,0.2c-0.1,0-0.3-0.1-0.5-0.3s-0.6-0.4-1-0.7c-0.4-0.2-1-0.5-1.7-0.7
				c-0.7-0.2-1.5-0.3-2.4-0.3c-1.2,0-2.3,0.2-3.3,0.6c-1,0.4-1.8,1-2.6,1.8s-1.3,1.7-1.7,2.8c-0.4,1.1-0.6,2.3-0.6,3.7
				c0,1.4,0.2,2.6,0.6,3.8c0.4,1.1,1,2,1.7,2.8s1.5,1.3,2.5,1.8c1,0.4,2,0.6,3.1,0.6c0.7,0,1.3,0,1.9-0.1c0.6-0.1,1.1-0.2,1.5-0.4
				c0.5-0.2,0.9-0.4,1.3-0.7c0.4-0.3,0.8-0.6,1.2-1c0,0,0.1-0.1,0.1-0.1C207,382.1,207,382.1,207.1,382.1z"/>
		</g>
		<circle id="XMLID_400_" class="st27" cx="120.1" cy="374.2" r="30.6"/>
	</g>
	<g id="XMLID_417_">
		<rect id="XMLID_430_" x="112.6" y="178.3" class="st25" width="17.1" height="23.4"/>
		<polygon id="XMLID_428_" class="st28" points="129.8,178.3 135.1,175.9 135.1,199.5 129.8,201.7 		"/>
		<polygon id="XMLID_427_" class="st29" points="129.8,178.3 112.6,178.3 118.6,175.9 135.1,175.9 		"/>
	</g>
</g>
</svg>
