<?xml version="1.0" encoding="utf-8"?>
<!-- Generator: Adobe Illustrator 19.0.0, SVG Export Plug-In . SVG Version: 6.00 Build 0)  -->
<svg version="1.1" id="Capa_1" xmlns="http://www.w3.org/2000/svg" xmlns:xlink="http://www.w3.org/1999/xlink" x="0px" y="0px"
	 viewBox="-229 31 500 500" style="enable-background:new -229 31 500 500;" xml:space="preserve">
<style type="text/css">
	.st0{display:none;}
	.st1{display:inline;}
	.st2{opacity:0.74;}
	.st3{fill:#030104;}
	.st4{opacity:0.59;fill:#9B101D;enable-background:new    ;}
	.st5{fill:#EA2729;}
	.st6{fill:#9B101D;}
	.st7{fill:#EA2A2D;}
	.st8{fill:#E9272A;}
	.st9{fill:#E92B2E;}
	.st10{fill:#E92427;}
	.st11{fill:#E83739;}
	.st12{fill:#E82629;}
	.st13{fill:#E83032;}
	.st14{fill:#E6282B;}
	.st15{fill:#E82D31;}
	.st16{fill:#E8393A;}
	.st17{fill:#E72E2F;}
	.st18{fill:#E73437;}
	.st19{fill:#E62F34;}
	.st20{fill:#E63A3D;}
	.st21{fill:#E0605C;}
	.st22{fill:#E74446;}
	.st23{fill:#E64B50;}
	.st24{fill:#E53A3C;}
	.st25{fill:#E43538;}
	.st26{fill:#E46462;}
	.st27{fill:#E6ABA6;}
	.st28{fill:#E17372;}
	.st29{fill:#E44848;}
	.st30{fill:#E33435;}
	.st31{fill:#E53D3E;}
	.st32{fill:#E62F2F;}
	.st33{fill:#E16160;}
	.st34{fill:#E28A87;}
	.st35{fill:#E75D5B;}
	.st36{fill:#E24748;}
	.st37{fill:#E53D3F;}
	.st38{fill:#E19B94;}
	.st39{opacity:0.81;fill:#9B101D;enable-background:new    ;}
	.st40{opacity:0.69;}
	.st41{fill:#EB2428;}
	.st42{fill:#EB2427;}
	.st43{fill:#E9282A;}
	.st44{fill:#E83A3D;}
	.st45{fill:#E42C31;}
	.st46{fill:#E24948;}
	.st47{fill:#DF2B2B;}
	.st48{fill:#DF5D5C;}
</style>
<g id="Capa_2" class="st0">
	<rect id="XMLID_1_" x="-310.4" y="-132.9" class="st1" width="645.7" height="741"/>
</g>
<g id="Capa_1_1_">
	<g id="XMLID_4_" class="st2">
		<path id="XMLID_6_" class="st3" d="M208,438.4c-44.4-17.7-83.9-55.7-90.4-104.9c-0.4-2.7,1.8-6.5,4.6-8.3c1.7-1.1,3.4-2.2,5.1-3.3
			c8.9-5.5,17.2-13.1,25.7-20.1c8-8,16.2-15.6,23.1-24.7c28.8-38.1,49.7-87.9,46.9-136.7c-0.7-11.3-2.6-22.5-6-33.5
			c-0.6-2.3-1.2-4.3-1.7-6c-0.9-3.3-2.7-3.4-3.9-0.3c-0.6,1.6-1.4,3.5-2.3,5.7c-1.3,3.6-3.2,7.8-5.8,12.4
			c-15.8,27.7-59.7,82.4-98,72.3c-9.3-2.5-15.2-16.8-20.9-23.9c-16.7-21-37.4-39.2-60.5-52.9c-41-24.2-97.4-36.9-144-22.5
			c-2.3,0.6-4.3,1.2-6,1.7c-3.8,1.1-6,1.7-6,1.7s4.1,1.6,11.4,4.5c3.6,1.3,7.8,3.2,12.4,5.8c20.1,11.4,37.6,25.3,51.1,44.4
			c11.4,16.2,34.6,49.7,11.5,64c-54.8,34-98.1,104.1-95.3,170.1c0.2,3.9,0.3,7.7,0.5,11.4c0.1,7.1,1.2,13.6,2.2,19.3
			c0.8,5.6,1.8,10.4,3,14.2c0.6,2.3,1.2,4.3,1.7,6c0.9,3.3,2.7,3.4,3.9,0.3c0.6-1.6,1.4-3.5,2.3-5.7c1.3-3.6,3.2-7.8,5.8-12.4
			c2.4-4.6,5.1-9.7,8.8-14.8c12.3-16.6,27.2-31.6,44.9-42.2c9.4-5.6,42.6-24.1,51.3-10.7c34,52.2,85.9,88.2,147.6,98.3
			c4.6,0.8,9.1,1.4,13.6,1.5c4.2,0.2,8.3,0.5,12.3,0.7c3.9-0.2,7.7-0.3,11.4-0.5c7.1-0.1,13.6-1.2,19.3-2.2c5.6-0.7,10.4-1.8,14.2-3
			c2.3-0.6,4.3-1.2,6-1.7C211,441.3,211.1,439.6,208,438.4z M40.7,303.4c-19.1,0-34.6-15.1-35.5-33.9c0-0.6-0.2-1.2-0.2-1.8
			C5,248,21,232,40.7,232c19.1,0,34.6,15,35.5,33.9c0,0.6,0.2,1.2,0.2,1.8C76.4,287.5,60.5,303.4,40.7,303.4z"/>
	</g>
	<path id="XMLID_35_" class="st4" d="M213.3,217.2c1.5-9.3,2.9-18.8,4.2-28.3c0.3-2.1,0.6-4.1,1-6c-1.1,0.3-2.3,0.5-3.5,0.6
		c-0.4,1.3-1.4,4.5-1.5,7.4c0,7.4-3,14.6-5.7,20.5c-3.2,7-2.3,0.9-2.1-2.7c0-0.7,0.1-2-0.1-1.7c-4.4,5.1-3.8-3.4-3.8-10.3
		c-0.2,4.6-1.9,8.9-4.8,12.4c-0.7,0.8-0.8,1.1-1.3,2.5c-4.9,11.9-8.4,12.6-12.3,14.3c-0.3-0.2-0.7,0.3-1,1.4
		c1.3,11.4-3.1,26.1-15.2,40.6c-2.4,2.9-5.7,5.5-6.8,9.5c-2.7,9.6-8.2,12.1-13.1,16.7c-2.3,2.2-2.8,1.8-3.1-0.4
		c-0.7-5.3-5.5-4.8-10.7,0.2c-6.6,6.2-6,10.2-4.7,13.9c-4.8,4.7-9.6,7-14.7,9.1c-2.6,1.1-5.2,3.1-6.7,6.1c-1.4,2.7-0.6,3.8,1.4,3.8
		c-5.5,2.2-11.1,5.1-16.9,7.6c-2.7,1.3-5.3,2.3-7,0.7c-3.4-2.1-6.5,1-9.7,3.8c-4.2,4.3-9,5.3-13.3,4.7c-5.6-0.8-11.1,0.1-17.1,3
		c-11.8,4.5-24,4.7-36,5.7c-16.5,1.3-33.2-0.2-49.5-3.6c0.3-0.1,0.7-0.2,1-0.3c25.3,5.2,51.3,3.9,76.6,0.4c2.9-2.2,8-2.2,9-6.4
		c-1.8-0.4-8.8,2.3-2.6-3.1c3.8-3.3,2.8-5.7,0.8-8c-2.2-2.4-5.7-4.2-9.6-3.5c-4.4,0.8-1.1,4.9-3.9,7.1c-0.8,0.6-0.1,2.2-0.4,3.3
		c-1,4.4-3.3,7.2-9.9,7.6c-11.9,0.7-24,1.2-36.5,0.4c1.6-4.5,1.9-8.6-5.4-9.9c-6.3-1.1-9.1,1.2-8.2,6.2c0.6,2.9-2.1,1.9-3.9,1.6
		c-25.8-3.6-51-11.6-74.4-23.7c-3-1.5-5.1-3.6-4.2-5.6c1.8-4.3-3.7-9.7-5.4-14.5c-1-2.7-3.7-5.3-6.2-4.5c-3.6-0.8-1.1,4.5-3,5.3
		c-1.7,7.4-8.5,2.9-15.5-2.5c-4.2-3.3-4.6-8.5-5.8-9.3c-6.9-5.2-5.1-8.9-4-10.1c2.6-2.9,1.4-9,1.4-14.1c0-3.3,0.2-7-3.4-12
		s-6.2-4.1-9.2-6c-1.9-1.2-2.1,0.6-2.9,1.3c-3.6,3.4-3.2,14-11,9.1c-1.1-0.7-0.3,0.9,0.2,2.2c2,5.6,1.1,4.8-2,0.5
		c-1.7-2.5-3.6-3.9-5.5-7.3c-2.4-4.5-2.9-1.9-4.4-2.9c0.7,1.5,1.9,2.7,2.1,4.6c-0.9-1.2-1.8-2.5-2.7-3.6c-1.2-1.5-2-1.9-1.9-0.3
		c0.1,2.3,1.4,3.6,2.4,5c2.6,3.8,5.4,7.2,7,12.9c-16.9-17.8-30.6-44.7-39.2-74.7c2.6,12.3,5.8,20.6,9.4,29.5
		c37.4,93.2,122.6,140.2,208.3,141.4c23.7,0.3,47.4-2.8,70.2-9.5c8.3-1.9,16.6-4,24.6-7.3c43.5-18.1,81.7-51.4,106.7-96
		C203.8,241.5,209,229.7,213.3,217.2z M-95.5,334.9c-4.4-1.7-9.2-3.1-13.9-7.4c2.6-1.3,5.3-0.1,7.9,1.2c14,6.9,28.7,11.9,43.7,16.8
		c1.8,0.6,3.6,1.2,5.4,1.9C-67.2,343.7-81.6,340.3-95.5,334.9z M-43.8,349.4c-0.6-0.1-1.1-0.3-1.7-0.4c1.6,0.2,3.1,0.2,4.7-0.1
		C-41.8,349.1-42.7,349.7-43.8,349.4z M111.1,326c-0.4,0.1-0.7,0.3-1.1,0.4c10.2-8.7,20.5-14.5,31.1-23
		C131,313.2,120.8,316.9,111.1,326z"/>
	<path id="XMLID_1007_" class="st5" d="M104.8,235.8c-2-4.6-4.2-1.3-6.4-0.2c-8.9,0.4-17.6-3.3-26.6-1.8c-3.2,0.2-6.4,1.5-9.4-0.8
		c1.3-3.9,5.9-0.7,7.6-3.6c5.1-0.1,10.3-0.2,15.4-0.2c2,0,3.7-0.2,2.9-2.9c3.8-2.2,4.7,2.1,7.1,3.1c-0.1-6.8,4.3-2,6.6-2.7
		c0.9-0.2,1.6-1.2,2.8-0.6c2.8,6.7,8.7,2.6,13,3.2c4.1,0.5,2.3-3.7,2.6-5.9c0.5-3.2-1.3-6.8,1.6-9.6c2.6-2.6,5.8-3.7,9.3-2.5
		c3.7,1.3,5.5,4.4,6.2,8.1c1.9,10.8,1.9,10.8,12.8,9.8c-5.2,3.5-11.1,0.8-16.6,1.6c-1.9,0.3-3.8,0.3-4.6,2.2c-0.9,2.2,0.8,3.3,2.5,4
		c1.3-0.5,1.8,0.2,1.9,1.4c-7.7,0-15.3,0-23,0c-0.8-2.8,0.3-4.3,3.2-4.7c1.7,1.1,3.3,0.2,4.2,0.1c1.8-0.2,1.1-0.5,1-0.4
		c-1.3,0.7-2.8,0.7-4.3,0.6C110.9,232.3,108.2,236.4,104.8,235.8z"/>
	<path id="XMLID_1005_" class="st6" d="M93.4,374c-3-1.2-6.5-0.2-10.3,1.2c-3.3,1.1-6.8,0.1-8.8-3.3c-1.8-3.1,0.7-5.1,2.6-6.5
		c3.4-2.4,2.9-6.5,4.9-9.6c3.3-5.1,11.5-7.9,17.1-5c6.1,3.1,8.5,8.5,7,15C104.6,371.5,100.6,374.7,93.4,374z"/>
	<path id="XMLID_1001_" class="st6" d="M169.9,137.2c-5.4,2.9-10.9,5-16.4,0.2c-4.3-0.9-10.7,2.4-11.2-5.7c-0.1-2.1,0.2-5.3,2.3-5.2
		c6.1,0.4,10.6-4.4,16.4-4.2C171,122.6,174,127.5,169.9,137.2z"/>
	<path id="XMLID_982_" class="st7" d="M123.9,341.1c-4.5-0.9-9.1-1.8-9.1-7.2c0.1-5,3.4-8.7,8.4-8.6c6.4,0,8,6.2,8.5,10.6
		C132.3,340,126.7,339.7,123.9,341.1z"/>
	<path id="XMLID_979_" class="st8" d="M252.5,149.4c5,0.7,8.8,1.9,8.6,7c-0.2,4.9-3.7,6.5-8.1,6.4c-1.8,0-11.8-10.1-11.3-10.3
		C245.4,151.2,249.4,150.3,252.5,149.4z"/>
	<path id="XMLID_969_" class="st9" d="M-29,341.4c1-3.4-0.5-9.6,3.9-9.7c5.1-0.1,5.7,6,5.9,10.5c0.2,4.2-1.2,9.2-5.5,9
		C-29.7,351-28.6,345.4-29,341.4z"/>
	<path id="XMLID_967_" class="st10" d="M223,195c-4-0.2-7.8-1.4-8.1-6.4c-0.3-4.9,3.1-7,7.4-7.3c4.6-0.3,7.4,2,7.6,6.8
		C230.1,192.7,227.5,194.7,223,195z"/>
	<path id="XMLID_965_" class="st11" d="M4,375c-1.3,2.7-0.3,6.3-3.2,8.4c0-0.5,0.1-1,0.1-1.6c-10.5,0.5-7.4-6.3-7.3-12.3
		c0.1-3.4,0.6-6.3,2.2-9.6C-3.8,366.5,0,370.8,4,375z"/>
	<path id="XMLID_948_" class="st12" d="M177.1,361.3c-3.6,2.2-3.5,8.5-9,8.9c-3.6,0.3-4.5-2.9-4.7-6c-0.4-8,8.7-2.1,10.9-7.2
		C174.7,356.1,176.5,359,177.1,361.3z"/>
	<path id="XMLID_947_" class="st13" d="M-3.3,324.5c0,3-0.1,6.3-3.5,6.1c-5.1-0.3-5.6-4.8-5.8-8.6c-0.2-2.7,0.3-6.7,4-6.3
		C-3.8,316.3-4,321.1-3.3,324.5z"/>
	<path id="XMLID_945_" class="st14" d="M155,310.7c-0.7,3.9-3.2,5.7-7.1,5.4c-3.2-0.3-5.6-1.8-5.4-5.3c0.2-4,3-5.9,6.8-6.1
		C153.2,304.5,154.6,307.2,155,310.7z"/>
	<path id="XMLID_942_" class="st15" d="M208.7,137.1c-2.9-0.4-4.9-1.4-4.9-4.8c0-3.9,1.6-6.6,5.7-6.8c3.7-0.2,5.1,2.3,5,5.5
		C214.3,134.3,212.3,136.6,208.7,137.1z"/>
	<path id="XMLID_933_" class="st16" d="M233.2,235.7c-3.3-0.4-5.1-2-5.2-5.1c-0.1-3.8,2-5.9,5.8-6c2.8-0.1,4.6,1.7,4.6,4.4
		C238.3,232.4,236.5,234.9,233.2,235.7z"/>
	<path id="XMLID_929_" class="st17" d="M182,139.4c-0.3,3-1.7,4.9-4.8,5c-3.5,0.1-5.4-1.9-5.2-5.2c0.1-2.9,2-4.6,5.1-4.6
		C180.2,134.7,181.7,136.4,182,139.4z"/>
	<path id="XMLID_928_" class="st6" d="M182.5,168.8c-2.5-0.7-5.1-1.5-4.9-4.9c0.2-3.7,2.8-4.7,5.9-4.6c3.1,0.1,4.8,2,4.5,5.1
		C187.6,167.4,185.6,168.8,182.5,168.8z"/>
	<path id="XMLID_905_" class="st18" d="M141.1,378.4c-1,2.8-2.3,5.1-5.4,5.2c-2.9,0.2-4.4-1.7-4.3-4.3c0-3,1.9-4.9,4.9-4.9
		C138.9,374.4,140.6,375.9,141.1,378.4z"/>
	<path id="XMLID_901_" class="st19" d="M42.8,294.8c2.5,0.3,3.7,1.9,3.7,4.2c0,2.7-0.2,5.7-3.4,6.2c-2.4,0.4-3.4-1.9-3.5-4.2
		C39.6,298.5,39.7,295.8,42.8,294.8z"/>
	<path id="XMLID_897_" class="st20" d="M157,236.1c-0.5,2.3-1.7,4-4.1,3.8c-2.7-0.2-4.1-2.1-4-4.8c0.1-2.3,1.6-4.1,4-3.8
		C155.4,231.6,157,233.3,157,236.1z"/>
	<path id="XMLID_895_" class="st21" d="M-151.3,414.8c-2.7,0.9-4.9-0.4-7-1.8c5.3-6.2,12.1-0.5,19.3-3.9
		C-142.6,415.8-148.5,411.3-151.3,414.8z"/>
	<path id="XMLID_881_" class="st22" d="M207.1,255.9c-2.6-0.2-4.4-0.7-3.9-3.2c0.4-2.3,0.9-4.9,4.2-4.4c2.4,0.3,3.7,2,3.6,4.4
		C210.9,255.4,208.7,255.7,207.1,255.9z"/>
	<path id="XMLID_880_" class="st23" d="M150.4,260.8c0,2.4-1.3,3.8-3.2,4.1c-2.2,0.4-4.2-0.5-4.5-3c-0.2-2.5,1.7-3.8,3.8-4
		C148.7,257.7,149.8,259.3,150.4,260.8z"/>
	<path id="XMLID_878_" class="st24" d="M131.2,319.8c-0.1,2.8-2.4,2.3-3.9,2.6c-2,0.4-4.3,0.4-4.9-2.3c-0.6-2.7,1.4-3.7,3.5-4
		C128.7,315.7,129.9,318,131.2,319.8z"/>
	<path id="XMLID_872_" class="st25" d="M236.2,149.9c-0.8,3.3-3.3,4.5-6.2,4.9c-1.5,0.2-2.6-0.9-2.1-2.4c1-2.9,3.4-4.5,6.3-5
		C235.9,147,236.1,148.5,236.2,149.9z"/>
	<path id="XMLID_868_" class="st26" d="M242.1,279.7c-0.2,1.5,0.1,3.8-2,3.5c-2.7-0.3-4.9-2.7-5.5-5c-1-3.6,5.2,0.8,4.7-3.4
		C241.8,275.6,241.7,277.8,242.1,279.7z"/>
	<path id="XMLID_867_" class="st27" d="M112,275.9c3.9,5,5.9,10.8,7.2,16.8C115.2,287.9,113.6,281.9,112,275.9z"/>
	<path id="XMLID_861_" class="st28" d="M191.5,297.3c5.2,1.4,10.5,2,14.2,6C199.9,303.6,195.7,300.1,191.5,297.3z"/>
	<path id="XMLID_852_" class="st29" d="M31.5,388.6c-2.7-0.6-3.2-2.4-3.2-4.3c0.1-1.7,0.1-4.2,2.7-3.9s2.9,2.7,2.8,4.9
		C33.8,387,32.7,388.1,31.5,388.6z"/>
	<path id="XMLID_850_" class="st30" d="M21.5,357.2c0,1.9-0.1,3.8-2.4,4.3c-2.8,0.5-2.6-1.8-2.8-3.5c-0.2-1.8-0.2-3.9,2.2-4.3
		C21,353.4,21.4,355.3,21.5,357.2z"/>
	<path id="XMLID_843_" class="st31" d="M4,333.2c-0.1,1.9-0.7,3.7-2.6,3.5c-2.4-0.2-2.4-2.5-2.3-4.3c0.1-1.5-0.2-3.7,1.8-3.7
		C3.7,328.7,3.5,331.4,4,333.2z"/>
	<path id="XMLID_827_" class="st32" d="M191,388.8c-2.5-0.5-3.7-1.9-3.3-3.9c0.3-1.6,1.6-2.8,3.4-2.5c1.9,0.4,3.3,1.7,2.9,3.8
		C193.6,388,192.4,388.8,191,388.8z"/>
	<path id="XMLID_821_" class="st33" d="M179.7,186.6c-3.5-4.2-4.3-7.5-5-12.2C178.8,177.7,179.8,181,179.7,186.6z"/>
	<path id="XMLID_815_" class="st34" d="M204.5,279.1c-2.3-3.9-1.1-6.5,0-9.1C206.8,272.8,206.8,275.4,204.5,279.1z"/>
	<path id="XMLID_814_" class="st35" d="M159.2,286.7c-0.2,1.4-1,2.7-2.9,2.5c-1.6-0.2-3.2-1-2.8-3c0.3-1.7,2-2.5,3.5-2.5
		C158.5,283.6,159.2,284.8,159.2,286.7z"/>
	<path id="XMLID_808_" class="st36" d="M172,265.4c0,1.5-0.8,2.5-2.2,2.5c-1.8,0.1-3.8-0.2-3.9-2.5c0-0.7,1.7-1.8,2.8-2.1
		C170.3,262.8,171.6,263.6,172,265.4z"/>
	<path id="XMLID_792_" class="st37" d="M28.1,315.8c-0.1,0.8,0,2.7-1.9,3.1c-2.1,0.4-2.6-1.4-2.6-2.9c-0.1-1.7,0.8-3.2,2.5-3.5
		C27.6,312.2,28.1,313.6,28.1,315.8z"/>
	<path id="XMLID_790_" class="st38" d="M230.9,306.4c4.2-0.1,6.6,1.2,8.6,3.5C235.6,310.3,235.6,310.3,230.9,306.4z"/>
	<path id="XMLID_1017_" class="st39" d="M191.2,207.5c3.9,2,1.2,9.6,0,14.3c-19.2,78-80.9,121.5-138,133.8
		c-58.2,12.7-111.9-5.8-140-42.1c-2.6-3.2-7.4-7.9-2.6-8.8c-0.5-5.7-6.8-12-8.6-18.4c-0.9-2.9-4.6-7.8-0.4-7.7
		c2.7,3.2,2.4,11.1,7.6,9.4c3.3-0.8,13.4,9.3,10.4-1.7c-1.1-4.8,2.8-1.9,5.9-0.7c8,3.2,15.2,7.4,23,10.5c3.9,2.5,2.8,4.6,2,6.8
		c-0.5,8.6-9,12.8-31.2,1.3c12.3,9.1,22,14.3,22.3,25c0.3,4.6,8.8-0.9,14.8,2.8c-8-6.8-8.4-12.9-3.7-18.1c2.5-2.9,4.2-5.3,10.7-4.3
		c6.8,1,12.9,1.7,16.1,6.7c4.5,7.1,10.2,13.8,16.9,19.9c11,2.6,16.5-2.6,21.5-7c6.7-3.7,23.1-8.8,5.2-11.2
		c-6.9-1.4-5.6-6.7,1.3-11.6c10.1-7.1,23.4-12,34.3-12c8.1,0,0.4,9.5,5.6,11.8c2.8,1.2-3.3,3.3-6.3,3.5c-1.6,0.1-2.7,1.5-2.2,2.3
		c4.2,6.2-6.5,12.6-16.8,17.7c-10.8,5.3-15.7,13.1-29.6,16.4c-3.8,0.8-4.2,3.9-2.1,5.3c2.6,1.7,7.8,2.1,13-0.4
		c16.9-8.1,37.9-11.3,52.7-24.2c1.6,0.1,0.2,2.5,1.7,2.3s2.4-1.9,3.1-3c2-3.2,3.8-6.4,6.5-9.9c6.1-7.1,8-13.9,16.2-22.2
		c5.3-5.7,2.1-7.6,1.7-10.3c-1.1-6.1,2.3-13.8,7.9-20.9c6-7.7,11.3-10.8,14.6-5c6.2,12.3,13.2,13.7,27.7-12.3
		c8.8-17.6,15.7-33,21.1-49.1c4.7-14.6,7.3,13.5,10.5,17.2c3.9,7.2,0,16.6-2.3,23.6c-5.6,17.4-14,31.9-21,42.1
		C174.4,263.3,183.7,231.5,191.2,207.5z"/>
	<g id="XMLID_2_" class="st40">
		<path id="XMLID_1015_" class="st41" d="M22.6,442.8c-3.8,3.1-1.4,6.6-0.3,9.8c1.2,3.3,1.6,6.2-1.7,8.2c-3.6,2.1-7.1,1.7-9.8-1.5
			c-5-6-12.3-6.1-18.9-7.7c-3.9-0.9-1.9,3.7-5.3,6.3c7.5-1.2,14.9-4.7,12,6.3c-0.2,0.9,2.6,1.6,2.3,3.5c-1.3,5.3-4.5,4.7-8.2,2.8
			c-6.3-8.3-23.2-12.1-31.6-6.6c-3.7,2.4-7.5,4.5-11.7,6.1c-0.8,0.1-1.5-0.1-2.1-0.6c-4.7-3.2-10.9-5.4-10.4-12.5
			c0.4-5.6,1.6-10.2,9.8-6.9c4.6,1.8,9.7-2,14-4.8c2.4-1.5,4.5-3.6,6.9-5.2c3.9-2.5,7.2-3.7,11.9-0.1c3.4,2.6,9,6.7,12.8-2
			c2.3-5.3,16.1-7.3,21.8-4.6c2,1,3.4,2,5.5-0.1c2.9-2.9,7.1-5,10.4-2.7c3.6,2.5,5.6,7.1,4.2,12.1C30.4,447.6,26.5,443.9,22.6,442.8
			z"/>
		<path id="XMLID_1012_" class="st42" d="M64,385.6c-3.5,0.6-7.3,2.1-10,2.2c-4,0.2-9.8-0.8-12.4-5.4c-1.9-3.5-3-2.8-5.8-1.1
			c-9.1,5.5-14.6,2.4-22.7-3.7c-10.3-7.9-5.4-17.2-5.8-26c-0.2-4.8,9.2-8.1,14.7-5.4c5.3,2.5,9.9,5.8,11,12.2
			c0.8,4.2,3.4,7.3,7.2,9.2c0.9,0.4,2.5,1.2,2.7,0.9c4.2-5.7,12.4-1.8,16.9-7.4c2.2-2.7,6.2-2.7,9.5-0.7c2.6,1.5,4.6,3.6,4.2,6.9
			c-0.5,3.9-3.4,5.9-6.6,7C57.4,377.9,57.4,377.8,64,385.6z"/>
		<path id="XMLID_999_" class="st8" d="M22.6,442.8c3.8,0,7.7,2.8,11.5-0.2c2.2,2.4,4.7,1.6,6.8,0.2c3-2,6.1-2.1,9.5-1.5l-0.2-0.1
			c0.6,2.5-0.2,6.1,4.1,6c3.7-0.1,5.8,1,4,4.9c-1.7,3.5-4,7.9-8.7,4.8c-3.6-2.4-5.6-2.3-9.2,0c-4.6,3.1-10.2,0.4-9.5-4.4
			c0.7-5.3,0.4-7.9-5.7-7.1C24.5,445.6,23.5,443.8,22.6,442.8z"/>
		<path id="XMLID_993_" class="st8" d="M50.4,441.3c-8.7-7.7-7.5-12.6,3.3-16.9c5-2,9.8-7,13.9,0.1c4.2,7.3-3.7,8.5-7.2,12
			c-2.9,3-5.4,6.3-10.2,4.7C50.2,441.2,50.4,441.3,50.4,441.3z"/>
		<path id="XMLID_976_" class="st43" d="M123.5,377.3c-0.6,4.4-2.9,7.7-7.3,7.9c-4.3,0.2-7.7-2.4-7.7-7.1c0.1-4.8,3.1-7.8,8-7.9
			C120.9,370.2,122.8,373.4,123.5,377.3z"/>
		<path id="XMLID_952_" class="st15" d="M107,370.4c-3.9-0.1-6-2.3-6.3-5.7c-0.4-4.6,3.6-6.9,6.7-7.3c2.4-0.3,5.4,2.8,5.6,6.3
			C113.1,367.8,110.7,369.8,107,370.4z"/>
		<path id="XMLID_920_" class="st13" d="M96.3,384.8c3,0.6,4.9,2.3,4.9,5.2c0,2.8-1.6,5.2-4.6,5.1c-2.9-0.1-4.6-2.4-4.8-5.1
			C91.6,387,93.5,385.4,96.3,384.8z"/>
		<path id="XMLID_906_" class="st44" d="M57.2,332.7c2.8,0.6,4.8,1.9,4.6,4.6c-0.2,2.6-2.1,4.1-4.6,4.3c-2.9,0.2-4.2-1.7-4.1-4.4
			C53.1,334.5,55.2,333.4,57.2,332.7z"/>
		<path id="XMLID_887_" class="st45" d="M138.5,404.9c-0.3,2.8-1.7,4.6-4.4,4.7c-2.5,0.1-3.9-1.6-3.8-4s1.7-3.9,4-4.1
			C136.7,401.1,138,402.6,138.5,404.9z"/>
		<path id="XMLID_844_" class="st46" d="M149.1,416.5c-2.8,1.3-4.5,5.4-8.5,3.2c-0.5-0.3-0.8-2.1-0.4-2.7
			C142.9,413,146,416.4,149.1,416.5z"/>
		<path id="XMLID_798_" class="st47" d="M-53.2,381.2c1.8-4.7,4.4-5.8,7.7-6.7C-46.1,378.7-49,379.5-53.2,381.2z"/>
		<path id="XMLID_793_" class="st48" d="M-4.8,306.1c1.2-4.8,4.5-6,7.5-7.5C1.1,301.3,0.1,304.7-4.8,306.1z"/>
	</g>
</g>
</svg>
