<?xml version="1.0" encoding="utf-8"?>
<!-- Generator: Adobe Illustrator 19.0.0, SVG Export Plug-In . SVG Version: 6.00 Build 0)  -->
<svg version="1.1" id="Capa_1" xmlns="http://www.w3.org/2000/svg" xmlns:xlink="http://www.w3.org/1999/xlink" x="0px" y="0px"
	 viewBox="0 0 500 500" style="enable-background:new 0 0 500 500;" xml:space="preserve">
<style type="text/css">
	.st0{fill:#FF1800;}
	.st1{fill:#030104;}
</style>
<circle id="XMLID_26_" class="st0" cx="251" cy="249" r="243.7"/>
<g id="XMLID_8_">
	<path id="XMLID_9_" d="M73.6,240.2c0-23.9,11.4-45.1,28.9-59.1c3.7-2.5,6.5,0,5.4,1.9c-12.1,28.4-3.3,56.3,17.2,61.9
		c-6-14.4-8.9-30.7-7-47.4c2.8-24.7,14.9-45.8,32.4-60.7c1.6-1.4,3.3-2.3,4.4-2.1l0,0c1.2,0.2,1.9,0.9,1.4,2.5
		c-1.4,4.9-2.3,10-2.8,15.1c-2.3,20.7,2.3,40.3,11.9,57c14.4,0,20.5-16.8,22.1-28.4c0-2.8,2.1-4.6,6.3-1.4
		c18.6,13.7,30.9,35.6,30.9,60.5c0,41.6-33.7,75.4-75.6,75.4C107.3,315.6,73.6,281.8,73.6,240.2z"/>
</g>
<path id="XMLID_28_" class="st1" d="M383.3,303.6c-5.8-14.1-14.4-25.7-24.8-34.1c15.3-3.9,31.5-3.6,45.5,5.1l-7.6-34.9
	c0,0-29.7,4-57.8,18.6c-2.3-0.8-4.7-1.5-7.1-2.1c49-44.8,89.8-19.5,89.8-19.5c-10-26.1-35.2-47.4-35.2-47.4
	c-54,24.8-72,46-80.9,65.9c-24,4.1-44.7,21.9-56.3,47.9h133.3C382.6,303,383,303.8,383.3,303.6z"/>
<path id="XMLID_29_" class="st1" d="M248.3,304.8c0,0.1-0.1,0.2-0.1,0.2C248.2,305.4,248.3,306.5,248.3,304.8z"/>
<path id="XMLID_30_" class="st1" d="M248.2,304.9c0,0-0.1,0.3-0.1,0.5c0-0.1,0.1-0.2,0.1-0.3C248.2,304.9,248.2,304.9,248.2,304.9z"
	/>
<path id="XMLID_31_" class="st1" d="M248.3,303.3c0,0.6,0,1.1,0,1.5c0.2-0.5,0.4-1,0.6-1.5H248.3z"/>
<path id="XMLID_32_" class="st1" d="M248.1,305.3C248,305.4,248,305.4,248.1,305.3C248,305.4,248,305.4,248.1,305.3z"/>
<circle id="XMLID_33_" class="st1" cx="273.7" cy="325.1" r="10.1"/>
<circle id="XMLID_34_" class="st1" cx="347" cy="323" r="10.1"/>
<path id="XMLID_17_" class="st1" d="M373.8,416.9c11.5-16.7,18.5-38.8,18.4-63.3l-80-16.1l-72.7,20.4c1.4,24.5,9.5,46.1,22,62.1
	l-83,2.3c3.8,4.6,7.8,8.9,12.1,13c-11.9,8.9-29.3,29-36.3,37.3c29.7,12.9,62.4,20,96.8,20c70.3,0,133.6-29.8,178.1-77.4L373.8,416.9
	z"/>
</svg>
