<?xml version="1.0" encoding="utf-8"?>
<!-- Generator: Adobe Illustrator 19.0.0, SVG Export Plug-In . SVG Version: 6.00 Build 0)  -->
<svg version="1.1" id="Capa_1" xmlns="http://www.w3.org/2000/svg" xmlns:xlink="http://www.w3.org/1999/xlink" x="0px" y="0px"
	 viewBox="-223 25 512 512" style="enable-background:new -223 25 512 512;" xml:space="preserve">
<style type="text/css">
	.st0{fill:#00CEF4;}
</style>
<g>
	<g>
		<path class="st0" d="M136.5,61.9C97.8,30.5,47.2,18.3-2.3,28.6c-65.1,13.6-116,68.2-127.1,133.1c-4.9,28.2-2.8,56,6.3,82.4
			c8.5,24.9,23,47.7,42.1,66c21.9,20.9,35.5,49,38.5,78.6C-59.8,395.1-72,411.6-72,431c0,19.6,12.5,36.2,30,42.4V492
			c0,24.8,20.2,45,45,45h60c24.8,0,45-20.2,45-45v-18.6c17.5-6.2,30-22.9,30-42.4c0-19.5-12.5-36.2-29.9-42.4
			c1-27.9,14.4-55.2,38-77.5C179.1,280,198,236.3,198,191C198,140.7,175.6,93.7,136.5,61.9z M78,492c0,8.3-6.7,15-15,15H3
			c-8.3,0-15-6.7-15-15v-16h90V492z M93,446H-27c-8.3,0-15-6.7-15-15s6.7-15,15-15H93c8.3,0,15,6.7,15,15S101.3,446,93,446z
			 M125.5,289.3c-29,27.3-45.6,61.4-47.4,96.7h-90.9c-3.6-36.7-20.5-71.6-47.6-97.5c-33-31.6-47.4-75.9-39.6-121.6
			c9.2-53.3,51.8-98,103.7-108.8c40.6-8.5,82.1,1.4,113.8,27.2c32,26.1,50.4,64.6,50.4,105.7C168,228.6,152.9,263.5,125.5,289.3z"/>
	</g>
</g>
<g>
	<g>
		<path class="st0" d="M-178,176h-30c-8.3,0-15,6.7-15,15s6.7,15,15,15h30c8.3,0,15-6.7,15-15S-169.7,176-178,176z"/>
	</g>
</g>
<g>
	<g>
		<path class="st0" d="M274,176h-30c-8.3,0-15,6.7-15,15s6.7,15,15,15h30c8.3,0,15-6.7,15-15S282.3,176,274,176z"/>
	</g>
</g>
<g>
	<g>
		<path class="st0" d="M-136.9,288.5c-4.1-7.2-13.3-9.6-20.5-5.5l-26,15c-7.2,4.1-9.6,13.3-5.5,20.5c4.1,7.2,13.3,9.6,20.5,5.5
			l26-15C-135.2,304.8-132.7,295.6-136.9,288.5z"/>
	</g>
</g>
<g>
	<g>
		<path class="st0" d="M254.8,63.5c-4.1-7.2-13.3-9.6-20.5-5.5l-26,15c-7.2,4.1-9.6,13.3-5.5,20.5c4.1,7.2,13.3,9.6,20.5,5.5l26-15
			C256.5,79.8,259,70.6,254.8,63.5z"/>
	</g>
</g>
<g>
	<g>
		<path class="st0" d="M-142.4,73l-26-15c-7.2-4.1-16.3-1.7-20.5,5.5c-4.1,7.2-1.7,16.3,5.5,20.5c28.3,16.4,28.3,17,33.5,17
			c5.2,0,10.2-2.7,13-7.5C-132.7,86.3-135.2,77.1-142.4,73z"/>
	</g>
</g>
<g>
	<g>
		<path class="st0" d="M249.3,298l-26-15c-7.2-4.1-16.3-1.7-20.5,5.5c-4.1,7.2-1.7,16.3,5.5,20.5l26,15c7.2,4.1,16.3,1.7,20.5-5.5
			C259,311.3,256.5,302.1,249.3,298z"/>
	</g>
</g>
<g id="XMLID_4_">
	<path id="XMLID_6_" class="st0" d="M88,253c-14.6-5.8-27.6-18.4-29.8-34.6c-0.1-0.9,0.6-2.1,1.5-2.7c0.6-0.4,1.1-0.7,1.7-1.1
		c2.9-1.8,5.7-4.3,8.5-6.6c2.6-2.6,5.3-5.1,7.6-8.1c9.5-12.6,16.4-29,15.5-45c-0.2-3.7-0.9-7.4-2-11c-0.2-0.8-0.4-1.4-0.6-2
		c-0.3-1.1-0.9-1.1-1.3-0.1c-0.2,0.5-0.5,1.2-0.8,1.9c-0.4,1.2-1.1,2.6-1.9,4.1c-5.2,9.1-19.7,27.2-32.3,23.8
		c-3.1-0.8-5-5.5-6.9-7.9c-5.5-6.9-12.3-12.9-19.9-17.4c-13.5-8-32.1-12.2-47.4-7.4c-0.8,0.2-1.4,0.4-2,0.6c-1.3,0.4-2,0.6-2,0.6
		s1.4,0.5,3.8,1.5c1.2,0.4,2.6,1.1,4.1,1.9c6.6,3.8,12.4,8.3,16.8,14.6c3.8,5.3,11.4,16.4,3.8,21.1c-18.1,11.2-32.3,34.3-31.4,56
		c0.1,1.3,0.1,2.5,0.2,3.8c0,2.3,0.4,4.5,0.7,6.4c0.3,1.8,0.6,3.4,1,4.7c0.2,0.8,0.4,1.4,0.6,2c0.3,1.1,0.9,1.1,1.3,0.1
		c0.2-0.5,0.5-1.2,0.8-1.9c0.4-1.2,1.1-2.6,1.9-4.1c0.8-1.5,1.7-3.2,2.9-4.9c4.1-5.5,9-10.4,14.8-13.9c3.1-1.8,14-7.9,16.9-3.5
		c11.2,17.2,28.3,29.1,48.6,32.4c1.5,0.3,3,0.5,4.5,0.5c1.4,0.1,2.7,0.2,4.1,0.2c1.3-0.1,2.5-0.1,3.8-0.2c2.3,0,4.5-0.4,6.4-0.7
		c1.8-0.2,3.4-0.6,4.7-1c0.8-0.2,1.4-0.4,2-0.6C89,253.9,89,253.4,88,253z M32.8,208.5c-6.3,0-11.4-5-11.7-11.2
		c0-0.2-0.1-0.4-0.1-0.6c0-6.5,5.3-11.8,11.8-11.8c6.3,0,11.4,4.9,11.7,11.2c0,0.2,0.1,0.4,0.1,0.6
		C44.6,203.2,39.4,208.5,32.8,208.5z"/>
</g>
</svg>
