<?xml version="1.0" encoding="utf-8"?>
<!-- Generator: Adobe Illustrator 19.0.0, SVG Export Plug-In . SVG Version: 6.00 Build 0)  -->
<svg version="1.1" id="Capa_1" xmlns="http://www.w3.org/2000/svg" xmlns:xlink="http://www.w3.org/1999/xlink" x="0px" y="0px"
	 viewBox="-135 -25 688 611" style="enable-background:new -135 -25 688 611;" xml:space="preserve">
<style type="text/css">
	.st0{fill:#290D75;}
	.st1{opacity:0.26;}
	.st2{fill:#63E7FF;}
	.st3{opacity:0.35;fill:#63E7FF;enable-background:new    ;}
	.st4{opacity:0.26;fill:#63E7FF;enable-background:new    ;}
	.st5{opacity:0.35;}
	.st6{fill:url(#XMLID_16_);}
	.st7{fill:url(#XMLID_17_);}
	.st8{fill:url(#XMLID_18_);}
	.st9{opacity:0.79;fill:url(#XMLID_19_);enable-background:new    ;}
	.st10{fill:url(#XMLID_20_);}
	.st11{opacity:0.77;fill:url(#XMLID_21_);enable-background:new    ;}
</style>
<g id="XMLID_4_">
	<path id="XMLID_5_" class="st0" d="M245.3,300.6c-11.7-27.2-12.3-61.1,6.3-85.5c1-1.4,3.6-2,5.7-1.6c1.2,0.3,2.5,0.5,3.7,0.8
		c6.3,1.5,13.3,1.8,20,2.5c7,0,13.9,0.2,20.9-0.7c29.3-4,60.3-16.7,80.4-39.4c4.6-5.2,8.7-11,12-17.3c0.7-1.3,1.4-2.4,1.9-3.3
		c1-1.8,0.3-2.7-1.6-1.8c-1,0.4-2.1,0.9-3.5,1.5c-2.1,1-4.8,2-8,2.9c-19,5.2-62.2,10-74.6-11.3c-3-5.1,0.7-14,1.4-19.6
		c1.9-16.5,0.8-33.6-3.4-49.7c-7.4-28.5-26.5-58.8-53.2-72.9c-1.3-0.7-2.4-1.4-3.3-1.9c-2.1-1.2-3.3-1.9-3.3-1.9s1.1,2.5,3,7
		c1,2.1,2,4.8,2.9,8c3.8,13.8,5.4,27.6,3,41.8c-2.1,12.1-6.6,36.9-23,33.1c-38.9-9.1-88.5,2.6-116.2,32.8c-1.7,1.8-3.2,3.5-4.8,5.2
		c-3.1,3.2-5.4,6.5-7.5,9.4c-2.1,2.8-3.7,5.3-4.9,7.6c-0.7,1.3-1.4,2.4-1.9,3.3c-1,1.9-0.3,2.7,1.6,1.8c1-0.4,2.1-0.9,3.5-1.5
		c2.1-1,4.8-2,8-2.9c3.1-1,6.5-2,10.3-2.6c12.6-1.9,25.7-1.9,38.2,1.2c6.6,1.6,29.2,8.1,27.2,17.8c-8,37.7-1,76.2,21.6,107.7
		c1.7,2.4,3.4,4.6,5.3,6.6c1.7,1.9,3.4,3.8,5.1,5.7c1.8,1.6,3.5,3.2,5.2,4.8c3.2,3.1,6.5,5.4,9.4,7.5c2.8,2.1,5.3,3.7,7.6,4.9
		c1.3,0.7,2.4,1.4,3.3,1.9C245.3,303.2,246.1,302.5,245.3,300.6z M231.1,168.3c-8.4-8.4-8.5-21.7-0.7-30.4c0.2-0.3,0.4-0.6,0.7-0.9
		c8.6-8.6,22.6-8.6,31.2,0c8.4,8.4,8.5,21.7,0.7,30.4c-0.3,0.3-0.4,0.6-0.7,0.9C253.8,177,239.8,177,231.1,168.3z"/>
</g>
<g id="XMLID_8_" class="st1">
	<path id="XMLID_12_" class="st2" d="M215.4,297.2c-6-29,0.3-62.3,23.5-82.4c1.3-1.1,4-1.3,5.9-0.4c1.1,0.5,2.3,1,3.5,1.5
		c5.9,2.7,12.6,4.5,19.1,6.5c6.8,1.4,13.6,3,20.7,3.5c29.5,2,62.4-4.2,86.7-22.3c5.6-4.2,10.7-9,15.3-14.5c1-1.1,1.8-2.1,2.5-2.9
		c1.4-1.6,0.9-2.5-1.2-2.1c-1,0.2-2.3,0.5-3.7,0.8c-2.3,0.6-5.1,1-8.4,1.2c-19.7,1.3-62.9-2.8-70.7-26.1c-1.9-5.6,3.5-13.6,5.3-18.9
		c5.2-15.8,7.6-32.7,6.8-49.3c-1.5-29.5-14.1-62.9-37.4-82.2c-1.1-1-2.1-1.8-2.9-2.5c-1.8-1.6-2.9-2.5-2.9-2.5s0.6,2.7,1.5,7.4
		c0.5,2.3,1,5.1,1.2,8.4c0.9,14.3-0.3,28.1-5.6,41.5c-4.5,11.4-14,34.8-29.2,27.7c-36.3-16.8-87.2-15.3-120.4,8.6
		c-2,1.4-3.9,2.8-5.7,4.1c-3.7,2.5-6.6,5.3-9.2,7.7c-2.6,2.3-4.7,4.5-6.3,6.4c-1,1.1-1.8,2.1-2.5,2.9c-1.4,1.6-0.9,2.5,1.2,2.1
		c1-0.2,2.3-0.5,3.7-0.8c2.3-0.5,5.1-1,8.4-1.2c3.2-0.3,6.7-0.7,10.6-0.5c12.8,0.7,25.6,3.3,37.1,8.9c6.1,2.9,27,13.8,23,22.9
		c-15.4,35.3-16.4,74.4-0.7,109.8c1.2,2.7,2.4,5.2,3.9,7.5c1.3,2.3,2.6,4.5,3.8,6.6c1.4,2,2.8,3.9,4.1,5.7c2.5,3.6,5.3,6.6,7.7,9.2
		c2.3,2.6,4.5,4.7,6.4,6.3c1.1,1,2.1,1.8,2.9,2.5C214.9,299.8,215.8,299.3,215.4,297.2z M228.3,164.8c-6.5-9.9-4-23,5.5-29.9
		c0.3-0.2,0.6-0.5,0.9-0.7c10.2-6.7,23.9-3.9,30.6,6.3c6.5,9.9,4,23-5.5,29.9c-0.3,0.2-0.6,0.5-0.9,0.7
		C248.7,177.8,235,175,228.3,164.8z"/>
</g>
<g id="XMLID_288_">
	<g id="XMLID_257_">
		<path id="XMLID_284_" class="st3" d="M184.8,90.5c-9.3,4.2-34.4,295.1,358.2,260.4c0,0-263.5,115-407.4-51.5
			C-15.9,124.1,184.8,90.5,184.8,90.5z"/>
		<path id="XMLID_283_" class="st4" d="M189.6,155.5c0,0-4.7,4.2-4.5,10.1c1.6,46.3,12.7,239.1,357.8,185.3
			C543,350.9,285.5,357.1,189.6,155.5z"/>
	</g>
</g>
<path id="XMLID_347_" class="st2" d="M181.9,131.8l5.3,9.7c0.1,0.2,0.3,0.4,0.5,0.5l9.7,5.3c1,0.5,1,1.9,0,2.4l-9.7,5.3
	c-0.2,0.1-0.4,0.3-0.5,0.5l-5.3,9.7c-0.5,1-1.9,1-2.4,0l-5.3-9.7c-0.1-0.2-0.3-0.4-0.5-0.5l-9.7-5.3c-1-0.5-1-1.9,0-2.4l9.7-5.3
	c0.2-0.1,0.4-0.3,0.5-0.5l5.3-9.7C180,130.8,181.4,130.8,181.9,131.8z"/>
<path id="XMLID_9_" class="st2" d="M136.8,123.6l3.6,6.5c0.1,0.2,0.2,0.3,0.4,0.4l6.5,3.6c0.6,0.4,0.6,1.3,0,1.6l-6.5,3.6
	c-0.2,0.1-0.3,0.2-0.4,0.4l-3.6,6.5c-0.4,0.6-1.3,0.6-1.6,0l-3.6-6.5c-0.1-0.2-0.2-0.3-0.4-0.4l-6.5-3.6c-0.6-0.4-0.6-1.3,0-1.6
	l6.5-3.6c0.2-0.1,0.3-0.2,0.4-0.4l3.6-6.5C135.5,122.9,136.4,122.9,136.8,123.6z"/>
<path id="XMLID_11_" class="st2" d="M173.1,241.1l5.3,9.7c0.1,0.2,0.3,0.4,0.5,0.5l9.7,5.3c1,0.5,1,1.9,0,2.4l-9.7,5.3
	c-0.2,0.1-0.4,0.3-0.5,0.5l-5.3,9.7c-0.5,1-1.9,1-2.4,0l-5.3-9.7c-0.1-0.2-0.3-0.4-0.5-0.5l-9.7-5.3c-1-0.5-1-1.9,0-2.4l9.7-5.3
	c0.2-0.1,0.4-0.3,0.5-0.5l5.3-9.7C171.2,240.2,172.6,240.2,173.1,241.1z"/>
<path id="XMLID_356_" class="st2" d="M235.5,173l6.9,12.6c0.2,0.3,0.4,0.5,0.7,0.7l12.6,6.9c1.2,0.7,1.2,2.5,0,3.1l-12.6,6.9
	c-0.3,0.2-0.5,0.4-0.7,0.7l-6.9,12.6c-0.7,1.2-2.5,1.2-3.1,0l-6.9-12.6c-0.2-0.3-0.4-0.5-0.7-0.7l-12.6-6.9c-1.2-0.7-1.2-2.5,0-3.1
	l12.6-6.9c0.3-0.2,0.5-0.4,0.7-0.7l6.9-12.6C233,171.8,234.8,171.8,235.5,173z"/>
<path id="XMLID_10_" class="st2" d="M78,173l6.9,12.6c0.2,0.3,0.4,0.5,0.7,0.7l12.6,6.9c1.2,0.7,1.2,2.5,0,3.1l-12.6,6.9
	c-0.3,0.2-0.5,0.4-0.7,0.7L78,216.5c-0.7,1.2-2.5,1.2-3.1,0L68,204c-0.2-0.3-0.4-0.5-0.7-0.7l-12.6-6.9c-1.2-0.7-1.2-2.5,0-3.1
	l12.6-6.9c0.3-0.2,0.5-0.4,0.7-0.7l6.9-12.6C75.5,171.8,77.3,171.8,78,173z"/>
<path id="XMLID_6_" class="st3" d="M246.8-1.2c0,0,281,128.3-343.3,575.8C-96.6,574.6,376,246.5,246.8-1.2z"/>
<g id="XMLID_731_" class="st5">
	
		<linearGradient id="XMLID_16_" gradientUnits="userSpaceOnUse" x1="231.8736" y1="137.3015" x2="231.8736" y2="558.3604" gradientTransform="matrix(0.4058 8.274066e-002 -0.121 0.5936 147.7949 -21.7057)">
		<stop  offset="0" style="stop-color:#2194FF;stop-opacity:0"/>
		<stop  offset="0.3902" style="stop-color:#218FFF;stop-opacity:0.6251"/>
		<stop  offset="0.6242" style="stop-color:#2189FF"/>
		<stop  offset="0.6654" style="stop-color:#2184FF;stop-opacity:0.8904"/>
		<stop  offset="0.8631" style="stop-color:#2171FF;stop-opacity:0.3642"/>
		<stop  offset="1" style="stop-color:#216AFF;stop-opacity:0"/>
	</linearGradient>
	<path id="XMLID_15_" class="st6" d="M269.9,94.8c3.1-1.5,6.2-3.1,9.3-4.8c13.3,76-35.6,182.2-151.6,229.4c-5.8-1.9-11.4-4-17-6.2
		C227.9,272.3,280.2,169.4,269.9,94.8z"/>
	
		<linearGradient id="XMLID_17_" gradientUnits="userSpaceOnUse" x1="173.0879" y1="65.1503" x2="173.0879" y2="651.3947" gradientTransform="matrix(0.4058 8.274066e-002 -0.121 0.5936 147.7949 -21.7057)">
		<stop  offset="0" style="stop-color:#2194FF;stop-opacity:0"/>
		<stop  offset="0.33" style="stop-color:#218FFF;stop-opacity:0.6251"/>
		<stop  offset="0.5279" style="stop-color:#2189FF"/>
		<stop  offset="0.5796" style="stop-color:#2184FF;stop-opacity:0.8904"/>
		<stop  offset="0.828" style="stop-color:#2171FF;stop-opacity:0.3642"/>
		<stop  offset="1" style="stop-color:#216AFF;stop-opacity:0"/>
	</linearGradient>
	<path id="XMLID_14_" class="st7" d="M278.8,50.6c1.6-1.4,3.2-2.8,4.8-4.3c23.5,49.5,21.7,119.9-17.9,183.7
		C227,293.3,150.4,349.9,46,360.3c-4-2.2-8-4.4-11.9-6.7c104.6-6.6,182.2-60.7,222.3-122.2C297.4,169.3,300.9,99.7,278.8,50.6z"/>
	
		<linearGradient id="XMLID_18_" gradientUnits="userSpaceOnUse" x1="158.1107" y1="61.2671" x2="158.1107" y2="624.2972" gradientTransform="matrix(0.4058 8.274066e-002 -0.121 0.5936 147.7949 -21.7057)">
		<stop  offset="0" style="stop-color:#21FFFF;stop-opacity:0"/>
		<stop  offset="0.1673" style="stop-color:#21FAFF;stop-opacity:0.317"/>
		<stop  offset="0.3592" style="stop-color:#21ECFF;stop-opacity:0.6805"/>
		<stop  offset="0.5279" style="stop-color:#21DAFF"/>
		<stop  offset="0.6268" style="stop-color:#21E5FF;stop-opacity:0.7904"/>
		<stop  offset="0.8473" style="stop-color:#21F8FF;stop-opacity:0.3234"/>
		<stop  offset="1" style="stop-color:#21FFFF;stop-opacity:0"/>
	</linearGradient>
	<path id="XMLID_13_" class="st8" d="M261.6,46.7c2.5-1.8,4.9-3.8,7.3-5.9c24.9,45.1,26.4,111.9-8.8,173.7
		c-34.3,61.4-105.4,117.8-204.5,130.9c-6.1-3.3-12-6.7-17.9-10.3c99.4-7.5,172.2-60.1,208.6-118.9
		C283.4,156.9,284.4,91.4,261.6,46.7z"/>
	
		<linearGradient id="XMLID_19_" gradientUnits="userSpaceOnUse" x1="251.0303" y1="34.1295" x2="251.0303" y2="639.9224" gradientTransform="matrix(0.4058 8.274066e-002 -0.121 0.5936 147.7949 -21.7057)">
		<stop  offset="0" style="stop-color:#21FFFF;stop-opacity:0"/>
		<stop  offset="0.1673" style="stop-color:#21FAFF;stop-opacity:0.317"/>
		<stop  offset="0.3592" style="stop-color:#21ECFF;stop-opacity:0.6805"/>
		<stop  offset="0.5279" style="stop-color:#21DAFF"/>
		<stop  offset="0.6268" style="stop-color:#21E5FF;stop-opacity:0.7904"/>
		<stop  offset="0.8473" style="stop-color:#21F8FF;stop-opacity:0.3234"/>
		<stop  offset="1" style="stop-color:#21FFFF;stop-opacity:0"/>
	</linearGradient>
	<path id="XMLID_7_" class="st9" d="M281.1,28.3c0.4-0.5,0.8-1,1.3-1.5c29.3,45.8,36.1,115,5.5,181.7
		c-29.8,66.3-97.1,130.1-195.2,154.1c-1.2-0.5-2.5-1-3.7-1.5c98.2-22.9,165.9-86.1,196.2-151.9C316.3,143,309.9,74.1,281.1,28.3z"/>
	
		<linearGradient id="XMLID_20_" gradientUnits="userSpaceOnUse" x1="239.2318" y1="103.2848" x2="239.2318" y2="629.0479" gradientTransform="matrix(0.4058 8.274066e-002 -0.121 0.5936 147.7949 -21.7057)">
		<stop  offset="0" style="stop-color:#F7931E;stop-opacity:0"/>
		<stop  offset="0.5279" style="stop-color:#FF931E"/>
		<stop  offset="0.5725" style="stop-color:#FE931E;stop-opacity:0.9054"/>
		<stop  offset="1" style="stop-color:#F7931E;stop-opacity:0"/>
	</linearGradient>
	<path id="XMLID_3_" class="st10" d="M292.5,77.1c1.9-1.4,3.7-2.8,5.6-4.3c12.6,47.3,5.3,106.4-28.1,160.4
		c-33,53.8-92.2,102.6-172.7,123.7c-4.1-1.6-8.1-3.2-12.1-5C166,333.7,226.2,287,260.4,234.7C295.1,182.1,303.8,124,292.5,77.1z"/>
	
		<linearGradient id="XMLID_21_" gradientUnits="userSpaceOnUse" x1="72.8587" y1="128.6272" x2="72.8587" y2="612.6922" gradientTransform="matrix(0.4058 8.274066e-002 -0.121 0.5936 147.7949 -21.7057)">
		<stop  offset="0" style="stop-color:#FF00A1;stop-opacity:0"/>
		<stop  offset="0.1505" style="stop-color:#FF0DA4;stop-opacity:0.285"/>
		<stop  offset="0.4297" style="stop-color:#FF30AB;stop-opacity:0.8141"/>
		<stop  offset="0.5279" style="stop-color:#FF3EAE"/>
		<stop  offset="0.5512" style="stop-color:#FF3AAD;stop-opacity:0.9507"/>
		<stop  offset="0.7359" style="stop-color:#FF1AA6;stop-opacity:0.5593"/>
		<stop  offset="0.8921" style="stop-color:#FF07A2;stop-opacity:0.2286"/>
		<stop  offset="1" style="stop-color:#FF00A1;stop-opacity:0"/>
	</linearGradient>
	<path id="XMLID_2_" class="st11" d="M264.3,82.4c0.4-0.2,0.8-0.4,1.2-0.6c10.3,48.7-4.9,111.1-52,161.9
		c-46.3,50.4-124.6,89-223.5,81.3c-0.8-0.6-1.6-1.3-2.4-1.9c98.8,8.6,177.2-29.5,223.8-79.5C258.8,193.2,274.3,131,264.3,82.4z"/>
</g>
</svg>
