<?xml version="1.0" encoding="utf-8"?>
<!-- Generator: Adobe Illustrator 19.0.0, SVG Export Plug-In . SVG Version: 6.00 Build 0)  -->
<svg version="1.1" id="Capa_1" xmlns="http://www.w3.org/2000/svg" xmlns:xlink="http://www.w3.org/1999/xlink" x="0px" y="0px"
	 viewBox="0 0 960 230" style="enable-background:new 0 0 960 230;" xml:space="preserve">
<style type="text/css">
	.st0{opacity:0.28;fill:#B1BFC3;}
	.st1{opacity:0.28;fill:url(#XMLID_62_);}
	.st2{opacity:0.28;}
	.st3{fill:#B1BFC3;}
</style>
<polygon id="XMLID_162_" class="st0" points="10,142.1 111.3,142.1 110.5,99.7 220.9,100.6 140.2,15.9 "/>
<linearGradient id="XMLID_62_" gradientUnits="userSpaceOnUse" x1="147.07" y1="140.8923" x2="357.9765" y2="140.8923">
	<stop  offset="0" style="stop-color:#6A8087"/>
	<stop  offset="1" style="stop-color:#899B9F"/>
</linearGradient>
<polygon id="XMLID_161_" class="st1" points="227.7,206.1 358,75.7 256.7,75.7 256.5,125.5 147.1,125.5 "/>
<g id="XMLID_2_" class="st2">
	<path id="XMLID_3_" class="st3" d="M467.4,49.7h-33.5v92.4h-18.5V49.7h-33.2V34.7h85.2V49.7z"/>
	<path id="XMLID_5_" class="st3" d="M508.4,143.6c-11.4,0-20.6-3.6-27.6-10.7c-7.1-7.2-10.6-16.7-10.6-28.6v-2.2
		c0-8,1.5-15.1,4.6-21.4c3.1-6.3,7.4-11.2,13-14.6c5.6-3.5,11.8-5.2,18.6-5.2c10.9,0,19.3,3.5,25.2,10.4c5.9,6.9,8.9,16.8,8.9,29.4
		v7.2h-52.2c0.5,6.6,2.7,11.8,6.6,15.6s8.7,5.8,14.6,5.8c8.2,0,14.9-3.3,20.1-10l9.7,9.2c-3.2,4.8-7.5,8.5-12.8,11.1
		C521,142.3,515,143.6,508.4,143.6z M506.2,75.2c-4.9,0-8.9,1.7-11.9,5.2c-3,3.4-5,8.2-5.8,14.4h34.2v-1.3c-0.4-6-2-10.5-4.8-13.6
		C515.1,76.7,511.2,75.2,506.2,75.2z"/>
	<path id="XMLID_8_" class="st3" d="M587.1,129.3c4.5,0,8.2-1.3,11.1-3.9c3-2.6,4.5-5.8,4.7-9.7h16.9c-0.2,5-1.7,9.6-4.7,13.9
		c-2.9,4.3-6.8,7.7-11.8,10.2c-5,2.5-10.3,3.8-16.1,3.8c-11.2,0-20-3.6-26.6-10.8c-6.5-7.2-9.8-17.2-9.8-30V101
		c0-12.2,3.2-21.9,9.7-29.2c6.5-7.3,15.4-11,26.6-11c9.5,0,17.2,2.8,23.2,8.3c6,5.5,9.1,12.8,9.4,21.8H603
		c-0.2-4.6-1.8-8.3-4.7-11.3c-2.9-3-6.7-4.4-11.2-4.4c-5.8,0-10.3,2.1-13.4,6.3c-3.1,4.2-4.8,10.6-4.8,19.2v2.9
		c0,8.7,1.6,15.1,4.7,19.4C576.7,127.2,581.2,129.3,587.1,129.3z"/>
	<path id="XMLID_10_" class="st3" d="M650.1,62.3l0.5,9.2c5.9-7.1,13.7-10.7,23.2-10.7c16.6,0,25.1,9.5,25.4,28.6v52.8h-17.9V90.4
		c0-5.1-1.1-8.8-3.3-11.3c-2.2-2.4-5.8-3.7-10.7-3.7c-7.2,0-12.6,3.3-16.2,9.8v56.8h-17.9V62.3H650.1z"/>
	<path id="XMLID_12_" class="st3" d="M717.5,41.5c0-2.8,0.9-5.1,2.6-6.9c1.7-1.8,4.2-2.8,7.5-2.8c3.2,0,5.8,0.9,7.5,2.8
		c1.8,1.8,2.7,4.1,2.7,6.9c0,2.7-0.9,5-2.7,6.8c-1.8,1.8-4.3,2.7-7.5,2.7c-3.2,0-5.7-0.9-7.5-2.7C718.4,46.5,717.5,44.2,717.5,41.5z
		 M736.5,142.1h-17.9V62.3h17.9V142.1z"/>
	<path id="XMLID_15_" class="st3" d="M772.7,62.3l0.5,9.2c5.9-7.1,13.7-10.7,23.2-10.7c16.6,0,25.1,9.5,25.4,28.6v52.8h-17.9V90.4
		c0-5.1-1.1-8.8-3.3-11.3c-2.2-2.4-5.8-3.7-10.7-3.7c-7.2,0-12.6,3.3-16.2,9.8v56.8h-17.9V62.3H772.7z"/>
	<path id="XMLID_17_" class="st3" d="M858.8,62.3v86.9c0,8.2-2,14.4-6.1,18.7c-4.1,4.3-10,6.5-17.8,6.5c-3.3,0-6.5-0.4-9.5-1.3V159
		c1.9,0.4,4,0.7,6.3,0.7c6,0,9-3.2,9.2-9.7V62.3H858.8z M839.4,41.5c0-2.8,0.9-5.1,2.6-6.9c1.7-1.8,4.2-2.8,7.5-2.8
		c3.2,0,5.8,0.9,7.5,2.8c1.8,1.8,2.7,4.1,2.7,6.9c0,2.7-0.9,5-2.7,6.8c-1.8,1.8-4.3,2.7-7.5,2.7c-3.2,0-5.7-0.9-7.5-2.7
		C840.2,46.5,839.4,44.2,839.4,41.5z"/>
	<path id="XMLID_20_" class="st3" d="M925.7,142.1c-0.8-1.5-1.5-4-2.1-7.5c-5.7,6-12.7,8.9-21,8.9c-8,0-14.6-2.3-19.6-6.9
		c-5.1-4.6-7.6-10.2-7.6-17c0-8.5,3.2-15,9.5-19.6c6.3-4.6,15.4-6.8,27.1-6.8h11v-5.2c0-4.1-1.2-7.4-3.5-9.9
		c-2.3-2.5-5.8-3.7-10.6-3.7c-4.1,0-7.4,1-10,3.1c-2.6,2-3.9,4.6-3.9,7.8h-17.9c0-4.4,1.5-8.5,4.4-12.3c2.9-3.8,6.9-6.8,11.8-9
		c5-2.2,10.6-3.2,16.7-3.2c9.3,0,16.8,2.3,22.4,7c5.6,4.7,8.4,11.3,8.6,19.8v36c0,7.2,1,12.9,3,17.2v1.3H925.7z M906,129.2
		c3.5,0,6.9-0.9,10-2.6c3.1-1.7,5.5-4,7-6.9v-15.1h-9.7c-6.6,0-11.6,1.2-15,3.5c-3.3,2.3-5,5.6-5,9.8c0,3.4,1.1,6.2,3.4,8.2
		C899.1,128.2,902.2,129.2,906,129.2z"/>
</g>
</svg>
