<?xml version="1.0" encoding="utf-8"?>
<!-- Generator: Adobe Illustrator 19.0.0, SVG Export Plug-In . SVG Version: 6.00 Build 0)  -->
<svg version="1.1" id="Capa_1" xmlns="http://www.w3.org/2000/svg" xmlns:xlink="http://www.w3.org/1999/xlink" x="0px" y="0px"
	 viewBox="0 0 500 500" style="enable-background:new 0 0 500 500;" xml:space="preserve">
<style type="text/css">
	.st0{fill:#3A4056;}
	.st1{fill:#FF9B2B;}
</style>
<g id="XMLID_1_">
	<path id="XMLID_370_" class="st0" d="M470.9,476.8c-59.1-23.5-111.6-74.1-120.3-139.6c-0.5-3.6,2.4-8.6,6.1-11.1
		c2.3-1.5,4.5-2.9,6.8-4.4c11.9-7.4,22.9-17.4,34.2-26.7c10.6-10.6,21.5-20.8,30.7-32.9c38.4-50.7,66.2-117,62.4-182
		c-0.9-15-3.4-29.9-8-44.5c-0.8-3.1-1.6-5.7-2.2-7.9c-1.2-4.4-3.6-4.5-5.2-0.4c-0.8,2.1-1.8,4.7-3,7.6c-1.7,4.7-4.3,10.3-7.7,16.4
		c-21,36.9-79.4,109.7-130.5,96.2c-12.4-3.3-20.2-22.4-27.8-31.9c-22.3-28-49.8-52.2-80.6-70.4C171.3,13,96.3-3.9,34.2,15.3
		c-3.1,0.8-5.7,1.6-7.9,2.2c-5,1.4-7.9,2.2-7.9,2.2s5.5,2.2,15.2,6c4.7,1.7,10.3,4.3,16.4,7.8c26.8,15.2,50.1,33.7,68,59.1
		c15.2,21.5,46,66.1,15.2,85.2C60.3,223.1,2.7,316.3,6.4,404.2c0.2,5.2,0.4,10.3,0.6,15.2c0.2,9.5,1.6,18.2,2.9,25.6
		c1,7.5,2.4,13.8,4,19c0.8,3.1,1.6,5.7,2.2,7.9c1.2,4.4,3.6,4.5,5.2,0.4c0.8-2.1,1.8-4.7,3-7.6c1.7-4.7,4.3-10.3,7.8-16.4
		c3.2-6.1,6.7-12.9,11.7-19.6c16.3-22.1,36.2-42,59.8-56.2c12.5-7.5,56.7-32.1,68.3-14.3c45.2,69.4,114.3,117.4,196.4,130.9
		c6.2,1,12.2,1.8,18.1,1.9c5.6,0.3,11.1,0.6,16.3,0.9c5.2-0.2,10.3-0.4,15.2-0.6c9.5-0.2,18.1-1.6,25.6-2.9c7.5-1,13.8-2.4,19-4
		c3.1-0.8,5.7-1.6,7.9-2.2C474.9,480.8,475.1,478.5,470.9,476.8z"/>
	<g id="XMLID_144_">
		<g id="c1_ray_1_">
			<polygon id="XMLID_145_" class="st1" points="328.4,88.4 152.2,263.5 217.6,263.5 167.4,396.4 347.8,221.2 282.4,221.2 			"/>
		</g>
		<g id="Capa_1_2_">
		</g>
	</g>
</g>
</svg>
