<?xml version="1.0" encoding="utf-8"?>
<!-- Generator: Adobe Illustrator 19.0.0, SVG Export Plug-In . SVG Version: 6.00 Build 0)  -->
<svg version="1.1" id="Capa_1" xmlns="http://www.w3.org/2000/svg" xmlns:xlink="http://www.w3.org/1999/xlink" x="0px" y="0px"
	 viewBox="-404 235.3 150 104.8" style="enable-background:new -404 235.3 150 104.8;" xml:space="preserve">
<style type="text/css">
	.st0{fill:#28265E;}
	.st1{opacity:0.71;}
	.st2{fill:url(#XMLID_2_);}
	.st3{opacity:0.48;}
	.st4{fill:#580056;}
	.st5{opacity:0.42;}
	.st6{fill:url(#XMLID_3_);}
	.st7{fill:url(#XMLID_4_);}
	.st8{fill:url(#XMLID_5_);}
	.st9{opacity:0.79;fill:url(#XMLID_6_);enable-background:new    ;}
	.st10{fill:url(#XMLID_7_);}
	.st11{opacity:0.77;fill:url(#XMLID_8_);enable-background:new    ;}
</style>
<g id="XMLID_34_">
	<g id="c1_ray_1_">
		<polygon id="XMLID_37_" class="st0" points="-321.4,263.1 -365.4,306.9 -349,306.9 -361.6,340.1 -316.5,296.3 -332.9,296.3 		"/>
	</g>
	<g id="Capa_1_1_">
	</g>
</g>
<g id="XMLID_93_" class="st1">
	<g id="c1_ray_2_">
		
			<linearGradient id="XMLID_2_" gradientUnits="userSpaceOnUse" x1="-371.9" y1="262.1" x2="-323.1" y2="262.1" gradientTransform="matrix(1 0 0 -1 0 564)">
			<stop  offset="0" style="stop-color:#21FFFF;stop-opacity:0"/>
			<stop  offset="0.1673" style="stop-color:#21FAFF;stop-opacity:0.317"/>
			<stop  offset="0.3592" style="stop-color:#21ECFF;stop-opacity:0.6805"/>
			<stop  offset="0.5279" style="stop-color:#21DAFF"/>
			<stop  offset="0.6268" style="stop-color:#21E5FF;stop-opacity:0.7904"/>
			<stop  offset="0.8473" style="stop-color:#21F8FF;stop-opacity:0.3234"/>
			<stop  offset="1" style="stop-color:#21FFFF;stop-opacity:0"/>
		</linearGradient>
		<polygon id="XMLID_118_" class="st2" points="-327.9,263.4 -371.9,307.2 -355.6,307.2 -368.1,340.4 -323.1,296.6 -339.4,296.6 		
			"/>
	</g>
	<g id="Capa_1_2_">
	</g>
</g>
<g id="XMLID_119_" class="st3">
	<g id="c1_ray_3_">
		<polygon id="XMLID_146_" class="st4" points="-323.4,263.1 -367.5,306.9 -351.1,306.9 -363.7,340.1 -318.6,296.3 -334.9,296.3 		
			"/>
	</g>
	<g id="Capa_1_3_">
	</g>
</g>
<g id="XMLID_731_" class="st5">
	
		<linearGradient id="XMLID_3_" gradientUnits="userSpaceOnUse" x1="1284.6755" y1="962.1877" x2="1284.6755" y2="810.4934" gradientTransform="matrix(-0.101 -0.6285 0.4099 -6.590649e-002 -559.5189 1161.473)">
		<stop  offset="0" style="stop-color:#2194FF;stop-opacity:0"/>
		<stop  offset="0.3902" style="stop-color:#218FFF;stop-opacity:0.6251"/>
		<stop  offset="0.6242" style="stop-color:#2189FF"/>
		<stop  offset="0.6654" style="stop-color:#2184FF;stop-opacity:0.8904"/>
		<stop  offset="0.8631" style="stop-color:#2171FF;stop-opacity:0.3642"/>
		<stop  offset="1" style="stop-color:#216AFF;stop-opacity:0"/>
	</linearGradient>
	<path id="XMLID_33_" class="st6" d="M-297,285.1c-0.1-3.7-0.4-7.4-0.7-11c-9.3,15.5-19.8,24.9-29.5,29.7
		c-9.8,4.8-18.9,5.1-26.2,3.4c-0.5,2-1,4.1-1.7,6.1c7.5,2.2,16.8,2.6,26.9-1.3C-318.1,308-307.1,299.6-297,285.1z"/>
	
		<linearGradient id="XMLID_4_" gradientUnits="userSpaceOnUse" x1="1322.9353" y1="986.1688" x2="1322.9353" y2="798.1421" gradientTransform="matrix(-0.101 -0.6285 0.4099 -6.590649e-002 -559.5189 1161.473)">
		<stop  offset="0" style="stop-color:#2194FF;stop-opacity:0"/>
		<stop  offset="0.33" style="stop-color:#218FFF;stop-opacity:0.6251"/>
		<stop  offset="0.5279" style="stop-color:#2189FF"/>
		<stop  offset="0.5796" style="stop-color:#2184FF;stop-opacity:0.8904"/>
		<stop  offset="0.828" style="stop-color:#2171FF;stop-opacity:0.3642"/>
		<stop  offset="1" style="stop-color:#216AFF;stop-opacity:0"/>
	</linearGradient>
	<path id="XMLID_32_" class="st7" d="M-292.1,245.8c-0.6-2.4-1.2-4.8-1.8-7.1c-9.4,29.7-23.8,46.4-36.7,53.5
		c-13,7.3-24.6,4.8-31.8,0.8c-0.2,1.2-0.4,2.4-0.6,3.6c7.4,4.1,19,7.1,32.3,0.5C-317.5,290.7-302.5,274.9-292.1,245.8z"/>
	
		<linearGradient id="XMLID_5_" gradientUnits="userSpaceOnUse" x1="1310.4958" y1="997.7829" x2="1310.4958" y2="794.812" gradientTransform="matrix(-0.101 -0.6285 0.4099 -6.590649e-002 -559.5189 1161.473)">
		<stop  offset="0" style="stop-color:#21FFFF;stop-opacity:0"/>
		<stop  offset="0.1673" style="stop-color:#21FAFF;stop-opacity:0.317"/>
		<stop  offset="0.3592" style="stop-color:#21ECFF;stop-opacity:0.6805"/>
		<stop  offset="0.5279" style="stop-color:#21DAFF"/>
		<stop  offset="0.6268" style="stop-color:#21E5FF;stop-opacity:0.7904"/>
		<stop  offset="0.8473" style="stop-color:#21F8FF;stop-opacity:0.3234"/>
		<stop  offset="1" style="stop-color:#21FFFF;stop-opacity:0"/>
	</linearGradient>
	<path id="XMLID_29_" class="st8" d="M-285.7,255.6c-0.7-4.1-1.4-8.1-2.3-12.1c-10.2,30.6-25.3,48-39,55.5
		c-13.8,7.7-26.1,5.5-34.3,1.6c-0.4,1.9-1,3.8-1.6,5.7c8.4,4.3,20.9,7.3,35.2,0.8C-313.5,300.9-297.4,285.1-285.7,255.6z"/>
	
		<linearGradient id="XMLID_6_" gradientUnits="userSpaceOnUse" x1="1343.58" y1="990.5976" x2="1343.58" y2="808.4319" gradientTransform="matrix(-0.101 -0.6285 0.4099 -6.590649e-002 -559.5189 1161.473)">
		<stop  offset="0" style="stop-color:#21FFFF;stop-opacity:0"/>
		<stop  offset="0.1673" style="stop-color:#21FAFF;stop-opacity:0.317"/>
		<stop  offset="0.3592" style="stop-color:#21ECFF;stop-opacity:0.6805"/>
		<stop  offset="0.5279" style="stop-color:#21DAFF"/>
		<stop  offset="0.6268" style="stop-color:#21E5FF;stop-opacity:0.7904"/>
		<stop  offset="0.8473" style="stop-color:#21F8FF;stop-opacity:0.3234"/>
		<stop  offset="1" style="stop-color:#21FFFF;stop-opacity:0"/>
	</linearGradient>
	<path id="XMLID_28_" class="st9" d="M-293.9,223.1c-0.3-0.7-0.5-1.4-0.8-2.1c-7,32.2-20,52.4-32.5,62.1c-12.6,10-24.6,9.5-32.4,6.1
		c0,0.4,0,0.7-0.1,1.1c7.8,3.4,19.9,4,32.6-5.7C-314.5,275.1-301.2,255.2-293.9,223.1z"/>
	
		<linearGradient id="XMLID_7_" gradientUnits="userSpaceOnUse" x1="1318.4117" y1="965.3417" x2="1318.4117" y2="807.717" gradientTransform="matrix(-0.101 -0.6285 0.4099 -6.590649e-002 -559.5189 1161.473)">
		<stop  offset="0" style="stop-color:#F7931E;stop-opacity:0"/>
		<stop  offset="0.5279" style="stop-color:#FF931E"/>
		<stop  offset="0.5725" style="stop-color:#FE931E;stop-opacity:0.9054"/>
		<stop  offset="1" style="stop-color:#F7931E;stop-opacity:0"/>
	</linearGradient>
	<path id="XMLID_25_" class="st10" d="M-299.3,255.7c-0.5-2.3-1-4.5-1.5-6.7c-8.7,21.4-20.2,34.1-30.7,40
		c-10.6,6.1-20.4,5.5-27.3,2.7c-0.1,1.2-0.2,2.5-0.4,3.7c7,2.9,16.8,3.9,27.7-1.6C-320.7,288.5-308.7,276.6-299.3,255.7z"/>
	
		<linearGradient id="XMLID_8_" gradientUnits="userSpaceOnUse" x1="1275.8762" y1="970.1541" x2="1275.8762" y2="781.8164" gradientTransform="matrix(-0.101 -0.6285 0.4099 -6.590649e-002 -559.5189 1161.473)">
		<stop  offset="0" style="stop-color:#FF00A1;stop-opacity:0"/>
		<stop  offset="0.1505" style="stop-color:#FF0DA4;stop-opacity:0.285"/>
		<stop  offset="0.4297" style="stop-color:#FF30AB;stop-opacity:0.8141"/>
		<stop  offset="0.5279" style="stop-color:#FF3EAE"/>
		<stop  offset="0.5512" style="stop-color:#FF3AAD;stop-opacity:0.9507"/>
		<stop  offset="0.7359" style="stop-color:#FF1AA6;stop-opacity:0.5593"/>
		<stop  offset="0.8921" style="stop-color:#FF07A2;stop-opacity:0.2286"/>
		<stop  offset="1" style="stop-color:#FF00A1;stop-opacity:0"/>
	</linearGradient>
	<path id="XMLID_22_" class="st11" d="M-293,283.7c0-0.5,0-1.1-0.1-1.6c-13.6,21.6-29.2,31.2-42.4,33.7c-13.4,2.6-24.3-1.9-31.8-6.5
		c-0.1,0.2-0.2,0.5-0.4,0.7c7.6,4.6,18.6,9.2,32,6.8C-322.5,314.5-306.8,305.1-293,283.7z"/>
</g>
</svg>
